G04 #@! TF.FileFunction,Soldermask,Top*
%FSLAX46Y46*%
G04 Gerber Fmt 4.6, Leading zero omitted, Abs format (unit mm)*
G04 Created by KiCad (PCBNEW 4.0.7-e2-6376~58~ubuntu16.04.1) date Mon Jan 22 09:14:14 2018*
%MOMM*%
%LPD*%
G01*
G04 APERTURE LIST*
%ADD10C,0.100000*%
%ADD11C,1.524000*%
%ADD12R,1.600000X1.600000*%
%ADD13C,1.600000*%
%ADD14R,1.500000X1.250000*%
%ADD15R,1.250000X1.500000*%
%ADD16R,2.200000X2.200000*%
%ADD17O,2.200000X2.200000*%
%ADD18R,1.800000X1.800000*%
%ADD19C,1.800000*%
%ADD20R,1.700000X1.700000*%
%ADD21O,1.700000X1.700000*%
%ADD22C,3.000000*%
%ADD23C,2.600000*%
%ADD24R,1.524000X1.524000*%
%ADD25R,1.300000X1.500000*%
%ADD26R,1.500000X1.300000*%
%ADD27R,1.100000X1.800000*%
%ADD28R,1.400000X0.300000*%
%ADD29R,1.550000X0.600000*%
%ADD30R,1.500000X0.600000*%
G04 APERTURE END LIST*
D10*
D11*
X78530000Y-89020000D03*
X78530000Y-91560000D03*
X78530000Y-94100000D03*
X78530000Y-96640000D03*
X78530000Y-99180000D03*
X78530000Y-101720000D03*
X78530000Y-104260000D03*
X78530000Y-106800000D03*
X78530000Y-109340000D03*
X78530000Y-111880000D03*
X78530000Y-114420000D03*
X78530000Y-116960000D03*
X78530000Y-119500000D03*
X78530000Y-122040000D03*
X78530000Y-124580000D03*
X93770000Y-124580000D03*
X93770000Y-122040000D03*
X93770000Y-119500000D03*
X93770000Y-116960000D03*
X93770000Y-114420000D03*
X93770000Y-111880000D03*
X93770000Y-109340000D03*
X93770000Y-106800000D03*
X93770000Y-104260000D03*
X93770000Y-101720000D03*
X93770000Y-99180000D03*
X93770000Y-96640000D03*
X93770000Y-94100000D03*
X93770000Y-91560000D03*
X93770000Y-89020000D03*
D12*
X75300000Y-71650000D03*
D13*
X77300000Y-71650000D03*
D12*
X91400000Y-71650000D03*
D13*
X93400000Y-71650000D03*
D14*
X82700000Y-73900000D03*
X85200000Y-73900000D03*
X90450000Y-81200000D03*
X92950000Y-81200000D03*
D11*
X81510000Y-69250000D03*
X86590000Y-69250000D03*
D14*
X90400000Y-77850000D03*
X92900000Y-77850000D03*
D15*
X53400000Y-91900000D03*
X53400000Y-94400000D03*
X66050000Y-94400000D03*
X66050000Y-91900000D03*
X92950000Y-142550000D03*
X92950000Y-145050000D03*
X79850000Y-138650000D03*
X79850000Y-141150000D03*
X72300000Y-144950000D03*
X72300000Y-142450000D03*
X79900000Y-148100000D03*
X79900000Y-145600000D03*
D14*
X82200000Y-151650000D03*
X79700000Y-151650000D03*
X94000000Y-151650000D03*
X91500000Y-151650000D03*
X62550000Y-98100000D03*
X60050000Y-98100000D03*
D16*
X71650000Y-58800000D03*
D17*
X71650000Y-68960000D03*
D16*
X97050000Y-69000000D03*
D17*
X97050000Y-58840000D03*
D18*
X46400000Y-152800000D03*
D19*
X48940000Y-152800000D03*
D18*
X61750000Y-152800000D03*
D19*
X64290000Y-152800000D03*
D11*
X49254000Y-68950000D03*
X49254000Y-66410000D03*
X49254000Y-63870000D03*
X49254000Y-61330000D03*
X49254000Y-71490000D03*
X49254000Y-74030000D03*
X49254000Y-76570000D03*
X53318000Y-61330000D03*
X55858000Y-61330000D03*
X58398000Y-61330000D03*
X60938000Y-61330000D03*
X53318000Y-71490000D03*
X55858000Y-71490000D03*
X62970000Y-68950000D03*
X62970000Y-66410000D03*
X62970000Y-63870000D03*
X62970000Y-61330000D03*
X62970000Y-71490000D03*
X62970000Y-74030000D03*
X62970000Y-76570000D03*
D20*
X72200000Y-106950000D03*
D21*
X72200000Y-109490000D03*
D20*
X72200000Y-92700000D03*
D22*
X47650000Y-108400000D03*
D23*
X42730000Y-108400000D03*
X51030000Y-108400000D03*
X54130000Y-108400000D03*
D11*
X84050000Y-60730000D03*
X86590000Y-60730000D03*
X89130000Y-60730000D03*
X81510000Y-60730000D03*
X78970000Y-60730000D03*
D24*
X78970000Y-63270000D03*
D11*
X81510000Y-63270000D03*
X84050000Y-63270000D03*
X86590000Y-63270000D03*
X89130000Y-63270000D03*
D22*
X47650000Y-144400000D03*
D23*
X42730000Y-144400000D03*
X51030000Y-144400000D03*
X54130000Y-144400000D03*
D22*
X63050000Y-144400000D03*
D23*
X67970000Y-144400000D03*
X59670000Y-144400000D03*
X56570000Y-144400000D03*
D22*
X47650000Y-132400000D03*
D23*
X42730000Y-132400000D03*
X51030000Y-132400000D03*
X54130000Y-132400000D03*
D22*
X63050000Y-132400000D03*
D23*
X67970000Y-132400000D03*
X59670000Y-132400000D03*
X56570000Y-132400000D03*
D25*
X72200000Y-99100000D03*
X72200000Y-101800000D03*
X72200000Y-83800000D03*
X72200000Y-86500000D03*
D26*
X59950000Y-106250000D03*
X62650000Y-106250000D03*
X62650000Y-102150000D03*
X59950000Y-102150000D03*
D25*
X42350000Y-98200000D03*
X42350000Y-100900000D03*
X46050000Y-98200000D03*
X46050000Y-100900000D03*
D26*
X84700000Y-134150000D03*
X87400000Y-134150000D03*
D25*
X76050000Y-141350000D03*
X76050000Y-138650000D03*
D26*
X76300000Y-151650000D03*
X73600000Y-151650000D03*
D25*
X76000000Y-148300000D03*
X76000000Y-145600000D03*
D26*
X88000000Y-151650000D03*
X85300000Y-151650000D03*
D25*
X96050000Y-148850000D03*
X96050000Y-146150000D03*
X96050000Y-138400000D03*
X96050000Y-141100000D03*
D19*
X55150000Y-122940000D03*
X55150000Y-117860000D03*
D27*
X47650000Y-125200000D03*
X47650000Y-115600000D03*
D19*
X55150000Y-120400000D03*
D11*
X64320000Y-124210000D03*
X66860000Y-124210000D03*
X61780000Y-124210000D03*
X59240000Y-124210000D03*
X64320000Y-116590000D03*
D28*
X81800000Y-78100000D03*
X81800000Y-78600000D03*
X81800000Y-79100000D03*
X81800000Y-79600000D03*
X81800000Y-80100000D03*
X86200000Y-80100000D03*
X86200000Y-79600000D03*
X86200000Y-79100000D03*
X86200000Y-78600000D03*
X86200000Y-78100000D03*
D29*
X57000000Y-87495000D03*
X57000000Y-88765000D03*
X57000000Y-90035000D03*
X57000000Y-91305000D03*
X62400000Y-91305000D03*
X62400000Y-90035000D03*
X62400000Y-88765000D03*
X62400000Y-87495000D03*
D30*
X83675000Y-139415000D03*
X83675000Y-140685000D03*
X83675000Y-141955000D03*
X83675000Y-143225000D03*
X83675000Y-144495000D03*
X83675000Y-145765000D03*
X83675000Y-147035000D03*
X89075000Y-147035000D03*
X89075000Y-145765000D03*
X89075000Y-144495000D03*
X89075000Y-143225000D03*
X89075000Y-141955000D03*
X89075000Y-140685000D03*
X89075000Y-139415000D03*
D20*
X73050000Y-53900000D03*
D21*
X75590000Y-53900000D03*
X78130000Y-53900000D03*
X80670000Y-53900000D03*
X83210000Y-53900000D03*
X85750000Y-53900000D03*
X88290000Y-53900000D03*
X90830000Y-53900000D03*
X93370000Y-53900000D03*
X95910000Y-53900000D03*
D20*
X95650000Y-157900000D03*
D21*
X93110000Y-157900000D03*
X90570000Y-157900000D03*
X88030000Y-157900000D03*
X85490000Y-157900000D03*
X82950000Y-157900000D03*
X80410000Y-157900000D03*
X77870000Y-157900000D03*
X75330000Y-157900000D03*
X72790000Y-157900000D03*
D20*
X66650000Y-53900000D03*
D21*
X64110000Y-53900000D03*
X61570000Y-53900000D03*
X59030000Y-53900000D03*
X56490000Y-53900000D03*
X53950000Y-53900000D03*
X51410000Y-53900000D03*
X48870000Y-53900000D03*
X46330000Y-53900000D03*
X43790000Y-53900000D03*
D20*
X44050000Y-157900000D03*
D21*
X46590000Y-157900000D03*
X49130000Y-157900000D03*
X51670000Y-157900000D03*
X54210000Y-157900000D03*
X56750000Y-157900000D03*
X59290000Y-157900000D03*
X61830000Y-157900000D03*
X64370000Y-157900000D03*
X66910000Y-157900000D03*
M02*
