M48
;DRILL file {KiCad 4.0.7-e2-6376~58~ubuntu16.04.1} date Mon Jan 22 09:14:27 2018
;FORMAT={-:-/ absolute / inch / decimal}
FMAT,2
INCH,TZ
T1C0.016
T2C0.030
T3C0.031
T4C0.035
T5C0.039
T6C0.043
T7C0.055
T8C0.063
T9C0.118
%
G90
G05
M72
T1
X1.6832Y-4.9654
X1.6862Y-4.4134
X1.6937Y-5.5249
X1.7047Y-3.5649
X1.7207Y-5.3429
X1.748Y-4.063
X1.7832Y-3.5664
X1.8232Y-5.5414
X1.8897Y-3.5674
X1.8922Y-3.6419
X2.0052Y-3.8524
X2.0236Y-3.124
X2.0282Y-5.0709
X2.3209Y-3.2776
X2.3642Y-3.5531
X2.3642Y-3.7657
X2.4646Y-3.3425
X2.4961Y-3.752
X2.5098Y-3.8169
X2.5197Y-3.6457
X2.5512Y-3.3425
X2.7913Y-2.8937
X2.8307Y-6.0236
X2.8346Y-6.0689
X2.8481Y-5.541
X2.877Y-2.3927
X2.892Y-4.599
X2.8957Y-4.5188
X2.9035Y-2.6969
X2.9193Y-2.4213
X2.9267Y-5.4113
X2.94Y-4.599
X2.9403Y-4.5177
X2.9567Y-3.2126
X2.9843Y-3.1555
X3.0098Y-3.2205
X3.0197Y-5.9193
X3.0261Y-5.3141
X3.0354Y-5.6181
X3.061Y-5.5512
X3.0768Y-5.8642
X3.1476Y-3.0335
X3.1713Y-2.8898
X3.1732Y-5.2874
X3.2333Y-5.4851
X3.2483Y-5.3614
X3.2505Y-5.4285
X3.3327Y-3.0197
X3.3524Y-5.6417
X3.4852Y-3.1339
X3.5276Y-5.9055
X3.549Y-5.2458
X3.5669Y-5.5945
X3.5689Y-3.3071
X3.6102Y-4.8091
X3.6102Y-5.8346
X3.6636Y-5.247
X3.6648Y-5.3604
X3.8307Y-4.3346
T2
X1.9391Y-2.4146
X1.9391Y-2.5146
X1.9391Y-2.6146
X1.9391Y-2.7146
X1.9391Y-2.8146
X1.9391Y-2.9146
X1.9391Y-3.0146
X2.0991Y-2.4146
X2.0991Y-2.8146
X2.1991Y-2.4146
X2.1991Y-2.8146
X2.2991Y-2.4146
X2.3323Y-4.8902
X2.3991Y-2.4146
X2.4323Y-4.8902
X2.4791Y-2.4146
X2.4791Y-2.5146
X2.4791Y-2.6146
X2.4791Y-2.7146
X2.4791Y-2.8146
X2.4791Y-2.9146
X2.4791Y-3.0146
X2.5323Y-4.5902
X2.5323Y-4.8902
X2.6323Y-4.8902
X3.0917Y-3.5047
X3.0917Y-3.6047
X3.0917Y-3.7047
X3.0917Y-3.8047
X3.0917Y-3.9047
X3.0917Y-4.0047
X3.0917Y-4.1047
X3.0917Y-4.2047
X3.0917Y-4.3047
X3.0917Y-4.4047
X3.0917Y-4.5047
X3.0917Y-4.6047
X3.0917Y-4.7047
X3.0917Y-4.8047
X3.0917Y-4.9047
X3.1091Y-2.3909
X3.1091Y-2.4909
X3.2091Y-2.3909
X3.2091Y-2.4909
X3.2091Y-2.7264
X3.3091Y-2.3909
X3.3091Y-2.4909
X3.4091Y-2.3909
X3.4091Y-2.4909
X3.4091Y-2.7264
X3.5091Y-2.3909
X3.5091Y-2.4909
X3.6917Y-3.5047
X3.6917Y-3.6047
X3.6917Y-3.7047
X3.6917Y-3.8047
X3.6917Y-3.9047
X3.6917Y-4.0047
X3.6917Y-4.1047
X3.6917Y-4.2047
X3.6917Y-4.3047
X3.6917Y-4.4047
X3.6917Y-4.5047
X3.6917Y-4.6047
X3.6917Y-4.7047
X3.6917Y-4.8047
X3.6917Y-4.9047
T3
X2.9646Y-2.8209
X3.0433Y-2.8209
X3.5984Y-2.8209
X3.6772Y-2.8209
T4
X1.8268Y-6.0157
X1.9268Y-6.0157
X2.4311Y-6.0157
X2.5311Y-6.0157
T5
X1.724Y-2.122
X1.7343Y-6.2165
X1.824Y-2.122
X1.8343Y-6.2165
X1.924Y-2.122
X1.9343Y-6.2165
X2.024Y-2.122
X2.0343Y-6.2165
X2.124Y-2.122
X2.1343Y-6.2165
X2.1713Y-4.6402
X2.1713Y-4.7402
X2.1713Y-4.8402
X2.224Y-2.122
X2.2343Y-6.2165
X2.324Y-2.122
X2.3343Y-6.2165
X2.424Y-2.122
X2.4343Y-6.2165
X2.524Y-2.122
X2.5343Y-6.2165
X2.624Y-2.122
X2.6343Y-6.2165
X2.8425Y-3.6496
X2.8425Y-4.2106
X2.8425Y-4.3106
X2.8657Y-6.2165
X2.876Y-2.122
X2.9657Y-6.2165
X2.976Y-2.122
X3.0657Y-6.2165
X3.076Y-2.122
X3.1657Y-6.2165
X3.176Y-2.122
X3.2657Y-6.2165
X3.276Y-2.122
X3.3657Y-6.2165
X3.376Y-2.122
X3.4657Y-6.2165
X3.476Y-2.122
X3.5657Y-6.2165
X3.576Y-2.122
X3.6657Y-6.2165
X3.676Y-2.122
X3.7657Y-6.2165
X3.776Y-2.122
T6
X2.8209Y-2.315
X2.8209Y-2.715
X3.8209Y-2.3165
X3.8209Y-2.7165
T7
X2.1311Y-4.2677
X2.1311Y-5.2126
X2.1311Y-5.685
X2.2272Y-5.2126
X2.2272Y-5.685
T8
X1.6823Y-4.2677
X1.6823Y-5.2126
X1.6823Y-5.685
X2.0091Y-4.2677
X2.0091Y-5.2126
X2.0091Y-5.685
X2.3492Y-5.2126
X2.3492Y-5.685
X2.676Y-5.2126
X2.676Y-5.685
T9
X1.876Y-4.2677
X1.876Y-5.2126
X1.876Y-5.685
X2.4823Y-5.2126
X2.4823Y-5.685
T0
M30
