G04 #@! TF.FileFunction,Legend,Bot*
%FSLAX46Y46*%
G04 Gerber Fmt 4.6, Leading zero omitted, Abs format (unit mm)*
G04 Created by KiCad (PCBNEW 4.0.7-e2-6376~58~ubuntu16.04.1) date Sun Jan 21 21:33:49 2018*
%MOMM*%
%LPD*%
G01*
G04 APERTURE LIST*
%ADD10C,0.100000*%
%ADD11C,0.300000*%
%ADD12C,0.120000*%
%ADD13C,0.010000*%
%ADD14C,0.150000*%
G04 APERTURE END LIST*
D10*
D11*
X87500371Y-108027172D02*
X89000371Y-108384315D01*
X87928943Y-108670029D01*
X89000371Y-108955743D01*
X87500371Y-109312886D01*
X89000371Y-110527172D02*
X88214657Y-110527172D01*
X88071800Y-110455743D01*
X88000371Y-110312886D01*
X88000371Y-110027172D01*
X88071800Y-109884315D01*
X88928943Y-110527172D02*
X89000371Y-110384315D01*
X89000371Y-110027172D01*
X88928943Y-109884315D01*
X88786086Y-109812886D01*
X88643229Y-109812886D01*
X88500371Y-109884315D01*
X88428943Y-110027172D01*
X88428943Y-110384315D01*
X88357514Y-110527172D01*
X88000371Y-111027172D02*
X88000371Y-111598601D01*
X89000371Y-111241458D02*
X87714657Y-111241458D01*
X87571800Y-111312886D01*
X87500371Y-111455744D01*
X87500371Y-111598601D01*
X88000371Y-111884315D02*
X88000371Y-112455744D01*
X87500371Y-112098601D02*
X88786086Y-112098601D01*
X88928943Y-112170029D01*
X89000371Y-112312887D01*
X89000371Y-112455744D01*
X89000371Y-114955744D02*
X88286086Y-114455744D01*
X89000371Y-114098601D02*
X87500371Y-114098601D01*
X87500371Y-114670029D01*
X87571800Y-114812887D01*
X87643229Y-114884315D01*
X87786086Y-114955744D01*
X88000371Y-114955744D01*
X88143229Y-114884315D01*
X88214657Y-114812887D01*
X88286086Y-114670029D01*
X88286086Y-114098601D01*
X88928943Y-116170029D02*
X89000371Y-116027172D01*
X89000371Y-115741458D01*
X88928943Y-115598601D01*
X88786086Y-115527172D01*
X88214657Y-115527172D01*
X88071800Y-115598601D01*
X88000371Y-115741458D01*
X88000371Y-116027172D01*
X88071800Y-116170029D01*
X88214657Y-116241458D01*
X88357514Y-116241458D01*
X88500371Y-115527172D01*
X88000371Y-116741458D02*
X89000371Y-117098601D01*
X88000371Y-117455743D01*
X89000371Y-119955743D02*
X89000371Y-119098600D01*
X89000371Y-119527172D02*
X87500371Y-119527172D01*
X87714657Y-119384315D01*
X87857514Y-119241457D01*
X87928943Y-119098600D01*
X88857514Y-120598600D02*
X88928943Y-120670028D01*
X89000371Y-120598600D01*
X88928943Y-120527171D01*
X88857514Y-120598600D01*
X89000371Y-120598600D01*
X87500371Y-121598600D02*
X87500371Y-121741457D01*
X87571800Y-121884314D01*
X87643229Y-121955743D01*
X87786086Y-122027172D01*
X88071800Y-122098600D01*
X88428943Y-122098600D01*
X88714657Y-122027172D01*
X88857514Y-121955743D01*
X88928943Y-121884314D01*
X89000371Y-121741457D01*
X89000371Y-121598600D01*
X88928943Y-121455743D01*
X88857514Y-121384314D01*
X88714657Y-121312886D01*
X88428943Y-121241457D01*
X88071800Y-121241457D01*
X87786086Y-121312886D01*
X87643229Y-121384314D01*
X87571800Y-121455743D01*
X87500371Y-121598600D01*
X57979028Y-93588871D02*
X57621885Y-95088871D01*
X57336171Y-94017443D01*
X57050457Y-95088871D01*
X56693314Y-93588871D01*
X55479028Y-95088871D02*
X55479028Y-94303157D01*
X55550457Y-94160300D01*
X55693314Y-94088871D01*
X55979028Y-94088871D01*
X56121885Y-94160300D01*
X55479028Y-95017443D02*
X55621885Y-95088871D01*
X55979028Y-95088871D01*
X56121885Y-95017443D01*
X56193314Y-94874586D01*
X56193314Y-94731729D01*
X56121885Y-94588871D01*
X55979028Y-94517443D01*
X55621885Y-94517443D01*
X55479028Y-94446014D01*
X54979028Y-94088871D02*
X54407599Y-94088871D01*
X54764742Y-95088871D02*
X54764742Y-93803157D01*
X54693314Y-93660300D01*
X54550456Y-93588871D01*
X54407599Y-93588871D01*
X54121885Y-94088871D02*
X53550456Y-94088871D01*
X53907599Y-93588871D02*
X53907599Y-94874586D01*
X53836171Y-95017443D01*
X53693313Y-95088871D01*
X53550456Y-95088871D01*
X51050456Y-95088871D02*
X51550456Y-94374586D01*
X51907599Y-95088871D02*
X51907599Y-93588871D01*
X51336171Y-93588871D01*
X51193313Y-93660300D01*
X51121885Y-93731729D01*
X51050456Y-93874586D01*
X51050456Y-94088871D01*
X51121885Y-94231729D01*
X51193313Y-94303157D01*
X51336171Y-94374586D01*
X51907599Y-94374586D01*
X49836171Y-95017443D02*
X49979028Y-95088871D01*
X50264742Y-95088871D01*
X50407599Y-95017443D01*
X50479028Y-94874586D01*
X50479028Y-94303157D01*
X50407599Y-94160300D01*
X50264742Y-94088871D01*
X49979028Y-94088871D01*
X49836171Y-94160300D01*
X49764742Y-94303157D01*
X49764742Y-94446014D01*
X50479028Y-94588871D01*
X49264742Y-94088871D02*
X48907599Y-95088871D01*
X48550457Y-94088871D01*
X46050457Y-95088871D02*
X46907600Y-95088871D01*
X46479028Y-95088871D02*
X46479028Y-93588871D01*
X46621885Y-93803157D01*
X46764743Y-93946014D01*
X46907600Y-94017443D01*
X45407600Y-94946014D02*
X45336172Y-95017443D01*
X45407600Y-95088871D01*
X45479029Y-95017443D01*
X45407600Y-94946014D01*
X45407600Y-95088871D01*
X44407600Y-93588871D02*
X44264743Y-93588871D01*
X44121886Y-93660300D01*
X44050457Y-93731729D01*
X43979028Y-93874586D01*
X43907600Y-94160300D01*
X43907600Y-94517443D01*
X43979028Y-94803157D01*
X44050457Y-94946014D01*
X44121886Y-95017443D01*
X44264743Y-95088871D01*
X44407600Y-95088871D01*
X44550457Y-95017443D01*
X44621886Y-94946014D01*
X44693314Y-94803157D01*
X44764743Y-94517443D01*
X44764743Y-94160300D01*
X44693314Y-93874586D01*
X44621886Y-93731729D01*
X44550457Y-93660300D01*
X44407600Y-93588871D01*
D12*
X41950000Y-151000000D02*
X43550000Y-151000000D01*
X43550000Y-151000000D02*
X43550000Y-153600000D01*
X41950000Y-151000000D02*
X41950000Y-153600000D01*
X67550000Y-151000000D02*
X69150000Y-151000000D01*
X69150000Y-151000000D02*
X69150000Y-153600000D01*
X67550000Y-151000000D02*
X67550000Y-153600000D01*
X53180000Y-153400000D02*
X53180000Y-152200000D01*
X51420000Y-152200000D02*
X51420000Y-153400000D01*
X58830000Y-153400000D02*
X58830000Y-152200000D01*
X57070000Y-152200000D02*
X57070000Y-153400000D01*
X50530000Y-139000000D02*
X50530000Y-137800000D01*
X48770000Y-137800000D02*
X48770000Y-139000000D01*
X61630000Y-139050000D02*
X61630000Y-137850000D01*
X59870000Y-137850000D02*
X59870000Y-139050000D01*
X97240000Y-52570000D02*
X97240000Y-55230000D01*
X74320000Y-52570000D02*
X97240000Y-52570000D01*
X74320000Y-55230000D02*
X97240000Y-55230000D01*
X74320000Y-52570000D02*
X74320000Y-55230000D01*
X73050000Y-52570000D02*
X71720000Y-52570000D01*
X71720000Y-52570000D02*
X71720000Y-53900000D01*
X71460000Y-159230000D02*
X71460000Y-156570000D01*
X94380000Y-159230000D02*
X71460000Y-159230000D01*
X94380000Y-156570000D02*
X71460000Y-156570000D01*
X94380000Y-159230000D02*
X94380000Y-156570000D01*
X95650000Y-159230000D02*
X96980000Y-159230000D01*
X96980000Y-159230000D02*
X96980000Y-157900000D01*
X42460000Y-55230000D02*
X42460000Y-52570000D01*
X65380000Y-55230000D02*
X42460000Y-55230000D01*
X65380000Y-52570000D02*
X42460000Y-52570000D01*
X65380000Y-55230000D02*
X65380000Y-52570000D01*
X66650000Y-55230000D02*
X67980000Y-55230000D01*
X67980000Y-55230000D02*
X67980000Y-53900000D01*
X68240000Y-156570000D02*
X68240000Y-159230000D01*
X45320000Y-156570000D02*
X68240000Y-156570000D01*
X45320000Y-159230000D02*
X68240000Y-159230000D01*
X45320000Y-156570000D02*
X45320000Y-159230000D01*
X44050000Y-156570000D02*
X42720000Y-156570000D01*
X42720000Y-156570000D02*
X42720000Y-157900000D01*
D13*
G36*
X87719129Y-98146189D02*
X87842246Y-98169500D01*
X87949337Y-98185968D01*
X87917344Y-98267864D01*
X87829924Y-98368915D01*
X87706803Y-98600776D01*
X87757402Y-98786689D01*
X87963787Y-98878044D01*
X88018716Y-98880700D01*
X88290054Y-98803992D01*
X88577996Y-98613473D01*
X88810160Y-98368549D01*
X88912088Y-98147471D01*
X89038530Y-97942073D01*
X89229437Y-97853338D01*
X89449005Y-97825610D01*
X89567566Y-97920984D01*
X89603996Y-97998898D01*
X89659305Y-98101875D01*
X89688131Y-98042504D01*
X89699431Y-97800869D01*
X89699659Y-97786157D01*
X89697599Y-97518937D01*
X89661531Y-97417114D01*
X89562755Y-97442954D01*
X89477500Y-97494059D01*
X89242796Y-97601424D01*
X88909069Y-97711287D01*
X88740900Y-97754995D01*
X88630027Y-97781749D01*
X88630027Y-97999394D01*
X88699268Y-98022766D01*
X88787402Y-98175728D01*
X88732921Y-98373628D01*
X88655016Y-98461256D01*
X88460825Y-98561558D01*
X88197816Y-98638796D01*
X87967687Y-98661137D01*
X87881568Y-98593769D01*
X87877300Y-98553546D01*
X87959603Y-98360371D01*
X88159502Y-98173263D01*
X88406482Y-98037760D01*
X88630027Y-97999394D01*
X88630027Y-97781749D01*
X88406240Y-97835750D01*
X88129659Y-97906656D01*
X88039730Y-97931818D01*
X87901176Y-97942618D01*
X87906518Y-97819237D01*
X87912980Y-97800224D01*
X87950390Y-97675390D01*
X87903997Y-97710239D01*
X87826749Y-97807918D01*
X87690904Y-98030990D01*
X87719129Y-98146189D01*
X87719129Y-98146189D01*
G37*
X87719129Y-98146189D02*
X87842246Y-98169500D01*
X87949337Y-98185968D01*
X87917344Y-98267864D01*
X87829924Y-98368915D01*
X87706803Y-98600776D01*
X87757402Y-98786689D01*
X87963787Y-98878044D01*
X88018716Y-98880700D01*
X88290054Y-98803992D01*
X88577996Y-98613473D01*
X88810160Y-98368549D01*
X88912088Y-98147471D01*
X89038530Y-97942073D01*
X89229437Y-97853338D01*
X89449005Y-97825610D01*
X89567566Y-97920984D01*
X89603996Y-97998898D01*
X89659305Y-98101875D01*
X89688131Y-98042504D01*
X89699431Y-97800869D01*
X89699659Y-97786157D01*
X89697599Y-97518937D01*
X89661531Y-97417114D01*
X89562755Y-97442954D01*
X89477500Y-97494059D01*
X89242796Y-97601424D01*
X88909069Y-97711287D01*
X88740900Y-97754995D01*
X88630027Y-97781749D01*
X88630027Y-97999394D01*
X88699268Y-98022766D01*
X88787402Y-98175728D01*
X88732921Y-98373628D01*
X88655016Y-98461256D01*
X88460825Y-98561558D01*
X88197816Y-98638796D01*
X87967687Y-98661137D01*
X87881568Y-98593769D01*
X87877300Y-98553546D01*
X87959603Y-98360371D01*
X88159502Y-98173263D01*
X88406482Y-98037760D01*
X88630027Y-97999394D01*
X88630027Y-97781749D01*
X88406240Y-97835750D01*
X88129659Y-97906656D01*
X88039730Y-97931818D01*
X87901176Y-97942618D01*
X87906518Y-97819237D01*
X87912980Y-97800224D01*
X87950390Y-97675390D01*
X87903997Y-97710239D01*
X87826749Y-97807918D01*
X87690904Y-98030990D01*
X87719129Y-98146189D01*
G36*
X87700381Y-104396935D02*
X87818350Y-104404528D01*
X87929450Y-104366586D01*
X88167074Y-104298219D01*
X88519249Y-104221221D01*
X88818450Y-104167537D01*
X89273476Y-104060748D01*
X89554000Y-103904538D01*
X89686554Y-103679085D01*
X89706100Y-103504401D01*
X89651313Y-103271001D01*
X89584180Y-103168220D01*
X89406683Y-103074822D01*
X89406683Y-103271405D01*
X89434478Y-103279479D01*
X89585653Y-103415226D01*
X89561384Y-103614278D01*
X89414221Y-103796606D01*
X89156721Y-103922390D01*
X88880821Y-103951266D01*
X88543672Y-103974389D01*
X88251685Y-104048813D01*
X88011786Y-104139435D01*
X87905269Y-104147030D01*
X87878078Y-104067044D01*
X87877300Y-104017261D01*
X87962482Y-103843489D01*
X88166072Y-103674446D01*
X88410136Y-103567204D01*
X88509506Y-103554300D01*
X88663004Y-103634158D01*
X88690100Y-103728262D01*
X88728424Y-103793493D01*
X88852401Y-103699201D01*
X88977278Y-103558230D01*
X89218398Y-103324618D01*
X89406683Y-103271405D01*
X89406683Y-103074822D01*
X89365069Y-103052924D01*
X89160018Y-103136182D01*
X89083388Y-103232739D01*
X88888561Y-103374999D01*
X88739966Y-103375788D01*
X88389578Y-103402266D01*
X88056811Y-103579480D01*
X87799981Y-103859256D01*
X87677405Y-104193415D01*
X87674100Y-104256305D01*
X87700381Y-104396935D01*
X87700381Y-104396935D01*
G37*
X87700381Y-104396935D02*
X87818350Y-104404528D01*
X87929450Y-104366586D01*
X88167074Y-104298219D01*
X88519249Y-104221221D01*
X88818450Y-104167537D01*
X89273476Y-104060748D01*
X89554000Y-103904538D01*
X89686554Y-103679085D01*
X89706100Y-103504401D01*
X89651313Y-103271001D01*
X89584180Y-103168220D01*
X89406683Y-103074822D01*
X89406683Y-103271405D01*
X89434478Y-103279479D01*
X89585653Y-103415226D01*
X89561384Y-103614278D01*
X89414221Y-103796606D01*
X89156721Y-103922390D01*
X88880821Y-103951266D01*
X88543672Y-103974389D01*
X88251685Y-104048813D01*
X88011786Y-104139435D01*
X87905269Y-104147030D01*
X87878078Y-104067044D01*
X87877300Y-104017261D01*
X87962482Y-103843489D01*
X88166072Y-103674446D01*
X88410136Y-103567204D01*
X88509506Y-103554300D01*
X88663004Y-103634158D01*
X88690100Y-103728262D01*
X88728424Y-103793493D01*
X88852401Y-103699201D01*
X88977278Y-103558230D01*
X89218398Y-103324618D01*
X89406683Y-103271405D01*
X89406683Y-103074822D01*
X89365069Y-103052924D01*
X89160018Y-103136182D01*
X89083388Y-103232739D01*
X88888561Y-103374999D01*
X88739966Y-103375788D01*
X88389578Y-103402266D01*
X88056811Y-103579480D01*
X87799981Y-103859256D01*
X87677405Y-104193415D01*
X87674100Y-104256305D01*
X87700381Y-104396935D01*
G36*
X87752110Y-105681740D02*
X87958415Y-105682373D01*
X88251421Y-105604879D01*
X88589537Y-105465935D01*
X88931171Y-105282220D01*
X89234730Y-105070414D01*
X89430851Y-104881823D01*
X89607638Y-104619456D01*
X89698057Y-104379213D01*
X89689879Y-104211649D01*
X89604500Y-104163900D01*
X89532951Y-104252133D01*
X89502901Y-104464494D01*
X89502900Y-104466357D01*
X89418597Y-104780689D01*
X89179348Y-104980329D01*
X88805637Y-105053120D01*
X88546192Y-105034084D01*
X88175413Y-104936285D01*
X87954510Y-104786417D01*
X87906831Y-104602755D01*
X87926887Y-104549350D01*
X87925747Y-104515826D01*
X87832664Y-104616991D01*
X87717053Y-104808617D01*
X87746727Y-104953444D01*
X87941364Y-105079175D01*
X88237814Y-105187443D01*
X88516552Y-105282614D01*
X88621893Y-105342303D01*
X88575841Y-105386779D01*
X88484470Y-105414656D01*
X88178618Y-105468169D01*
X87953500Y-105483312D01*
X87750704Y-105516209D01*
X87674100Y-105586300D01*
X87752110Y-105681740D01*
X87752110Y-105681740D01*
G37*
X87752110Y-105681740D02*
X87958415Y-105682373D01*
X88251421Y-105604879D01*
X88589537Y-105465935D01*
X88931171Y-105282220D01*
X89234730Y-105070414D01*
X89430851Y-104881823D01*
X89607638Y-104619456D01*
X89698057Y-104379213D01*
X89689879Y-104211649D01*
X89604500Y-104163900D01*
X89532951Y-104252133D01*
X89502901Y-104464494D01*
X89502900Y-104466357D01*
X89418597Y-104780689D01*
X89179348Y-104980329D01*
X88805637Y-105053120D01*
X88546192Y-105034084D01*
X88175413Y-104936285D01*
X87954510Y-104786417D01*
X87906831Y-104602755D01*
X87926887Y-104549350D01*
X87925747Y-104515826D01*
X87832664Y-104616991D01*
X87717053Y-104808617D01*
X87746727Y-104953444D01*
X87941364Y-105079175D01*
X88237814Y-105187443D01*
X88516552Y-105282614D01*
X88621893Y-105342303D01*
X88575841Y-105386779D01*
X88484470Y-105414656D01*
X88178618Y-105468169D01*
X87953500Y-105483312D01*
X87750704Y-105516209D01*
X87674100Y-105586300D01*
X87752110Y-105681740D01*
G36*
X86937500Y-94014027D02*
X87305361Y-94031188D01*
X87622308Y-94064370D01*
X87758638Y-94090780D01*
X87864596Y-94134443D01*
X87867842Y-94198233D01*
X87746932Y-94308029D01*
X87480417Y-94489709D01*
X87367078Y-94563252D01*
X87011327Y-94818010D01*
X86705409Y-95082349D01*
X86481139Y-95323267D01*
X86370332Y-95507756D01*
X86379404Y-95587871D01*
X86490516Y-95580922D01*
X86754415Y-95524949D01*
X87129366Y-95429679D01*
X87494019Y-95328021D01*
X87937530Y-95202601D01*
X88312078Y-95101775D01*
X88572702Y-95037333D01*
X88668964Y-95019900D01*
X88770363Y-95106088D01*
X88821597Y-95248500D01*
X88848888Y-95294910D01*
X88871088Y-95165977D01*
X88879463Y-95006969D01*
X88893300Y-94536839D01*
X88017801Y-94783404D01*
X87625858Y-94888353D01*
X87314780Y-94961420D01*
X87130835Y-94992210D01*
X87101561Y-94989227D01*
X87154554Y-94909613D01*
X87365679Y-94745006D01*
X87715374Y-94508980D01*
X88184077Y-94215110D01*
X88436100Y-94063145D01*
X89045700Y-93699622D01*
X88537700Y-93690460D01*
X88244697Y-93676755D01*
X87922342Y-93649089D01*
X87612822Y-93613340D01*
X87358322Y-93575384D01*
X87201029Y-93541099D01*
X87183130Y-93516359D01*
X87238488Y-93509475D01*
X87574368Y-93444326D01*
X87972838Y-93304250D01*
X88361910Y-93121465D01*
X88669596Y-92928188D01*
X88789387Y-92815363D01*
X88956311Y-92522090D01*
X88988545Y-92265865D01*
X88927166Y-92141233D01*
X88788310Y-92075304D01*
X88706500Y-92195194D01*
X88690100Y-92369268D01*
X88591897Y-92696814D01*
X88302465Y-92977513D01*
X87829566Y-93205658D01*
X87377223Y-93334769D01*
X86953230Y-93429112D01*
X86686715Y-93476846D01*
X86537210Y-93477263D01*
X86464245Y-93429656D01*
X86427351Y-93333318D01*
X86423335Y-93318100D01*
X86393685Y-93296796D01*
X86371212Y-93444656D01*
X86365085Y-93572100D01*
X86353300Y-94003900D01*
X86937500Y-94014027D01*
X86937500Y-94014027D01*
G37*
X86937500Y-94014027D02*
X87305361Y-94031188D01*
X87622308Y-94064370D01*
X87758638Y-94090780D01*
X87864596Y-94134443D01*
X87867842Y-94198233D01*
X87746932Y-94308029D01*
X87480417Y-94489709D01*
X87367078Y-94563252D01*
X87011327Y-94818010D01*
X86705409Y-95082349D01*
X86481139Y-95323267D01*
X86370332Y-95507756D01*
X86379404Y-95587871D01*
X86490516Y-95580922D01*
X86754415Y-95524949D01*
X87129366Y-95429679D01*
X87494019Y-95328021D01*
X87937530Y-95202601D01*
X88312078Y-95101775D01*
X88572702Y-95037333D01*
X88668964Y-95019900D01*
X88770363Y-95106088D01*
X88821597Y-95248500D01*
X88848888Y-95294910D01*
X88871088Y-95165977D01*
X88879463Y-95006969D01*
X88893300Y-94536839D01*
X88017801Y-94783404D01*
X87625858Y-94888353D01*
X87314780Y-94961420D01*
X87130835Y-94992210D01*
X87101561Y-94989227D01*
X87154554Y-94909613D01*
X87365679Y-94745006D01*
X87715374Y-94508980D01*
X88184077Y-94215110D01*
X88436100Y-94063145D01*
X89045700Y-93699622D01*
X88537700Y-93690460D01*
X88244697Y-93676755D01*
X87922342Y-93649089D01*
X87612822Y-93613340D01*
X87358322Y-93575384D01*
X87201029Y-93541099D01*
X87183130Y-93516359D01*
X87238488Y-93509475D01*
X87574368Y-93444326D01*
X87972838Y-93304250D01*
X88361910Y-93121465D01*
X88669596Y-92928188D01*
X88789387Y-92815363D01*
X88956311Y-92522090D01*
X88988545Y-92265865D01*
X88927166Y-92141233D01*
X88788310Y-92075304D01*
X88706500Y-92195194D01*
X88690100Y-92369268D01*
X88591897Y-92696814D01*
X88302465Y-92977513D01*
X87829566Y-93205658D01*
X87377223Y-93334769D01*
X86953230Y-93429112D01*
X86686715Y-93476846D01*
X86537210Y-93477263D01*
X86464245Y-93429656D01*
X86427351Y-93333318D01*
X86423335Y-93318100D01*
X86393685Y-93296796D01*
X86371212Y-93444656D01*
X86365085Y-93572100D01*
X86353300Y-94003900D01*
X86937500Y-94014027D01*
G36*
X87725156Y-96413241D02*
X87776794Y-96494419D01*
X88006888Y-96630395D01*
X88299609Y-96600990D01*
X88607600Y-96411684D01*
X88624464Y-96396351D01*
X88843038Y-96109486D01*
X88878993Y-95838276D01*
X88771380Y-95649820D01*
X88544046Y-95539524D01*
X88384113Y-95559992D01*
X88384113Y-95731100D01*
X88677941Y-95780094D01*
X88791197Y-95919148D01*
X88718460Y-96136365D01*
X88623553Y-96256499D01*
X88411548Y-96391284D01*
X88150592Y-96438394D01*
X87920967Y-96394905D01*
X87810989Y-96286115D01*
X87828213Y-96083938D01*
X87985127Y-95888935D01*
X88224121Y-95756895D01*
X88384113Y-95731100D01*
X88384113Y-95559992D01*
X88280125Y-95573301D01*
X88022947Y-95714356D01*
X87815840Y-95925894D01*
X87702133Y-96171121D01*
X87725156Y-96413241D01*
X87725156Y-96413241D01*
G37*
X87725156Y-96413241D02*
X87776794Y-96494419D01*
X88006888Y-96630395D01*
X88299609Y-96600990D01*
X88607600Y-96411684D01*
X88624464Y-96396351D01*
X88843038Y-96109486D01*
X88878993Y-95838276D01*
X88771380Y-95649820D01*
X88544046Y-95539524D01*
X88384113Y-95559992D01*
X88384113Y-95731100D01*
X88677941Y-95780094D01*
X88791197Y-95919148D01*
X88718460Y-96136365D01*
X88623553Y-96256499D01*
X88411548Y-96391284D01*
X88150592Y-96438394D01*
X87920967Y-96394905D01*
X87810989Y-96286115D01*
X87828213Y-96083938D01*
X87985127Y-95888935D01*
X88224121Y-95756895D01*
X88384113Y-95731100D01*
X88384113Y-95559992D01*
X88280125Y-95573301D01*
X88022947Y-95714356D01*
X87815840Y-95925894D01*
X87702133Y-96171121D01*
X87725156Y-96413241D01*
G36*
X87678049Y-97689508D02*
X87785821Y-97545636D01*
X87875137Y-97366937D01*
X87899063Y-97230342D01*
X87898885Y-97229700D01*
X87957161Y-97159035D01*
X88004300Y-97152933D01*
X88244527Y-97120657D01*
X88519359Y-97042788D01*
X88757171Y-96945096D01*
X88886342Y-96853353D01*
X88893300Y-96833054D01*
X88819791Y-96767700D01*
X88748114Y-96781072D01*
X88555109Y-96836234D01*
X88271128Y-96898831D01*
X88225427Y-96907605D01*
X87984358Y-96940380D01*
X87901658Y-96908271D01*
X87920947Y-96837362D01*
X87924506Y-96796354D01*
X87834034Y-96893518D01*
X87691543Y-97118955D01*
X87712194Y-97237976D01*
X87791446Y-97255100D01*
X87821209Y-97315956D01*
X87724336Y-97458922D01*
X87608258Y-97626819D01*
X87598757Y-97721624D01*
X87678049Y-97689508D01*
X87678049Y-97689508D01*
G37*
X87678049Y-97689508D02*
X87785821Y-97545636D01*
X87875137Y-97366937D01*
X87899063Y-97230342D01*
X87898885Y-97229700D01*
X87957161Y-97159035D01*
X88004300Y-97152933D01*
X88244527Y-97120657D01*
X88519359Y-97042788D01*
X88757171Y-96945096D01*
X88886342Y-96853353D01*
X88893300Y-96833054D01*
X88819791Y-96767700D01*
X88748114Y-96781072D01*
X88555109Y-96836234D01*
X88271128Y-96898831D01*
X88225427Y-96907605D01*
X87984358Y-96940380D01*
X87901658Y-96908271D01*
X87920947Y-96837362D01*
X87924506Y-96796354D01*
X87834034Y-96893518D01*
X87691543Y-97118955D01*
X87712194Y-97237976D01*
X87791446Y-97255100D01*
X87821209Y-97315956D01*
X87724336Y-97458922D01*
X87608258Y-97626819D01*
X87598757Y-97721624D01*
X87678049Y-97689508D01*
G36*
X86786406Y-100168805D02*
X86861300Y-100201500D01*
X86938106Y-100114673D01*
X86962900Y-99951416D01*
X86998315Y-99779195D01*
X87139368Y-99668420D01*
X87379555Y-99589138D01*
X87690681Y-99521147D01*
X87836554Y-99540565D01*
X87840136Y-99658213D01*
X87783931Y-99779718D01*
X87696766Y-99970428D01*
X87674100Y-100055714D01*
X87760471Y-100087244D01*
X87973662Y-100073521D01*
X88244792Y-100023978D01*
X88504978Y-99948049D01*
X88529938Y-99938505D01*
X88669721Y-99908993D01*
X88670096Y-100016553D01*
X88656689Y-100056861D01*
X88614473Y-100190809D01*
X88654619Y-100164161D01*
X88740650Y-100055081D01*
X88878394Y-99835013D01*
X88861074Y-99719840D01*
X88679694Y-99704341D01*
X88325257Y-99783294D01*
X88289758Y-99793362D01*
X88014491Y-99856797D01*
X87902326Y-99827894D01*
X87928568Y-99691922D01*
X87972396Y-99604052D01*
X88138895Y-99444601D01*
X88412585Y-99310116D01*
X88488627Y-99286634D01*
X88740354Y-99196016D01*
X88881957Y-99100738D01*
X88893300Y-99073137D01*
X88814919Y-99009650D01*
X88715500Y-99020901D01*
X88528117Y-99071921D01*
X88214552Y-99153468D01*
X87877300Y-99239149D01*
X87497713Y-99357644D01*
X87170102Y-99500124D01*
X86988300Y-99617811D01*
X86834292Y-99818371D01*
X86762381Y-100023239D01*
X86786406Y-100168805D01*
X86786406Y-100168805D01*
G37*
X86786406Y-100168805D02*
X86861300Y-100201500D01*
X86938106Y-100114673D01*
X86962900Y-99951416D01*
X86998315Y-99779195D01*
X87139368Y-99668420D01*
X87379555Y-99589138D01*
X87690681Y-99521147D01*
X87836554Y-99540565D01*
X87840136Y-99658213D01*
X87783931Y-99779718D01*
X87696766Y-99970428D01*
X87674100Y-100055714D01*
X87760471Y-100087244D01*
X87973662Y-100073521D01*
X88244792Y-100023978D01*
X88504978Y-99948049D01*
X88529938Y-99938505D01*
X88669721Y-99908993D01*
X88670096Y-100016553D01*
X88656689Y-100056861D01*
X88614473Y-100190809D01*
X88654619Y-100164161D01*
X88740650Y-100055081D01*
X88878394Y-99835013D01*
X88861074Y-99719840D01*
X88679694Y-99704341D01*
X88325257Y-99783294D01*
X88289758Y-99793362D01*
X88014491Y-99856797D01*
X87902326Y-99827894D01*
X87928568Y-99691922D01*
X87972396Y-99604052D01*
X88138895Y-99444601D01*
X88412585Y-99310116D01*
X88488627Y-99286634D01*
X88740354Y-99196016D01*
X88881957Y-99100738D01*
X88893300Y-99073137D01*
X88814919Y-99009650D01*
X88715500Y-99020901D01*
X88528117Y-99071921D01*
X88214552Y-99153468D01*
X87877300Y-99239149D01*
X87497713Y-99357644D01*
X87170102Y-99500124D01*
X86988300Y-99617811D01*
X86834292Y-99818371D01*
X86762381Y-100023239D01*
X86786406Y-100168805D01*
G36*
X87725156Y-101188441D02*
X87776794Y-101269619D01*
X88006888Y-101405595D01*
X88299609Y-101376190D01*
X88607600Y-101186884D01*
X88624464Y-101171551D01*
X88843038Y-100884686D01*
X88878993Y-100613476D01*
X88771380Y-100425020D01*
X88544046Y-100314724D01*
X88384113Y-100335192D01*
X88384113Y-100506300D01*
X88677941Y-100555294D01*
X88791197Y-100694348D01*
X88718460Y-100911565D01*
X88623553Y-101031699D01*
X88411548Y-101166484D01*
X88150592Y-101213594D01*
X87920967Y-101170105D01*
X87810989Y-101061315D01*
X87828213Y-100859138D01*
X87985127Y-100664135D01*
X88224121Y-100532095D01*
X88384113Y-100506300D01*
X88384113Y-100335192D01*
X88280125Y-100348501D01*
X88022947Y-100489556D01*
X87815840Y-100701094D01*
X87702133Y-100946321D01*
X87725156Y-101188441D01*
X87725156Y-101188441D01*
G37*
X87725156Y-101188441D02*
X87776794Y-101269619D01*
X88006888Y-101405595D01*
X88299609Y-101376190D01*
X88607600Y-101186884D01*
X88624464Y-101171551D01*
X88843038Y-100884686D01*
X88878993Y-100613476D01*
X88771380Y-100425020D01*
X88544046Y-100314724D01*
X88384113Y-100335192D01*
X88384113Y-100506300D01*
X88677941Y-100555294D01*
X88791197Y-100694348D01*
X88718460Y-100911565D01*
X88623553Y-101031699D01*
X88411548Y-101166484D01*
X88150592Y-101213594D01*
X87920967Y-101170105D01*
X87810989Y-101061315D01*
X87828213Y-100859138D01*
X87985127Y-100664135D01*
X88224121Y-100532095D01*
X88384113Y-100506300D01*
X88384113Y-100335192D01*
X88280125Y-100348501D01*
X88022947Y-100489556D01*
X87815840Y-100701094D01*
X87702133Y-100946321D01*
X87725156Y-101188441D01*
G36*
X86791890Y-102610948D02*
X86861300Y-102639900D01*
X86939059Y-102553345D01*
X86962900Y-102398251D01*
X86984871Y-102264497D01*
X87079171Y-102168185D01*
X87288380Y-102083808D01*
X87648700Y-101987431D01*
X88023460Y-101893590D01*
X88338638Y-101812189D01*
X88521020Y-101762265D01*
X88644837Y-101742652D01*
X88639589Y-101828362D01*
X88582436Y-101944485D01*
X88502045Y-102106520D01*
X88531064Y-102113101D01*
X88675316Y-101989153D01*
X88841119Y-101789386D01*
X88888734Y-101618220D01*
X88807946Y-101527874D01*
X88766300Y-101524037D01*
X88505718Y-101558575D01*
X88143212Y-101643953D01*
X87742402Y-101760543D01*
X87366909Y-101888719D01*
X87080356Y-102008856D01*
X86964153Y-102079965D01*
X86823081Y-102268536D01*
X86761424Y-102468591D01*
X86791890Y-102610948D01*
X86791890Y-102610948D01*
G37*
X86791890Y-102610948D02*
X86861300Y-102639900D01*
X86939059Y-102553345D01*
X86962900Y-102398251D01*
X86984871Y-102264497D01*
X87079171Y-102168185D01*
X87288380Y-102083808D01*
X87648700Y-101987431D01*
X88023460Y-101893590D01*
X88338638Y-101812189D01*
X88521020Y-101762265D01*
X88644837Y-101742652D01*
X88639589Y-101828362D01*
X88582436Y-101944485D01*
X88502045Y-102106520D01*
X88531064Y-102113101D01*
X88675316Y-101989153D01*
X88841119Y-101789386D01*
X88888734Y-101618220D01*
X88807946Y-101527874D01*
X88766300Y-101524037D01*
X88505718Y-101558575D01*
X88143212Y-101643953D01*
X87742402Y-101760543D01*
X87366909Y-101888719D01*
X87080356Y-102008856D01*
X86964153Y-102079965D01*
X86823081Y-102268536D01*
X86761424Y-102468591D01*
X86791890Y-102610948D01*
G36*
X87725156Y-103118841D02*
X87776794Y-103200019D01*
X88006888Y-103335995D01*
X88299609Y-103306590D01*
X88607600Y-103117284D01*
X88624464Y-103101951D01*
X88843038Y-102815086D01*
X88878993Y-102543876D01*
X88771380Y-102355420D01*
X88544046Y-102245124D01*
X88384113Y-102265592D01*
X88384113Y-102436700D01*
X88677941Y-102485694D01*
X88791197Y-102624748D01*
X88718460Y-102841965D01*
X88623553Y-102962099D01*
X88411548Y-103096884D01*
X88150592Y-103143994D01*
X87920967Y-103100505D01*
X87810989Y-102991715D01*
X87828213Y-102789538D01*
X87985127Y-102594535D01*
X88224121Y-102462495D01*
X88384113Y-102436700D01*
X88384113Y-102265592D01*
X88280125Y-102278901D01*
X88022947Y-102419956D01*
X87815840Y-102631494D01*
X87702133Y-102876721D01*
X87725156Y-103118841D01*
X87725156Y-103118841D01*
G37*
X87725156Y-103118841D02*
X87776794Y-103200019D01*
X88006888Y-103335995D01*
X88299609Y-103306590D01*
X88607600Y-103117284D01*
X88624464Y-103101951D01*
X88843038Y-102815086D01*
X88878993Y-102543876D01*
X88771380Y-102355420D01*
X88544046Y-102245124D01*
X88384113Y-102265592D01*
X88384113Y-102436700D01*
X88677941Y-102485694D01*
X88791197Y-102624748D01*
X88718460Y-102841965D01*
X88623553Y-102962099D01*
X88411548Y-103096884D01*
X88150592Y-103143994D01*
X87920967Y-103100505D01*
X87810989Y-102991715D01*
X87828213Y-102789538D01*
X87985127Y-102594535D01*
X88224121Y-102462495D01*
X88384113Y-102436700D01*
X88384113Y-102265592D01*
X88280125Y-102278901D01*
X88022947Y-102419956D01*
X87815840Y-102631494D01*
X87702133Y-102876721D01*
X87725156Y-103118841D01*
G36*
X86500935Y-93024453D02*
X86597952Y-92891279D01*
X86610957Y-92867876D01*
X86839834Y-92602235D01*
X87122377Y-92512419D01*
X87358782Y-92575871D01*
X87569559Y-92670606D01*
X87659050Y-92644653D01*
X87674100Y-92541570D01*
X87591811Y-92386576D01*
X87513390Y-92338370D01*
X87278717Y-92282335D01*
X87200775Y-92276700D01*
X87027562Y-92349213D01*
X86806488Y-92525342D01*
X86600783Y-92742966D01*
X86473673Y-92939967D01*
X86458967Y-93005484D01*
X86500935Y-93024453D01*
X86500935Y-93024453D01*
G37*
X86500935Y-93024453D02*
X86597952Y-92891279D01*
X86610957Y-92867876D01*
X86839834Y-92602235D01*
X87122377Y-92512419D01*
X87358782Y-92575871D01*
X87569559Y-92670606D01*
X87659050Y-92644653D01*
X87674100Y-92541570D01*
X87591811Y-92386576D01*
X87513390Y-92338370D01*
X87278717Y-92282335D01*
X87200775Y-92276700D01*
X87027562Y-92349213D01*
X86806488Y-92525342D01*
X86600783Y-92742966D01*
X86473673Y-92939967D01*
X86458967Y-93005484D01*
X86500935Y-93024453D01*
G36*
X83516774Y-93361032D02*
X83658016Y-93356100D01*
X83706271Y-93346156D01*
X83918433Y-93308390D01*
X84272439Y-93253119D01*
X84708682Y-93189462D01*
X84951379Y-93155644D01*
X85402913Y-93095516D01*
X85691940Y-93066545D01*
X85857179Y-93071641D01*
X85937351Y-93113714D01*
X85971174Y-93195675D01*
X85978943Y-93232874D01*
X86006256Y-93275759D01*
X86028079Y-93143904D01*
X86034663Y-93019687D01*
X86048500Y-92594275D01*
X85692900Y-92651981D01*
X85462954Y-92679293D01*
X85362652Y-92625877D01*
X85338400Y-92440906D01*
X85337994Y-92315393D01*
X85365787Y-92037495D01*
X85482062Y-91845778D01*
X85698290Y-91676185D01*
X86000033Y-91438629D01*
X86273408Y-91173731D01*
X86307195Y-91134990D01*
X86471129Y-90884938D01*
X86550990Y-90651535D01*
X86535002Y-90489562D01*
X86454900Y-90447900D01*
X86376255Y-90534197D01*
X86353300Y-90681969D01*
X86264768Y-90932490D01*
X85996588Y-91242711D01*
X85544877Y-91616431D01*
X85183336Y-91869054D01*
X85183336Y-92073500D01*
X85218535Y-92162684D01*
X85235439Y-92380809D01*
X85235700Y-92414885D01*
X85227364Y-92607775D01*
X85169900Y-92715532D01*
X85014618Y-92771799D01*
X84712830Y-92810220D01*
X84654896Y-92816215D01*
X84336480Y-92843747D01*
X84113091Y-92853009D01*
X84043764Y-92845831D01*
X84105011Y-92781595D01*
X84286233Y-92644691D01*
X84535288Y-92470458D01*
X84800033Y-92294235D01*
X85028326Y-92151362D01*
X85168024Y-92077176D01*
X85183336Y-92073500D01*
X85183336Y-91869054D01*
X85032500Y-91974450D01*
X84646533Y-92236199D01*
X84267687Y-92503562D01*
X83977537Y-92718961D01*
X83975938Y-92720206D01*
X83579776Y-93028991D01*
X83654830Y-92627445D01*
X83756277Y-92253633D01*
X83903881Y-92047356D01*
X84125635Y-91973763D01*
X84181340Y-91971900D01*
X84366242Y-91935496D01*
X84422900Y-91870300D01*
X84347478Y-91778861D01*
X84167315Y-91781269D01*
X83951561Y-91866244D01*
X83815884Y-91969315D01*
X83671176Y-92152477D01*
X83576266Y-92389053D01*
X83512747Y-92736903D01*
X83482614Y-93016986D01*
X83469662Y-93264706D01*
X83516774Y-93361032D01*
X83516774Y-93361032D01*
G37*
X83516774Y-93361032D02*
X83658016Y-93356100D01*
X83706271Y-93346156D01*
X83918433Y-93308390D01*
X84272439Y-93253119D01*
X84708682Y-93189462D01*
X84951379Y-93155644D01*
X85402913Y-93095516D01*
X85691940Y-93066545D01*
X85857179Y-93071641D01*
X85937351Y-93113714D01*
X85971174Y-93195675D01*
X85978943Y-93232874D01*
X86006256Y-93275759D01*
X86028079Y-93143904D01*
X86034663Y-93019687D01*
X86048500Y-92594275D01*
X85692900Y-92651981D01*
X85462954Y-92679293D01*
X85362652Y-92625877D01*
X85338400Y-92440906D01*
X85337994Y-92315393D01*
X85365787Y-92037495D01*
X85482062Y-91845778D01*
X85698290Y-91676185D01*
X86000033Y-91438629D01*
X86273408Y-91173731D01*
X86307195Y-91134990D01*
X86471129Y-90884938D01*
X86550990Y-90651535D01*
X86535002Y-90489562D01*
X86454900Y-90447900D01*
X86376255Y-90534197D01*
X86353300Y-90681969D01*
X86264768Y-90932490D01*
X85996588Y-91242711D01*
X85544877Y-91616431D01*
X85183336Y-91869054D01*
X85183336Y-92073500D01*
X85218535Y-92162684D01*
X85235439Y-92380809D01*
X85235700Y-92414885D01*
X85227364Y-92607775D01*
X85169900Y-92715532D01*
X85014618Y-92771799D01*
X84712830Y-92810220D01*
X84654896Y-92816215D01*
X84336480Y-92843747D01*
X84113091Y-92853009D01*
X84043764Y-92845831D01*
X84105011Y-92781595D01*
X84286233Y-92644691D01*
X84535288Y-92470458D01*
X84800033Y-92294235D01*
X85028326Y-92151362D01*
X85168024Y-92077176D01*
X85183336Y-92073500D01*
X85183336Y-91869054D01*
X85032500Y-91974450D01*
X84646533Y-92236199D01*
X84267687Y-92503562D01*
X83977537Y-92718961D01*
X83975938Y-92720206D01*
X83579776Y-93028991D01*
X83654830Y-92627445D01*
X83756277Y-92253633D01*
X83903881Y-92047356D01*
X84125635Y-91973763D01*
X84181340Y-91971900D01*
X84366242Y-91935496D01*
X84422900Y-91870300D01*
X84347478Y-91778861D01*
X84167315Y-91781269D01*
X83951561Y-91866244D01*
X83815884Y-91969315D01*
X83671176Y-92152477D01*
X83576266Y-92389053D01*
X83512747Y-92736903D01*
X83482614Y-93016986D01*
X83469662Y-93264706D01*
X83516774Y-93361032D01*
G36*
X84837357Y-94689246D02*
X84893559Y-94704578D01*
X85045948Y-94663691D01*
X85337300Y-94562700D01*
X85607603Y-94470944D01*
X85787362Y-94416640D01*
X85819714Y-94410300D01*
X85807907Y-94473855D01*
X85743700Y-94562700D01*
X85678154Y-94690280D01*
X85727684Y-94715100D01*
X85856016Y-94635229D01*
X85953815Y-94498979D01*
X86017160Y-94312096D01*
X85937115Y-94201088D01*
X85932839Y-94198409D01*
X85849183Y-94098555D01*
X85922349Y-93987810D01*
X86052113Y-93786841D01*
X86010610Y-93652604D01*
X85814981Y-93624772D01*
X85769100Y-93633154D01*
X85458224Y-93707075D01*
X85243963Y-93763785D01*
X85071173Y-93793140D01*
X85043704Y-93714544D01*
X85066412Y-93639231D01*
X85107594Y-93507273D01*
X85066143Y-93535639D01*
X84981949Y-93642318D01*
X84846141Y-93866601D01*
X84876570Y-93974415D01*
X85073457Y-93966464D01*
X85083300Y-93964114D01*
X85396958Y-93887781D01*
X85591300Y-93840485D01*
X85787644Y-93826374D01*
X85839943Y-93898354D01*
X85770927Y-94026429D01*
X85603327Y-94180606D01*
X85359876Y-94330890D01*
X85152902Y-94418969D01*
X84934093Y-94519525D01*
X84830566Y-94614882D01*
X84829300Y-94623439D01*
X84837357Y-94689246D01*
X84837357Y-94689246D01*
G37*
X84837357Y-94689246D02*
X84893559Y-94704578D01*
X85045948Y-94663691D01*
X85337300Y-94562700D01*
X85607603Y-94470944D01*
X85787362Y-94416640D01*
X85819714Y-94410300D01*
X85807907Y-94473855D01*
X85743700Y-94562700D01*
X85678154Y-94690280D01*
X85727684Y-94715100D01*
X85856016Y-94635229D01*
X85953815Y-94498979D01*
X86017160Y-94312096D01*
X85937115Y-94201088D01*
X85932839Y-94198409D01*
X85849183Y-94098555D01*
X85922349Y-93987810D01*
X86052113Y-93786841D01*
X86010610Y-93652604D01*
X85814981Y-93624772D01*
X85769100Y-93633154D01*
X85458224Y-93707075D01*
X85243963Y-93763785D01*
X85071173Y-93793140D01*
X85043704Y-93714544D01*
X85066412Y-93639231D01*
X85107594Y-93507273D01*
X85066143Y-93535639D01*
X84981949Y-93642318D01*
X84846141Y-93866601D01*
X84876570Y-93974415D01*
X85073457Y-93966464D01*
X85083300Y-93964114D01*
X85396958Y-93887781D01*
X85591300Y-93840485D01*
X85787644Y-93826374D01*
X85839943Y-93898354D01*
X85770927Y-94026429D01*
X85603327Y-94180606D01*
X85359876Y-94330890D01*
X85152902Y-94418969D01*
X84934093Y-94519525D01*
X84830566Y-94614882D01*
X84829300Y-94623439D01*
X84837357Y-94689246D01*
G36*
X83996141Y-96730363D02*
X84081841Y-96789421D01*
X84256177Y-96814376D01*
X84319475Y-96753267D01*
X84232160Y-96653201D01*
X84135173Y-96495511D01*
X84133655Y-96385760D01*
X84220224Y-96262887D01*
X84448632Y-96148260D01*
X84848062Y-96027554D01*
X84880252Y-96019255D01*
X85341672Y-95906094D01*
X85634086Y-95849300D01*
X85783257Y-95847307D01*
X85814946Y-95898549D01*
X85781540Y-95964488D01*
X85771416Y-96000447D01*
X85870700Y-95902432D01*
X86024181Y-95686624D01*
X86021702Y-95556320D01*
X85926580Y-95527900D01*
X85855894Y-95497911D01*
X85926580Y-95405980D01*
X86040778Y-95198026D01*
X85986958Y-95016890D01*
X85886865Y-94951497D01*
X85664706Y-94951086D01*
X85664706Y-95121500D01*
X85816585Y-95182328D01*
X85825817Y-95329544D01*
X85697702Y-95510240D01*
X85619493Y-95572938D01*
X85363376Y-95700753D01*
X85151309Y-95719698D01*
X85038678Y-95628684D01*
X85032500Y-95584461D01*
X85117682Y-95410689D01*
X85321272Y-95241646D01*
X85565336Y-95134404D01*
X85664706Y-95121500D01*
X85664706Y-94951086D01*
X85642017Y-94951044D01*
X85349034Y-95072857D01*
X85079457Y-95274983D01*
X84904828Y-95515469D01*
X84898619Y-95531027D01*
X84784919Y-95740666D01*
X84666642Y-95832526D01*
X84662420Y-95832700D01*
X84476079Y-95905347D01*
X84246841Y-96081638D01*
X84040542Y-96299102D01*
X83923015Y-96495263D01*
X83914899Y-96542061D01*
X83996141Y-96730363D01*
X83996141Y-96730363D01*
G37*
X83996141Y-96730363D02*
X84081841Y-96789421D01*
X84256177Y-96814376D01*
X84319475Y-96753267D01*
X84232160Y-96653201D01*
X84135173Y-96495511D01*
X84133655Y-96385760D01*
X84220224Y-96262887D01*
X84448632Y-96148260D01*
X84848062Y-96027554D01*
X84880252Y-96019255D01*
X85341672Y-95906094D01*
X85634086Y-95849300D01*
X85783257Y-95847307D01*
X85814946Y-95898549D01*
X85781540Y-95964488D01*
X85771416Y-96000447D01*
X85870700Y-95902432D01*
X86024181Y-95686624D01*
X86021702Y-95556320D01*
X85926580Y-95527900D01*
X85855894Y-95497911D01*
X85926580Y-95405980D01*
X86040778Y-95198026D01*
X85986958Y-95016890D01*
X85886865Y-94951497D01*
X85664706Y-94951086D01*
X85664706Y-95121500D01*
X85816585Y-95182328D01*
X85825817Y-95329544D01*
X85697702Y-95510240D01*
X85619493Y-95572938D01*
X85363376Y-95700753D01*
X85151309Y-95719698D01*
X85038678Y-95628684D01*
X85032500Y-95584461D01*
X85117682Y-95410689D01*
X85321272Y-95241646D01*
X85565336Y-95134404D01*
X85664706Y-95121500D01*
X85664706Y-94951086D01*
X85642017Y-94951044D01*
X85349034Y-95072857D01*
X85079457Y-95274983D01*
X84904828Y-95515469D01*
X84898619Y-95531027D01*
X84784919Y-95740666D01*
X84666642Y-95832526D01*
X84662420Y-95832700D01*
X84476079Y-95905347D01*
X84246841Y-96081638D01*
X84040542Y-96299102D01*
X83923015Y-96495263D01*
X83914899Y-96542061D01*
X83996141Y-96730363D01*
G36*
X84916066Y-96613552D02*
X85131507Y-96606350D01*
X85408335Y-96560644D01*
X85679265Y-96484056D01*
X85701267Y-96475830D01*
X85802585Y-96479968D01*
X85787358Y-96608787D01*
X85754742Y-96733402D01*
X85803608Y-96701491D01*
X85887805Y-96600681D01*
X86028686Y-96383928D01*
X86000025Y-96275934D01*
X85795580Y-96266936D01*
X85685685Y-96284550D01*
X85400963Y-96345600D01*
X85190257Y-96403758D01*
X85176532Y-96408769D01*
X85075214Y-96404631D01*
X85090441Y-96275812D01*
X85123057Y-96151197D01*
X85074191Y-96183108D01*
X84989994Y-96283918D01*
X84866261Y-96469780D01*
X84829300Y-96574625D01*
X84916066Y-96613552D01*
X84916066Y-96613552D01*
G37*
X84916066Y-96613552D02*
X85131507Y-96606350D01*
X85408335Y-96560644D01*
X85679265Y-96484056D01*
X85701267Y-96475830D01*
X85802585Y-96479968D01*
X85787358Y-96608787D01*
X85754742Y-96733402D01*
X85803608Y-96701491D01*
X85887805Y-96600681D01*
X86028686Y-96383928D01*
X86000025Y-96275934D01*
X85795580Y-96266936D01*
X85685685Y-96284550D01*
X85400963Y-96345600D01*
X85190257Y-96403758D01*
X85176532Y-96408769D01*
X85075214Y-96404631D01*
X85090441Y-96275812D01*
X85123057Y-96151197D01*
X85074191Y-96183108D01*
X84989994Y-96283918D01*
X84866261Y-96469780D01*
X84829300Y-96574625D01*
X84916066Y-96613552D01*
G36*
X84880356Y-97835641D02*
X84931994Y-97916819D01*
X85162088Y-98052795D01*
X85454809Y-98023390D01*
X85762800Y-97834084D01*
X85779664Y-97818751D01*
X85998238Y-97531886D01*
X86034193Y-97260676D01*
X85926580Y-97072220D01*
X85699246Y-96961924D01*
X85539313Y-96982392D01*
X85539313Y-97153500D01*
X85833141Y-97202494D01*
X85946397Y-97341548D01*
X85873660Y-97558765D01*
X85778753Y-97678899D01*
X85566748Y-97813684D01*
X85305792Y-97860794D01*
X85076167Y-97817305D01*
X84966189Y-97708515D01*
X84983413Y-97506338D01*
X85140327Y-97311335D01*
X85379321Y-97179295D01*
X85539313Y-97153500D01*
X85539313Y-96982392D01*
X85435325Y-96995701D01*
X85178147Y-97136756D01*
X84971040Y-97348294D01*
X84857333Y-97593521D01*
X84880356Y-97835641D01*
X84880356Y-97835641D01*
G37*
X84880356Y-97835641D02*
X84931994Y-97916819D01*
X85162088Y-98052795D01*
X85454809Y-98023390D01*
X85762800Y-97834084D01*
X85779664Y-97818751D01*
X85998238Y-97531886D01*
X86034193Y-97260676D01*
X85926580Y-97072220D01*
X85699246Y-96961924D01*
X85539313Y-96982392D01*
X85539313Y-97153500D01*
X85833141Y-97202494D01*
X85946397Y-97341548D01*
X85873660Y-97558765D01*
X85778753Y-97678899D01*
X85566748Y-97813684D01*
X85305792Y-97860794D01*
X85076167Y-97817305D01*
X84966189Y-97708515D01*
X84983413Y-97506338D01*
X85140327Y-97311335D01*
X85379321Y-97179295D01*
X85539313Y-97153500D01*
X85539313Y-96982392D01*
X85435325Y-96995701D01*
X85178147Y-97136756D01*
X84971040Y-97348294D01*
X84857333Y-97593521D01*
X84880356Y-97835641D01*
G36*
X53178811Y-90505629D02*
X53155500Y-90628746D01*
X53139032Y-90735837D01*
X53057136Y-90703844D01*
X52956085Y-90616424D01*
X52724224Y-90493303D01*
X52538311Y-90543902D01*
X52446956Y-90750287D01*
X52444300Y-90805216D01*
X52521008Y-91076554D01*
X52711527Y-91364496D01*
X52956451Y-91596660D01*
X53177529Y-91698588D01*
X53382927Y-91825030D01*
X53471662Y-92015937D01*
X53499390Y-92235505D01*
X53404016Y-92354066D01*
X53326102Y-92390496D01*
X53223125Y-92445805D01*
X53282496Y-92474631D01*
X53524131Y-92485931D01*
X53538843Y-92486159D01*
X53806063Y-92484099D01*
X53907886Y-92448031D01*
X53882046Y-92349255D01*
X53830941Y-92264000D01*
X53723576Y-92029296D01*
X53613713Y-91695569D01*
X53570005Y-91527400D01*
X53543251Y-91416527D01*
X53325606Y-91416527D01*
X53302234Y-91485768D01*
X53149272Y-91573902D01*
X52951372Y-91519421D01*
X52863744Y-91441516D01*
X52763442Y-91247325D01*
X52686204Y-90984316D01*
X52663863Y-90754187D01*
X52731231Y-90668068D01*
X52771454Y-90663800D01*
X52964629Y-90746103D01*
X53151737Y-90946002D01*
X53287240Y-91192982D01*
X53325606Y-91416527D01*
X53543251Y-91416527D01*
X53489250Y-91192740D01*
X53418344Y-90916159D01*
X53393182Y-90826230D01*
X53382382Y-90687676D01*
X53505763Y-90693018D01*
X53524776Y-90699480D01*
X53649610Y-90736890D01*
X53614761Y-90690497D01*
X53517082Y-90613249D01*
X53294010Y-90477404D01*
X53178811Y-90505629D01*
X53178811Y-90505629D01*
G37*
X53178811Y-90505629D02*
X53155500Y-90628746D01*
X53139032Y-90735837D01*
X53057136Y-90703844D01*
X52956085Y-90616424D01*
X52724224Y-90493303D01*
X52538311Y-90543902D01*
X52446956Y-90750287D01*
X52444300Y-90805216D01*
X52521008Y-91076554D01*
X52711527Y-91364496D01*
X52956451Y-91596660D01*
X53177529Y-91698588D01*
X53382927Y-91825030D01*
X53471662Y-92015937D01*
X53499390Y-92235505D01*
X53404016Y-92354066D01*
X53326102Y-92390496D01*
X53223125Y-92445805D01*
X53282496Y-92474631D01*
X53524131Y-92485931D01*
X53538843Y-92486159D01*
X53806063Y-92484099D01*
X53907886Y-92448031D01*
X53882046Y-92349255D01*
X53830941Y-92264000D01*
X53723576Y-92029296D01*
X53613713Y-91695569D01*
X53570005Y-91527400D01*
X53543251Y-91416527D01*
X53325606Y-91416527D01*
X53302234Y-91485768D01*
X53149272Y-91573902D01*
X52951372Y-91519421D01*
X52863744Y-91441516D01*
X52763442Y-91247325D01*
X52686204Y-90984316D01*
X52663863Y-90754187D01*
X52731231Y-90668068D01*
X52771454Y-90663800D01*
X52964629Y-90746103D01*
X53151737Y-90946002D01*
X53287240Y-91192982D01*
X53325606Y-91416527D01*
X53543251Y-91416527D01*
X53489250Y-91192740D01*
X53418344Y-90916159D01*
X53393182Y-90826230D01*
X53382382Y-90687676D01*
X53505763Y-90693018D01*
X53524776Y-90699480D01*
X53649610Y-90736890D01*
X53614761Y-90690497D01*
X53517082Y-90613249D01*
X53294010Y-90477404D01*
X53178811Y-90505629D01*
G36*
X46928065Y-90486881D02*
X46920472Y-90604850D01*
X46958414Y-90715950D01*
X47026781Y-90953574D01*
X47103779Y-91305749D01*
X47157463Y-91604950D01*
X47264252Y-92059976D01*
X47420462Y-92340500D01*
X47645915Y-92473054D01*
X47820599Y-92492600D01*
X48053999Y-92437813D01*
X48156780Y-92370680D01*
X48250178Y-92193183D01*
X48053595Y-92193183D01*
X48045521Y-92220978D01*
X47909774Y-92372153D01*
X47710722Y-92347884D01*
X47528394Y-92200721D01*
X47402610Y-91943221D01*
X47373734Y-91667321D01*
X47350611Y-91330172D01*
X47276187Y-91038185D01*
X47185565Y-90798286D01*
X47177970Y-90691769D01*
X47257956Y-90664578D01*
X47307739Y-90663800D01*
X47481511Y-90748982D01*
X47650554Y-90952572D01*
X47757796Y-91196636D01*
X47770700Y-91296006D01*
X47690842Y-91449504D01*
X47596738Y-91476600D01*
X47531507Y-91514924D01*
X47625799Y-91638901D01*
X47766770Y-91763778D01*
X48000382Y-92004898D01*
X48053595Y-92193183D01*
X48250178Y-92193183D01*
X48272076Y-92151569D01*
X48188818Y-91946518D01*
X48092261Y-91869888D01*
X47950001Y-91675061D01*
X47949212Y-91526466D01*
X47922734Y-91176078D01*
X47745520Y-90843311D01*
X47465744Y-90586481D01*
X47131585Y-90463905D01*
X47068695Y-90460600D01*
X46928065Y-90486881D01*
X46928065Y-90486881D01*
G37*
X46928065Y-90486881D02*
X46920472Y-90604850D01*
X46958414Y-90715950D01*
X47026781Y-90953574D01*
X47103779Y-91305749D01*
X47157463Y-91604950D01*
X47264252Y-92059976D01*
X47420462Y-92340500D01*
X47645915Y-92473054D01*
X47820599Y-92492600D01*
X48053999Y-92437813D01*
X48156780Y-92370680D01*
X48250178Y-92193183D01*
X48053595Y-92193183D01*
X48045521Y-92220978D01*
X47909774Y-92372153D01*
X47710722Y-92347884D01*
X47528394Y-92200721D01*
X47402610Y-91943221D01*
X47373734Y-91667321D01*
X47350611Y-91330172D01*
X47276187Y-91038185D01*
X47185565Y-90798286D01*
X47177970Y-90691769D01*
X47257956Y-90664578D01*
X47307739Y-90663800D01*
X47481511Y-90748982D01*
X47650554Y-90952572D01*
X47757796Y-91196636D01*
X47770700Y-91296006D01*
X47690842Y-91449504D01*
X47596738Y-91476600D01*
X47531507Y-91514924D01*
X47625799Y-91638901D01*
X47766770Y-91763778D01*
X48000382Y-92004898D01*
X48053595Y-92193183D01*
X48250178Y-92193183D01*
X48272076Y-92151569D01*
X48188818Y-91946518D01*
X48092261Y-91869888D01*
X47950001Y-91675061D01*
X47949212Y-91526466D01*
X47922734Y-91176078D01*
X47745520Y-90843311D01*
X47465744Y-90586481D01*
X47131585Y-90463905D01*
X47068695Y-90460600D01*
X46928065Y-90486881D01*
G36*
X45643260Y-90538610D02*
X45642627Y-90744915D01*
X45720121Y-91037921D01*
X45859065Y-91376037D01*
X46042780Y-91717671D01*
X46254586Y-92021230D01*
X46443177Y-92217351D01*
X46705544Y-92394138D01*
X46945787Y-92484557D01*
X47113351Y-92476379D01*
X47161100Y-92391000D01*
X47072867Y-92319451D01*
X46860506Y-92289401D01*
X46858643Y-92289400D01*
X46544311Y-92205097D01*
X46344671Y-91965848D01*
X46271880Y-91592137D01*
X46290916Y-91332692D01*
X46388715Y-90961913D01*
X46538583Y-90741010D01*
X46722245Y-90693331D01*
X46775650Y-90713387D01*
X46809174Y-90712247D01*
X46708009Y-90619164D01*
X46516383Y-90503553D01*
X46371556Y-90533227D01*
X46245825Y-90727864D01*
X46137557Y-91024314D01*
X46042386Y-91303052D01*
X45982697Y-91408393D01*
X45938221Y-91362341D01*
X45910344Y-91270970D01*
X45856831Y-90965118D01*
X45841688Y-90740000D01*
X45808791Y-90537204D01*
X45738700Y-90460600D01*
X45643260Y-90538610D01*
X45643260Y-90538610D01*
G37*
X45643260Y-90538610D02*
X45642627Y-90744915D01*
X45720121Y-91037921D01*
X45859065Y-91376037D01*
X46042780Y-91717671D01*
X46254586Y-92021230D01*
X46443177Y-92217351D01*
X46705544Y-92394138D01*
X46945787Y-92484557D01*
X47113351Y-92476379D01*
X47161100Y-92391000D01*
X47072867Y-92319451D01*
X46860506Y-92289401D01*
X46858643Y-92289400D01*
X46544311Y-92205097D01*
X46344671Y-91965848D01*
X46271880Y-91592137D01*
X46290916Y-91332692D01*
X46388715Y-90961913D01*
X46538583Y-90741010D01*
X46722245Y-90693331D01*
X46775650Y-90713387D01*
X46809174Y-90712247D01*
X46708009Y-90619164D01*
X46516383Y-90503553D01*
X46371556Y-90533227D01*
X46245825Y-90727864D01*
X46137557Y-91024314D01*
X46042386Y-91303052D01*
X45982697Y-91408393D01*
X45938221Y-91362341D01*
X45910344Y-91270970D01*
X45856831Y-90965118D01*
X45841688Y-90740000D01*
X45808791Y-90537204D01*
X45738700Y-90460600D01*
X45643260Y-90538610D01*
G36*
X57310973Y-89724000D02*
X57293812Y-90091861D01*
X57260630Y-90408808D01*
X57234220Y-90545138D01*
X57190557Y-90651096D01*
X57126767Y-90654342D01*
X57016971Y-90533432D01*
X56835291Y-90266917D01*
X56761748Y-90153578D01*
X56506990Y-89797827D01*
X56242651Y-89491909D01*
X56001733Y-89267639D01*
X55817244Y-89156832D01*
X55737129Y-89165904D01*
X55744078Y-89277016D01*
X55800051Y-89540915D01*
X55895321Y-89915866D01*
X55996979Y-90280519D01*
X56122399Y-90724030D01*
X56223225Y-91098578D01*
X56287667Y-91359202D01*
X56305100Y-91455464D01*
X56218912Y-91556863D01*
X56076500Y-91608097D01*
X56030090Y-91635388D01*
X56159023Y-91657588D01*
X56318031Y-91665963D01*
X56788161Y-91679800D01*
X56541596Y-90804301D01*
X56436647Y-90412358D01*
X56363580Y-90101280D01*
X56332790Y-89917335D01*
X56335773Y-89888061D01*
X56415387Y-89941054D01*
X56579994Y-90152179D01*
X56816020Y-90501874D01*
X57109890Y-90970577D01*
X57261855Y-91222600D01*
X57625378Y-91832200D01*
X57634540Y-91324200D01*
X57648245Y-91031197D01*
X57675911Y-90708842D01*
X57711660Y-90399322D01*
X57749616Y-90144822D01*
X57783901Y-89987529D01*
X57808641Y-89969630D01*
X57815525Y-90024988D01*
X57880674Y-90360868D01*
X58020750Y-90759338D01*
X58203535Y-91148410D01*
X58396812Y-91456096D01*
X58509637Y-91575887D01*
X58802910Y-91742811D01*
X59059135Y-91775045D01*
X59183767Y-91713666D01*
X59249696Y-91574810D01*
X59129806Y-91493000D01*
X58955732Y-91476600D01*
X58628186Y-91378397D01*
X58347487Y-91088965D01*
X58119342Y-90616066D01*
X57990231Y-90163723D01*
X57895888Y-89739730D01*
X57848154Y-89473215D01*
X57847737Y-89323710D01*
X57895344Y-89250745D01*
X57991682Y-89213851D01*
X58006900Y-89209835D01*
X58028204Y-89180185D01*
X57880344Y-89157712D01*
X57752900Y-89151585D01*
X57321100Y-89139800D01*
X57310973Y-89724000D01*
X57310973Y-89724000D01*
G37*
X57310973Y-89724000D02*
X57293812Y-90091861D01*
X57260630Y-90408808D01*
X57234220Y-90545138D01*
X57190557Y-90651096D01*
X57126767Y-90654342D01*
X57016971Y-90533432D01*
X56835291Y-90266917D01*
X56761748Y-90153578D01*
X56506990Y-89797827D01*
X56242651Y-89491909D01*
X56001733Y-89267639D01*
X55817244Y-89156832D01*
X55737129Y-89165904D01*
X55744078Y-89277016D01*
X55800051Y-89540915D01*
X55895321Y-89915866D01*
X55996979Y-90280519D01*
X56122399Y-90724030D01*
X56223225Y-91098578D01*
X56287667Y-91359202D01*
X56305100Y-91455464D01*
X56218912Y-91556863D01*
X56076500Y-91608097D01*
X56030090Y-91635388D01*
X56159023Y-91657588D01*
X56318031Y-91665963D01*
X56788161Y-91679800D01*
X56541596Y-90804301D01*
X56436647Y-90412358D01*
X56363580Y-90101280D01*
X56332790Y-89917335D01*
X56335773Y-89888061D01*
X56415387Y-89941054D01*
X56579994Y-90152179D01*
X56816020Y-90501874D01*
X57109890Y-90970577D01*
X57261855Y-91222600D01*
X57625378Y-91832200D01*
X57634540Y-91324200D01*
X57648245Y-91031197D01*
X57675911Y-90708842D01*
X57711660Y-90399322D01*
X57749616Y-90144822D01*
X57783901Y-89987529D01*
X57808641Y-89969630D01*
X57815525Y-90024988D01*
X57880674Y-90360868D01*
X58020750Y-90759338D01*
X58203535Y-91148410D01*
X58396812Y-91456096D01*
X58509637Y-91575887D01*
X58802910Y-91742811D01*
X59059135Y-91775045D01*
X59183767Y-91713666D01*
X59249696Y-91574810D01*
X59129806Y-91493000D01*
X58955732Y-91476600D01*
X58628186Y-91378397D01*
X58347487Y-91088965D01*
X58119342Y-90616066D01*
X57990231Y-90163723D01*
X57895888Y-89739730D01*
X57848154Y-89473215D01*
X57847737Y-89323710D01*
X57895344Y-89250745D01*
X57991682Y-89213851D01*
X58006900Y-89209835D01*
X58028204Y-89180185D01*
X57880344Y-89157712D01*
X57752900Y-89151585D01*
X57321100Y-89139800D01*
X57310973Y-89724000D01*
G36*
X54911759Y-90511656D02*
X54830581Y-90563294D01*
X54694605Y-90793388D01*
X54724010Y-91086109D01*
X54913316Y-91394100D01*
X54928649Y-91410964D01*
X55215514Y-91629538D01*
X55486724Y-91665493D01*
X55675180Y-91557880D01*
X55785476Y-91330546D01*
X55765008Y-91170613D01*
X55593900Y-91170613D01*
X55544906Y-91464441D01*
X55405852Y-91577697D01*
X55188635Y-91504960D01*
X55068501Y-91410053D01*
X54933716Y-91198048D01*
X54886606Y-90937092D01*
X54930095Y-90707467D01*
X55038885Y-90597489D01*
X55241062Y-90614713D01*
X55436065Y-90771627D01*
X55568105Y-91010621D01*
X55593900Y-91170613D01*
X55765008Y-91170613D01*
X55751699Y-91066625D01*
X55610644Y-90809447D01*
X55399106Y-90602340D01*
X55153879Y-90488633D01*
X54911759Y-90511656D01*
X54911759Y-90511656D01*
G37*
X54911759Y-90511656D02*
X54830581Y-90563294D01*
X54694605Y-90793388D01*
X54724010Y-91086109D01*
X54913316Y-91394100D01*
X54928649Y-91410964D01*
X55215514Y-91629538D01*
X55486724Y-91665493D01*
X55675180Y-91557880D01*
X55785476Y-91330546D01*
X55765008Y-91170613D01*
X55593900Y-91170613D01*
X55544906Y-91464441D01*
X55405852Y-91577697D01*
X55188635Y-91504960D01*
X55068501Y-91410053D01*
X54933716Y-91198048D01*
X54886606Y-90937092D01*
X54930095Y-90707467D01*
X55038885Y-90597489D01*
X55241062Y-90614713D01*
X55436065Y-90771627D01*
X55568105Y-91010621D01*
X55593900Y-91170613D01*
X55765008Y-91170613D01*
X55751699Y-91066625D01*
X55610644Y-90809447D01*
X55399106Y-90602340D01*
X55153879Y-90488633D01*
X54911759Y-90511656D01*
G36*
X53635492Y-90464549D02*
X53779364Y-90572321D01*
X53958063Y-90661637D01*
X54094658Y-90685563D01*
X54095300Y-90685385D01*
X54165965Y-90743661D01*
X54172067Y-90790800D01*
X54204343Y-91031027D01*
X54282212Y-91305859D01*
X54379904Y-91543671D01*
X54471647Y-91672842D01*
X54491946Y-91679800D01*
X54557300Y-91606291D01*
X54543928Y-91534614D01*
X54488766Y-91341609D01*
X54426169Y-91057628D01*
X54417395Y-91011927D01*
X54384620Y-90770858D01*
X54416729Y-90688158D01*
X54487638Y-90707447D01*
X54528646Y-90711006D01*
X54431482Y-90620534D01*
X54206045Y-90478043D01*
X54087024Y-90498694D01*
X54069900Y-90577946D01*
X54009044Y-90607709D01*
X53866078Y-90510836D01*
X53698181Y-90394758D01*
X53603376Y-90385257D01*
X53635492Y-90464549D01*
X53635492Y-90464549D01*
G37*
X53635492Y-90464549D02*
X53779364Y-90572321D01*
X53958063Y-90661637D01*
X54094658Y-90685563D01*
X54095300Y-90685385D01*
X54165965Y-90743661D01*
X54172067Y-90790800D01*
X54204343Y-91031027D01*
X54282212Y-91305859D01*
X54379904Y-91543671D01*
X54471647Y-91672842D01*
X54491946Y-91679800D01*
X54557300Y-91606291D01*
X54543928Y-91534614D01*
X54488766Y-91341609D01*
X54426169Y-91057628D01*
X54417395Y-91011927D01*
X54384620Y-90770858D01*
X54416729Y-90688158D01*
X54487638Y-90707447D01*
X54528646Y-90711006D01*
X54431482Y-90620534D01*
X54206045Y-90478043D01*
X54087024Y-90498694D01*
X54069900Y-90577946D01*
X54009044Y-90607709D01*
X53866078Y-90510836D01*
X53698181Y-90394758D01*
X53603376Y-90385257D01*
X53635492Y-90464549D01*
G36*
X51156195Y-89572906D02*
X51123500Y-89647800D01*
X51210327Y-89724606D01*
X51373584Y-89749400D01*
X51545805Y-89784815D01*
X51656580Y-89925868D01*
X51735862Y-90166055D01*
X51803853Y-90477181D01*
X51784435Y-90623054D01*
X51666787Y-90626636D01*
X51545282Y-90570431D01*
X51354572Y-90483266D01*
X51269286Y-90460600D01*
X51237756Y-90546971D01*
X51251479Y-90760162D01*
X51301022Y-91031292D01*
X51376951Y-91291478D01*
X51386495Y-91316438D01*
X51416007Y-91456221D01*
X51308447Y-91456596D01*
X51268139Y-91443189D01*
X51134191Y-91400973D01*
X51160839Y-91441119D01*
X51269919Y-91527150D01*
X51489987Y-91664894D01*
X51605160Y-91647574D01*
X51620659Y-91466194D01*
X51541706Y-91111757D01*
X51531638Y-91076258D01*
X51468203Y-90800991D01*
X51497106Y-90688826D01*
X51633078Y-90715068D01*
X51720948Y-90758896D01*
X51880399Y-90925395D01*
X52014884Y-91199085D01*
X52038366Y-91275127D01*
X52128984Y-91526854D01*
X52224262Y-91668457D01*
X52251863Y-91679800D01*
X52315350Y-91601419D01*
X52304099Y-91502000D01*
X52253079Y-91314617D01*
X52171532Y-91001052D01*
X52085851Y-90663800D01*
X51967356Y-90284213D01*
X51824876Y-89956602D01*
X51707189Y-89774800D01*
X51506629Y-89620792D01*
X51301761Y-89548881D01*
X51156195Y-89572906D01*
X51156195Y-89572906D01*
G37*
X51156195Y-89572906D02*
X51123500Y-89647800D01*
X51210327Y-89724606D01*
X51373584Y-89749400D01*
X51545805Y-89784815D01*
X51656580Y-89925868D01*
X51735862Y-90166055D01*
X51803853Y-90477181D01*
X51784435Y-90623054D01*
X51666787Y-90626636D01*
X51545282Y-90570431D01*
X51354572Y-90483266D01*
X51269286Y-90460600D01*
X51237756Y-90546971D01*
X51251479Y-90760162D01*
X51301022Y-91031292D01*
X51376951Y-91291478D01*
X51386495Y-91316438D01*
X51416007Y-91456221D01*
X51308447Y-91456596D01*
X51268139Y-91443189D01*
X51134191Y-91400973D01*
X51160839Y-91441119D01*
X51269919Y-91527150D01*
X51489987Y-91664894D01*
X51605160Y-91647574D01*
X51620659Y-91466194D01*
X51541706Y-91111757D01*
X51531638Y-91076258D01*
X51468203Y-90800991D01*
X51497106Y-90688826D01*
X51633078Y-90715068D01*
X51720948Y-90758896D01*
X51880399Y-90925395D01*
X52014884Y-91199085D01*
X52038366Y-91275127D01*
X52128984Y-91526854D01*
X52224262Y-91668457D01*
X52251863Y-91679800D01*
X52315350Y-91601419D01*
X52304099Y-91502000D01*
X52253079Y-91314617D01*
X52171532Y-91001052D01*
X52085851Y-90663800D01*
X51967356Y-90284213D01*
X51824876Y-89956602D01*
X51707189Y-89774800D01*
X51506629Y-89620792D01*
X51301761Y-89548881D01*
X51156195Y-89572906D01*
G36*
X50136559Y-90511656D02*
X50055381Y-90563294D01*
X49919405Y-90793388D01*
X49948810Y-91086109D01*
X50138116Y-91394100D01*
X50153449Y-91410964D01*
X50440314Y-91629538D01*
X50711524Y-91665493D01*
X50899980Y-91557880D01*
X51010276Y-91330546D01*
X50989808Y-91170613D01*
X50818700Y-91170613D01*
X50769706Y-91464441D01*
X50630652Y-91577697D01*
X50413435Y-91504960D01*
X50293301Y-91410053D01*
X50158516Y-91198048D01*
X50111406Y-90937092D01*
X50154895Y-90707467D01*
X50263685Y-90597489D01*
X50465862Y-90614713D01*
X50660865Y-90771627D01*
X50792905Y-91010621D01*
X50818700Y-91170613D01*
X50989808Y-91170613D01*
X50976499Y-91066625D01*
X50835444Y-90809447D01*
X50623906Y-90602340D01*
X50378679Y-90488633D01*
X50136559Y-90511656D01*
X50136559Y-90511656D01*
G37*
X50136559Y-90511656D02*
X50055381Y-90563294D01*
X49919405Y-90793388D01*
X49948810Y-91086109D01*
X50138116Y-91394100D01*
X50153449Y-91410964D01*
X50440314Y-91629538D01*
X50711524Y-91665493D01*
X50899980Y-91557880D01*
X51010276Y-91330546D01*
X50989808Y-91170613D01*
X50818700Y-91170613D01*
X50769706Y-91464441D01*
X50630652Y-91577697D01*
X50413435Y-91504960D01*
X50293301Y-91410053D01*
X50158516Y-91198048D01*
X50111406Y-90937092D01*
X50154895Y-90707467D01*
X50263685Y-90597489D01*
X50465862Y-90614713D01*
X50660865Y-90771627D01*
X50792905Y-91010621D01*
X50818700Y-91170613D01*
X50989808Y-91170613D01*
X50976499Y-91066625D01*
X50835444Y-90809447D01*
X50623906Y-90602340D01*
X50378679Y-90488633D01*
X50136559Y-90511656D01*
G36*
X48714052Y-89578390D02*
X48685100Y-89647800D01*
X48771655Y-89725559D01*
X48926749Y-89749400D01*
X49060503Y-89771371D01*
X49156815Y-89865671D01*
X49241192Y-90074880D01*
X49337569Y-90435200D01*
X49431410Y-90809960D01*
X49512811Y-91125138D01*
X49562735Y-91307520D01*
X49582348Y-91431337D01*
X49496638Y-91426089D01*
X49380515Y-91368936D01*
X49218480Y-91288545D01*
X49211899Y-91317564D01*
X49335847Y-91461816D01*
X49535614Y-91627619D01*
X49706780Y-91675234D01*
X49797126Y-91594446D01*
X49800963Y-91552800D01*
X49766425Y-91292218D01*
X49681047Y-90929712D01*
X49564457Y-90528902D01*
X49436281Y-90153409D01*
X49316144Y-89866856D01*
X49245035Y-89750653D01*
X49056464Y-89609581D01*
X48856409Y-89547924D01*
X48714052Y-89578390D01*
X48714052Y-89578390D01*
G37*
X48714052Y-89578390D02*
X48685100Y-89647800D01*
X48771655Y-89725559D01*
X48926749Y-89749400D01*
X49060503Y-89771371D01*
X49156815Y-89865671D01*
X49241192Y-90074880D01*
X49337569Y-90435200D01*
X49431410Y-90809960D01*
X49512811Y-91125138D01*
X49562735Y-91307520D01*
X49582348Y-91431337D01*
X49496638Y-91426089D01*
X49380515Y-91368936D01*
X49218480Y-91288545D01*
X49211899Y-91317564D01*
X49335847Y-91461816D01*
X49535614Y-91627619D01*
X49706780Y-91675234D01*
X49797126Y-91594446D01*
X49800963Y-91552800D01*
X49766425Y-91292218D01*
X49681047Y-90929712D01*
X49564457Y-90528902D01*
X49436281Y-90153409D01*
X49316144Y-89866856D01*
X49245035Y-89750653D01*
X49056464Y-89609581D01*
X48856409Y-89547924D01*
X48714052Y-89578390D01*
G36*
X48206159Y-90511656D02*
X48124981Y-90563294D01*
X47989005Y-90793388D01*
X48018410Y-91086109D01*
X48207716Y-91394100D01*
X48223049Y-91410964D01*
X48509914Y-91629538D01*
X48781124Y-91665493D01*
X48969580Y-91557880D01*
X49079876Y-91330546D01*
X49059408Y-91170613D01*
X48888300Y-91170613D01*
X48839306Y-91464441D01*
X48700252Y-91577697D01*
X48483035Y-91504960D01*
X48362901Y-91410053D01*
X48228116Y-91198048D01*
X48181006Y-90937092D01*
X48224495Y-90707467D01*
X48333285Y-90597489D01*
X48535462Y-90614713D01*
X48730465Y-90771627D01*
X48862505Y-91010621D01*
X48888300Y-91170613D01*
X49059408Y-91170613D01*
X49046099Y-91066625D01*
X48905044Y-90809447D01*
X48693506Y-90602340D01*
X48448279Y-90488633D01*
X48206159Y-90511656D01*
X48206159Y-90511656D01*
G37*
X48206159Y-90511656D02*
X48124981Y-90563294D01*
X47989005Y-90793388D01*
X48018410Y-91086109D01*
X48207716Y-91394100D01*
X48223049Y-91410964D01*
X48509914Y-91629538D01*
X48781124Y-91665493D01*
X48969580Y-91557880D01*
X49079876Y-91330546D01*
X49059408Y-91170613D01*
X48888300Y-91170613D01*
X48839306Y-91464441D01*
X48700252Y-91577697D01*
X48483035Y-91504960D01*
X48362901Y-91410053D01*
X48228116Y-91198048D01*
X48181006Y-90937092D01*
X48224495Y-90707467D01*
X48333285Y-90597489D01*
X48535462Y-90614713D01*
X48730465Y-90771627D01*
X48862505Y-91010621D01*
X48888300Y-91170613D01*
X49059408Y-91170613D01*
X49046099Y-91066625D01*
X48905044Y-90809447D01*
X48693506Y-90602340D01*
X48448279Y-90488633D01*
X48206159Y-90511656D01*
G36*
X58300547Y-89287435D02*
X58433721Y-89384452D01*
X58457124Y-89397457D01*
X58722765Y-89626334D01*
X58812581Y-89908877D01*
X58749129Y-90145282D01*
X58654394Y-90356059D01*
X58680347Y-90445550D01*
X58783430Y-90460600D01*
X58938424Y-90378311D01*
X58986630Y-90299890D01*
X59042665Y-90065217D01*
X59048300Y-89987275D01*
X58975787Y-89814062D01*
X58799658Y-89592988D01*
X58582034Y-89387283D01*
X58385033Y-89260173D01*
X58319516Y-89245467D01*
X58300547Y-89287435D01*
X58300547Y-89287435D01*
G37*
X58300547Y-89287435D02*
X58433721Y-89384452D01*
X58457124Y-89397457D01*
X58722765Y-89626334D01*
X58812581Y-89908877D01*
X58749129Y-90145282D01*
X58654394Y-90356059D01*
X58680347Y-90445550D01*
X58783430Y-90460600D01*
X58938424Y-90378311D01*
X58986630Y-90299890D01*
X59042665Y-90065217D01*
X59048300Y-89987275D01*
X58975787Y-89814062D01*
X58799658Y-89592988D01*
X58582034Y-89387283D01*
X58385033Y-89260173D01*
X58319516Y-89245467D01*
X58300547Y-89287435D01*
G36*
X57963968Y-86303274D02*
X57968900Y-86444516D01*
X57978844Y-86492771D01*
X58016610Y-86704933D01*
X58071881Y-87058939D01*
X58135538Y-87495182D01*
X58169356Y-87737879D01*
X58229484Y-88189413D01*
X58258455Y-88478440D01*
X58253359Y-88643679D01*
X58211286Y-88723851D01*
X58129325Y-88757674D01*
X58092126Y-88765443D01*
X58049241Y-88792756D01*
X58181096Y-88814579D01*
X58305313Y-88821163D01*
X58730725Y-88835000D01*
X58673019Y-88479400D01*
X58645707Y-88249454D01*
X58699123Y-88149152D01*
X58884094Y-88124900D01*
X59009607Y-88124494D01*
X59287505Y-88152287D01*
X59479222Y-88268562D01*
X59648815Y-88484790D01*
X59886371Y-88786533D01*
X60151269Y-89059908D01*
X60190010Y-89093695D01*
X60440062Y-89257629D01*
X60673465Y-89337490D01*
X60835438Y-89321502D01*
X60877100Y-89241400D01*
X60790803Y-89162755D01*
X60643031Y-89139800D01*
X60392510Y-89051268D01*
X60082289Y-88783088D01*
X59708569Y-88331377D01*
X59455946Y-87969836D01*
X59251500Y-87969836D01*
X59162316Y-88005035D01*
X58944191Y-88021939D01*
X58910115Y-88022200D01*
X58717225Y-88013864D01*
X58609468Y-87956400D01*
X58553201Y-87801118D01*
X58514780Y-87499330D01*
X58508785Y-87441396D01*
X58481253Y-87122980D01*
X58471991Y-86899591D01*
X58479169Y-86830264D01*
X58543405Y-86891511D01*
X58680309Y-87072733D01*
X58854542Y-87321788D01*
X59030765Y-87586533D01*
X59173638Y-87814826D01*
X59247824Y-87954524D01*
X59251500Y-87969836D01*
X59455946Y-87969836D01*
X59350550Y-87819000D01*
X59088801Y-87433033D01*
X58821438Y-87054187D01*
X58606039Y-86764037D01*
X58604794Y-86762438D01*
X58296009Y-86366276D01*
X58697555Y-86441330D01*
X59071367Y-86542777D01*
X59277644Y-86690381D01*
X59351237Y-86912135D01*
X59353100Y-86967840D01*
X59389504Y-87152742D01*
X59454700Y-87209400D01*
X59546139Y-87133978D01*
X59543731Y-86953815D01*
X59458756Y-86738061D01*
X59355685Y-86602384D01*
X59172523Y-86457676D01*
X58935947Y-86362766D01*
X58588097Y-86299247D01*
X58308014Y-86269114D01*
X58060294Y-86256162D01*
X57963968Y-86303274D01*
X57963968Y-86303274D01*
G37*
X57963968Y-86303274D02*
X57968900Y-86444516D01*
X57978844Y-86492771D01*
X58016610Y-86704933D01*
X58071881Y-87058939D01*
X58135538Y-87495182D01*
X58169356Y-87737879D01*
X58229484Y-88189413D01*
X58258455Y-88478440D01*
X58253359Y-88643679D01*
X58211286Y-88723851D01*
X58129325Y-88757674D01*
X58092126Y-88765443D01*
X58049241Y-88792756D01*
X58181096Y-88814579D01*
X58305313Y-88821163D01*
X58730725Y-88835000D01*
X58673019Y-88479400D01*
X58645707Y-88249454D01*
X58699123Y-88149152D01*
X58884094Y-88124900D01*
X59009607Y-88124494D01*
X59287505Y-88152287D01*
X59479222Y-88268562D01*
X59648815Y-88484790D01*
X59886371Y-88786533D01*
X60151269Y-89059908D01*
X60190010Y-89093695D01*
X60440062Y-89257629D01*
X60673465Y-89337490D01*
X60835438Y-89321502D01*
X60877100Y-89241400D01*
X60790803Y-89162755D01*
X60643031Y-89139800D01*
X60392510Y-89051268D01*
X60082289Y-88783088D01*
X59708569Y-88331377D01*
X59455946Y-87969836D01*
X59251500Y-87969836D01*
X59162316Y-88005035D01*
X58944191Y-88021939D01*
X58910115Y-88022200D01*
X58717225Y-88013864D01*
X58609468Y-87956400D01*
X58553201Y-87801118D01*
X58514780Y-87499330D01*
X58508785Y-87441396D01*
X58481253Y-87122980D01*
X58471991Y-86899591D01*
X58479169Y-86830264D01*
X58543405Y-86891511D01*
X58680309Y-87072733D01*
X58854542Y-87321788D01*
X59030765Y-87586533D01*
X59173638Y-87814826D01*
X59247824Y-87954524D01*
X59251500Y-87969836D01*
X59455946Y-87969836D01*
X59350550Y-87819000D01*
X59088801Y-87433033D01*
X58821438Y-87054187D01*
X58606039Y-86764037D01*
X58604794Y-86762438D01*
X58296009Y-86366276D01*
X58697555Y-86441330D01*
X59071367Y-86542777D01*
X59277644Y-86690381D01*
X59351237Y-86912135D01*
X59353100Y-86967840D01*
X59389504Y-87152742D01*
X59454700Y-87209400D01*
X59546139Y-87133978D01*
X59543731Y-86953815D01*
X59458756Y-86738061D01*
X59355685Y-86602384D01*
X59172523Y-86457676D01*
X58935947Y-86362766D01*
X58588097Y-86299247D01*
X58308014Y-86269114D01*
X58060294Y-86256162D01*
X57963968Y-86303274D01*
G36*
X56635754Y-87623857D02*
X56620422Y-87680059D01*
X56661309Y-87832448D01*
X56762300Y-88123800D01*
X56854056Y-88394103D01*
X56908360Y-88573862D01*
X56914700Y-88606214D01*
X56851145Y-88594407D01*
X56762300Y-88530200D01*
X56634720Y-88464654D01*
X56609900Y-88514184D01*
X56689771Y-88642516D01*
X56826021Y-88740315D01*
X57012904Y-88803660D01*
X57123912Y-88723615D01*
X57126591Y-88719339D01*
X57226445Y-88635683D01*
X57337190Y-88708849D01*
X57538159Y-88838613D01*
X57672396Y-88797110D01*
X57700228Y-88601481D01*
X57691846Y-88555600D01*
X57617925Y-88244724D01*
X57561215Y-88030463D01*
X57531860Y-87857673D01*
X57610456Y-87830204D01*
X57685769Y-87852912D01*
X57817727Y-87894094D01*
X57789361Y-87852643D01*
X57682682Y-87768449D01*
X57458399Y-87632641D01*
X57350585Y-87663070D01*
X57358536Y-87859957D01*
X57360886Y-87869800D01*
X57437219Y-88183458D01*
X57484515Y-88377800D01*
X57498626Y-88574144D01*
X57426646Y-88626443D01*
X57298571Y-88557427D01*
X57144394Y-88389827D01*
X56994110Y-88146376D01*
X56906031Y-87939402D01*
X56805475Y-87720593D01*
X56710118Y-87617066D01*
X56701561Y-87615800D01*
X56635754Y-87623857D01*
X56635754Y-87623857D01*
G37*
X56635754Y-87623857D02*
X56620422Y-87680059D01*
X56661309Y-87832448D01*
X56762300Y-88123800D01*
X56854056Y-88394103D01*
X56908360Y-88573862D01*
X56914700Y-88606214D01*
X56851145Y-88594407D01*
X56762300Y-88530200D01*
X56634720Y-88464654D01*
X56609900Y-88514184D01*
X56689771Y-88642516D01*
X56826021Y-88740315D01*
X57012904Y-88803660D01*
X57123912Y-88723615D01*
X57126591Y-88719339D01*
X57226445Y-88635683D01*
X57337190Y-88708849D01*
X57538159Y-88838613D01*
X57672396Y-88797110D01*
X57700228Y-88601481D01*
X57691846Y-88555600D01*
X57617925Y-88244724D01*
X57561215Y-88030463D01*
X57531860Y-87857673D01*
X57610456Y-87830204D01*
X57685769Y-87852912D01*
X57817727Y-87894094D01*
X57789361Y-87852643D01*
X57682682Y-87768449D01*
X57458399Y-87632641D01*
X57350585Y-87663070D01*
X57358536Y-87859957D01*
X57360886Y-87869800D01*
X57437219Y-88183458D01*
X57484515Y-88377800D01*
X57498626Y-88574144D01*
X57426646Y-88626443D01*
X57298571Y-88557427D01*
X57144394Y-88389827D01*
X56994110Y-88146376D01*
X56906031Y-87939402D01*
X56805475Y-87720593D01*
X56710118Y-87617066D01*
X56701561Y-87615800D01*
X56635754Y-87623857D01*
G36*
X54594637Y-86782641D02*
X54535579Y-86868341D01*
X54510624Y-87042677D01*
X54571733Y-87105975D01*
X54671799Y-87018660D01*
X54829489Y-86921673D01*
X54939240Y-86920155D01*
X55062113Y-87006724D01*
X55176740Y-87235132D01*
X55297446Y-87634562D01*
X55305745Y-87666752D01*
X55418906Y-88128172D01*
X55475700Y-88420586D01*
X55477693Y-88569757D01*
X55426451Y-88601446D01*
X55360512Y-88568040D01*
X55324553Y-88557916D01*
X55422568Y-88657200D01*
X55638376Y-88810681D01*
X55768680Y-88808202D01*
X55797100Y-88713080D01*
X55827089Y-88642394D01*
X55919020Y-88713080D01*
X56126974Y-88827278D01*
X56308110Y-88773458D01*
X56373503Y-88673365D01*
X56373914Y-88451206D01*
X56203500Y-88451206D01*
X56142672Y-88603085D01*
X55995456Y-88612317D01*
X55814760Y-88484202D01*
X55752062Y-88405993D01*
X55624247Y-88149876D01*
X55605302Y-87937809D01*
X55696316Y-87825178D01*
X55740539Y-87819000D01*
X55914311Y-87904182D01*
X56083354Y-88107772D01*
X56190596Y-88351836D01*
X56203500Y-88451206D01*
X56373914Y-88451206D01*
X56373956Y-88428517D01*
X56252143Y-88135534D01*
X56050017Y-87865957D01*
X55809531Y-87691328D01*
X55793973Y-87685119D01*
X55584334Y-87571419D01*
X55492474Y-87453142D01*
X55492300Y-87448920D01*
X55419653Y-87262579D01*
X55243362Y-87033341D01*
X55025898Y-86827042D01*
X54829737Y-86709515D01*
X54782939Y-86701399D01*
X54594637Y-86782641D01*
X54594637Y-86782641D01*
G37*
X54594637Y-86782641D02*
X54535579Y-86868341D01*
X54510624Y-87042677D01*
X54571733Y-87105975D01*
X54671799Y-87018660D01*
X54829489Y-86921673D01*
X54939240Y-86920155D01*
X55062113Y-87006724D01*
X55176740Y-87235132D01*
X55297446Y-87634562D01*
X55305745Y-87666752D01*
X55418906Y-88128172D01*
X55475700Y-88420586D01*
X55477693Y-88569757D01*
X55426451Y-88601446D01*
X55360512Y-88568040D01*
X55324553Y-88557916D01*
X55422568Y-88657200D01*
X55638376Y-88810681D01*
X55768680Y-88808202D01*
X55797100Y-88713080D01*
X55827089Y-88642394D01*
X55919020Y-88713080D01*
X56126974Y-88827278D01*
X56308110Y-88773458D01*
X56373503Y-88673365D01*
X56373914Y-88451206D01*
X56203500Y-88451206D01*
X56142672Y-88603085D01*
X55995456Y-88612317D01*
X55814760Y-88484202D01*
X55752062Y-88405993D01*
X55624247Y-88149876D01*
X55605302Y-87937809D01*
X55696316Y-87825178D01*
X55740539Y-87819000D01*
X55914311Y-87904182D01*
X56083354Y-88107772D01*
X56190596Y-88351836D01*
X56203500Y-88451206D01*
X56373914Y-88451206D01*
X56373956Y-88428517D01*
X56252143Y-88135534D01*
X56050017Y-87865957D01*
X55809531Y-87691328D01*
X55793973Y-87685119D01*
X55584334Y-87571419D01*
X55492474Y-87453142D01*
X55492300Y-87448920D01*
X55419653Y-87262579D01*
X55243362Y-87033341D01*
X55025898Y-86827042D01*
X54829737Y-86709515D01*
X54782939Y-86701399D01*
X54594637Y-86782641D01*
G36*
X54711448Y-87702566D02*
X54718650Y-87918007D01*
X54764356Y-88194835D01*
X54840944Y-88465765D01*
X54849170Y-88487767D01*
X54845032Y-88589085D01*
X54716213Y-88573858D01*
X54591598Y-88541242D01*
X54623509Y-88590108D01*
X54724319Y-88674305D01*
X54941072Y-88815186D01*
X55049066Y-88786525D01*
X55058064Y-88582080D01*
X55040450Y-88472185D01*
X54979400Y-88187463D01*
X54921242Y-87976757D01*
X54916231Y-87963032D01*
X54920369Y-87861714D01*
X55049188Y-87876941D01*
X55173803Y-87909557D01*
X55141892Y-87860691D01*
X55041082Y-87776494D01*
X54855220Y-87652761D01*
X54750375Y-87615800D01*
X54711448Y-87702566D01*
X54711448Y-87702566D01*
G37*
X54711448Y-87702566D02*
X54718650Y-87918007D01*
X54764356Y-88194835D01*
X54840944Y-88465765D01*
X54849170Y-88487767D01*
X54845032Y-88589085D01*
X54716213Y-88573858D01*
X54591598Y-88541242D01*
X54623509Y-88590108D01*
X54724319Y-88674305D01*
X54941072Y-88815186D01*
X55049066Y-88786525D01*
X55058064Y-88582080D01*
X55040450Y-88472185D01*
X54979400Y-88187463D01*
X54921242Y-87976757D01*
X54916231Y-87963032D01*
X54920369Y-87861714D01*
X55049188Y-87876941D01*
X55173803Y-87909557D01*
X55141892Y-87860691D01*
X55041082Y-87776494D01*
X54855220Y-87652761D01*
X54750375Y-87615800D01*
X54711448Y-87702566D01*
G36*
X53489359Y-87666856D02*
X53408181Y-87718494D01*
X53272205Y-87948588D01*
X53301610Y-88241309D01*
X53490916Y-88549300D01*
X53506249Y-88566164D01*
X53793114Y-88784738D01*
X54064324Y-88820693D01*
X54252780Y-88713080D01*
X54363076Y-88485746D01*
X54342608Y-88325813D01*
X54171500Y-88325813D01*
X54122506Y-88619641D01*
X53983452Y-88732897D01*
X53766235Y-88660160D01*
X53646101Y-88565253D01*
X53511316Y-88353248D01*
X53464206Y-88092292D01*
X53507695Y-87862667D01*
X53616485Y-87752689D01*
X53818662Y-87769913D01*
X54013665Y-87926827D01*
X54145705Y-88165821D01*
X54171500Y-88325813D01*
X54342608Y-88325813D01*
X54329299Y-88221825D01*
X54188244Y-87964647D01*
X53976706Y-87757540D01*
X53731479Y-87643833D01*
X53489359Y-87666856D01*
X53489359Y-87666856D01*
G37*
X53489359Y-87666856D02*
X53408181Y-87718494D01*
X53272205Y-87948588D01*
X53301610Y-88241309D01*
X53490916Y-88549300D01*
X53506249Y-88566164D01*
X53793114Y-88784738D01*
X54064324Y-88820693D01*
X54252780Y-88713080D01*
X54363076Y-88485746D01*
X54342608Y-88325813D01*
X54171500Y-88325813D01*
X54122506Y-88619641D01*
X53983452Y-88732897D01*
X53766235Y-88660160D01*
X53646101Y-88565253D01*
X53511316Y-88353248D01*
X53464206Y-88092292D01*
X53507695Y-87862667D01*
X53616485Y-87752689D01*
X53818662Y-87769913D01*
X54013665Y-87926827D01*
X54145705Y-88165821D01*
X54171500Y-88325813D01*
X54342608Y-88325813D01*
X54329299Y-88221825D01*
X54188244Y-87964647D01*
X53976706Y-87757540D01*
X53731479Y-87643833D01*
X53489359Y-87666856D01*
G36*
X89987718Y-129640144D02*
X90015368Y-129695601D01*
X90066280Y-129744548D01*
X90085138Y-129758029D01*
X90109815Y-129772714D01*
X90136616Y-129782242D01*
X90172387Y-129787693D01*
X90223969Y-129790147D01*
X90292067Y-129790686D01*
X90385388Y-129788252D01*
X90455457Y-129779794D01*
X90507731Y-129763574D01*
X90547669Y-129737854D01*
X90580729Y-129700897D01*
X90582686Y-129698182D01*
X90602708Y-129661760D01*
X90612615Y-129617902D01*
X90615057Y-129562124D01*
X90615057Y-129471448D01*
X90703083Y-129471410D01*
X90752108Y-129470566D01*
X90780865Y-129465424D01*
X90798111Y-129451987D01*
X90812608Y-129426258D01*
X90815569Y-129420079D01*
X90829448Y-129391164D01*
X90838214Y-129368776D01*
X90838971Y-129352129D01*
X90828823Y-129340436D01*
X90804873Y-129332910D01*
X90764226Y-129328766D01*
X90703986Y-129327215D01*
X90621255Y-129327471D01*
X90513139Y-129328749D01*
X90480800Y-129329148D01*
X90369324Y-129330585D01*
X90296403Y-129331872D01*
X90296403Y-129471371D01*
X90358299Y-129472155D01*
X90398797Y-129475640D01*
X90425508Y-129483524D01*
X90446044Y-129497505D01*
X90456060Y-129506997D01*
X90485367Y-129545804D01*
X90487752Y-129580163D01*
X90463550Y-129615616D01*
X90462657Y-129616514D01*
X90443953Y-129630939D01*
X90418532Y-129639713D01*
X90379384Y-129644139D01*
X90319497Y-129645518D01*
X90306230Y-129645543D01*
X90223701Y-129642212D01*
X90166491Y-129631369D01*
X90131566Y-129611740D01*
X90115894Y-129582050D01*
X90114314Y-129564891D01*
X90121726Y-129524166D01*
X90146130Y-129496232D01*
X90190780Y-129479417D01*
X90258930Y-129472050D01*
X90296403Y-129471371D01*
X90296403Y-129331872D01*
X90283045Y-129332108D01*
X90218133Y-129334077D01*
X90170758Y-129336850D01*
X90137090Y-129340788D01*
X90113298Y-129346249D01*
X90095553Y-129353592D01*
X90080024Y-129363177D01*
X90074181Y-129367287D01*
X90018985Y-129421805D01*
X89987690Y-129490736D01*
X89978965Y-129570472D01*
X89987718Y-129640144D01*
X89987718Y-129640144D01*
G37*
X89987718Y-129640144D02*
X90015368Y-129695601D01*
X90066280Y-129744548D01*
X90085138Y-129758029D01*
X90109815Y-129772714D01*
X90136616Y-129782242D01*
X90172387Y-129787693D01*
X90223969Y-129790147D01*
X90292067Y-129790686D01*
X90385388Y-129788252D01*
X90455457Y-129779794D01*
X90507731Y-129763574D01*
X90547669Y-129737854D01*
X90580729Y-129700897D01*
X90582686Y-129698182D01*
X90602708Y-129661760D01*
X90612615Y-129617902D01*
X90615057Y-129562124D01*
X90615057Y-129471448D01*
X90703083Y-129471410D01*
X90752108Y-129470566D01*
X90780865Y-129465424D01*
X90798111Y-129451987D01*
X90812608Y-129426258D01*
X90815569Y-129420079D01*
X90829448Y-129391164D01*
X90838214Y-129368776D01*
X90838971Y-129352129D01*
X90828823Y-129340436D01*
X90804873Y-129332910D01*
X90764226Y-129328766D01*
X90703986Y-129327215D01*
X90621255Y-129327471D01*
X90513139Y-129328749D01*
X90480800Y-129329148D01*
X90369324Y-129330585D01*
X90296403Y-129331872D01*
X90296403Y-129471371D01*
X90358299Y-129472155D01*
X90398797Y-129475640D01*
X90425508Y-129483524D01*
X90446044Y-129497505D01*
X90456060Y-129506997D01*
X90485367Y-129545804D01*
X90487752Y-129580163D01*
X90463550Y-129615616D01*
X90462657Y-129616514D01*
X90443953Y-129630939D01*
X90418532Y-129639713D01*
X90379384Y-129644139D01*
X90319497Y-129645518D01*
X90306230Y-129645543D01*
X90223701Y-129642212D01*
X90166491Y-129631369D01*
X90131566Y-129611740D01*
X90115894Y-129582050D01*
X90114314Y-129564891D01*
X90121726Y-129524166D01*
X90146130Y-129496232D01*
X90190780Y-129479417D01*
X90258930Y-129472050D01*
X90296403Y-129471371D01*
X90296403Y-129331872D01*
X90283045Y-129332108D01*
X90218133Y-129334077D01*
X90170758Y-129336850D01*
X90137090Y-129340788D01*
X90113298Y-129346249D01*
X90095553Y-129353592D01*
X90080024Y-129363177D01*
X90074181Y-129367287D01*
X90018985Y-129421805D01*
X89987690Y-129490736D01*
X89978965Y-129570472D01*
X89987718Y-129640144D01*
G36*
X89995580Y-130756493D02*
X90022523Y-130803072D01*
X90049266Y-130835457D01*
X90077284Y-130859142D01*
X90111548Y-130875459D01*
X90157027Y-130885739D01*
X90218692Y-130891314D01*
X90301511Y-130893516D01*
X90361046Y-130893771D01*
X90580191Y-130893771D01*
X90607844Y-130832086D01*
X90635497Y-130770400D01*
X90395470Y-130763143D01*
X90305828Y-130760144D01*
X90240762Y-130756998D01*
X90195826Y-130753101D01*
X90166570Y-130747847D01*
X90148548Y-130740631D01*
X90137311Y-130730850D01*
X90134879Y-130727712D01*
X90115883Y-130680161D01*
X90123400Y-130632097D01*
X90143343Y-130603486D01*
X90157475Y-130591847D01*
X90176020Y-130583791D01*
X90204134Y-130578671D01*
X90246973Y-130575841D01*
X90309695Y-130574656D01*
X90375061Y-130574457D01*
X90457068Y-130574418D01*
X90515116Y-130573014D01*
X90554265Y-130568314D01*
X90579580Y-130558387D01*
X90596123Y-130541303D01*
X90608956Y-130515132D01*
X90622291Y-130480175D01*
X90636807Y-130441996D01*
X90379189Y-130446541D01*
X90286319Y-130448371D01*
X90217689Y-130450512D01*
X90168511Y-130453581D01*
X90133998Y-130458194D01*
X90109362Y-130464968D01*
X90089816Y-130474519D01*
X90072570Y-130486034D01*
X90017480Y-130541590D01*
X89985622Y-130609380D01*
X89977991Y-130683113D01*
X89995580Y-130756493D01*
X89995580Y-130756493D01*
G37*
X89995580Y-130756493D02*
X90022523Y-130803072D01*
X90049266Y-130835457D01*
X90077284Y-130859142D01*
X90111548Y-130875459D01*
X90157027Y-130885739D01*
X90218692Y-130891314D01*
X90301511Y-130893516D01*
X90361046Y-130893771D01*
X90580191Y-130893771D01*
X90607844Y-130832086D01*
X90635497Y-130770400D01*
X90395470Y-130763143D01*
X90305828Y-130760144D01*
X90240762Y-130756998D01*
X90195826Y-130753101D01*
X90166570Y-130747847D01*
X90148548Y-130740631D01*
X90137311Y-130730850D01*
X90134879Y-130727712D01*
X90115883Y-130680161D01*
X90123400Y-130632097D01*
X90143343Y-130603486D01*
X90157475Y-130591847D01*
X90176020Y-130583791D01*
X90204134Y-130578671D01*
X90246973Y-130575841D01*
X90309695Y-130574656D01*
X90375061Y-130574457D01*
X90457068Y-130574418D01*
X90515116Y-130573014D01*
X90554265Y-130568314D01*
X90579580Y-130558387D01*
X90596123Y-130541303D01*
X90608956Y-130515132D01*
X90622291Y-130480175D01*
X90636807Y-130441996D01*
X90379189Y-130446541D01*
X90286319Y-130448371D01*
X90217689Y-130450512D01*
X90168511Y-130453581D01*
X90133998Y-130458194D01*
X90109362Y-130464968D01*
X90089816Y-130474519D01*
X90072570Y-130486034D01*
X90017480Y-130541590D01*
X89985622Y-130609380D01*
X89977991Y-130683113D01*
X89995580Y-130756493D01*
G36*
X89989762Y-129081515D02*
X90025533Y-129149545D01*
X90083101Y-129199751D01*
X90120112Y-129217585D01*
X90175682Y-129231463D01*
X90245896Y-129238567D01*
X90322527Y-129239240D01*
X90397352Y-129233827D01*
X90462142Y-129222670D01*
X90508673Y-129206114D01*
X90516687Y-129201026D01*
X90576507Y-129140755D01*
X90612335Y-129069169D01*
X90622820Y-128991492D01*
X90606610Y-128912948D01*
X90596892Y-128891089D01*
X90566943Y-128848522D01*
X90527233Y-128811163D01*
X90522197Y-128807632D01*
X90497924Y-128793281D01*
X90471978Y-128783794D01*
X90437822Y-128778190D01*
X90388919Y-128775486D01*
X90318735Y-128774699D01*
X90303000Y-128774686D01*
X90297992Y-128774722D01*
X90297992Y-128919829D01*
X90364230Y-128920673D01*
X90408186Y-128923996D01*
X90436579Y-128930983D01*
X90456125Y-128942816D01*
X90462657Y-128948857D01*
X90487480Y-128983586D01*
X90486348Y-129017303D01*
X90464816Y-129051395D01*
X90441829Y-129071729D01*
X90408278Y-129083771D01*
X90355369Y-129090534D01*
X90349199Y-129090998D01*
X90253313Y-129092152D01*
X90182099Y-129080088D01*
X90135994Y-129054970D01*
X90115435Y-129016960D01*
X90114314Y-129003392D01*
X90119952Y-128967764D01*
X90139486Y-128943394D01*
X90176842Y-128928493D01*
X90235950Y-128921275D01*
X90297992Y-128919829D01*
X90297992Y-128774722D01*
X90228213Y-128775226D01*
X90175959Y-128777496D01*
X90139749Y-128782468D01*
X90113099Y-128791113D01*
X90089522Y-128804405D01*
X90085138Y-128807343D01*
X90026049Y-128856713D01*
X89991747Y-128910509D01*
X89978131Y-128976002D01*
X89977465Y-128998242D01*
X89989762Y-129081515D01*
X89989762Y-129081515D01*
G37*
X89989762Y-129081515D02*
X90025533Y-129149545D01*
X90083101Y-129199751D01*
X90120112Y-129217585D01*
X90175682Y-129231463D01*
X90245896Y-129238567D01*
X90322527Y-129239240D01*
X90397352Y-129233827D01*
X90462142Y-129222670D01*
X90508673Y-129206114D01*
X90516687Y-129201026D01*
X90576507Y-129140755D01*
X90612335Y-129069169D01*
X90622820Y-128991492D01*
X90606610Y-128912948D01*
X90596892Y-128891089D01*
X90566943Y-128848522D01*
X90527233Y-128811163D01*
X90522197Y-128807632D01*
X90497924Y-128793281D01*
X90471978Y-128783794D01*
X90437822Y-128778190D01*
X90388919Y-128775486D01*
X90318735Y-128774699D01*
X90303000Y-128774686D01*
X90297992Y-128774722D01*
X90297992Y-128919829D01*
X90364230Y-128920673D01*
X90408186Y-128923996D01*
X90436579Y-128930983D01*
X90456125Y-128942816D01*
X90462657Y-128948857D01*
X90487480Y-128983586D01*
X90486348Y-129017303D01*
X90464816Y-129051395D01*
X90441829Y-129071729D01*
X90408278Y-129083771D01*
X90355369Y-129090534D01*
X90349199Y-129090998D01*
X90253313Y-129092152D01*
X90182099Y-129080088D01*
X90135994Y-129054970D01*
X90115435Y-129016960D01*
X90114314Y-129003392D01*
X90119952Y-128967764D01*
X90139486Y-128943394D01*
X90176842Y-128928493D01*
X90235950Y-128921275D01*
X90297992Y-128919829D01*
X90297992Y-128774722D01*
X90228213Y-128775226D01*
X90175959Y-128777496D01*
X90139749Y-128782468D01*
X90113099Y-128791113D01*
X90089522Y-128804405D01*
X90085138Y-128807343D01*
X90026049Y-128856713D01*
X89991747Y-128910509D01*
X89978131Y-128976002D01*
X89977465Y-128998242D01*
X89989762Y-129081515D01*
G36*
X89999039Y-130208703D02*
X90037535Y-130265927D01*
X90093135Y-130310149D01*
X90163886Y-130336567D01*
X90215962Y-130341910D01*
X90237693Y-130341303D01*
X90254331Y-130336222D01*
X90269237Y-130322255D01*
X90285773Y-130294989D01*
X90307298Y-130250012D01*
X90337174Y-130182911D01*
X90337324Y-130182571D01*
X90365613Y-130120807D01*
X90390733Y-130070159D01*
X90409979Y-130035804D01*
X90420648Y-130022918D01*
X90420734Y-130022914D01*
X90443966Y-130034272D01*
X90469574Y-130060831D01*
X90488021Y-130091323D01*
X90491686Y-130106770D01*
X90479012Y-130148915D01*
X90447271Y-130185208D01*
X90412372Y-130202917D01*
X90386645Y-130219952D01*
X90357346Y-130253322D01*
X90332035Y-130292549D01*
X90318271Y-130327156D01*
X90317514Y-130334393D01*
X90329960Y-130342539D01*
X90361772Y-130343030D01*
X90404666Y-130337043D01*
X90450358Y-130325757D01*
X90490561Y-130310350D01*
X90492122Y-130309571D01*
X90556862Y-130263204D01*
X90600897Y-130203111D01*
X90622511Y-130134865D01*
X90619985Y-130064038D01*
X90591604Y-129996204D01*
X90589608Y-129993188D01*
X90541248Y-129939827D01*
X90478152Y-129904740D01*
X90395187Y-129885322D01*
X90371878Y-129882716D01*
X90261855Y-129878101D01*
X90210548Y-129883633D01*
X90210548Y-130022914D01*
X90242553Y-130024724D01*
X90251893Y-130034622D01*
X90244905Y-130059298D01*
X90228387Y-130098195D01*
X90207681Y-130141675D01*
X90207133Y-130142756D01*
X90187749Y-130179609D01*
X90174813Y-130194400D01*
X90161251Y-130190753D01*
X90143432Y-130175395D01*
X90117645Y-130136323D01*
X90115750Y-130094246D01*
X90134517Y-130056503D01*
X90170715Y-130030434D01*
X90210548Y-130022914D01*
X90210548Y-129883633D01*
X90173827Y-129887594D01*
X90104012Y-129911950D01*
X90055102Y-129945856D01*
X90005678Y-130007053D01*
X89981159Y-130074463D01*
X89979597Y-130143280D01*
X89999039Y-130208703D01*
X89999039Y-130208703D01*
G37*
X89999039Y-130208703D02*
X90037535Y-130265927D01*
X90093135Y-130310149D01*
X90163886Y-130336567D01*
X90215962Y-130341910D01*
X90237693Y-130341303D01*
X90254331Y-130336222D01*
X90269237Y-130322255D01*
X90285773Y-130294989D01*
X90307298Y-130250012D01*
X90337174Y-130182911D01*
X90337324Y-130182571D01*
X90365613Y-130120807D01*
X90390733Y-130070159D01*
X90409979Y-130035804D01*
X90420648Y-130022918D01*
X90420734Y-130022914D01*
X90443966Y-130034272D01*
X90469574Y-130060831D01*
X90488021Y-130091323D01*
X90491686Y-130106770D01*
X90479012Y-130148915D01*
X90447271Y-130185208D01*
X90412372Y-130202917D01*
X90386645Y-130219952D01*
X90357346Y-130253322D01*
X90332035Y-130292549D01*
X90318271Y-130327156D01*
X90317514Y-130334393D01*
X90329960Y-130342539D01*
X90361772Y-130343030D01*
X90404666Y-130337043D01*
X90450358Y-130325757D01*
X90490561Y-130310350D01*
X90492122Y-130309571D01*
X90556862Y-130263204D01*
X90600897Y-130203111D01*
X90622511Y-130134865D01*
X90619985Y-130064038D01*
X90591604Y-129996204D01*
X90589608Y-129993188D01*
X90541248Y-129939827D01*
X90478152Y-129904740D01*
X90395187Y-129885322D01*
X90371878Y-129882716D01*
X90261855Y-129878101D01*
X90210548Y-129883633D01*
X90210548Y-130022914D01*
X90242553Y-130024724D01*
X90251893Y-130034622D01*
X90244905Y-130059298D01*
X90228387Y-130098195D01*
X90207681Y-130141675D01*
X90207133Y-130142756D01*
X90187749Y-130179609D01*
X90174813Y-130194400D01*
X90161251Y-130190753D01*
X90143432Y-130175395D01*
X90117645Y-130136323D01*
X90115750Y-130094246D01*
X90134517Y-130056503D01*
X90170715Y-130030434D01*
X90210548Y-130022914D01*
X90210548Y-129883633D01*
X90173827Y-129887594D01*
X90104012Y-129911950D01*
X90055102Y-129945856D01*
X90005678Y-130007053D01*
X89981159Y-130074463D01*
X89979597Y-130143280D01*
X89999039Y-130208703D01*
G36*
X89919089Y-131416286D02*
X89978413Y-131420539D01*
X90013372Y-131425425D01*
X90028620Y-131432195D01*
X90028815Y-131442102D01*
X90026995Y-131445314D01*
X90013815Y-131488044D01*
X90014585Y-131543627D01*
X90028133Y-131600137D01*
X90045661Y-131635482D01*
X90073661Y-131671721D01*
X90105349Y-131698213D01*
X90145613Y-131716399D01*
X90199343Y-131727722D01*
X90271426Y-131733622D01*
X90366751Y-131735543D01*
X90385037Y-131735577D01*
X90590446Y-131735600D01*
X90606380Y-131689891D01*
X90617220Y-131657427D01*
X90622268Y-131639615D01*
X90622314Y-131639091D01*
X90608628Y-131637337D01*
X90570876Y-131635844D01*
X90514024Y-131634726D01*
X90443034Y-131634097D01*
X90399873Y-131634000D01*
X90314773Y-131633798D01*
X90253781Y-131632758D01*
X90211977Y-131630231D01*
X90184442Y-131625564D01*
X90166256Y-131618107D01*
X90152498Y-131607211D01*
X90145873Y-131600407D01*
X90119175Y-131553672D01*
X90117175Y-131502672D01*
X90139755Y-131456401D01*
X90147907Y-131447844D01*
X90163236Y-131435293D01*
X90181418Y-131426588D01*
X90207709Y-131421031D01*
X90247362Y-131417926D01*
X90305632Y-131416576D01*
X90385973Y-131416286D01*
X90590446Y-131416286D01*
X90606380Y-131370577D01*
X90617220Y-131338113D01*
X90622268Y-131320301D01*
X90622314Y-131319777D01*
X90608423Y-131318437D01*
X90569239Y-131317228D01*
X90508500Y-131316201D01*
X90429941Y-131315402D01*
X90337298Y-131314881D01*
X90234309Y-131314686D01*
X89837142Y-131314686D01*
X89817244Y-131361857D01*
X89797347Y-131409029D01*
X89919089Y-131416286D01*
X89919089Y-131416286D01*
G37*
X89919089Y-131416286D02*
X89978413Y-131420539D01*
X90013372Y-131425425D01*
X90028620Y-131432195D01*
X90028815Y-131442102D01*
X90026995Y-131445314D01*
X90013815Y-131488044D01*
X90014585Y-131543627D01*
X90028133Y-131600137D01*
X90045661Y-131635482D01*
X90073661Y-131671721D01*
X90105349Y-131698213D01*
X90145613Y-131716399D01*
X90199343Y-131727722D01*
X90271426Y-131733622D01*
X90366751Y-131735543D01*
X90385037Y-131735577D01*
X90590446Y-131735600D01*
X90606380Y-131689891D01*
X90617220Y-131657427D01*
X90622268Y-131639615D01*
X90622314Y-131639091D01*
X90608628Y-131637337D01*
X90570876Y-131635844D01*
X90514024Y-131634726D01*
X90443034Y-131634097D01*
X90399873Y-131634000D01*
X90314773Y-131633798D01*
X90253781Y-131632758D01*
X90211977Y-131630231D01*
X90184442Y-131625564D01*
X90166256Y-131618107D01*
X90152498Y-131607211D01*
X90145873Y-131600407D01*
X90119175Y-131553672D01*
X90117175Y-131502672D01*
X90139755Y-131456401D01*
X90147907Y-131447844D01*
X90163236Y-131435293D01*
X90181418Y-131426588D01*
X90207709Y-131421031D01*
X90247362Y-131417926D01*
X90305632Y-131416576D01*
X90385973Y-131416286D01*
X90590446Y-131416286D01*
X90606380Y-131370577D01*
X90617220Y-131338113D01*
X90622268Y-131320301D01*
X90622314Y-131319777D01*
X90608423Y-131318437D01*
X90569239Y-131317228D01*
X90508500Y-131316201D01*
X90429941Y-131315402D01*
X90337298Y-131314881D01*
X90234309Y-131314686D01*
X89837142Y-131314686D01*
X89817244Y-131361857D01*
X89797347Y-131409029D01*
X89919089Y-131416286D01*
G36*
X90018768Y-132080144D02*
X90039887Y-132137016D01*
X90040293Y-132137667D01*
X90066180Y-132172840D01*
X90096433Y-132198807D01*
X90135858Y-132217070D01*
X90189262Y-132229132D01*
X90261451Y-132236496D01*
X90357232Y-132240664D01*
X90370878Y-132241029D01*
X90576642Y-132246276D01*
X90599478Y-132202116D01*
X90614910Y-132170163D01*
X90622223Y-132150870D01*
X90622314Y-132149978D01*
X90608822Y-132146639D01*
X90572426Y-132143987D01*
X90519252Y-132142356D01*
X90476193Y-132142000D01*
X90406441Y-132141992D01*
X90362637Y-132138803D01*
X90341744Y-132127688D01*
X90340725Y-132103901D01*
X90356541Y-132062696D01*
X90385615Y-132000486D01*
X90409763Y-131954741D01*
X90430713Y-131931213D01*
X90453547Y-131924296D01*
X90454677Y-131924286D01*
X90494012Y-131935699D01*
X90515262Y-131969492D01*
X90518339Y-132021209D01*
X90517806Y-132058461D01*
X90528535Y-132078103D01*
X90554305Y-132090352D01*
X90587137Y-132097402D01*
X90605766Y-132087242D01*
X90608432Y-132083417D01*
X90619140Y-132047401D01*
X90620656Y-131996966D01*
X90613559Y-131945026D01*
X90600588Y-131908222D01*
X90557385Y-131857338D01*
X90497246Y-131828414D01*
X90450262Y-131822686D01*
X90407882Y-131827057D01*
X90373288Y-131842875D01*
X90342563Y-131874197D01*
X90311790Y-131925078D01*
X90277052Y-131999576D01*
X90275088Y-132004114D01*
X90244087Y-132071221D01*
X90218662Y-132112632D01*
X90195814Y-132130381D01*
X90172545Y-132126507D01*
X90145856Y-132103043D01*
X90139714Y-132096027D01*
X90115900Y-132049030D01*
X90116903Y-132000333D01*
X90140251Y-131957922D01*
X90183475Y-131929784D01*
X90191960Y-131927169D01*
X90233108Y-131901708D01*
X90252928Y-131869401D01*
X90272570Y-131822686D01*
X90221750Y-131822686D01*
X90147882Y-131836896D01*
X90080127Y-131879075D01*
X90057461Y-131901024D01*
X90028369Y-131950917D01*
X90015200Y-132014367D01*
X90018768Y-132080144D01*
X90018768Y-132080144D01*
G37*
X90018768Y-132080144D02*
X90039887Y-132137016D01*
X90040293Y-132137667D01*
X90066180Y-132172840D01*
X90096433Y-132198807D01*
X90135858Y-132217070D01*
X90189262Y-132229132D01*
X90261451Y-132236496D01*
X90357232Y-132240664D01*
X90370878Y-132241029D01*
X90576642Y-132246276D01*
X90599478Y-132202116D01*
X90614910Y-132170163D01*
X90622223Y-132150870D01*
X90622314Y-132149978D01*
X90608822Y-132146639D01*
X90572426Y-132143987D01*
X90519252Y-132142356D01*
X90476193Y-132142000D01*
X90406441Y-132141992D01*
X90362637Y-132138803D01*
X90341744Y-132127688D01*
X90340725Y-132103901D01*
X90356541Y-132062696D01*
X90385615Y-132000486D01*
X90409763Y-131954741D01*
X90430713Y-131931213D01*
X90453547Y-131924296D01*
X90454677Y-131924286D01*
X90494012Y-131935699D01*
X90515262Y-131969492D01*
X90518339Y-132021209D01*
X90517806Y-132058461D01*
X90528535Y-132078103D01*
X90554305Y-132090352D01*
X90587137Y-132097402D01*
X90605766Y-132087242D01*
X90608432Y-132083417D01*
X90619140Y-132047401D01*
X90620656Y-131996966D01*
X90613559Y-131945026D01*
X90600588Y-131908222D01*
X90557385Y-131857338D01*
X90497246Y-131828414D01*
X90450262Y-131822686D01*
X90407882Y-131827057D01*
X90373288Y-131842875D01*
X90342563Y-131874197D01*
X90311790Y-131925078D01*
X90277052Y-131999576D01*
X90275088Y-132004114D01*
X90244087Y-132071221D01*
X90218662Y-132112632D01*
X90195814Y-132130381D01*
X90172545Y-132126507D01*
X90145856Y-132103043D01*
X90139714Y-132096027D01*
X90115900Y-132049030D01*
X90116903Y-132000333D01*
X90140251Y-131957922D01*
X90183475Y-131929784D01*
X90191960Y-131927169D01*
X90233108Y-131901708D01*
X90252928Y-131869401D01*
X90272570Y-131822686D01*
X90221750Y-131822686D01*
X90147882Y-131836896D01*
X90080127Y-131879075D01*
X90057461Y-131901024D01*
X90028369Y-131950917D01*
X90015200Y-132014367D01*
X90018768Y-132080144D01*
G36*
X90017555Y-132570326D02*
X90041884Y-132636258D01*
X90084917Y-132689673D01*
X90115209Y-132710564D01*
X90170794Y-132733339D01*
X90210986Y-132732866D01*
X90238017Y-132708962D01*
X90242613Y-132700117D01*
X90256944Y-132661930D01*
X90253272Y-132642428D01*
X90229207Y-132635822D01*
X90215914Y-132635486D01*
X90167010Y-132623392D01*
X90132799Y-132591871D01*
X90116276Y-132548059D01*
X90120434Y-132499095D01*
X90142027Y-132459294D01*
X90154344Y-132445850D01*
X90169287Y-132436321D01*
X90191875Y-132429885D01*
X90227128Y-132425717D01*
X90280066Y-132422997D01*
X90355707Y-132420902D01*
X90379657Y-132420360D01*
X90461590Y-132418381D01*
X90519255Y-132416131D01*
X90557408Y-132412757D01*
X90580804Y-132407406D01*
X90594198Y-132399224D01*
X90602345Y-132387359D01*
X90605944Y-132379762D01*
X90618252Y-132347502D01*
X90622314Y-132328511D01*
X90608748Y-132322236D01*
X90567734Y-132318406D01*
X90498799Y-132317000D01*
X90401469Y-132317998D01*
X90386457Y-132318308D01*
X90297659Y-132320501D01*
X90232819Y-132323093D01*
X90186867Y-132326782D01*
X90154735Y-132332264D01*
X90131353Y-132340235D01*
X90111652Y-132351393D01*
X90103210Y-132357230D01*
X90065857Y-132390696D01*
X90036803Y-132428127D01*
X90034267Y-132432709D01*
X90014243Y-132499826D01*
X90017555Y-132570326D01*
X90017555Y-132570326D01*
G37*
X90017555Y-132570326D02*
X90041884Y-132636258D01*
X90084917Y-132689673D01*
X90115209Y-132710564D01*
X90170794Y-132733339D01*
X90210986Y-132732866D01*
X90238017Y-132708962D01*
X90242613Y-132700117D01*
X90256944Y-132661930D01*
X90253272Y-132642428D01*
X90229207Y-132635822D01*
X90215914Y-132635486D01*
X90167010Y-132623392D01*
X90132799Y-132591871D01*
X90116276Y-132548059D01*
X90120434Y-132499095D01*
X90142027Y-132459294D01*
X90154344Y-132445850D01*
X90169287Y-132436321D01*
X90191875Y-132429885D01*
X90227128Y-132425717D01*
X90280066Y-132422997D01*
X90355707Y-132420902D01*
X90379657Y-132420360D01*
X90461590Y-132418381D01*
X90519255Y-132416131D01*
X90557408Y-132412757D01*
X90580804Y-132407406D01*
X90594198Y-132399224D01*
X90602345Y-132387359D01*
X90605944Y-132379762D01*
X90618252Y-132347502D01*
X90622314Y-132328511D01*
X90608748Y-132322236D01*
X90567734Y-132318406D01*
X90498799Y-132317000D01*
X90401469Y-132317998D01*
X90386457Y-132318308D01*
X90297659Y-132320501D01*
X90232819Y-132323093D01*
X90186867Y-132326782D01*
X90154735Y-132332264D01*
X90131353Y-132340235D01*
X90111652Y-132351393D01*
X90103210Y-132357230D01*
X90065857Y-132390696D01*
X90036803Y-132428127D01*
X90034267Y-132432709D01*
X90014243Y-132499826D01*
X90017555Y-132570326D01*
G36*
X90133158Y-133230517D02*
X90241637Y-133230333D01*
X90325087Y-133229619D01*
X90387504Y-133228075D01*
X90432885Y-133225401D01*
X90465229Y-133221294D01*
X90488533Y-133215455D01*
X90506795Y-133207582D01*
X90517218Y-133201621D01*
X90573745Y-133152255D01*
X90609177Y-133089664D01*
X90621890Y-133020413D01*
X90610263Y-132951068D01*
X90589368Y-132909775D01*
X90553222Y-132866425D01*
X90509076Y-132836881D01*
X90451262Y-132819055D01*
X90374113Y-132810863D01*
X90317514Y-132809702D01*
X90313447Y-132809858D01*
X90313447Y-132911257D01*
X90378350Y-132911876D01*
X90421314Y-132914714D01*
X90449422Y-132921240D01*
X90469753Y-132932923D01*
X90485088Y-132946883D01*
X90514690Y-132993765D01*
X90517219Y-133044101D01*
X90492505Y-133091676D01*
X90489156Y-133095379D01*
X90471735Y-133111183D01*
X90451009Y-133121093D01*
X90420162Y-133126458D01*
X90372377Y-133128628D01*
X90319548Y-133128971D01*
X90253181Y-133128227D01*
X90208906Y-133125148D01*
X90179809Y-133118461D01*
X90158973Y-133106896D01*
X90147907Y-133097413D01*
X90119998Y-133053360D01*
X90116643Y-133002624D01*
X90137959Y-132954196D01*
X90145873Y-132944850D01*
X90163447Y-132928940D01*
X90184387Y-132919010D01*
X90215582Y-132913678D01*
X90263922Y-132911563D01*
X90313447Y-132911257D01*
X90313447Y-132809858D01*
X90226368Y-132813210D01*
X90157886Y-132825126D01*
X90106400Y-132847535D01*
X90066243Y-132882524D01*
X90045661Y-132909775D01*
X90023425Y-132959307D01*
X90013104Y-133016716D01*
X90015867Y-133070082D01*
X90027012Y-133099943D01*
X90030183Y-133111661D01*
X90018357Y-133119437D01*
X89986666Y-133124865D01*
X89938393Y-133128971D01*
X89884629Y-133133467D01*
X89852282Y-133139713D01*
X89833785Y-133151076D01*
X89821570Y-133170928D01*
X89816162Y-133183400D01*
X89796401Y-133230571D01*
X90133158Y-133230517D01*
X90133158Y-133230517D01*
G37*
X90133158Y-133230517D02*
X90241637Y-133230333D01*
X90325087Y-133229619D01*
X90387504Y-133228075D01*
X90432885Y-133225401D01*
X90465229Y-133221294D01*
X90488533Y-133215455D01*
X90506795Y-133207582D01*
X90517218Y-133201621D01*
X90573745Y-133152255D01*
X90609177Y-133089664D01*
X90621890Y-133020413D01*
X90610263Y-132951068D01*
X90589368Y-132909775D01*
X90553222Y-132866425D01*
X90509076Y-132836881D01*
X90451262Y-132819055D01*
X90374113Y-132810863D01*
X90317514Y-132809702D01*
X90313447Y-132809858D01*
X90313447Y-132911257D01*
X90378350Y-132911876D01*
X90421314Y-132914714D01*
X90449422Y-132921240D01*
X90469753Y-132932923D01*
X90485088Y-132946883D01*
X90514690Y-132993765D01*
X90517219Y-133044101D01*
X90492505Y-133091676D01*
X90489156Y-133095379D01*
X90471735Y-133111183D01*
X90451009Y-133121093D01*
X90420162Y-133126458D01*
X90372377Y-133128628D01*
X90319548Y-133128971D01*
X90253181Y-133128227D01*
X90208906Y-133125148D01*
X90179809Y-133118461D01*
X90158973Y-133106896D01*
X90147907Y-133097413D01*
X90119998Y-133053360D01*
X90116643Y-133002624D01*
X90137959Y-132954196D01*
X90145873Y-132944850D01*
X90163447Y-132928940D01*
X90184387Y-132919010D01*
X90215582Y-132913678D01*
X90263922Y-132911563D01*
X90313447Y-132911257D01*
X90313447Y-132809858D01*
X90226368Y-132813210D01*
X90157886Y-132825126D01*
X90106400Y-132847535D01*
X90066243Y-132882524D01*
X90045661Y-132909775D01*
X90023425Y-132959307D01*
X90013104Y-133016716D01*
X90015867Y-133070082D01*
X90027012Y-133099943D01*
X90030183Y-133111661D01*
X90018357Y-133119437D01*
X89986666Y-133124865D01*
X89938393Y-133128971D01*
X89884629Y-133133467D01*
X89852282Y-133139713D01*
X89833785Y-133151076D01*
X89821570Y-133170928D01*
X89816162Y-133183400D01*
X89796401Y-133230571D01*
X90133158Y-133230517D01*
G36*
X90026463Y-133820233D02*
X90064650Y-133822448D01*
X90122686Y-133824184D01*
X90195980Y-133825299D01*
X90272855Y-133825657D01*
X90532996Y-133825657D01*
X90578927Y-133779726D01*
X90607229Y-133748075D01*
X90618693Y-133720290D01*
X90617968Y-133682315D01*
X90616121Y-133667240D01*
X90610748Y-133620126D01*
X90607669Y-133581156D01*
X90607385Y-133571657D01*
X90609245Y-133539633D01*
X90613914Y-133493832D01*
X90616121Y-133476074D01*
X90619535Y-133432457D01*
X90612120Y-133403145D01*
X90589227Y-133374080D01*
X90578927Y-133363588D01*
X90532996Y-133317657D01*
X90046402Y-133317657D01*
X90029558Y-133354626D01*
X90017082Y-133386459D01*
X90012714Y-133405083D01*
X90026518Y-133409858D01*
X90065086Y-133414321D01*
X90124156Y-133418175D01*
X90199463Y-133421122D01*
X90263086Y-133422543D01*
X90513457Y-133426514D01*
X90518356Y-133461159D01*
X90514931Y-133492668D01*
X90503841Y-133508108D01*
X90483108Y-133512423D01*
X90438945Y-133516108D01*
X90376946Y-133518869D01*
X90302709Y-133520412D01*
X90264506Y-133520635D01*
X90044583Y-133520857D01*
X90028649Y-133566566D01*
X90017815Y-133598918D01*
X90012762Y-133616515D01*
X90012714Y-133617023D01*
X90026448Y-133618788D01*
X90064530Y-133620729D01*
X90122282Y-133622682D01*
X90195027Y-133624484D01*
X90263086Y-133625743D01*
X90513457Y-133629714D01*
X90513457Y-133716800D01*
X90285040Y-133720796D01*
X90056622Y-133724792D01*
X90034668Y-133767247D01*
X90019593Y-133798592D01*
X90012751Y-133817144D01*
X90012714Y-133817679D01*
X90026463Y-133820233D01*
X90026463Y-133820233D01*
G37*
X90026463Y-133820233D02*
X90064650Y-133822448D01*
X90122686Y-133824184D01*
X90195980Y-133825299D01*
X90272855Y-133825657D01*
X90532996Y-133825657D01*
X90578927Y-133779726D01*
X90607229Y-133748075D01*
X90618693Y-133720290D01*
X90617968Y-133682315D01*
X90616121Y-133667240D01*
X90610748Y-133620126D01*
X90607669Y-133581156D01*
X90607385Y-133571657D01*
X90609245Y-133539633D01*
X90613914Y-133493832D01*
X90616121Y-133476074D01*
X90619535Y-133432457D01*
X90612120Y-133403145D01*
X90589227Y-133374080D01*
X90578927Y-133363588D01*
X90532996Y-133317657D01*
X90046402Y-133317657D01*
X90029558Y-133354626D01*
X90017082Y-133386459D01*
X90012714Y-133405083D01*
X90026518Y-133409858D01*
X90065086Y-133414321D01*
X90124156Y-133418175D01*
X90199463Y-133421122D01*
X90263086Y-133422543D01*
X90513457Y-133426514D01*
X90518356Y-133461159D01*
X90514931Y-133492668D01*
X90503841Y-133508108D01*
X90483108Y-133512423D01*
X90438945Y-133516108D01*
X90376946Y-133518869D01*
X90302709Y-133520412D01*
X90264506Y-133520635D01*
X90044583Y-133520857D01*
X90028649Y-133566566D01*
X90017815Y-133598918D01*
X90012762Y-133616515D01*
X90012714Y-133617023D01*
X90026448Y-133618788D01*
X90064530Y-133620729D01*
X90122282Y-133622682D01*
X90195027Y-133624484D01*
X90263086Y-133625743D01*
X90513457Y-133629714D01*
X90513457Y-133716800D01*
X90285040Y-133720796D01*
X90056622Y-133724792D01*
X90034668Y-133767247D01*
X90019593Y-133798592D01*
X90012751Y-133817144D01*
X90012714Y-133817679D01*
X90026463Y-133820233D01*
G36*
X90024135Y-134185276D02*
X90043144Y-134227067D01*
X90066178Y-134259869D01*
X90091933Y-134283903D01*
X90125158Y-134300497D01*
X90170600Y-134310977D01*
X90233007Y-134316671D01*
X90317127Y-134318907D01*
X90372521Y-134319143D01*
X90588626Y-134319143D01*
X90605470Y-134282174D01*
X90617781Y-134253056D01*
X90622314Y-134238631D01*
X90608825Y-134235872D01*
X90572453Y-134233682D01*
X90519342Y-134232342D01*
X90477172Y-134232057D01*
X90416247Y-134230834D01*
X90367915Y-134227536D01*
X90338318Y-134222721D01*
X90332029Y-134218896D01*
X90338452Y-134193183D01*
X90354925Y-134152818D01*
X90377258Y-134106079D01*
X90401257Y-134061245D01*
X90422730Y-134026593D01*
X90437485Y-134010402D01*
X90437645Y-134010338D01*
X90464952Y-134011730D01*
X90491019Y-134024218D01*
X90512192Y-134046143D01*
X90519274Y-134078143D01*
X90518449Y-134105492D01*
X90517842Y-134144226D01*
X90526916Y-134164558D01*
X90550892Y-134176769D01*
X90555413Y-134178309D01*
X90589606Y-134183603D01*
X90610368Y-134169447D01*
X90620262Y-134132548D01*
X90622092Y-134092689D01*
X90608527Y-134020962D01*
X90589155Y-133983832D01*
X90543645Y-133937976D01*
X90487783Y-133913656D01*
X90428757Y-133911473D01*
X90373753Y-133932029D01*
X90339286Y-133962949D01*
X90319989Y-133993820D01*
X90295559Y-134042342D01*
X90270785Y-134098885D01*
X90266999Y-134108310D01*
X90239591Y-134170419D01*
X90215434Y-134206222D01*
X90191419Y-134217737D01*
X90164435Y-134206980D01*
X90143343Y-134188514D01*
X90117372Y-134144869D01*
X90115424Y-134096846D01*
X90135437Y-134052806D01*
X90175351Y-134021109D01*
X90185648Y-134016949D01*
X90223524Y-133992727D01*
X90251642Y-133957365D01*
X90274717Y-133912743D01*
X90209285Y-133912743D01*
X90169306Y-133915369D01*
X90137797Y-133926630D01*
X90104178Y-133951599D01*
X90078284Y-133975569D01*
X90041617Y-134012841D01*
X90021921Y-134041801D01*
X90014020Y-134072905D01*
X90012714Y-134108113D01*
X90024135Y-134185276D01*
X90024135Y-134185276D01*
G37*
X90024135Y-134185276D02*
X90043144Y-134227067D01*
X90066178Y-134259869D01*
X90091933Y-134283903D01*
X90125158Y-134300497D01*
X90170600Y-134310977D01*
X90233007Y-134316671D01*
X90317127Y-134318907D01*
X90372521Y-134319143D01*
X90588626Y-134319143D01*
X90605470Y-134282174D01*
X90617781Y-134253056D01*
X90622314Y-134238631D01*
X90608825Y-134235872D01*
X90572453Y-134233682D01*
X90519342Y-134232342D01*
X90477172Y-134232057D01*
X90416247Y-134230834D01*
X90367915Y-134227536D01*
X90338318Y-134222721D01*
X90332029Y-134218896D01*
X90338452Y-134193183D01*
X90354925Y-134152818D01*
X90377258Y-134106079D01*
X90401257Y-134061245D01*
X90422730Y-134026593D01*
X90437485Y-134010402D01*
X90437645Y-134010338D01*
X90464952Y-134011730D01*
X90491019Y-134024218D01*
X90512192Y-134046143D01*
X90519274Y-134078143D01*
X90518449Y-134105492D01*
X90517842Y-134144226D01*
X90526916Y-134164558D01*
X90550892Y-134176769D01*
X90555413Y-134178309D01*
X90589606Y-134183603D01*
X90610368Y-134169447D01*
X90620262Y-134132548D01*
X90622092Y-134092689D01*
X90608527Y-134020962D01*
X90589155Y-133983832D01*
X90543645Y-133937976D01*
X90487783Y-133913656D01*
X90428757Y-133911473D01*
X90373753Y-133932029D01*
X90339286Y-133962949D01*
X90319989Y-133993820D01*
X90295559Y-134042342D01*
X90270785Y-134098885D01*
X90266999Y-134108310D01*
X90239591Y-134170419D01*
X90215434Y-134206222D01*
X90191419Y-134217737D01*
X90164435Y-134206980D01*
X90143343Y-134188514D01*
X90117372Y-134144869D01*
X90115424Y-134096846D01*
X90135437Y-134052806D01*
X90175351Y-134021109D01*
X90185648Y-134016949D01*
X90223524Y-133992727D01*
X90251642Y-133957365D01*
X90274717Y-133912743D01*
X90209285Y-133912743D01*
X90169306Y-133915369D01*
X90137797Y-133926630D01*
X90104178Y-133951599D01*
X90078284Y-133975569D01*
X90041617Y-134012841D01*
X90021921Y-134041801D01*
X90014020Y-134072905D01*
X90012714Y-134108113D01*
X90024135Y-134185276D01*
G36*
X90026552Y-134693000D02*
X90034134Y-134710348D01*
X90066928Y-134751756D01*
X90114347Y-134787165D01*
X90164951Y-134809064D01*
X90189898Y-134812629D01*
X90224727Y-134800679D01*
X90243157Y-134774467D01*
X90254316Y-134746364D01*
X90256372Y-134733495D01*
X90241449Y-134727229D01*
X90208975Y-134714856D01*
X90194302Y-134709428D01*
X90143544Y-134678990D01*
X90118227Y-134634920D01*
X90119006Y-134578410D01*
X90120003Y-134574225D01*
X90134307Y-134544055D01*
X90162193Y-134521876D01*
X90207087Y-134506727D01*
X90272415Y-134497650D01*
X90361604Y-134493686D01*
X90409061Y-134493314D01*
X90483871Y-134493130D01*
X90534869Y-134491922D01*
X90567271Y-134488709D01*
X90586295Y-134482509D01*
X90597156Y-134472340D01*
X90605072Y-134457219D01*
X90605470Y-134456346D01*
X90617781Y-134427228D01*
X90622314Y-134412803D01*
X90608609Y-134410586D01*
X90570725Y-134408689D01*
X90513515Y-134407247D01*
X90441827Y-134406398D01*
X90389365Y-134406229D01*
X90287847Y-134407092D01*
X90210832Y-134410470D01*
X90153823Y-134417542D01*
X90112326Y-134429488D01*
X90081843Y-134447490D01*
X90057880Y-134472727D01*
X90041155Y-134497647D01*
X90018897Y-134557571D01*
X90013876Y-134627311D01*
X90026552Y-134693000D01*
X90026552Y-134693000D01*
G37*
X90026552Y-134693000D02*
X90034134Y-134710348D01*
X90066928Y-134751756D01*
X90114347Y-134787165D01*
X90164951Y-134809064D01*
X90189898Y-134812629D01*
X90224727Y-134800679D01*
X90243157Y-134774467D01*
X90254316Y-134746364D01*
X90256372Y-134733495D01*
X90241449Y-134727229D01*
X90208975Y-134714856D01*
X90194302Y-134709428D01*
X90143544Y-134678990D01*
X90118227Y-134634920D01*
X90119006Y-134578410D01*
X90120003Y-134574225D01*
X90134307Y-134544055D01*
X90162193Y-134521876D01*
X90207087Y-134506727D01*
X90272415Y-134497650D01*
X90361604Y-134493686D01*
X90409061Y-134493314D01*
X90483871Y-134493130D01*
X90534869Y-134491922D01*
X90567271Y-134488709D01*
X90586295Y-134482509D01*
X90597156Y-134472340D01*
X90605072Y-134457219D01*
X90605470Y-134456346D01*
X90617781Y-134427228D01*
X90622314Y-134412803D01*
X90608609Y-134410586D01*
X90570725Y-134408689D01*
X90513515Y-134407247D01*
X90441827Y-134406398D01*
X90389365Y-134406229D01*
X90287847Y-134407092D01*
X90210832Y-134410470D01*
X90153823Y-134417542D01*
X90112326Y-134429488D01*
X90081843Y-134447490D01*
X90057880Y-134472727D01*
X90041155Y-134497647D01*
X90018897Y-134557571D01*
X90013876Y-134627311D01*
X90026552Y-134693000D01*
G36*
X90034766Y-135193995D02*
X90072297Y-135251421D01*
X90105896Y-135279119D01*
X90166864Y-135301062D01*
X90215108Y-135302805D01*
X90279616Y-135298857D01*
X90344734Y-135150086D01*
X90378002Y-135077749D01*
X90404764Y-135030484D01*
X90427944Y-135005907D01*
X90450467Y-135001637D01*
X90475255Y-135015289D01*
X90491686Y-135030343D01*
X90518035Y-135074146D01*
X90519881Y-135121789D01*
X90499346Y-135165545D01*
X90458552Y-135197689D01*
X90444147Y-135203438D01*
X90399156Y-135230976D01*
X90379982Y-135262658D01*
X90363579Y-135306114D01*
X90425766Y-135306114D01*
X90468083Y-135302272D01*
X90503769Y-135287223D01*
X90544743Y-135255680D01*
X90550067Y-135250992D01*
X90586520Y-135215906D01*
X90606083Y-135185747D01*
X90615083Y-135148015D01*
X90618030Y-135116735D01*
X90618765Y-135060785D01*
X90609460Y-135020955D01*
X90595646Y-134996108D01*
X90565267Y-134957056D01*
X90532413Y-134930025D01*
X90491094Y-134912917D01*
X90435321Y-134903638D01*
X90359105Y-134900093D01*
X90320422Y-134899810D01*
X90274047Y-134900772D01*
X90274047Y-134988407D01*
X90298926Y-134989423D01*
X90303000Y-134991956D01*
X90297465Y-135008674D01*
X90282817Y-135044649D01*
X90261990Y-135092731D01*
X90257514Y-135102786D01*
X90226614Y-135163552D01*
X90199457Y-135197032D01*
X90174020Y-135204390D01*
X90148281Y-135186791D01*
X90136909Y-135172256D01*
X90114164Y-135119810D01*
X90117922Y-135070722D01*
X90145684Y-135029627D01*
X90194952Y-135001158D01*
X90234057Y-134992031D01*
X90274047Y-134988407D01*
X90274047Y-134900772D01*
X90230049Y-134901685D01*
X90163184Y-134908596D01*
X90114495Y-134922284D01*
X90078649Y-134944496D01*
X90050313Y-134976974D01*
X90041155Y-134991133D01*
X90017307Y-135055453D01*
X90015806Y-135125873D01*
X90034766Y-135193995D01*
X90034766Y-135193995D01*
G37*
X90034766Y-135193995D02*
X90072297Y-135251421D01*
X90105896Y-135279119D01*
X90166864Y-135301062D01*
X90215108Y-135302805D01*
X90279616Y-135298857D01*
X90344734Y-135150086D01*
X90378002Y-135077749D01*
X90404764Y-135030484D01*
X90427944Y-135005907D01*
X90450467Y-135001637D01*
X90475255Y-135015289D01*
X90491686Y-135030343D01*
X90518035Y-135074146D01*
X90519881Y-135121789D01*
X90499346Y-135165545D01*
X90458552Y-135197689D01*
X90444147Y-135203438D01*
X90399156Y-135230976D01*
X90379982Y-135262658D01*
X90363579Y-135306114D01*
X90425766Y-135306114D01*
X90468083Y-135302272D01*
X90503769Y-135287223D01*
X90544743Y-135255680D01*
X90550067Y-135250992D01*
X90586520Y-135215906D01*
X90606083Y-135185747D01*
X90615083Y-135148015D01*
X90618030Y-135116735D01*
X90618765Y-135060785D01*
X90609460Y-135020955D01*
X90595646Y-134996108D01*
X90565267Y-134957056D01*
X90532413Y-134930025D01*
X90491094Y-134912917D01*
X90435321Y-134903638D01*
X90359105Y-134900093D01*
X90320422Y-134899810D01*
X90274047Y-134900772D01*
X90274047Y-134988407D01*
X90298926Y-134989423D01*
X90303000Y-134991956D01*
X90297465Y-135008674D01*
X90282817Y-135044649D01*
X90261990Y-135092731D01*
X90257514Y-135102786D01*
X90226614Y-135163552D01*
X90199457Y-135197032D01*
X90174020Y-135204390D01*
X90148281Y-135186791D01*
X90136909Y-135172256D01*
X90114164Y-135119810D01*
X90117922Y-135070722D01*
X90145684Y-135029627D01*
X90194952Y-135001158D01*
X90234057Y-134992031D01*
X90274047Y-134988407D01*
X90274047Y-134900772D01*
X90230049Y-134901685D01*
X90163184Y-134908596D01*
X90114495Y-134922284D01*
X90078649Y-134944496D01*
X90050313Y-134976974D01*
X90041155Y-134991133D01*
X90017307Y-135055453D01*
X90015806Y-135125873D01*
X90034766Y-135193995D01*
G36*
X85310148Y-132144310D02*
X85310578Y-132222854D01*
X85311742Y-132279698D01*
X85314007Y-132318505D01*
X85317740Y-132342938D01*
X85323306Y-132356662D01*
X85331073Y-132363340D01*
X85341405Y-132366636D01*
X85342743Y-132366956D01*
X85366879Y-132371962D01*
X85414501Y-132381229D01*
X85480541Y-132393792D01*
X85559928Y-132408687D01*
X85647596Y-132424951D01*
X85650675Y-132425519D01*
X85736589Y-132441810D01*
X85812496Y-132457052D01*
X85873845Y-132470261D01*
X85916082Y-132480454D01*
X85934655Y-132486648D01*
X85934984Y-132486943D01*
X85944053Y-132505188D01*
X85959167Y-132542805D01*
X85977062Y-132591671D01*
X85977158Y-132591943D01*
X86000293Y-132653493D01*
X86029765Y-132726057D01*
X86059397Y-132794457D01*
X86060862Y-132797694D01*
X86111426Y-132909102D01*
X85942960Y-133155799D01*
X85891603Y-133231477D01*
X85845689Y-133300031D01*
X85807830Y-133357488D01*
X85780637Y-133399876D01*
X85766721Y-133423225D01*
X85765689Y-133425442D01*
X85770284Y-133442410D01*
X85792455Y-133474101D01*
X85833247Y-133521752D01*
X85893705Y-133586598D01*
X85958027Y-133652797D01*
X86021412Y-133716614D01*
X86079251Y-133773729D01*
X86127975Y-133820705D01*
X86164010Y-133854103D01*
X86183784Y-133870485D01*
X86184802Y-133871094D01*
X86198372Y-133872905D01*
X86220533Y-133866083D01*
X86254278Y-133848940D01*
X86302600Y-133819793D01*
X86368492Y-133776955D01*
X86453317Y-133719848D01*
X86527977Y-133669166D01*
X86594940Y-133623861D01*
X86650316Y-133586550D01*
X86690220Y-133559852D01*
X86710762Y-133546385D01*
X86712156Y-133545537D01*
X86731838Y-133547181D01*
X86770093Y-133559645D01*
X86819689Y-133580448D01*
X86835528Y-133587862D01*
X86906090Y-133620214D01*
X86986153Y-133654728D01*
X87055429Y-133682765D01*
X87106845Y-133702968D01*
X87145919Y-133719015D01*
X87166341Y-133728288D01*
X87167914Y-133729441D01*
X87170521Y-133746496D01*
X87177663Y-133786698D01*
X87188323Y-133844702D01*
X87201485Y-133915163D01*
X87216133Y-133992735D01*
X87231249Y-134072072D01*
X87245818Y-134147831D01*
X87258822Y-134214664D01*
X87269245Y-134267228D01*
X87276070Y-134300176D01*
X87277999Y-134308257D01*
X87282762Y-134316605D01*
X87293518Y-134322906D01*
X87313898Y-134327445D01*
X87347534Y-134330504D01*
X87398055Y-134332367D01*
X87469092Y-134333318D01*
X87564276Y-134333640D01*
X87603292Y-134333657D01*
X87920599Y-134333657D01*
X87935639Y-134257457D01*
X87943795Y-134215063D01*
X87955699Y-134151800D01*
X87969916Y-134075362D01*
X87985010Y-133993443D01*
X87989155Y-133970800D01*
X88003853Y-133895206D01*
X88018305Y-133829353D01*
X88031175Y-133778766D01*
X88041122Y-133748974D01*
X88044087Y-133744012D01*
X88065083Y-133731826D01*
X88105767Y-133714353D01*
X88158122Y-133694977D01*
X88169400Y-133691134D01*
X88239323Y-133665739D01*
X88318218Y-133634217D01*
X88389066Y-133603369D01*
X88389395Y-133603217D01*
X88500533Y-133551847D01*
X88749053Y-133720799D01*
X88997572Y-133889752D01*
X89214858Y-133672829D01*
X89279526Y-133607219D01*
X89336533Y-133547379D01*
X89382833Y-133496667D01*
X89415384Y-133458446D01*
X89431143Y-133436075D01*
X89432143Y-133432866D01*
X89424269Y-133414026D01*
X89402378Y-133375580D01*
X89369067Y-133321730D01*
X89326931Y-133256676D01*
X89279743Y-133186340D01*
X89231610Y-133114955D01*
X89189728Y-133051308D01*
X89156671Y-132999441D01*
X89135018Y-132963395D01*
X89127343Y-132947267D01*
X89133837Y-132927589D01*
X89150950Y-132890275D01*
X89175126Y-132843021D01*
X89177813Y-132838012D01*
X89209727Y-132774377D01*
X89225379Y-132730741D01*
X89225545Y-132703602D01*
X89211004Y-132689457D01*
X89210800Y-132689375D01*
X89193579Y-132682305D01*
X89152699Y-132665442D01*
X89091325Y-132640095D01*
X89012619Y-132607571D01*
X88919747Y-132569178D01*
X88815872Y-132526222D01*
X88715302Y-132484622D01*
X88604316Y-132438904D01*
X88501503Y-132396926D01*
X88410015Y-132359948D01*
X88333001Y-132329227D01*
X88273615Y-132306022D01*
X88235009Y-132291590D01*
X88220600Y-132287143D01*
X88204072Y-132298296D01*
X88177730Y-132327469D01*
X88148687Y-132366371D01*
X88056839Y-132477157D01*
X87951559Y-132563751D01*
X87835066Y-132625116D01*
X87709576Y-132660215D01*
X87577307Y-132668008D01*
X87516257Y-132662343D01*
X87389595Y-132631478D01*
X87277741Y-132578320D01*
X87181801Y-132506167D01*
X87102876Y-132418317D01*
X87042070Y-132318065D01*
X87000487Y-132208710D01*
X86979228Y-132093547D01*
X86979399Y-131975875D01*
X87002101Y-131858990D01*
X87048438Y-131746189D01*
X87119513Y-131640769D01*
X87159711Y-131596768D01*
X87262929Y-131512379D01*
X87375725Y-131453622D01*
X87494810Y-131420104D01*
X87616895Y-131411435D01*
X87738693Y-131427223D01*
X87856916Y-131467078D01*
X87968275Y-131530607D01*
X88069484Y-131617421D01*
X88148687Y-131714429D01*
X88178962Y-131754837D01*
X88205019Y-131783382D01*
X88220625Y-131793657D01*
X88237643Y-131788277D01*
X88278300Y-131772975D01*
X88339442Y-131749012D01*
X88417919Y-131717644D01*
X88510580Y-131680132D01*
X88614272Y-131637733D01*
X88715326Y-131596063D01*
X88826407Y-131550090D01*
X88929341Y-131507507D01*
X89020965Y-131469621D01*
X89098116Y-131437740D01*
X89157631Y-131413171D01*
X89196344Y-131397220D01*
X89210800Y-131391310D01*
X89225485Y-131377348D01*
X89225442Y-131350340D01*
X89209899Y-131306813D01*
X89178084Y-131243290D01*
X89177813Y-131242788D01*
X89153123Y-131194960D01*
X89135138Y-131156297D01*
X89127414Y-131134495D01*
X89127343Y-131133533D01*
X89135178Y-131117121D01*
X89156965Y-131080887D01*
X89190128Y-131028874D01*
X89232091Y-130965125D01*
X89279743Y-130894460D01*
X89327991Y-130822516D01*
X89369951Y-130757674D01*
X89403027Y-130704135D01*
X89424621Y-130666097D01*
X89432143Y-130647933D01*
X89422257Y-130631208D01*
X89394626Y-130597580D01*
X89352295Y-130550410D01*
X89298305Y-130493058D01*
X89235699Y-130428884D01*
X89214783Y-130407897D01*
X88997423Y-130190899D01*
X88755020Y-130356068D01*
X88680581Y-130406264D01*
X88613772Y-130450319D01*
X88558465Y-130485762D01*
X88518529Y-130510119D01*
X88497836Y-130520922D01*
X88496363Y-130521238D01*
X88476858Y-130515543D01*
X88437622Y-130500226D01*
X88385230Y-130477937D01*
X88350155Y-130462293D01*
X88283001Y-130433041D01*
X88215158Y-130405494D01*
X88157834Y-130384137D01*
X88140372Y-130378335D01*
X88093738Y-130361852D01*
X88057705Y-130345740D01*
X88044087Y-130336890D01*
X88035752Y-130317360D01*
X88023937Y-130274734D01*
X88009981Y-130214545D01*
X87995222Y-130142322D01*
X87989155Y-130110000D01*
X87974073Y-130027922D01*
X87959469Y-129949195D01*
X87946780Y-129881509D01*
X87937442Y-129832560D01*
X87935639Y-129823343D01*
X87920599Y-129747143D01*
X87603292Y-129747143D01*
X87498954Y-129747314D01*
X87420013Y-129748016D01*
X87362838Y-129749534D01*
X87323799Y-129752149D01*
X87299265Y-129756146D01*
X87285605Y-129761809D01*
X87279189Y-129769420D01*
X87277999Y-129772543D01*
X87273780Y-129791378D01*
X87265362Y-129832988D01*
X87253761Y-129892030D01*
X87239995Y-129963157D01*
X87225080Y-130041025D01*
X87210032Y-130120287D01*
X87195869Y-130195598D01*
X87183606Y-130261613D01*
X87174261Y-130312987D01*
X87168850Y-130344375D01*
X87167914Y-130351359D01*
X87155396Y-130357685D01*
X87122046Y-130371690D01*
X87074177Y-130390755D01*
X87055429Y-130398034D01*
X86982995Y-130427396D01*
X86902970Y-130461971D01*
X86835528Y-130492937D01*
X86783959Y-130515723D01*
X86741585Y-130530882D01*
X86715634Y-130535942D01*
X86712156Y-130535136D01*
X86695736Y-130524441D01*
X86659217Y-130500020D01*
X86606487Y-130464495D01*
X86541435Y-130420487D01*
X86467951Y-130370617D01*
X86453445Y-130360756D01*
X86367504Y-130302892D01*
X86302061Y-130260356D01*
X86254104Y-130231454D01*
X86220620Y-130214490D01*
X86198595Y-130207767D01*
X86185017Y-130209590D01*
X86184931Y-130209636D01*
X86167097Y-130223986D01*
X86132617Y-130255723D01*
X86085068Y-130301410D01*
X86028022Y-130357604D01*
X85965055Y-130420868D01*
X85958027Y-130428002D01*
X85880820Y-130507730D01*
X85824130Y-130569257D01*
X85786910Y-130613821D01*
X85768115Y-130642657D01*
X85765689Y-130655358D01*
X85776271Y-130673894D01*
X85800716Y-130712361D01*
X85836412Y-130766786D01*
X85880747Y-130833198D01*
X85931111Y-130907625D01*
X85942960Y-130925001D01*
X86111426Y-131171697D01*
X86060862Y-131283106D01*
X86031395Y-131350857D01*
X86001759Y-131423583D01*
X85978130Y-131486103D01*
X85977158Y-131488857D01*
X85959257Y-131537760D01*
X85944120Y-131575457D01*
X85935010Y-131593825D01*
X85934984Y-131593856D01*
X85918517Y-131599685D01*
X85878019Y-131609592D01*
X85818042Y-131622595D01*
X85743140Y-131637709D01*
X85657864Y-131653952D01*
X85650675Y-131655281D01*
X85562814Y-131671575D01*
X85483060Y-131686533D01*
X85416481Y-131699191D01*
X85368147Y-131708586D01*
X85343125Y-131713754D01*
X85342743Y-131713844D01*
X85332099Y-131716989D01*
X85324062Y-131723104D01*
X85318267Y-131735853D01*
X85314347Y-131758900D01*
X85311935Y-131795909D01*
X85310665Y-131850544D01*
X85310171Y-131926467D01*
X85310086Y-132027344D01*
X85310086Y-132040400D01*
X85310148Y-132144310D01*
X85310148Y-132144310D01*
G37*
X85310148Y-132144310D02*
X85310578Y-132222854D01*
X85311742Y-132279698D01*
X85314007Y-132318505D01*
X85317740Y-132342938D01*
X85323306Y-132356662D01*
X85331073Y-132363340D01*
X85341405Y-132366636D01*
X85342743Y-132366956D01*
X85366879Y-132371962D01*
X85414501Y-132381229D01*
X85480541Y-132393792D01*
X85559928Y-132408687D01*
X85647596Y-132424951D01*
X85650675Y-132425519D01*
X85736589Y-132441810D01*
X85812496Y-132457052D01*
X85873845Y-132470261D01*
X85916082Y-132480454D01*
X85934655Y-132486648D01*
X85934984Y-132486943D01*
X85944053Y-132505188D01*
X85959167Y-132542805D01*
X85977062Y-132591671D01*
X85977158Y-132591943D01*
X86000293Y-132653493D01*
X86029765Y-132726057D01*
X86059397Y-132794457D01*
X86060862Y-132797694D01*
X86111426Y-132909102D01*
X85942960Y-133155799D01*
X85891603Y-133231477D01*
X85845689Y-133300031D01*
X85807830Y-133357488D01*
X85780637Y-133399876D01*
X85766721Y-133423225D01*
X85765689Y-133425442D01*
X85770284Y-133442410D01*
X85792455Y-133474101D01*
X85833247Y-133521752D01*
X85893705Y-133586598D01*
X85958027Y-133652797D01*
X86021412Y-133716614D01*
X86079251Y-133773729D01*
X86127975Y-133820705D01*
X86164010Y-133854103D01*
X86183784Y-133870485D01*
X86184802Y-133871094D01*
X86198372Y-133872905D01*
X86220533Y-133866083D01*
X86254278Y-133848940D01*
X86302600Y-133819793D01*
X86368492Y-133776955D01*
X86453317Y-133719848D01*
X86527977Y-133669166D01*
X86594940Y-133623861D01*
X86650316Y-133586550D01*
X86690220Y-133559852D01*
X86710762Y-133546385D01*
X86712156Y-133545537D01*
X86731838Y-133547181D01*
X86770093Y-133559645D01*
X86819689Y-133580448D01*
X86835528Y-133587862D01*
X86906090Y-133620214D01*
X86986153Y-133654728D01*
X87055429Y-133682765D01*
X87106845Y-133702968D01*
X87145919Y-133719015D01*
X87166341Y-133728288D01*
X87167914Y-133729441D01*
X87170521Y-133746496D01*
X87177663Y-133786698D01*
X87188323Y-133844702D01*
X87201485Y-133915163D01*
X87216133Y-133992735D01*
X87231249Y-134072072D01*
X87245818Y-134147831D01*
X87258822Y-134214664D01*
X87269245Y-134267228D01*
X87276070Y-134300176D01*
X87277999Y-134308257D01*
X87282762Y-134316605D01*
X87293518Y-134322906D01*
X87313898Y-134327445D01*
X87347534Y-134330504D01*
X87398055Y-134332367D01*
X87469092Y-134333318D01*
X87564276Y-134333640D01*
X87603292Y-134333657D01*
X87920599Y-134333657D01*
X87935639Y-134257457D01*
X87943795Y-134215063D01*
X87955699Y-134151800D01*
X87969916Y-134075362D01*
X87985010Y-133993443D01*
X87989155Y-133970800D01*
X88003853Y-133895206D01*
X88018305Y-133829353D01*
X88031175Y-133778766D01*
X88041122Y-133748974D01*
X88044087Y-133744012D01*
X88065083Y-133731826D01*
X88105767Y-133714353D01*
X88158122Y-133694977D01*
X88169400Y-133691134D01*
X88239323Y-133665739D01*
X88318218Y-133634217D01*
X88389066Y-133603369D01*
X88389395Y-133603217D01*
X88500533Y-133551847D01*
X88749053Y-133720799D01*
X88997572Y-133889752D01*
X89214858Y-133672829D01*
X89279526Y-133607219D01*
X89336533Y-133547379D01*
X89382833Y-133496667D01*
X89415384Y-133458446D01*
X89431143Y-133436075D01*
X89432143Y-133432866D01*
X89424269Y-133414026D01*
X89402378Y-133375580D01*
X89369067Y-133321730D01*
X89326931Y-133256676D01*
X89279743Y-133186340D01*
X89231610Y-133114955D01*
X89189728Y-133051308D01*
X89156671Y-132999441D01*
X89135018Y-132963395D01*
X89127343Y-132947267D01*
X89133837Y-132927589D01*
X89150950Y-132890275D01*
X89175126Y-132843021D01*
X89177813Y-132838012D01*
X89209727Y-132774377D01*
X89225379Y-132730741D01*
X89225545Y-132703602D01*
X89211004Y-132689457D01*
X89210800Y-132689375D01*
X89193579Y-132682305D01*
X89152699Y-132665442D01*
X89091325Y-132640095D01*
X89012619Y-132607571D01*
X88919747Y-132569178D01*
X88815872Y-132526222D01*
X88715302Y-132484622D01*
X88604316Y-132438904D01*
X88501503Y-132396926D01*
X88410015Y-132359948D01*
X88333001Y-132329227D01*
X88273615Y-132306022D01*
X88235009Y-132291590D01*
X88220600Y-132287143D01*
X88204072Y-132298296D01*
X88177730Y-132327469D01*
X88148687Y-132366371D01*
X88056839Y-132477157D01*
X87951559Y-132563751D01*
X87835066Y-132625116D01*
X87709576Y-132660215D01*
X87577307Y-132668008D01*
X87516257Y-132662343D01*
X87389595Y-132631478D01*
X87277741Y-132578320D01*
X87181801Y-132506167D01*
X87102876Y-132418317D01*
X87042070Y-132318065D01*
X87000487Y-132208710D01*
X86979228Y-132093547D01*
X86979399Y-131975875D01*
X87002101Y-131858990D01*
X87048438Y-131746189D01*
X87119513Y-131640769D01*
X87159711Y-131596768D01*
X87262929Y-131512379D01*
X87375725Y-131453622D01*
X87494810Y-131420104D01*
X87616895Y-131411435D01*
X87738693Y-131427223D01*
X87856916Y-131467078D01*
X87968275Y-131530607D01*
X88069484Y-131617421D01*
X88148687Y-131714429D01*
X88178962Y-131754837D01*
X88205019Y-131783382D01*
X88220625Y-131793657D01*
X88237643Y-131788277D01*
X88278300Y-131772975D01*
X88339442Y-131749012D01*
X88417919Y-131717644D01*
X88510580Y-131680132D01*
X88614272Y-131637733D01*
X88715326Y-131596063D01*
X88826407Y-131550090D01*
X88929341Y-131507507D01*
X89020965Y-131469621D01*
X89098116Y-131437740D01*
X89157631Y-131413171D01*
X89196344Y-131397220D01*
X89210800Y-131391310D01*
X89225485Y-131377348D01*
X89225442Y-131350340D01*
X89209899Y-131306813D01*
X89178084Y-131243290D01*
X89177813Y-131242788D01*
X89153123Y-131194960D01*
X89135138Y-131156297D01*
X89127414Y-131134495D01*
X89127343Y-131133533D01*
X89135178Y-131117121D01*
X89156965Y-131080887D01*
X89190128Y-131028874D01*
X89232091Y-130965125D01*
X89279743Y-130894460D01*
X89327991Y-130822516D01*
X89369951Y-130757674D01*
X89403027Y-130704135D01*
X89424621Y-130666097D01*
X89432143Y-130647933D01*
X89422257Y-130631208D01*
X89394626Y-130597580D01*
X89352295Y-130550410D01*
X89298305Y-130493058D01*
X89235699Y-130428884D01*
X89214783Y-130407897D01*
X88997423Y-130190899D01*
X88755020Y-130356068D01*
X88680581Y-130406264D01*
X88613772Y-130450319D01*
X88558465Y-130485762D01*
X88518529Y-130510119D01*
X88497836Y-130520922D01*
X88496363Y-130521238D01*
X88476858Y-130515543D01*
X88437622Y-130500226D01*
X88385230Y-130477937D01*
X88350155Y-130462293D01*
X88283001Y-130433041D01*
X88215158Y-130405494D01*
X88157834Y-130384137D01*
X88140372Y-130378335D01*
X88093738Y-130361852D01*
X88057705Y-130345740D01*
X88044087Y-130336890D01*
X88035752Y-130317360D01*
X88023937Y-130274734D01*
X88009981Y-130214545D01*
X87995222Y-130142322D01*
X87989155Y-130110000D01*
X87974073Y-130027922D01*
X87959469Y-129949195D01*
X87946780Y-129881509D01*
X87937442Y-129832560D01*
X87935639Y-129823343D01*
X87920599Y-129747143D01*
X87603292Y-129747143D01*
X87498954Y-129747314D01*
X87420013Y-129748016D01*
X87362838Y-129749534D01*
X87323799Y-129752149D01*
X87299265Y-129756146D01*
X87285605Y-129761809D01*
X87279189Y-129769420D01*
X87277999Y-129772543D01*
X87273780Y-129791378D01*
X87265362Y-129832988D01*
X87253761Y-129892030D01*
X87239995Y-129963157D01*
X87225080Y-130041025D01*
X87210032Y-130120287D01*
X87195869Y-130195598D01*
X87183606Y-130261613D01*
X87174261Y-130312987D01*
X87168850Y-130344375D01*
X87167914Y-130351359D01*
X87155396Y-130357685D01*
X87122046Y-130371690D01*
X87074177Y-130390755D01*
X87055429Y-130398034D01*
X86982995Y-130427396D01*
X86902970Y-130461971D01*
X86835528Y-130492937D01*
X86783959Y-130515723D01*
X86741585Y-130530882D01*
X86715634Y-130535942D01*
X86712156Y-130535136D01*
X86695736Y-130524441D01*
X86659217Y-130500020D01*
X86606487Y-130464495D01*
X86541435Y-130420487D01*
X86467951Y-130370617D01*
X86453445Y-130360756D01*
X86367504Y-130302892D01*
X86302061Y-130260356D01*
X86254104Y-130231454D01*
X86220620Y-130214490D01*
X86198595Y-130207767D01*
X86185017Y-130209590D01*
X86184931Y-130209636D01*
X86167097Y-130223986D01*
X86132617Y-130255723D01*
X86085068Y-130301410D01*
X86028022Y-130357604D01*
X85965055Y-130420868D01*
X85958027Y-130428002D01*
X85880820Y-130507730D01*
X85824130Y-130569257D01*
X85786910Y-130613821D01*
X85768115Y-130642657D01*
X85765689Y-130655358D01*
X85776271Y-130673894D01*
X85800716Y-130712361D01*
X85836412Y-130766786D01*
X85880747Y-130833198D01*
X85931111Y-130907625D01*
X85942960Y-130925001D01*
X86111426Y-131171697D01*
X86060862Y-131283106D01*
X86031395Y-131350857D01*
X86001759Y-131423583D01*
X85978130Y-131486103D01*
X85977158Y-131488857D01*
X85959257Y-131537760D01*
X85944120Y-131575457D01*
X85935010Y-131593825D01*
X85934984Y-131593856D01*
X85918517Y-131599685D01*
X85878019Y-131609592D01*
X85818042Y-131622595D01*
X85743140Y-131637709D01*
X85657864Y-131653952D01*
X85650675Y-131655281D01*
X85562814Y-131671575D01*
X85483060Y-131686533D01*
X85416481Y-131699191D01*
X85368147Y-131708586D01*
X85343125Y-131713754D01*
X85342743Y-131713844D01*
X85332099Y-131716989D01*
X85324062Y-131723104D01*
X85318267Y-131735853D01*
X85314347Y-131758900D01*
X85311935Y-131795909D01*
X85310665Y-131850544D01*
X85310171Y-131926467D01*
X85310086Y-132027344D01*
X85310086Y-132040400D01*
X85310148Y-132144310D01*
G36*
X55771656Y-101943618D02*
X55716199Y-101971268D01*
X55667252Y-102022180D01*
X55653771Y-102041038D01*
X55639086Y-102065715D01*
X55629558Y-102092516D01*
X55624107Y-102128287D01*
X55621653Y-102179869D01*
X55621114Y-102247967D01*
X55623548Y-102341288D01*
X55632006Y-102411357D01*
X55648226Y-102463631D01*
X55673946Y-102503569D01*
X55710903Y-102536629D01*
X55713618Y-102538586D01*
X55750040Y-102558608D01*
X55793898Y-102568515D01*
X55849676Y-102570957D01*
X55940352Y-102570957D01*
X55940390Y-102658983D01*
X55941234Y-102708008D01*
X55946376Y-102736765D01*
X55959813Y-102754011D01*
X55985542Y-102768508D01*
X55991721Y-102771469D01*
X56020636Y-102785348D01*
X56043024Y-102794114D01*
X56059671Y-102794871D01*
X56071364Y-102784723D01*
X56078890Y-102760773D01*
X56083034Y-102720126D01*
X56084585Y-102659886D01*
X56084329Y-102577155D01*
X56083051Y-102469039D01*
X56082652Y-102436700D01*
X56081215Y-102325224D01*
X56079928Y-102252303D01*
X55940429Y-102252303D01*
X55939645Y-102314199D01*
X55936160Y-102354697D01*
X55928276Y-102381408D01*
X55914295Y-102401944D01*
X55904803Y-102411960D01*
X55865996Y-102441267D01*
X55831637Y-102443652D01*
X55796184Y-102419450D01*
X55795286Y-102418557D01*
X55780861Y-102399853D01*
X55772087Y-102374432D01*
X55767661Y-102335284D01*
X55766282Y-102275397D01*
X55766257Y-102262130D01*
X55769588Y-102179601D01*
X55780431Y-102122391D01*
X55800060Y-102087466D01*
X55829750Y-102071794D01*
X55846909Y-102070214D01*
X55887634Y-102077626D01*
X55915568Y-102102030D01*
X55932383Y-102146680D01*
X55939750Y-102214830D01*
X55940429Y-102252303D01*
X56079928Y-102252303D01*
X56079692Y-102238945D01*
X56077723Y-102174033D01*
X56074950Y-102126658D01*
X56071012Y-102092990D01*
X56065551Y-102069198D01*
X56058208Y-102051453D01*
X56048623Y-102035924D01*
X56044513Y-102030081D01*
X55989995Y-101974885D01*
X55921064Y-101943590D01*
X55841328Y-101934865D01*
X55771656Y-101943618D01*
X55771656Y-101943618D01*
G37*
X55771656Y-101943618D02*
X55716199Y-101971268D01*
X55667252Y-102022180D01*
X55653771Y-102041038D01*
X55639086Y-102065715D01*
X55629558Y-102092516D01*
X55624107Y-102128287D01*
X55621653Y-102179869D01*
X55621114Y-102247967D01*
X55623548Y-102341288D01*
X55632006Y-102411357D01*
X55648226Y-102463631D01*
X55673946Y-102503569D01*
X55710903Y-102536629D01*
X55713618Y-102538586D01*
X55750040Y-102558608D01*
X55793898Y-102568515D01*
X55849676Y-102570957D01*
X55940352Y-102570957D01*
X55940390Y-102658983D01*
X55941234Y-102708008D01*
X55946376Y-102736765D01*
X55959813Y-102754011D01*
X55985542Y-102768508D01*
X55991721Y-102771469D01*
X56020636Y-102785348D01*
X56043024Y-102794114D01*
X56059671Y-102794871D01*
X56071364Y-102784723D01*
X56078890Y-102760773D01*
X56083034Y-102720126D01*
X56084585Y-102659886D01*
X56084329Y-102577155D01*
X56083051Y-102469039D01*
X56082652Y-102436700D01*
X56081215Y-102325224D01*
X56079928Y-102252303D01*
X55940429Y-102252303D01*
X55939645Y-102314199D01*
X55936160Y-102354697D01*
X55928276Y-102381408D01*
X55914295Y-102401944D01*
X55904803Y-102411960D01*
X55865996Y-102441267D01*
X55831637Y-102443652D01*
X55796184Y-102419450D01*
X55795286Y-102418557D01*
X55780861Y-102399853D01*
X55772087Y-102374432D01*
X55767661Y-102335284D01*
X55766282Y-102275397D01*
X55766257Y-102262130D01*
X55769588Y-102179601D01*
X55780431Y-102122391D01*
X55800060Y-102087466D01*
X55829750Y-102071794D01*
X55846909Y-102070214D01*
X55887634Y-102077626D01*
X55915568Y-102102030D01*
X55932383Y-102146680D01*
X55939750Y-102214830D01*
X55940429Y-102252303D01*
X56079928Y-102252303D01*
X56079692Y-102238945D01*
X56077723Y-102174033D01*
X56074950Y-102126658D01*
X56071012Y-102092990D01*
X56065551Y-102069198D01*
X56058208Y-102051453D01*
X56048623Y-102035924D01*
X56044513Y-102030081D01*
X55989995Y-101974885D01*
X55921064Y-101943590D01*
X55841328Y-101934865D01*
X55771656Y-101943618D01*
G36*
X54655307Y-101951480D02*
X54608728Y-101978423D01*
X54576343Y-102005166D01*
X54552658Y-102033184D01*
X54536341Y-102067448D01*
X54526061Y-102112927D01*
X54520486Y-102174592D01*
X54518284Y-102257411D01*
X54518029Y-102316946D01*
X54518029Y-102536091D01*
X54579714Y-102563744D01*
X54641400Y-102591397D01*
X54648657Y-102351370D01*
X54651656Y-102261728D01*
X54654802Y-102196662D01*
X54658699Y-102151726D01*
X54663953Y-102122470D01*
X54671169Y-102104448D01*
X54680950Y-102093211D01*
X54684088Y-102090779D01*
X54731639Y-102071783D01*
X54779703Y-102079300D01*
X54808314Y-102099243D01*
X54819953Y-102113375D01*
X54828009Y-102131920D01*
X54833129Y-102160034D01*
X54835959Y-102202873D01*
X54837144Y-102265595D01*
X54837343Y-102330961D01*
X54837382Y-102412968D01*
X54838786Y-102471016D01*
X54843486Y-102510165D01*
X54853413Y-102535480D01*
X54870497Y-102552023D01*
X54896668Y-102564856D01*
X54931625Y-102578191D01*
X54969804Y-102592707D01*
X54965259Y-102335089D01*
X54963429Y-102242219D01*
X54961288Y-102173589D01*
X54958219Y-102124411D01*
X54953606Y-102089898D01*
X54946832Y-102065262D01*
X54937281Y-102045716D01*
X54925766Y-102028470D01*
X54870210Y-101973380D01*
X54802420Y-101941522D01*
X54728687Y-101933891D01*
X54655307Y-101951480D01*
X54655307Y-101951480D01*
G37*
X54655307Y-101951480D02*
X54608728Y-101978423D01*
X54576343Y-102005166D01*
X54552658Y-102033184D01*
X54536341Y-102067448D01*
X54526061Y-102112927D01*
X54520486Y-102174592D01*
X54518284Y-102257411D01*
X54518029Y-102316946D01*
X54518029Y-102536091D01*
X54579714Y-102563744D01*
X54641400Y-102591397D01*
X54648657Y-102351370D01*
X54651656Y-102261728D01*
X54654802Y-102196662D01*
X54658699Y-102151726D01*
X54663953Y-102122470D01*
X54671169Y-102104448D01*
X54680950Y-102093211D01*
X54684088Y-102090779D01*
X54731639Y-102071783D01*
X54779703Y-102079300D01*
X54808314Y-102099243D01*
X54819953Y-102113375D01*
X54828009Y-102131920D01*
X54833129Y-102160034D01*
X54835959Y-102202873D01*
X54837144Y-102265595D01*
X54837343Y-102330961D01*
X54837382Y-102412968D01*
X54838786Y-102471016D01*
X54843486Y-102510165D01*
X54853413Y-102535480D01*
X54870497Y-102552023D01*
X54896668Y-102564856D01*
X54931625Y-102578191D01*
X54969804Y-102592707D01*
X54965259Y-102335089D01*
X54963429Y-102242219D01*
X54961288Y-102173589D01*
X54958219Y-102124411D01*
X54953606Y-102089898D01*
X54946832Y-102065262D01*
X54937281Y-102045716D01*
X54925766Y-102028470D01*
X54870210Y-101973380D01*
X54802420Y-101941522D01*
X54728687Y-101933891D01*
X54655307Y-101951480D01*
G36*
X56330285Y-101945662D02*
X56262255Y-101981433D01*
X56212049Y-102039001D01*
X56194215Y-102076012D01*
X56180337Y-102131582D01*
X56173233Y-102201796D01*
X56172560Y-102278427D01*
X56177973Y-102353252D01*
X56189130Y-102418042D01*
X56205686Y-102464573D01*
X56210774Y-102472587D01*
X56271045Y-102532407D01*
X56342631Y-102568235D01*
X56420308Y-102578720D01*
X56498852Y-102562510D01*
X56520711Y-102552792D01*
X56563278Y-102522843D01*
X56600637Y-102483133D01*
X56604168Y-102478097D01*
X56618519Y-102453824D01*
X56628006Y-102427878D01*
X56633610Y-102393722D01*
X56636314Y-102344819D01*
X56637101Y-102274635D01*
X56637114Y-102258900D01*
X56637078Y-102253892D01*
X56491971Y-102253892D01*
X56491127Y-102320130D01*
X56487804Y-102364086D01*
X56480817Y-102392479D01*
X56468984Y-102412025D01*
X56462943Y-102418557D01*
X56428214Y-102443380D01*
X56394497Y-102442248D01*
X56360405Y-102420716D01*
X56340071Y-102397729D01*
X56328029Y-102364178D01*
X56321266Y-102311269D01*
X56320802Y-102305099D01*
X56319648Y-102209213D01*
X56331712Y-102137999D01*
X56356830Y-102091894D01*
X56394840Y-102071335D01*
X56408408Y-102070214D01*
X56444036Y-102075852D01*
X56468406Y-102095386D01*
X56483307Y-102132742D01*
X56490525Y-102191850D01*
X56491971Y-102253892D01*
X56637078Y-102253892D01*
X56636574Y-102184113D01*
X56634304Y-102131859D01*
X56629332Y-102095649D01*
X56620687Y-102068999D01*
X56607395Y-102045422D01*
X56604457Y-102041038D01*
X56555087Y-101981949D01*
X56501291Y-101947647D01*
X56435798Y-101934031D01*
X56413558Y-101933365D01*
X56330285Y-101945662D01*
X56330285Y-101945662D01*
G37*
X56330285Y-101945662D02*
X56262255Y-101981433D01*
X56212049Y-102039001D01*
X56194215Y-102076012D01*
X56180337Y-102131582D01*
X56173233Y-102201796D01*
X56172560Y-102278427D01*
X56177973Y-102353252D01*
X56189130Y-102418042D01*
X56205686Y-102464573D01*
X56210774Y-102472587D01*
X56271045Y-102532407D01*
X56342631Y-102568235D01*
X56420308Y-102578720D01*
X56498852Y-102562510D01*
X56520711Y-102552792D01*
X56563278Y-102522843D01*
X56600637Y-102483133D01*
X56604168Y-102478097D01*
X56618519Y-102453824D01*
X56628006Y-102427878D01*
X56633610Y-102393722D01*
X56636314Y-102344819D01*
X56637101Y-102274635D01*
X56637114Y-102258900D01*
X56637078Y-102253892D01*
X56491971Y-102253892D01*
X56491127Y-102320130D01*
X56487804Y-102364086D01*
X56480817Y-102392479D01*
X56468984Y-102412025D01*
X56462943Y-102418557D01*
X56428214Y-102443380D01*
X56394497Y-102442248D01*
X56360405Y-102420716D01*
X56340071Y-102397729D01*
X56328029Y-102364178D01*
X56321266Y-102311269D01*
X56320802Y-102305099D01*
X56319648Y-102209213D01*
X56331712Y-102137999D01*
X56356830Y-102091894D01*
X56394840Y-102071335D01*
X56408408Y-102070214D01*
X56444036Y-102075852D01*
X56468406Y-102095386D01*
X56483307Y-102132742D01*
X56490525Y-102191850D01*
X56491971Y-102253892D01*
X56637078Y-102253892D01*
X56636574Y-102184113D01*
X56634304Y-102131859D01*
X56629332Y-102095649D01*
X56620687Y-102068999D01*
X56607395Y-102045422D01*
X56604457Y-102041038D01*
X56555087Y-101981949D01*
X56501291Y-101947647D01*
X56435798Y-101934031D01*
X56413558Y-101933365D01*
X56330285Y-101945662D01*
G36*
X55203097Y-101954939D02*
X55145873Y-101993435D01*
X55101651Y-102049035D01*
X55075233Y-102119786D01*
X55069890Y-102171862D01*
X55070497Y-102193593D01*
X55075578Y-102210231D01*
X55089545Y-102225137D01*
X55116811Y-102241673D01*
X55161788Y-102263198D01*
X55228889Y-102293074D01*
X55229229Y-102293224D01*
X55290993Y-102321513D01*
X55341641Y-102346633D01*
X55375996Y-102365879D01*
X55388882Y-102376548D01*
X55388886Y-102376634D01*
X55377528Y-102399866D01*
X55350969Y-102425474D01*
X55320477Y-102443921D01*
X55305030Y-102447586D01*
X55262885Y-102434912D01*
X55226592Y-102403171D01*
X55208883Y-102368272D01*
X55191848Y-102342545D01*
X55158478Y-102313246D01*
X55119251Y-102287935D01*
X55084644Y-102274171D01*
X55077407Y-102273414D01*
X55069261Y-102285860D01*
X55068770Y-102317672D01*
X55074757Y-102360566D01*
X55086043Y-102406258D01*
X55101450Y-102446461D01*
X55102229Y-102448022D01*
X55148596Y-102512762D01*
X55208689Y-102556797D01*
X55276935Y-102578411D01*
X55347762Y-102575885D01*
X55415596Y-102547504D01*
X55418612Y-102545508D01*
X55471973Y-102497148D01*
X55507060Y-102434052D01*
X55526478Y-102351087D01*
X55529084Y-102327778D01*
X55533699Y-102217755D01*
X55528167Y-102166448D01*
X55388886Y-102166448D01*
X55387076Y-102198453D01*
X55377178Y-102207793D01*
X55352502Y-102200805D01*
X55313605Y-102184287D01*
X55270125Y-102163581D01*
X55269044Y-102163033D01*
X55232191Y-102143649D01*
X55217400Y-102130713D01*
X55221047Y-102117151D01*
X55236405Y-102099332D01*
X55275477Y-102073545D01*
X55317554Y-102071650D01*
X55355297Y-102090417D01*
X55381366Y-102126615D01*
X55388886Y-102166448D01*
X55528167Y-102166448D01*
X55524206Y-102129727D01*
X55499850Y-102059912D01*
X55465944Y-102011002D01*
X55404747Y-101961578D01*
X55337337Y-101937059D01*
X55268520Y-101935497D01*
X55203097Y-101954939D01*
X55203097Y-101954939D01*
G37*
X55203097Y-101954939D02*
X55145873Y-101993435D01*
X55101651Y-102049035D01*
X55075233Y-102119786D01*
X55069890Y-102171862D01*
X55070497Y-102193593D01*
X55075578Y-102210231D01*
X55089545Y-102225137D01*
X55116811Y-102241673D01*
X55161788Y-102263198D01*
X55228889Y-102293074D01*
X55229229Y-102293224D01*
X55290993Y-102321513D01*
X55341641Y-102346633D01*
X55375996Y-102365879D01*
X55388882Y-102376548D01*
X55388886Y-102376634D01*
X55377528Y-102399866D01*
X55350969Y-102425474D01*
X55320477Y-102443921D01*
X55305030Y-102447586D01*
X55262885Y-102434912D01*
X55226592Y-102403171D01*
X55208883Y-102368272D01*
X55191848Y-102342545D01*
X55158478Y-102313246D01*
X55119251Y-102287935D01*
X55084644Y-102274171D01*
X55077407Y-102273414D01*
X55069261Y-102285860D01*
X55068770Y-102317672D01*
X55074757Y-102360566D01*
X55086043Y-102406258D01*
X55101450Y-102446461D01*
X55102229Y-102448022D01*
X55148596Y-102512762D01*
X55208689Y-102556797D01*
X55276935Y-102578411D01*
X55347762Y-102575885D01*
X55415596Y-102547504D01*
X55418612Y-102545508D01*
X55471973Y-102497148D01*
X55507060Y-102434052D01*
X55526478Y-102351087D01*
X55529084Y-102327778D01*
X55533699Y-102217755D01*
X55528167Y-102166448D01*
X55388886Y-102166448D01*
X55387076Y-102198453D01*
X55377178Y-102207793D01*
X55352502Y-102200805D01*
X55313605Y-102184287D01*
X55270125Y-102163581D01*
X55269044Y-102163033D01*
X55232191Y-102143649D01*
X55217400Y-102130713D01*
X55221047Y-102117151D01*
X55236405Y-102099332D01*
X55275477Y-102073545D01*
X55317554Y-102071650D01*
X55355297Y-102090417D01*
X55381366Y-102126615D01*
X55388886Y-102166448D01*
X55528167Y-102166448D01*
X55524206Y-102129727D01*
X55499850Y-102059912D01*
X55465944Y-102011002D01*
X55404747Y-101961578D01*
X55337337Y-101937059D01*
X55268520Y-101935497D01*
X55203097Y-101954939D01*
G36*
X53995514Y-101874989D02*
X53991261Y-101934313D01*
X53986375Y-101969272D01*
X53979605Y-101984520D01*
X53969698Y-101984715D01*
X53966486Y-101982895D01*
X53923756Y-101969715D01*
X53868173Y-101970485D01*
X53811663Y-101984033D01*
X53776318Y-102001561D01*
X53740079Y-102029561D01*
X53713587Y-102061249D01*
X53695401Y-102101513D01*
X53684078Y-102155243D01*
X53678178Y-102227326D01*
X53676257Y-102322651D01*
X53676223Y-102340937D01*
X53676200Y-102546346D01*
X53721909Y-102562280D01*
X53754373Y-102573120D01*
X53772185Y-102578168D01*
X53772709Y-102578214D01*
X53774463Y-102564528D01*
X53775956Y-102526776D01*
X53777074Y-102469924D01*
X53777703Y-102398934D01*
X53777800Y-102355773D01*
X53778002Y-102270673D01*
X53779042Y-102209681D01*
X53781569Y-102167877D01*
X53786236Y-102140342D01*
X53793693Y-102122156D01*
X53804589Y-102108398D01*
X53811393Y-102101773D01*
X53858128Y-102075075D01*
X53909128Y-102073075D01*
X53955399Y-102095655D01*
X53963956Y-102103807D01*
X53976507Y-102119136D01*
X53985212Y-102137318D01*
X53990769Y-102163609D01*
X53993874Y-102203262D01*
X53995224Y-102261532D01*
X53995514Y-102341873D01*
X53995514Y-102546346D01*
X54041223Y-102562280D01*
X54073687Y-102573120D01*
X54091499Y-102578168D01*
X54092023Y-102578214D01*
X54093363Y-102564323D01*
X54094572Y-102525139D01*
X54095599Y-102464400D01*
X54096398Y-102385841D01*
X54096919Y-102293198D01*
X54097114Y-102190209D01*
X54097114Y-101793042D01*
X54049943Y-101773144D01*
X54002771Y-101753247D01*
X53995514Y-101874989D01*
X53995514Y-101874989D01*
G37*
X53995514Y-101874989D02*
X53991261Y-101934313D01*
X53986375Y-101969272D01*
X53979605Y-101984520D01*
X53969698Y-101984715D01*
X53966486Y-101982895D01*
X53923756Y-101969715D01*
X53868173Y-101970485D01*
X53811663Y-101984033D01*
X53776318Y-102001561D01*
X53740079Y-102029561D01*
X53713587Y-102061249D01*
X53695401Y-102101513D01*
X53684078Y-102155243D01*
X53678178Y-102227326D01*
X53676257Y-102322651D01*
X53676223Y-102340937D01*
X53676200Y-102546346D01*
X53721909Y-102562280D01*
X53754373Y-102573120D01*
X53772185Y-102578168D01*
X53772709Y-102578214D01*
X53774463Y-102564528D01*
X53775956Y-102526776D01*
X53777074Y-102469924D01*
X53777703Y-102398934D01*
X53777800Y-102355773D01*
X53778002Y-102270673D01*
X53779042Y-102209681D01*
X53781569Y-102167877D01*
X53786236Y-102140342D01*
X53793693Y-102122156D01*
X53804589Y-102108398D01*
X53811393Y-102101773D01*
X53858128Y-102075075D01*
X53909128Y-102073075D01*
X53955399Y-102095655D01*
X53963956Y-102103807D01*
X53976507Y-102119136D01*
X53985212Y-102137318D01*
X53990769Y-102163609D01*
X53993874Y-102203262D01*
X53995224Y-102261532D01*
X53995514Y-102341873D01*
X53995514Y-102546346D01*
X54041223Y-102562280D01*
X54073687Y-102573120D01*
X54091499Y-102578168D01*
X54092023Y-102578214D01*
X54093363Y-102564323D01*
X54094572Y-102525139D01*
X54095599Y-102464400D01*
X54096398Y-102385841D01*
X54096919Y-102293198D01*
X54097114Y-102190209D01*
X54097114Y-101793042D01*
X54049943Y-101773144D01*
X54002771Y-101753247D01*
X53995514Y-101874989D01*
G36*
X53331656Y-101974668D02*
X53274784Y-101995787D01*
X53274133Y-101996193D01*
X53238960Y-102022080D01*
X53212993Y-102052333D01*
X53194730Y-102091758D01*
X53182668Y-102145162D01*
X53175304Y-102217351D01*
X53171136Y-102313132D01*
X53170771Y-102326778D01*
X53165524Y-102532542D01*
X53209684Y-102555378D01*
X53241637Y-102570810D01*
X53260930Y-102578123D01*
X53261822Y-102578214D01*
X53265161Y-102564722D01*
X53267813Y-102528326D01*
X53269444Y-102475152D01*
X53269800Y-102432093D01*
X53269808Y-102362341D01*
X53272997Y-102318537D01*
X53284112Y-102297644D01*
X53307899Y-102296625D01*
X53349104Y-102312441D01*
X53411314Y-102341515D01*
X53457059Y-102365663D01*
X53480587Y-102386613D01*
X53487504Y-102409447D01*
X53487514Y-102410577D01*
X53476101Y-102449912D01*
X53442308Y-102471162D01*
X53390591Y-102474239D01*
X53353339Y-102473706D01*
X53333697Y-102484435D01*
X53321448Y-102510205D01*
X53314398Y-102543037D01*
X53324558Y-102561666D01*
X53328383Y-102564332D01*
X53364399Y-102575040D01*
X53414834Y-102576556D01*
X53466774Y-102569459D01*
X53503578Y-102556488D01*
X53554462Y-102513285D01*
X53583386Y-102453146D01*
X53589114Y-102406162D01*
X53584743Y-102363782D01*
X53568925Y-102329188D01*
X53537603Y-102298463D01*
X53486722Y-102267690D01*
X53412224Y-102232952D01*
X53407686Y-102230988D01*
X53340579Y-102199987D01*
X53299168Y-102174562D01*
X53281419Y-102151714D01*
X53285293Y-102128445D01*
X53308757Y-102101756D01*
X53315773Y-102095614D01*
X53362770Y-102071800D01*
X53411467Y-102072803D01*
X53453878Y-102096151D01*
X53482016Y-102139375D01*
X53484631Y-102147860D01*
X53510092Y-102189008D01*
X53542399Y-102208828D01*
X53589114Y-102228470D01*
X53589114Y-102177650D01*
X53574904Y-102103782D01*
X53532725Y-102036027D01*
X53510776Y-102013361D01*
X53460883Y-101984269D01*
X53397433Y-101971100D01*
X53331656Y-101974668D01*
X53331656Y-101974668D01*
G37*
X53331656Y-101974668D02*
X53274784Y-101995787D01*
X53274133Y-101996193D01*
X53238960Y-102022080D01*
X53212993Y-102052333D01*
X53194730Y-102091758D01*
X53182668Y-102145162D01*
X53175304Y-102217351D01*
X53171136Y-102313132D01*
X53170771Y-102326778D01*
X53165524Y-102532542D01*
X53209684Y-102555378D01*
X53241637Y-102570810D01*
X53260930Y-102578123D01*
X53261822Y-102578214D01*
X53265161Y-102564722D01*
X53267813Y-102528326D01*
X53269444Y-102475152D01*
X53269800Y-102432093D01*
X53269808Y-102362341D01*
X53272997Y-102318537D01*
X53284112Y-102297644D01*
X53307899Y-102296625D01*
X53349104Y-102312441D01*
X53411314Y-102341515D01*
X53457059Y-102365663D01*
X53480587Y-102386613D01*
X53487504Y-102409447D01*
X53487514Y-102410577D01*
X53476101Y-102449912D01*
X53442308Y-102471162D01*
X53390591Y-102474239D01*
X53353339Y-102473706D01*
X53333697Y-102484435D01*
X53321448Y-102510205D01*
X53314398Y-102543037D01*
X53324558Y-102561666D01*
X53328383Y-102564332D01*
X53364399Y-102575040D01*
X53414834Y-102576556D01*
X53466774Y-102569459D01*
X53503578Y-102556488D01*
X53554462Y-102513285D01*
X53583386Y-102453146D01*
X53589114Y-102406162D01*
X53584743Y-102363782D01*
X53568925Y-102329188D01*
X53537603Y-102298463D01*
X53486722Y-102267690D01*
X53412224Y-102232952D01*
X53407686Y-102230988D01*
X53340579Y-102199987D01*
X53299168Y-102174562D01*
X53281419Y-102151714D01*
X53285293Y-102128445D01*
X53308757Y-102101756D01*
X53315773Y-102095614D01*
X53362770Y-102071800D01*
X53411467Y-102072803D01*
X53453878Y-102096151D01*
X53482016Y-102139375D01*
X53484631Y-102147860D01*
X53510092Y-102189008D01*
X53542399Y-102208828D01*
X53589114Y-102228470D01*
X53589114Y-102177650D01*
X53574904Y-102103782D01*
X53532725Y-102036027D01*
X53510776Y-102013361D01*
X53460883Y-101984269D01*
X53397433Y-101971100D01*
X53331656Y-101974668D01*
G36*
X52841474Y-101973455D02*
X52775542Y-101997784D01*
X52722127Y-102040817D01*
X52701236Y-102071109D01*
X52678461Y-102126694D01*
X52678934Y-102166886D01*
X52702838Y-102193917D01*
X52711683Y-102198513D01*
X52749870Y-102212844D01*
X52769372Y-102209172D01*
X52775978Y-102185107D01*
X52776314Y-102171814D01*
X52788408Y-102122910D01*
X52819929Y-102088699D01*
X52863741Y-102072176D01*
X52912705Y-102076334D01*
X52952506Y-102097927D01*
X52965950Y-102110244D01*
X52975479Y-102125187D01*
X52981915Y-102147775D01*
X52986083Y-102183028D01*
X52988803Y-102235966D01*
X52990898Y-102311607D01*
X52991440Y-102335557D01*
X52993419Y-102417490D01*
X52995669Y-102475155D01*
X52999043Y-102513308D01*
X53004394Y-102536704D01*
X53012576Y-102550098D01*
X53024441Y-102558245D01*
X53032038Y-102561844D01*
X53064298Y-102574152D01*
X53083289Y-102578214D01*
X53089564Y-102564648D01*
X53093394Y-102523634D01*
X53094800Y-102454699D01*
X53093802Y-102357369D01*
X53093492Y-102342357D01*
X53091299Y-102253559D01*
X53088707Y-102188719D01*
X53085018Y-102142767D01*
X53079536Y-102110635D01*
X53071565Y-102087253D01*
X53060407Y-102067552D01*
X53054570Y-102059110D01*
X53021104Y-102021757D01*
X52983673Y-101992703D01*
X52979091Y-101990167D01*
X52911974Y-101970143D01*
X52841474Y-101973455D01*
X52841474Y-101973455D01*
G37*
X52841474Y-101973455D02*
X52775542Y-101997784D01*
X52722127Y-102040817D01*
X52701236Y-102071109D01*
X52678461Y-102126694D01*
X52678934Y-102166886D01*
X52702838Y-102193917D01*
X52711683Y-102198513D01*
X52749870Y-102212844D01*
X52769372Y-102209172D01*
X52775978Y-102185107D01*
X52776314Y-102171814D01*
X52788408Y-102122910D01*
X52819929Y-102088699D01*
X52863741Y-102072176D01*
X52912705Y-102076334D01*
X52952506Y-102097927D01*
X52965950Y-102110244D01*
X52975479Y-102125187D01*
X52981915Y-102147775D01*
X52986083Y-102183028D01*
X52988803Y-102235966D01*
X52990898Y-102311607D01*
X52991440Y-102335557D01*
X52993419Y-102417490D01*
X52995669Y-102475155D01*
X52999043Y-102513308D01*
X53004394Y-102536704D01*
X53012576Y-102550098D01*
X53024441Y-102558245D01*
X53032038Y-102561844D01*
X53064298Y-102574152D01*
X53083289Y-102578214D01*
X53089564Y-102564648D01*
X53093394Y-102523634D01*
X53094800Y-102454699D01*
X53093802Y-102357369D01*
X53093492Y-102342357D01*
X53091299Y-102253559D01*
X53088707Y-102188719D01*
X53085018Y-102142767D01*
X53079536Y-102110635D01*
X53071565Y-102087253D01*
X53060407Y-102067552D01*
X53054570Y-102059110D01*
X53021104Y-102021757D01*
X52983673Y-101992703D01*
X52979091Y-101990167D01*
X52911974Y-101970143D01*
X52841474Y-101973455D01*
G36*
X52181283Y-102089058D02*
X52181467Y-102197537D01*
X52182181Y-102280987D01*
X52183725Y-102343404D01*
X52186399Y-102388785D01*
X52190506Y-102421129D01*
X52196345Y-102444433D01*
X52204218Y-102462695D01*
X52210179Y-102473118D01*
X52259545Y-102529645D01*
X52322136Y-102565077D01*
X52391387Y-102577790D01*
X52460732Y-102566163D01*
X52502025Y-102545268D01*
X52545375Y-102509122D01*
X52574919Y-102464976D01*
X52592745Y-102407162D01*
X52600937Y-102330013D01*
X52602098Y-102273414D01*
X52601942Y-102269347D01*
X52500543Y-102269347D01*
X52499924Y-102334250D01*
X52497086Y-102377214D01*
X52490560Y-102405322D01*
X52478877Y-102425653D01*
X52464917Y-102440988D01*
X52418035Y-102470590D01*
X52367699Y-102473119D01*
X52320124Y-102448405D01*
X52316421Y-102445056D01*
X52300617Y-102427635D01*
X52290707Y-102406909D01*
X52285342Y-102376062D01*
X52283172Y-102328277D01*
X52282829Y-102275448D01*
X52283573Y-102209081D01*
X52286652Y-102164806D01*
X52293339Y-102135709D01*
X52304904Y-102114873D01*
X52314387Y-102103807D01*
X52358440Y-102075898D01*
X52409176Y-102072543D01*
X52457604Y-102093859D01*
X52466950Y-102101773D01*
X52482860Y-102119347D01*
X52492790Y-102140287D01*
X52498122Y-102171482D01*
X52500237Y-102219822D01*
X52500543Y-102269347D01*
X52601942Y-102269347D01*
X52598590Y-102182268D01*
X52586674Y-102113786D01*
X52564265Y-102062300D01*
X52529276Y-102022143D01*
X52502025Y-102001561D01*
X52452493Y-101979325D01*
X52395084Y-101969004D01*
X52341718Y-101971767D01*
X52311857Y-101982912D01*
X52300139Y-101986083D01*
X52292363Y-101974257D01*
X52286935Y-101942566D01*
X52282829Y-101894293D01*
X52278333Y-101840529D01*
X52272087Y-101808182D01*
X52260724Y-101789685D01*
X52240872Y-101777470D01*
X52228400Y-101772062D01*
X52181229Y-101752301D01*
X52181283Y-102089058D01*
X52181283Y-102089058D01*
G37*
X52181283Y-102089058D02*
X52181467Y-102197537D01*
X52182181Y-102280987D01*
X52183725Y-102343404D01*
X52186399Y-102388785D01*
X52190506Y-102421129D01*
X52196345Y-102444433D01*
X52204218Y-102462695D01*
X52210179Y-102473118D01*
X52259545Y-102529645D01*
X52322136Y-102565077D01*
X52391387Y-102577790D01*
X52460732Y-102566163D01*
X52502025Y-102545268D01*
X52545375Y-102509122D01*
X52574919Y-102464976D01*
X52592745Y-102407162D01*
X52600937Y-102330013D01*
X52602098Y-102273414D01*
X52601942Y-102269347D01*
X52500543Y-102269347D01*
X52499924Y-102334250D01*
X52497086Y-102377214D01*
X52490560Y-102405322D01*
X52478877Y-102425653D01*
X52464917Y-102440988D01*
X52418035Y-102470590D01*
X52367699Y-102473119D01*
X52320124Y-102448405D01*
X52316421Y-102445056D01*
X52300617Y-102427635D01*
X52290707Y-102406909D01*
X52285342Y-102376062D01*
X52283172Y-102328277D01*
X52282829Y-102275448D01*
X52283573Y-102209081D01*
X52286652Y-102164806D01*
X52293339Y-102135709D01*
X52304904Y-102114873D01*
X52314387Y-102103807D01*
X52358440Y-102075898D01*
X52409176Y-102072543D01*
X52457604Y-102093859D01*
X52466950Y-102101773D01*
X52482860Y-102119347D01*
X52492790Y-102140287D01*
X52498122Y-102171482D01*
X52500237Y-102219822D01*
X52500543Y-102269347D01*
X52601942Y-102269347D01*
X52598590Y-102182268D01*
X52586674Y-102113786D01*
X52564265Y-102062300D01*
X52529276Y-102022143D01*
X52502025Y-102001561D01*
X52452493Y-101979325D01*
X52395084Y-101969004D01*
X52341718Y-101971767D01*
X52311857Y-101982912D01*
X52300139Y-101986083D01*
X52292363Y-101974257D01*
X52286935Y-101942566D01*
X52282829Y-101894293D01*
X52278333Y-101840529D01*
X52272087Y-101808182D01*
X52260724Y-101789685D01*
X52240872Y-101777470D01*
X52228400Y-101772062D01*
X52181229Y-101752301D01*
X52181283Y-102089058D01*
G36*
X51591567Y-101982363D02*
X51589352Y-102020550D01*
X51587616Y-102078586D01*
X51586501Y-102151880D01*
X51586143Y-102228755D01*
X51586143Y-102488896D01*
X51632074Y-102534827D01*
X51663725Y-102563129D01*
X51691510Y-102574593D01*
X51729485Y-102573868D01*
X51744560Y-102572021D01*
X51791674Y-102566648D01*
X51830644Y-102563569D01*
X51840143Y-102563285D01*
X51872167Y-102565145D01*
X51917968Y-102569814D01*
X51935726Y-102572021D01*
X51979343Y-102575435D01*
X52008655Y-102568020D01*
X52037720Y-102545127D01*
X52048212Y-102534827D01*
X52094143Y-102488896D01*
X52094143Y-102002302D01*
X52057174Y-101985458D01*
X52025341Y-101972982D01*
X52006717Y-101968614D01*
X52001942Y-101982418D01*
X51997479Y-102020986D01*
X51993625Y-102080056D01*
X51990678Y-102155363D01*
X51989257Y-102218986D01*
X51985286Y-102469357D01*
X51950641Y-102474256D01*
X51919132Y-102470831D01*
X51903692Y-102459741D01*
X51899377Y-102439008D01*
X51895692Y-102394845D01*
X51892931Y-102332846D01*
X51891388Y-102258609D01*
X51891165Y-102220406D01*
X51890943Y-102000483D01*
X51845234Y-101984549D01*
X51812882Y-101973715D01*
X51795285Y-101968662D01*
X51794777Y-101968614D01*
X51793012Y-101982348D01*
X51791071Y-102020430D01*
X51789118Y-102078182D01*
X51787316Y-102150927D01*
X51786057Y-102218986D01*
X51782086Y-102469357D01*
X51695000Y-102469357D01*
X51691004Y-102240940D01*
X51687008Y-102012522D01*
X51644553Y-101990568D01*
X51613208Y-101975493D01*
X51594656Y-101968651D01*
X51594121Y-101968614D01*
X51591567Y-101982363D01*
X51591567Y-101982363D01*
G37*
X51591567Y-101982363D02*
X51589352Y-102020550D01*
X51587616Y-102078586D01*
X51586501Y-102151880D01*
X51586143Y-102228755D01*
X51586143Y-102488896D01*
X51632074Y-102534827D01*
X51663725Y-102563129D01*
X51691510Y-102574593D01*
X51729485Y-102573868D01*
X51744560Y-102572021D01*
X51791674Y-102566648D01*
X51830644Y-102563569D01*
X51840143Y-102563285D01*
X51872167Y-102565145D01*
X51917968Y-102569814D01*
X51935726Y-102572021D01*
X51979343Y-102575435D01*
X52008655Y-102568020D01*
X52037720Y-102545127D01*
X52048212Y-102534827D01*
X52094143Y-102488896D01*
X52094143Y-102002302D01*
X52057174Y-101985458D01*
X52025341Y-101972982D01*
X52006717Y-101968614D01*
X52001942Y-101982418D01*
X51997479Y-102020986D01*
X51993625Y-102080056D01*
X51990678Y-102155363D01*
X51989257Y-102218986D01*
X51985286Y-102469357D01*
X51950641Y-102474256D01*
X51919132Y-102470831D01*
X51903692Y-102459741D01*
X51899377Y-102439008D01*
X51895692Y-102394845D01*
X51892931Y-102332846D01*
X51891388Y-102258609D01*
X51891165Y-102220406D01*
X51890943Y-102000483D01*
X51845234Y-101984549D01*
X51812882Y-101973715D01*
X51795285Y-101968662D01*
X51794777Y-101968614D01*
X51793012Y-101982348D01*
X51791071Y-102020430D01*
X51789118Y-102078182D01*
X51787316Y-102150927D01*
X51786057Y-102218986D01*
X51782086Y-102469357D01*
X51695000Y-102469357D01*
X51691004Y-102240940D01*
X51687008Y-102012522D01*
X51644553Y-101990568D01*
X51613208Y-101975493D01*
X51594656Y-101968651D01*
X51594121Y-101968614D01*
X51591567Y-101982363D01*
G36*
X51226524Y-101980035D02*
X51184733Y-101999044D01*
X51151931Y-102022078D01*
X51127897Y-102047833D01*
X51111303Y-102081058D01*
X51100823Y-102126500D01*
X51095129Y-102188907D01*
X51092893Y-102273027D01*
X51092657Y-102328421D01*
X51092657Y-102544526D01*
X51129626Y-102561370D01*
X51158744Y-102573681D01*
X51173169Y-102578214D01*
X51175928Y-102564725D01*
X51178118Y-102528353D01*
X51179458Y-102475242D01*
X51179743Y-102433072D01*
X51180966Y-102372147D01*
X51184264Y-102323815D01*
X51189079Y-102294218D01*
X51192904Y-102287929D01*
X51218617Y-102294352D01*
X51258982Y-102310825D01*
X51305721Y-102333158D01*
X51350555Y-102357157D01*
X51385207Y-102378630D01*
X51401398Y-102393385D01*
X51401462Y-102393545D01*
X51400070Y-102420852D01*
X51387582Y-102446919D01*
X51365657Y-102468092D01*
X51333657Y-102475174D01*
X51306308Y-102474349D01*
X51267574Y-102473742D01*
X51247242Y-102482816D01*
X51235031Y-102506792D01*
X51233491Y-102511313D01*
X51228197Y-102545506D01*
X51242353Y-102566268D01*
X51279252Y-102576162D01*
X51319111Y-102577992D01*
X51390838Y-102564427D01*
X51427968Y-102545055D01*
X51473824Y-102499545D01*
X51498144Y-102443683D01*
X51500327Y-102384657D01*
X51479771Y-102329653D01*
X51448851Y-102295186D01*
X51417980Y-102275889D01*
X51369458Y-102251459D01*
X51312915Y-102226685D01*
X51303490Y-102222899D01*
X51241381Y-102195491D01*
X51205578Y-102171334D01*
X51194063Y-102147319D01*
X51204820Y-102120335D01*
X51223286Y-102099243D01*
X51266931Y-102073272D01*
X51314954Y-102071324D01*
X51358994Y-102091337D01*
X51390691Y-102131251D01*
X51394851Y-102141548D01*
X51419073Y-102179424D01*
X51454435Y-102207542D01*
X51499057Y-102230617D01*
X51499057Y-102165185D01*
X51496431Y-102125206D01*
X51485170Y-102093697D01*
X51460201Y-102060078D01*
X51436231Y-102034184D01*
X51398959Y-101997517D01*
X51369999Y-101977821D01*
X51338895Y-101969920D01*
X51303687Y-101968614D01*
X51226524Y-101980035D01*
X51226524Y-101980035D01*
G37*
X51226524Y-101980035D02*
X51184733Y-101999044D01*
X51151931Y-102022078D01*
X51127897Y-102047833D01*
X51111303Y-102081058D01*
X51100823Y-102126500D01*
X51095129Y-102188907D01*
X51092893Y-102273027D01*
X51092657Y-102328421D01*
X51092657Y-102544526D01*
X51129626Y-102561370D01*
X51158744Y-102573681D01*
X51173169Y-102578214D01*
X51175928Y-102564725D01*
X51178118Y-102528353D01*
X51179458Y-102475242D01*
X51179743Y-102433072D01*
X51180966Y-102372147D01*
X51184264Y-102323815D01*
X51189079Y-102294218D01*
X51192904Y-102287929D01*
X51218617Y-102294352D01*
X51258982Y-102310825D01*
X51305721Y-102333158D01*
X51350555Y-102357157D01*
X51385207Y-102378630D01*
X51401398Y-102393385D01*
X51401462Y-102393545D01*
X51400070Y-102420852D01*
X51387582Y-102446919D01*
X51365657Y-102468092D01*
X51333657Y-102475174D01*
X51306308Y-102474349D01*
X51267574Y-102473742D01*
X51247242Y-102482816D01*
X51235031Y-102506792D01*
X51233491Y-102511313D01*
X51228197Y-102545506D01*
X51242353Y-102566268D01*
X51279252Y-102576162D01*
X51319111Y-102577992D01*
X51390838Y-102564427D01*
X51427968Y-102545055D01*
X51473824Y-102499545D01*
X51498144Y-102443683D01*
X51500327Y-102384657D01*
X51479771Y-102329653D01*
X51448851Y-102295186D01*
X51417980Y-102275889D01*
X51369458Y-102251459D01*
X51312915Y-102226685D01*
X51303490Y-102222899D01*
X51241381Y-102195491D01*
X51205578Y-102171334D01*
X51194063Y-102147319D01*
X51204820Y-102120335D01*
X51223286Y-102099243D01*
X51266931Y-102073272D01*
X51314954Y-102071324D01*
X51358994Y-102091337D01*
X51390691Y-102131251D01*
X51394851Y-102141548D01*
X51419073Y-102179424D01*
X51454435Y-102207542D01*
X51499057Y-102230617D01*
X51499057Y-102165185D01*
X51496431Y-102125206D01*
X51485170Y-102093697D01*
X51460201Y-102060078D01*
X51436231Y-102034184D01*
X51398959Y-101997517D01*
X51369999Y-101977821D01*
X51338895Y-101969920D01*
X51303687Y-101968614D01*
X51226524Y-101980035D01*
G36*
X50718800Y-101982452D02*
X50701452Y-101990034D01*
X50660044Y-102022828D01*
X50624635Y-102070247D01*
X50602736Y-102120851D01*
X50599171Y-102145798D01*
X50611121Y-102180627D01*
X50637333Y-102199057D01*
X50665436Y-102210216D01*
X50678305Y-102212272D01*
X50684571Y-102197349D01*
X50696944Y-102164875D01*
X50702372Y-102150202D01*
X50732810Y-102099444D01*
X50776880Y-102074127D01*
X50833390Y-102074906D01*
X50837575Y-102075903D01*
X50867745Y-102090207D01*
X50889924Y-102118093D01*
X50905073Y-102162987D01*
X50914150Y-102228315D01*
X50918114Y-102317504D01*
X50918486Y-102364961D01*
X50918670Y-102439771D01*
X50919878Y-102490769D01*
X50923091Y-102523171D01*
X50929291Y-102542195D01*
X50939460Y-102553056D01*
X50954581Y-102560972D01*
X50955454Y-102561370D01*
X50984572Y-102573681D01*
X50998997Y-102578214D01*
X51001214Y-102564509D01*
X51003111Y-102526625D01*
X51004553Y-102469415D01*
X51005402Y-102397727D01*
X51005571Y-102345265D01*
X51004708Y-102243747D01*
X51001330Y-102166732D01*
X50994258Y-102109723D01*
X50982312Y-102068226D01*
X50964310Y-102037743D01*
X50939073Y-102013780D01*
X50914153Y-101997055D01*
X50854229Y-101974797D01*
X50784489Y-101969776D01*
X50718800Y-101982452D01*
X50718800Y-101982452D01*
G37*
X50718800Y-101982452D02*
X50701452Y-101990034D01*
X50660044Y-102022828D01*
X50624635Y-102070247D01*
X50602736Y-102120851D01*
X50599171Y-102145798D01*
X50611121Y-102180627D01*
X50637333Y-102199057D01*
X50665436Y-102210216D01*
X50678305Y-102212272D01*
X50684571Y-102197349D01*
X50696944Y-102164875D01*
X50702372Y-102150202D01*
X50732810Y-102099444D01*
X50776880Y-102074127D01*
X50833390Y-102074906D01*
X50837575Y-102075903D01*
X50867745Y-102090207D01*
X50889924Y-102118093D01*
X50905073Y-102162987D01*
X50914150Y-102228315D01*
X50918114Y-102317504D01*
X50918486Y-102364961D01*
X50918670Y-102439771D01*
X50919878Y-102490769D01*
X50923091Y-102523171D01*
X50929291Y-102542195D01*
X50939460Y-102553056D01*
X50954581Y-102560972D01*
X50955454Y-102561370D01*
X50984572Y-102573681D01*
X50998997Y-102578214D01*
X51001214Y-102564509D01*
X51003111Y-102526625D01*
X51004553Y-102469415D01*
X51005402Y-102397727D01*
X51005571Y-102345265D01*
X51004708Y-102243747D01*
X51001330Y-102166732D01*
X50994258Y-102109723D01*
X50982312Y-102068226D01*
X50964310Y-102037743D01*
X50939073Y-102013780D01*
X50914153Y-101997055D01*
X50854229Y-101974797D01*
X50784489Y-101969776D01*
X50718800Y-101982452D01*
G36*
X50217805Y-101990666D02*
X50160379Y-102028197D01*
X50132681Y-102061796D01*
X50110738Y-102122764D01*
X50108995Y-102171008D01*
X50112943Y-102235516D01*
X50261714Y-102300634D01*
X50334051Y-102333902D01*
X50381316Y-102360664D01*
X50405893Y-102383844D01*
X50410163Y-102406367D01*
X50396511Y-102431155D01*
X50381457Y-102447586D01*
X50337654Y-102473935D01*
X50290011Y-102475781D01*
X50246255Y-102455246D01*
X50214111Y-102414452D01*
X50208362Y-102400047D01*
X50180824Y-102355056D01*
X50149142Y-102335882D01*
X50105686Y-102319479D01*
X50105686Y-102381666D01*
X50109528Y-102423983D01*
X50124577Y-102459669D01*
X50156120Y-102500643D01*
X50160808Y-102505967D01*
X50195894Y-102542420D01*
X50226053Y-102561983D01*
X50263785Y-102570983D01*
X50295065Y-102573930D01*
X50351015Y-102574665D01*
X50390845Y-102565360D01*
X50415692Y-102551546D01*
X50454744Y-102521167D01*
X50481775Y-102488313D01*
X50498883Y-102446994D01*
X50508162Y-102391221D01*
X50511707Y-102315005D01*
X50511990Y-102276322D01*
X50511028Y-102229947D01*
X50423393Y-102229947D01*
X50422377Y-102254826D01*
X50419844Y-102258900D01*
X50403126Y-102253365D01*
X50367151Y-102238717D01*
X50319069Y-102217890D01*
X50309014Y-102213414D01*
X50248248Y-102182514D01*
X50214768Y-102155357D01*
X50207410Y-102129920D01*
X50225009Y-102104181D01*
X50239544Y-102092809D01*
X50291990Y-102070064D01*
X50341078Y-102073822D01*
X50382173Y-102101584D01*
X50410642Y-102150852D01*
X50419769Y-102189957D01*
X50423393Y-102229947D01*
X50511028Y-102229947D01*
X50510115Y-102185949D01*
X50503204Y-102119084D01*
X50489516Y-102070395D01*
X50467304Y-102034549D01*
X50434826Y-102006213D01*
X50420667Y-101997055D01*
X50356347Y-101973207D01*
X50285927Y-101971706D01*
X50217805Y-101990666D01*
X50217805Y-101990666D01*
G37*
X50217805Y-101990666D02*
X50160379Y-102028197D01*
X50132681Y-102061796D01*
X50110738Y-102122764D01*
X50108995Y-102171008D01*
X50112943Y-102235516D01*
X50261714Y-102300634D01*
X50334051Y-102333902D01*
X50381316Y-102360664D01*
X50405893Y-102383844D01*
X50410163Y-102406367D01*
X50396511Y-102431155D01*
X50381457Y-102447586D01*
X50337654Y-102473935D01*
X50290011Y-102475781D01*
X50246255Y-102455246D01*
X50214111Y-102414452D01*
X50208362Y-102400047D01*
X50180824Y-102355056D01*
X50149142Y-102335882D01*
X50105686Y-102319479D01*
X50105686Y-102381666D01*
X50109528Y-102423983D01*
X50124577Y-102459669D01*
X50156120Y-102500643D01*
X50160808Y-102505967D01*
X50195894Y-102542420D01*
X50226053Y-102561983D01*
X50263785Y-102570983D01*
X50295065Y-102573930D01*
X50351015Y-102574665D01*
X50390845Y-102565360D01*
X50415692Y-102551546D01*
X50454744Y-102521167D01*
X50481775Y-102488313D01*
X50498883Y-102446994D01*
X50508162Y-102391221D01*
X50511707Y-102315005D01*
X50511990Y-102276322D01*
X50511028Y-102229947D01*
X50423393Y-102229947D01*
X50422377Y-102254826D01*
X50419844Y-102258900D01*
X50403126Y-102253365D01*
X50367151Y-102238717D01*
X50319069Y-102217890D01*
X50309014Y-102213414D01*
X50248248Y-102182514D01*
X50214768Y-102155357D01*
X50207410Y-102129920D01*
X50225009Y-102104181D01*
X50239544Y-102092809D01*
X50291990Y-102070064D01*
X50341078Y-102073822D01*
X50382173Y-102101584D01*
X50410642Y-102150852D01*
X50419769Y-102189957D01*
X50423393Y-102229947D01*
X50511028Y-102229947D01*
X50510115Y-102185949D01*
X50503204Y-102119084D01*
X50489516Y-102070395D01*
X50467304Y-102034549D01*
X50434826Y-102006213D01*
X50420667Y-101997055D01*
X50356347Y-101973207D01*
X50285927Y-101971706D01*
X50217805Y-101990666D01*
G36*
X53267490Y-97266048D02*
X53188946Y-97266478D01*
X53132102Y-97267642D01*
X53093295Y-97269907D01*
X53068862Y-97273640D01*
X53055138Y-97279206D01*
X53048460Y-97286973D01*
X53045164Y-97297305D01*
X53044844Y-97298643D01*
X53039838Y-97322779D01*
X53030571Y-97370401D01*
X53018008Y-97436441D01*
X53003113Y-97515828D01*
X52986849Y-97603496D01*
X52986281Y-97606575D01*
X52969990Y-97692489D01*
X52954748Y-97768396D01*
X52941539Y-97829745D01*
X52931346Y-97871982D01*
X52925152Y-97890555D01*
X52924857Y-97890884D01*
X52906612Y-97899953D01*
X52868995Y-97915067D01*
X52820129Y-97932962D01*
X52819857Y-97933058D01*
X52758307Y-97956193D01*
X52685743Y-97985665D01*
X52617343Y-98015297D01*
X52614106Y-98016762D01*
X52502698Y-98067326D01*
X52256001Y-97898860D01*
X52180323Y-97847503D01*
X52111769Y-97801589D01*
X52054312Y-97763730D01*
X52011924Y-97736537D01*
X51988575Y-97722621D01*
X51986358Y-97721589D01*
X51969390Y-97726184D01*
X51937699Y-97748355D01*
X51890048Y-97789147D01*
X51825202Y-97849605D01*
X51759003Y-97913927D01*
X51695186Y-97977312D01*
X51638071Y-98035151D01*
X51591095Y-98083875D01*
X51557697Y-98119910D01*
X51541315Y-98139684D01*
X51540706Y-98140702D01*
X51538895Y-98154272D01*
X51545717Y-98176433D01*
X51562860Y-98210178D01*
X51592007Y-98258500D01*
X51634845Y-98324392D01*
X51691952Y-98409217D01*
X51742634Y-98483877D01*
X51787939Y-98550840D01*
X51825250Y-98606216D01*
X51851948Y-98646120D01*
X51865415Y-98666662D01*
X51866263Y-98668056D01*
X51864619Y-98687738D01*
X51852155Y-98725993D01*
X51831352Y-98775589D01*
X51823938Y-98791428D01*
X51791586Y-98861990D01*
X51757072Y-98942053D01*
X51729035Y-99011329D01*
X51708832Y-99062745D01*
X51692785Y-99101819D01*
X51683512Y-99122241D01*
X51682359Y-99123814D01*
X51665304Y-99126421D01*
X51625102Y-99133563D01*
X51567098Y-99144223D01*
X51496637Y-99157385D01*
X51419065Y-99172033D01*
X51339728Y-99187149D01*
X51263969Y-99201718D01*
X51197136Y-99214722D01*
X51144572Y-99225145D01*
X51111624Y-99231970D01*
X51103543Y-99233899D01*
X51095195Y-99238662D01*
X51088894Y-99249418D01*
X51084355Y-99269798D01*
X51081296Y-99303434D01*
X51079433Y-99353955D01*
X51078482Y-99424992D01*
X51078160Y-99520176D01*
X51078143Y-99559192D01*
X51078143Y-99876499D01*
X51154343Y-99891539D01*
X51196737Y-99899695D01*
X51260000Y-99911599D01*
X51336438Y-99925816D01*
X51418357Y-99940910D01*
X51441000Y-99945055D01*
X51516594Y-99959753D01*
X51582447Y-99974205D01*
X51633034Y-99987075D01*
X51662826Y-99997022D01*
X51667788Y-99999987D01*
X51679974Y-100020983D01*
X51697447Y-100061667D01*
X51716823Y-100114022D01*
X51720666Y-100125300D01*
X51746061Y-100195223D01*
X51777583Y-100274118D01*
X51808431Y-100344966D01*
X51808583Y-100345295D01*
X51859953Y-100456433D01*
X51691001Y-100704953D01*
X51522048Y-100953472D01*
X51738971Y-101170758D01*
X51804581Y-101235426D01*
X51864421Y-101292433D01*
X51915133Y-101338733D01*
X51953354Y-101371284D01*
X51975725Y-101387043D01*
X51978934Y-101388043D01*
X51997774Y-101380169D01*
X52036220Y-101358278D01*
X52090070Y-101324967D01*
X52155124Y-101282831D01*
X52225460Y-101235643D01*
X52296845Y-101187510D01*
X52360492Y-101145628D01*
X52412359Y-101112571D01*
X52448405Y-101090918D01*
X52464533Y-101083243D01*
X52484211Y-101089737D01*
X52521525Y-101106850D01*
X52568779Y-101131026D01*
X52573788Y-101133713D01*
X52637423Y-101165627D01*
X52681059Y-101181279D01*
X52708198Y-101181445D01*
X52722343Y-101166904D01*
X52722425Y-101166700D01*
X52729495Y-101149479D01*
X52746358Y-101108599D01*
X52771705Y-101047225D01*
X52804229Y-100968519D01*
X52842622Y-100875647D01*
X52885578Y-100771772D01*
X52927178Y-100671202D01*
X52972896Y-100560216D01*
X53014874Y-100457403D01*
X53051852Y-100365915D01*
X53082573Y-100288901D01*
X53105778Y-100229515D01*
X53120210Y-100190909D01*
X53124657Y-100176500D01*
X53113504Y-100159972D01*
X53084331Y-100133630D01*
X53045429Y-100104587D01*
X52934643Y-100012739D01*
X52848049Y-99907459D01*
X52786684Y-99790966D01*
X52751585Y-99665476D01*
X52743792Y-99533207D01*
X52749457Y-99472157D01*
X52780322Y-99345495D01*
X52833480Y-99233641D01*
X52905633Y-99137701D01*
X52993483Y-99058776D01*
X53093735Y-98997970D01*
X53203090Y-98956387D01*
X53318253Y-98935128D01*
X53435925Y-98935299D01*
X53552810Y-98958001D01*
X53665611Y-99004338D01*
X53771031Y-99075413D01*
X53815032Y-99115611D01*
X53899421Y-99218829D01*
X53958178Y-99331625D01*
X53991696Y-99450710D01*
X54000365Y-99572795D01*
X53984577Y-99694593D01*
X53944722Y-99812816D01*
X53881193Y-99924175D01*
X53794379Y-100025384D01*
X53697371Y-100104587D01*
X53656963Y-100134862D01*
X53628418Y-100160919D01*
X53618143Y-100176525D01*
X53623523Y-100193543D01*
X53638825Y-100234200D01*
X53662788Y-100295342D01*
X53694156Y-100373819D01*
X53731668Y-100466480D01*
X53774067Y-100570172D01*
X53815737Y-100671226D01*
X53861710Y-100782307D01*
X53904293Y-100885241D01*
X53942179Y-100976865D01*
X53974060Y-101054016D01*
X53998629Y-101113531D01*
X54014580Y-101152244D01*
X54020490Y-101166700D01*
X54034452Y-101181385D01*
X54061460Y-101181342D01*
X54104987Y-101165799D01*
X54168510Y-101133984D01*
X54169012Y-101133713D01*
X54216840Y-101109023D01*
X54255503Y-101091038D01*
X54277305Y-101083314D01*
X54278267Y-101083243D01*
X54294679Y-101091078D01*
X54330913Y-101112865D01*
X54382926Y-101146028D01*
X54446675Y-101187991D01*
X54517340Y-101235643D01*
X54589284Y-101283891D01*
X54654126Y-101325851D01*
X54707665Y-101358927D01*
X54745703Y-101380521D01*
X54763867Y-101388043D01*
X54780592Y-101378157D01*
X54814220Y-101350526D01*
X54861390Y-101308195D01*
X54918742Y-101254205D01*
X54982916Y-101191599D01*
X55003903Y-101170683D01*
X55220901Y-100953323D01*
X55055732Y-100710920D01*
X55005536Y-100636481D01*
X54961481Y-100569672D01*
X54926038Y-100514365D01*
X54901681Y-100474429D01*
X54890878Y-100453736D01*
X54890562Y-100452263D01*
X54896257Y-100432758D01*
X54911574Y-100393522D01*
X54933863Y-100341130D01*
X54949507Y-100306055D01*
X54978759Y-100238901D01*
X55006306Y-100171058D01*
X55027663Y-100113734D01*
X55033465Y-100096272D01*
X55049948Y-100049638D01*
X55066060Y-100013605D01*
X55074910Y-99999987D01*
X55094440Y-99991652D01*
X55137066Y-99979837D01*
X55197255Y-99965881D01*
X55269478Y-99951122D01*
X55301800Y-99945055D01*
X55383878Y-99929973D01*
X55462605Y-99915369D01*
X55530291Y-99902680D01*
X55579240Y-99893342D01*
X55588457Y-99891539D01*
X55664657Y-99876499D01*
X55664657Y-99559192D01*
X55664486Y-99454854D01*
X55663784Y-99375913D01*
X55662266Y-99318738D01*
X55659651Y-99279699D01*
X55655654Y-99255165D01*
X55649991Y-99241505D01*
X55642380Y-99235089D01*
X55639257Y-99233899D01*
X55620422Y-99229680D01*
X55578812Y-99221262D01*
X55519770Y-99209661D01*
X55448643Y-99195895D01*
X55370775Y-99180980D01*
X55291513Y-99165932D01*
X55216202Y-99151769D01*
X55150187Y-99139506D01*
X55098813Y-99130161D01*
X55067425Y-99124750D01*
X55060441Y-99123814D01*
X55054115Y-99111296D01*
X55040110Y-99077946D01*
X55021045Y-99030077D01*
X55013766Y-99011329D01*
X54984404Y-98938895D01*
X54949829Y-98858870D01*
X54918863Y-98791428D01*
X54896077Y-98739859D01*
X54880918Y-98697485D01*
X54875858Y-98671534D01*
X54876664Y-98668056D01*
X54887359Y-98651636D01*
X54911780Y-98615117D01*
X54947305Y-98562387D01*
X54991313Y-98497335D01*
X55041183Y-98423851D01*
X55051044Y-98409345D01*
X55108908Y-98323404D01*
X55151444Y-98257961D01*
X55180346Y-98210004D01*
X55197310Y-98176520D01*
X55204033Y-98154495D01*
X55202210Y-98140917D01*
X55202164Y-98140831D01*
X55187814Y-98122997D01*
X55156077Y-98088517D01*
X55110390Y-98040968D01*
X55054196Y-97983922D01*
X54990932Y-97920955D01*
X54983798Y-97913927D01*
X54904070Y-97836720D01*
X54842543Y-97780030D01*
X54797979Y-97742810D01*
X54769143Y-97724015D01*
X54756442Y-97721589D01*
X54737906Y-97732171D01*
X54699439Y-97756616D01*
X54645014Y-97792312D01*
X54578602Y-97836647D01*
X54504175Y-97887011D01*
X54486799Y-97898860D01*
X54240103Y-98067326D01*
X54128694Y-98016762D01*
X54060943Y-97987295D01*
X53988217Y-97957659D01*
X53925697Y-97934030D01*
X53922943Y-97933058D01*
X53874040Y-97915157D01*
X53836343Y-97900020D01*
X53817975Y-97890910D01*
X53817944Y-97890884D01*
X53812115Y-97874417D01*
X53802208Y-97833919D01*
X53789205Y-97773942D01*
X53774091Y-97699040D01*
X53757848Y-97613764D01*
X53756519Y-97606575D01*
X53740225Y-97518714D01*
X53725267Y-97438960D01*
X53712609Y-97372381D01*
X53703214Y-97324047D01*
X53698046Y-97299025D01*
X53697956Y-97298643D01*
X53694811Y-97287999D01*
X53688696Y-97279962D01*
X53675947Y-97274167D01*
X53652900Y-97270247D01*
X53615891Y-97267835D01*
X53561256Y-97266565D01*
X53485333Y-97266071D01*
X53384456Y-97265986D01*
X53371400Y-97265986D01*
X53267490Y-97266048D01*
X53267490Y-97266048D01*
G37*
X53267490Y-97266048D02*
X53188946Y-97266478D01*
X53132102Y-97267642D01*
X53093295Y-97269907D01*
X53068862Y-97273640D01*
X53055138Y-97279206D01*
X53048460Y-97286973D01*
X53045164Y-97297305D01*
X53044844Y-97298643D01*
X53039838Y-97322779D01*
X53030571Y-97370401D01*
X53018008Y-97436441D01*
X53003113Y-97515828D01*
X52986849Y-97603496D01*
X52986281Y-97606575D01*
X52969990Y-97692489D01*
X52954748Y-97768396D01*
X52941539Y-97829745D01*
X52931346Y-97871982D01*
X52925152Y-97890555D01*
X52924857Y-97890884D01*
X52906612Y-97899953D01*
X52868995Y-97915067D01*
X52820129Y-97932962D01*
X52819857Y-97933058D01*
X52758307Y-97956193D01*
X52685743Y-97985665D01*
X52617343Y-98015297D01*
X52614106Y-98016762D01*
X52502698Y-98067326D01*
X52256001Y-97898860D01*
X52180323Y-97847503D01*
X52111769Y-97801589D01*
X52054312Y-97763730D01*
X52011924Y-97736537D01*
X51988575Y-97722621D01*
X51986358Y-97721589D01*
X51969390Y-97726184D01*
X51937699Y-97748355D01*
X51890048Y-97789147D01*
X51825202Y-97849605D01*
X51759003Y-97913927D01*
X51695186Y-97977312D01*
X51638071Y-98035151D01*
X51591095Y-98083875D01*
X51557697Y-98119910D01*
X51541315Y-98139684D01*
X51540706Y-98140702D01*
X51538895Y-98154272D01*
X51545717Y-98176433D01*
X51562860Y-98210178D01*
X51592007Y-98258500D01*
X51634845Y-98324392D01*
X51691952Y-98409217D01*
X51742634Y-98483877D01*
X51787939Y-98550840D01*
X51825250Y-98606216D01*
X51851948Y-98646120D01*
X51865415Y-98666662D01*
X51866263Y-98668056D01*
X51864619Y-98687738D01*
X51852155Y-98725993D01*
X51831352Y-98775589D01*
X51823938Y-98791428D01*
X51791586Y-98861990D01*
X51757072Y-98942053D01*
X51729035Y-99011329D01*
X51708832Y-99062745D01*
X51692785Y-99101819D01*
X51683512Y-99122241D01*
X51682359Y-99123814D01*
X51665304Y-99126421D01*
X51625102Y-99133563D01*
X51567098Y-99144223D01*
X51496637Y-99157385D01*
X51419065Y-99172033D01*
X51339728Y-99187149D01*
X51263969Y-99201718D01*
X51197136Y-99214722D01*
X51144572Y-99225145D01*
X51111624Y-99231970D01*
X51103543Y-99233899D01*
X51095195Y-99238662D01*
X51088894Y-99249418D01*
X51084355Y-99269798D01*
X51081296Y-99303434D01*
X51079433Y-99353955D01*
X51078482Y-99424992D01*
X51078160Y-99520176D01*
X51078143Y-99559192D01*
X51078143Y-99876499D01*
X51154343Y-99891539D01*
X51196737Y-99899695D01*
X51260000Y-99911599D01*
X51336438Y-99925816D01*
X51418357Y-99940910D01*
X51441000Y-99945055D01*
X51516594Y-99959753D01*
X51582447Y-99974205D01*
X51633034Y-99987075D01*
X51662826Y-99997022D01*
X51667788Y-99999987D01*
X51679974Y-100020983D01*
X51697447Y-100061667D01*
X51716823Y-100114022D01*
X51720666Y-100125300D01*
X51746061Y-100195223D01*
X51777583Y-100274118D01*
X51808431Y-100344966D01*
X51808583Y-100345295D01*
X51859953Y-100456433D01*
X51691001Y-100704953D01*
X51522048Y-100953472D01*
X51738971Y-101170758D01*
X51804581Y-101235426D01*
X51864421Y-101292433D01*
X51915133Y-101338733D01*
X51953354Y-101371284D01*
X51975725Y-101387043D01*
X51978934Y-101388043D01*
X51997774Y-101380169D01*
X52036220Y-101358278D01*
X52090070Y-101324967D01*
X52155124Y-101282831D01*
X52225460Y-101235643D01*
X52296845Y-101187510D01*
X52360492Y-101145628D01*
X52412359Y-101112571D01*
X52448405Y-101090918D01*
X52464533Y-101083243D01*
X52484211Y-101089737D01*
X52521525Y-101106850D01*
X52568779Y-101131026D01*
X52573788Y-101133713D01*
X52637423Y-101165627D01*
X52681059Y-101181279D01*
X52708198Y-101181445D01*
X52722343Y-101166904D01*
X52722425Y-101166700D01*
X52729495Y-101149479D01*
X52746358Y-101108599D01*
X52771705Y-101047225D01*
X52804229Y-100968519D01*
X52842622Y-100875647D01*
X52885578Y-100771772D01*
X52927178Y-100671202D01*
X52972896Y-100560216D01*
X53014874Y-100457403D01*
X53051852Y-100365915D01*
X53082573Y-100288901D01*
X53105778Y-100229515D01*
X53120210Y-100190909D01*
X53124657Y-100176500D01*
X53113504Y-100159972D01*
X53084331Y-100133630D01*
X53045429Y-100104587D01*
X52934643Y-100012739D01*
X52848049Y-99907459D01*
X52786684Y-99790966D01*
X52751585Y-99665476D01*
X52743792Y-99533207D01*
X52749457Y-99472157D01*
X52780322Y-99345495D01*
X52833480Y-99233641D01*
X52905633Y-99137701D01*
X52993483Y-99058776D01*
X53093735Y-98997970D01*
X53203090Y-98956387D01*
X53318253Y-98935128D01*
X53435925Y-98935299D01*
X53552810Y-98958001D01*
X53665611Y-99004338D01*
X53771031Y-99075413D01*
X53815032Y-99115611D01*
X53899421Y-99218829D01*
X53958178Y-99331625D01*
X53991696Y-99450710D01*
X54000365Y-99572795D01*
X53984577Y-99694593D01*
X53944722Y-99812816D01*
X53881193Y-99924175D01*
X53794379Y-100025384D01*
X53697371Y-100104587D01*
X53656963Y-100134862D01*
X53628418Y-100160919D01*
X53618143Y-100176525D01*
X53623523Y-100193543D01*
X53638825Y-100234200D01*
X53662788Y-100295342D01*
X53694156Y-100373819D01*
X53731668Y-100466480D01*
X53774067Y-100570172D01*
X53815737Y-100671226D01*
X53861710Y-100782307D01*
X53904293Y-100885241D01*
X53942179Y-100976865D01*
X53974060Y-101054016D01*
X53998629Y-101113531D01*
X54014580Y-101152244D01*
X54020490Y-101166700D01*
X54034452Y-101181385D01*
X54061460Y-101181342D01*
X54104987Y-101165799D01*
X54168510Y-101133984D01*
X54169012Y-101133713D01*
X54216840Y-101109023D01*
X54255503Y-101091038D01*
X54277305Y-101083314D01*
X54278267Y-101083243D01*
X54294679Y-101091078D01*
X54330913Y-101112865D01*
X54382926Y-101146028D01*
X54446675Y-101187991D01*
X54517340Y-101235643D01*
X54589284Y-101283891D01*
X54654126Y-101325851D01*
X54707665Y-101358927D01*
X54745703Y-101380521D01*
X54763867Y-101388043D01*
X54780592Y-101378157D01*
X54814220Y-101350526D01*
X54861390Y-101308195D01*
X54918742Y-101254205D01*
X54982916Y-101191599D01*
X55003903Y-101170683D01*
X55220901Y-100953323D01*
X55055732Y-100710920D01*
X55005536Y-100636481D01*
X54961481Y-100569672D01*
X54926038Y-100514365D01*
X54901681Y-100474429D01*
X54890878Y-100453736D01*
X54890562Y-100452263D01*
X54896257Y-100432758D01*
X54911574Y-100393522D01*
X54933863Y-100341130D01*
X54949507Y-100306055D01*
X54978759Y-100238901D01*
X55006306Y-100171058D01*
X55027663Y-100113734D01*
X55033465Y-100096272D01*
X55049948Y-100049638D01*
X55066060Y-100013605D01*
X55074910Y-99999987D01*
X55094440Y-99991652D01*
X55137066Y-99979837D01*
X55197255Y-99965881D01*
X55269478Y-99951122D01*
X55301800Y-99945055D01*
X55383878Y-99929973D01*
X55462605Y-99915369D01*
X55530291Y-99902680D01*
X55579240Y-99893342D01*
X55588457Y-99891539D01*
X55664657Y-99876499D01*
X55664657Y-99559192D01*
X55664486Y-99454854D01*
X55663784Y-99375913D01*
X55662266Y-99318738D01*
X55659651Y-99279699D01*
X55655654Y-99255165D01*
X55649991Y-99241505D01*
X55642380Y-99235089D01*
X55639257Y-99233899D01*
X55620422Y-99229680D01*
X55578812Y-99221262D01*
X55519770Y-99209661D01*
X55448643Y-99195895D01*
X55370775Y-99180980D01*
X55291513Y-99165932D01*
X55216202Y-99151769D01*
X55150187Y-99139506D01*
X55098813Y-99130161D01*
X55067425Y-99124750D01*
X55060441Y-99123814D01*
X55054115Y-99111296D01*
X55040110Y-99077946D01*
X55021045Y-99030077D01*
X55013766Y-99011329D01*
X54984404Y-98938895D01*
X54949829Y-98858870D01*
X54918863Y-98791428D01*
X54896077Y-98739859D01*
X54880918Y-98697485D01*
X54875858Y-98671534D01*
X54876664Y-98668056D01*
X54887359Y-98651636D01*
X54911780Y-98615117D01*
X54947305Y-98562387D01*
X54991313Y-98497335D01*
X55041183Y-98423851D01*
X55051044Y-98409345D01*
X55108908Y-98323404D01*
X55151444Y-98257961D01*
X55180346Y-98210004D01*
X55197310Y-98176520D01*
X55204033Y-98154495D01*
X55202210Y-98140917D01*
X55202164Y-98140831D01*
X55187814Y-98122997D01*
X55156077Y-98088517D01*
X55110390Y-98040968D01*
X55054196Y-97983922D01*
X54990932Y-97920955D01*
X54983798Y-97913927D01*
X54904070Y-97836720D01*
X54842543Y-97780030D01*
X54797979Y-97742810D01*
X54769143Y-97724015D01*
X54756442Y-97721589D01*
X54737906Y-97732171D01*
X54699439Y-97756616D01*
X54645014Y-97792312D01*
X54578602Y-97836647D01*
X54504175Y-97887011D01*
X54486799Y-97898860D01*
X54240103Y-98067326D01*
X54128694Y-98016762D01*
X54060943Y-97987295D01*
X53988217Y-97957659D01*
X53925697Y-97934030D01*
X53922943Y-97933058D01*
X53874040Y-97915157D01*
X53836343Y-97900020D01*
X53817975Y-97890910D01*
X53817944Y-97890884D01*
X53812115Y-97874417D01*
X53802208Y-97833919D01*
X53789205Y-97773942D01*
X53774091Y-97699040D01*
X53757848Y-97613764D01*
X53756519Y-97606575D01*
X53740225Y-97518714D01*
X53725267Y-97438960D01*
X53712609Y-97372381D01*
X53703214Y-97324047D01*
X53698046Y-97299025D01*
X53697956Y-97298643D01*
X53694811Y-97287999D01*
X53688696Y-97279962D01*
X53675947Y-97274167D01*
X53652900Y-97270247D01*
X53615891Y-97267835D01*
X53561256Y-97266565D01*
X53485333Y-97266071D01*
X53384456Y-97265986D01*
X53371400Y-97265986D01*
X53267490Y-97266048D01*
D14*
X43488095Y-150302381D02*
X43488095Y-149302381D01*
X43250000Y-149302381D01*
X43107142Y-149350000D01*
X43011904Y-149445238D01*
X42964285Y-149540476D01*
X42916666Y-149730952D01*
X42916666Y-149873810D01*
X42964285Y-150064286D01*
X43011904Y-150159524D01*
X43107142Y-150254762D01*
X43250000Y-150302381D01*
X43488095Y-150302381D01*
X42011904Y-149302381D02*
X42488095Y-149302381D01*
X42535714Y-149778571D01*
X42488095Y-149730952D01*
X42392857Y-149683333D01*
X42154761Y-149683333D01*
X42059523Y-149730952D01*
X42011904Y-149778571D01*
X41964285Y-149873810D01*
X41964285Y-150111905D01*
X42011904Y-150207143D01*
X42059523Y-150254762D01*
X42154761Y-150302381D01*
X42392857Y-150302381D01*
X42488095Y-150254762D01*
X42535714Y-150207143D01*
X69088095Y-150202381D02*
X69088095Y-149202381D01*
X68850000Y-149202381D01*
X68707142Y-149250000D01*
X68611904Y-149345238D01*
X68564285Y-149440476D01*
X68516666Y-149630952D01*
X68516666Y-149773810D01*
X68564285Y-149964286D01*
X68611904Y-150059524D01*
X68707142Y-150154762D01*
X68850000Y-150202381D01*
X69088095Y-150202381D01*
X67659523Y-149202381D02*
X67850000Y-149202381D01*
X67945238Y-149250000D01*
X67992857Y-149297619D01*
X68088095Y-149440476D01*
X68135714Y-149630952D01*
X68135714Y-150011905D01*
X68088095Y-150107143D01*
X68040476Y-150154762D01*
X67945238Y-150202381D01*
X67754761Y-150202381D01*
X67659523Y-150154762D01*
X67611904Y-150107143D01*
X67564285Y-150011905D01*
X67564285Y-149773810D01*
X67611904Y-149678571D01*
X67659523Y-149630952D01*
X67754761Y-149583333D01*
X67945238Y-149583333D01*
X68040476Y-149630952D01*
X68088095Y-149678571D01*
X68135714Y-149773810D01*
X52942857Y-150002381D02*
X53276191Y-149526190D01*
X53514286Y-150002381D02*
X53514286Y-149002381D01*
X53133333Y-149002381D01*
X53038095Y-149050000D01*
X52990476Y-149097619D01*
X52942857Y-149192857D01*
X52942857Y-149335714D01*
X52990476Y-149430952D01*
X53038095Y-149478571D01*
X53133333Y-149526190D01*
X53514286Y-149526190D01*
X51990476Y-150002381D02*
X52561905Y-150002381D01*
X52276191Y-150002381D02*
X52276191Y-149002381D01*
X52371429Y-149145238D01*
X52466667Y-149240476D01*
X52561905Y-149288095D01*
X51085714Y-149002381D02*
X51561905Y-149002381D01*
X51609524Y-149478571D01*
X51561905Y-149430952D01*
X51466667Y-149383333D01*
X51228571Y-149383333D01*
X51133333Y-149430952D01*
X51085714Y-149478571D01*
X51038095Y-149573810D01*
X51038095Y-149811905D01*
X51085714Y-149907143D01*
X51133333Y-149954762D01*
X51228571Y-150002381D01*
X51466667Y-150002381D01*
X51561905Y-149954762D01*
X51609524Y-149907143D01*
X58592857Y-150002381D02*
X58926191Y-149526190D01*
X59164286Y-150002381D02*
X59164286Y-149002381D01*
X58783333Y-149002381D01*
X58688095Y-149050000D01*
X58640476Y-149097619D01*
X58592857Y-149192857D01*
X58592857Y-149335714D01*
X58640476Y-149430952D01*
X58688095Y-149478571D01*
X58783333Y-149526190D01*
X59164286Y-149526190D01*
X57640476Y-150002381D02*
X58211905Y-150002381D01*
X57926191Y-150002381D02*
X57926191Y-149002381D01*
X58021429Y-149145238D01*
X58116667Y-149240476D01*
X58211905Y-149288095D01*
X56783333Y-149002381D02*
X56973810Y-149002381D01*
X57069048Y-149050000D01*
X57116667Y-149097619D01*
X57211905Y-149240476D01*
X57259524Y-149430952D01*
X57259524Y-149811905D01*
X57211905Y-149907143D01*
X57164286Y-149954762D01*
X57069048Y-150002381D01*
X56878571Y-150002381D01*
X56783333Y-149954762D01*
X56735714Y-149907143D01*
X56688095Y-149811905D01*
X56688095Y-149573810D01*
X56735714Y-149478571D01*
X56783333Y-149430952D01*
X56878571Y-149383333D01*
X57069048Y-149383333D01*
X57164286Y-149430952D01*
X57211905Y-149478571D01*
X57259524Y-149573810D01*
X52992857Y-138852381D02*
X53326191Y-138376190D01*
X53564286Y-138852381D02*
X53564286Y-137852381D01*
X53183333Y-137852381D01*
X53088095Y-137900000D01*
X53040476Y-137947619D01*
X52992857Y-138042857D01*
X52992857Y-138185714D01*
X53040476Y-138280952D01*
X53088095Y-138328571D01*
X53183333Y-138376190D01*
X53564286Y-138376190D01*
X52040476Y-138852381D02*
X52611905Y-138852381D01*
X52326191Y-138852381D02*
X52326191Y-137852381D01*
X52421429Y-137995238D01*
X52516667Y-138090476D01*
X52611905Y-138138095D01*
X51707143Y-137852381D02*
X51040476Y-137852381D01*
X51469048Y-138852381D01*
X58692857Y-138902381D02*
X59026191Y-138426190D01*
X59264286Y-138902381D02*
X59264286Y-137902381D01*
X58883333Y-137902381D01*
X58788095Y-137950000D01*
X58740476Y-137997619D01*
X58692857Y-138092857D01*
X58692857Y-138235714D01*
X58740476Y-138330952D01*
X58788095Y-138378571D01*
X58883333Y-138426190D01*
X59264286Y-138426190D01*
X57740476Y-138902381D02*
X58311905Y-138902381D01*
X58026191Y-138902381D02*
X58026191Y-137902381D01*
X58121429Y-138045238D01*
X58216667Y-138140476D01*
X58311905Y-138188095D01*
X57169048Y-138330952D02*
X57264286Y-138283333D01*
X57311905Y-138235714D01*
X57359524Y-138140476D01*
X57359524Y-138092857D01*
X57311905Y-137997619D01*
X57264286Y-137950000D01*
X57169048Y-137902381D01*
X56978571Y-137902381D01*
X56883333Y-137950000D01*
X56835714Y-137997619D01*
X56788095Y-138092857D01*
X56788095Y-138140476D01*
X56835714Y-138235714D01*
X56883333Y-138283333D01*
X56978571Y-138330952D01*
X57169048Y-138330952D01*
X57264286Y-138378571D01*
X57311905Y-138426190D01*
X57359524Y-138521429D01*
X57359524Y-138711905D01*
X57311905Y-138807143D01*
X57264286Y-138854762D01*
X57169048Y-138902381D01*
X56978571Y-138902381D01*
X56883333Y-138854762D01*
X56835714Y-138807143D01*
X56788095Y-138711905D01*
X56788095Y-138521429D01*
X56835714Y-138426190D01*
X56883333Y-138378571D01*
X56978571Y-138330952D01*
X70172381Y-53566667D02*
X70886667Y-53566667D01*
X71029524Y-53519047D01*
X71124762Y-53423809D01*
X71172381Y-53280952D01*
X71172381Y-53185714D01*
X71172381Y-54090476D02*
X71172381Y-54280952D01*
X71124762Y-54376191D01*
X71077143Y-54423810D01*
X70934286Y-54519048D01*
X70743810Y-54566667D01*
X70362857Y-54566667D01*
X70267619Y-54519048D01*
X70220000Y-54471429D01*
X70172381Y-54376191D01*
X70172381Y-54185714D01*
X70220000Y-54090476D01*
X70267619Y-54042857D01*
X70362857Y-53995238D01*
X70600952Y-53995238D01*
X70696190Y-54042857D01*
X70743810Y-54090476D01*
X70791429Y-54185714D01*
X70791429Y-54376191D01*
X70743810Y-54471429D01*
X70696190Y-54519048D01*
X70600952Y-54566667D01*
X97432381Y-157090477D02*
X98146667Y-157090477D01*
X98289524Y-157042857D01*
X98384762Y-156947619D01*
X98432381Y-156804762D01*
X98432381Y-156709524D01*
X98432381Y-158090477D02*
X98432381Y-157519048D01*
X98432381Y-157804762D02*
X97432381Y-157804762D01*
X97575238Y-157709524D01*
X97670476Y-157614286D01*
X97718095Y-157519048D01*
X97432381Y-158709524D02*
X97432381Y-158804763D01*
X97480000Y-158900001D01*
X97527619Y-158947620D01*
X97622857Y-158995239D01*
X97813333Y-159042858D01*
X98051429Y-159042858D01*
X98241905Y-158995239D01*
X98337143Y-158947620D01*
X98384762Y-158900001D01*
X98432381Y-158804763D01*
X98432381Y-158709524D01*
X98384762Y-158614286D01*
X98337143Y-158566667D01*
X98241905Y-158519048D01*
X98051429Y-158471429D01*
X97813333Y-158471429D01*
X97622857Y-158519048D01*
X97527619Y-158566667D01*
X97480000Y-158614286D01*
X97432381Y-158709524D01*
X68432381Y-53090477D02*
X69146667Y-53090477D01*
X69289524Y-53042857D01*
X69384762Y-52947619D01*
X69432381Y-52804762D01*
X69432381Y-52709524D01*
X69432381Y-54090477D02*
X69432381Y-53519048D01*
X69432381Y-53804762D02*
X68432381Y-53804762D01*
X68575238Y-53709524D01*
X68670476Y-53614286D01*
X68718095Y-53519048D01*
X69432381Y-55042858D02*
X69432381Y-54471429D01*
X69432381Y-54757143D02*
X68432381Y-54757143D01*
X68575238Y-54661905D01*
X68670476Y-54566667D01*
X68718095Y-54471429D01*
X41172381Y-157090477D02*
X41886667Y-157090477D01*
X42029524Y-157042857D01*
X42124762Y-156947619D01*
X42172381Y-156804762D01*
X42172381Y-156709524D01*
X42172381Y-158090477D02*
X42172381Y-157519048D01*
X42172381Y-157804762D02*
X41172381Y-157804762D01*
X41315238Y-157709524D01*
X41410476Y-157614286D01*
X41458095Y-157519048D01*
X41267619Y-158471429D02*
X41220000Y-158519048D01*
X41172381Y-158614286D01*
X41172381Y-158852382D01*
X41220000Y-158947620D01*
X41267619Y-158995239D01*
X41362857Y-159042858D01*
X41458095Y-159042858D01*
X41600952Y-158995239D01*
X42172381Y-158423810D01*
X42172381Y-159042858D01*
M02*
