G04 #@! TF.FileFunction,Copper,L2,Bot,Signal*
%FSLAX46Y46*%
G04 Gerber Fmt 4.6, Leading zero omitted, Abs format (unit mm)*
G04 Created by KiCad (PCBNEW 4.0.7-e2-6376~58~ubuntu16.04.1) date Mon Jan 22 09:14:14 2018*
%MOMM*%
%LPD*%
G01*
G04 APERTURE LIST*
%ADD10C,0.100000*%
%ADD11C,1.524000*%
%ADD12R,1.600000X1.600000*%
%ADD13C,1.600000*%
%ADD14R,2.200000X2.200000*%
%ADD15O,2.200000X2.200000*%
%ADD16R,1.800000X1.800000*%
%ADD17C,1.800000*%
%ADD18R,0.900000X0.800000*%
%ADD19R,1.700000X1.700000*%
%ADD20O,1.700000X1.700000*%
%ADD21C,3.000000*%
%ADD22C,2.600000*%
%ADD23R,1.524000X1.524000*%
%ADD24R,1.300000X1.500000*%
%ADD25R,1.100000X1.800000*%
%ADD26C,0.600000*%
%ADD27C,0.508000*%
%ADD28C,0.250000*%
%ADD29C,0.254000*%
G04 APERTURE END LIST*
D10*
D11*
X78530000Y-89020000D03*
X78530000Y-91560000D03*
X78530000Y-94100000D03*
X78530000Y-96640000D03*
X78530000Y-99180000D03*
X78530000Y-101720000D03*
X78530000Y-104260000D03*
X78530000Y-106800000D03*
X78530000Y-109340000D03*
X78530000Y-111880000D03*
X78530000Y-114420000D03*
X78530000Y-116960000D03*
X78530000Y-119500000D03*
X78530000Y-122040000D03*
X78530000Y-124580000D03*
X93770000Y-124580000D03*
X93770000Y-122040000D03*
X93770000Y-119500000D03*
X93770000Y-116960000D03*
X93770000Y-114420000D03*
X93770000Y-111880000D03*
X93770000Y-109340000D03*
X93770000Y-106800000D03*
X93770000Y-104260000D03*
X93770000Y-101720000D03*
X93770000Y-99180000D03*
X93770000Y-96640000D03*
X93770000Y-94100000D03*
X93770000Y-91560000D03*
X93770000Y-89020000D03*
D12*
X75300000Y-71650000D03*
D13*
X77300000Y-71650000D03*
D12*
X91400000Y-71650000D03*
D13*
X93400000Y-71650000D03*
D11*
X81510000Y-69250000D03*
X86590000Y-69250000D03*
D14*
X71650000Y-58800000D03*
D15*
X71650000Y-68960000D03*
D14*
X97050000Y-69000000D03*
D15*
X97050000Y-58840000D03*
D16*
X46400000Y-152800000D03*
D17*
X48940000Y-152800000D03*
D16*
X61750000Y-152800000D03*
D17*
X64290000Y-152800000D03*
D18*
X42750000Y-151550000D03*
X42750000Y-153650000D03*
X68350000Y-151550000D03*
X68350000Y-153650000D03*
D11*
X49254000Y-68950000D03*
X49254000Y-66410000D03*
X49254000Y-63870000D03*
X49254000Y-61330000D03*
X49254000Y-71490000D03*
X49254000Y-74030000D03*
X49254000Y-76570000D03*
X53318000Y-61330000D03*
X55858000Y-61330000D03*
X58398000Y-61330000D03*
X60938000Y-61330000D03*
X53318000Y-71490000D03*
X55858000Y-71490000D03*
X62970000Y-68950000D03*
X62970000Y-66410000D03*
X62970000Y-63870000D03*
X62970000Y-61330000D03*
X62970000Y-71490000D03*
X62970000Y-74030000D03*
X62970000Y-76570000D03*
D19*
X72200000Y-106950000D03*
D20*
X72200000Y-109490000D03*
D19*
X72200000Y-92700000D03*
D21*
X47650000Y-108400000D03*
D22*
X42730000Y-108400000D03*
X51030000Y-108400000D03*
X54130000Y-108400000D03*
D11*
X84050000Y-60730000D03*
X86590000Y-60730000D03*
X89130000Y-60730000D03*
X81510000Y-60730000D03*
X78970000Y-60730000D03*
D23*
X78970000Y-63270000D03*
D11*
X81510000Y-63270000D03*
X84050000Y-63270000D03*
X86590000Y-63270000D03*
X89130000Y-63270000D03*
D21*
X47650000Y-144400000D03*
D22*
X42730000Y-144400000D03*
X51030000Y-144400000D03*
X54130000Y-144400000D03*
D21*
X63050000Y-144400000D03*
D22*
X67970000Y-144400000D03*
X59670000Y-144400000D03*
X56570000Y-144400000D03*
D21*
X47650000Y-132400000D03*
D22*
X42730000Y-132400000D03*
X51030000Y-132400000D03*
X54130000Y-132400000D03*
D21*
X63050000Y-132400000D03*
D22*
X67970000Y-132400000D03*
X59670000Y-132400000D03*
X56570000Y-132400000D03*
D24*
X52300000Y-151450000D03*
X52300000Y-154150000D03*
X57950000Y-151450000D03*
X57950000Y-154150000D03*
X49650000Y-137050000D03*
X49650000Y-139750000D03*
X60750000Y-137100000D03*
X60750000Y-139800000D03*
D17*
X55150000Y-122940000D03*
X55150000Y-117860000D03*
D25*
X47650000Y-125200000D03*
X47650000Y-115600000D03*
D17*
X55150000Y-120400000D03*
D11*
X64320000Y-124210000D03*
X66860000Y-124210000D03*
X61780000Y-124210000D03*
X59240000Y-124210000D03*
X64320000Y-116590000D03*
D19*
X73050000Y-53900000D03*
D20*
X75590000Y-53900000D03*
X78130000Y-53900000D03*
X80670000Y-53900000D03*
X83210000Y-53900000D03*
X85750000Y-53900000D03*
X88290000Y-53900000D03*
X90830000Y-53900000D03*
X93370000Y-53900000D03*
X95910000Y-53900000D03*
D19*
X95650000Y-157900000D03*
D20*
X93110000Y-157900000D03*
X90570000Y-157900000D03*
X88030000Y-157900000D03*
X85490000Y-157900000D03*
X82950000Y-157900000D03*
X80410000Y-157900000D03*
X77870000Y-157900000D03*
X75330000Y-157900000D03*
X72790000Y-157900000D03*
D19*
X66650000Y-53900000D03*
D20*
X64110000Y-53900000D03*
X61570000Y-53900000D03*
X59030000Y-53900000D03*
X56490000Y-53900000D03*
X53950000Y-53900000D03*
X51410000Y-53900000D03*
X48870000Y-53900000D03*
X46330000Y-53900000D03*
X43790000Y-53900000D03*
D19*
X44050000Y-157900000D03*
D20*
X46590000Y-157900000D03*
X49130000Y-157900000D03*
X51670000Y-157900000D03*
X54210000Y-157900000D03*
X56750000Y-157900000D03*
X59290000Y-157900000D03*
X61830000Y-157900000D03*
X64370000Y-157900000D03*
X66910000Y-157900000D03*
D26*
X44400000Y-103200000D03*
X58950000Y-83250000D03*
X97300000Y-110100000D03*
X85150000Y-143300000D03*
X46310200Y-140752600D03*
X43020900Y-140333500D03*
X43706700Y-135710700D03*
X51517200Y-128801900D03*
X42754200Y-126122200D03*
X42830400Y-112101400D03*
X43300000Y-90549500D03*
X50933000Y-97852000D03*
X48062800Y-92505300D03*
X47999300Y-90613000D03*
X45294200Y-90587600D03*
X90145520Y-133244360D03*
X93056360Y-133274840D03*
X93086840Y-136155200D03*
X74338079Y-137445999D03*
X82563620Y-137884940D03*
X82507740Y-136180600D03*
X76863860Y-134979180D03*
X73550000Y-114778560D03*
X73457720Y-116815640D03*
X74676920Y-116815640D03*
X74684540Y-114750620D03*
X51400000Y-79350000D03*
X62600000Y-84900000D03*
X64800000Y-84900000D03*
X90600000Y-142100000D03*
X80550000Y-73400000D03*
X82124654Y-139320711D03*
X77100000Y-142700000D03*
X78150000Y-148950000D03*
X76700000Y-150350000D03*
X80600000Y-134300000D03*
X77750000Y-141000000D03*
X63750000Y-96950000D03*
X64000000Y-92600000D03*
X60050000Y-90250000D03*
X60050000Y-95650000D03*
X63400000Y-95300000D03*
X88525000Y-79600000D03*
X90650000Y-84000000D03*
X91700000Y-122150000D03*
X91700000Y-148200000D03*
X89600000Y-150000000D03*
X72341949Y-140741949D03*
X71900000Y-153000000D03*
X72000000Y-154150000D03*
X73075001Y-60775001D03*
X70900000Y-73500000D03*
X74150000Y-61500000D03*
X73750000Y-68500000D03*
X75100000Y-81600000D03*
X76450000Y-81800000D03*
X75800000Y-80150000D03*
X79950000Y-77050000D03*
X84650000Y-76700000D03*
D27*
X44400000Y-103200000D02*
X44400000Y-88150000D01*
X44400000Y-88150000D02*
X49300000Y-83250000D01*
X49300000Y-83250000D02*
X58950000Y-83250000D01*
X97300000Y-92550000D02*
X97300000Y-110100000D01*
X93770000Y-89020000D02*
X97300000Y-92550000D01*
X85449999Y-143599999D02*
X85150000Y-143300000D01*
X95650000Y-153800000D02*
X85449999Y-143599999D01*
X95650000Y-157900000D02*
X95650000Y-153800000D01*
X77750000Y-85300000D02*
X90050000Y-85300000D01*
X90050000Y-85300000D02*
X93770000Y-89020000D01*
X77750000Y-75408000D02*
X77750000Y-85300000D01*
X75300000Y-71650000D02*
X75300000Y-72958000D01*
X75300000Y-72958000D02*
X77750000Y-75408000D01*
X45535500Y-128801900D02*
X45535500Y-133881900D01*
X43440000Y-140752600D02*
X46310200Y-140752600D01*
X43020900Y-140333500D02*
X43440000Y-140752600D01*
X45535500Y-133881900D02*
X43706700Y-135710700D01*
X44700000Y-105850000D02*
X44700000Y-110224500D01*
X45433900Y-128801900D02*
X45535500Y-128801900D01*
X45535500Y-128801900D02*
X51517200Y-128801900D01*
X42754200Y-126122200D02*
X45433900Y-128801900D01*
X42830400Y-112094100D02*
X42830400Y-112101400D01*
X44700000Y-110224500D02*
X42830400Y-112094100D01*
X48113600Y-95032600D02*
X50933000Y-97852000D01*
X48113600Y-92556100D02*
X48113600Y-95032600D01*
X48062800Y-92505300D02*
X48113600Y-92556100D01*
X45319600Y-90613000D02*
X47999300Y-90613000D01*
X45294200Y-90587600D02*
X45319600Y-90613000D01*
X93056360Y-136124720D02*
X93056360Y-133274840D01*
X93086840Y-136155200D02*
X93056360Y-136124720D01*
X82563620Y-137884940D02*
X82563620Y-136236480D01*
X82507740Y-136180600D02*
X82563620Y-136236480D01*
X76804898Y-134979180D02*
X76863860Y-134979180D01*
X76804898Y-134979180D02*
X74338079Y-137445999D01*
X73457720Y-116815640D02*
X74676920Y-116815640D01*
X73577940Y-114750620D02*
X74684540Y-114750620D01*
X73577940Y-114750620D02*
X73550000Y-114778560D01*
X51030000Y-108400000D02*
X51030000Y-106530000D01*
X43300000Y-104450000D02*
X43300000Y-90549500D01*
X44700000Y-105850000D02*
X43300000Y-104450000D01*
X50350000Y-105850000D02*
X44700000Y-105850000D01*
X51030000Y-106530000D02*
X50350000Y-105850000D01*
X43300000Y-90549500D02*
X43300000Y-87450000D01*
X43300000Y-87450000D02*
X51400000Y-79350000D01*
X78530000Y-96640000D02*
X83610000Y-91560000D01*
X83610000Y-91560000D02*
X93770000Y-91560000D01*
X51030000Y-108400000D02*
X54130000Y-108400000D01*
D28*
X58398000Y-61330000D02*
X58398000Y-61198000D01*
D27*
X64800000Y-84900000D02*
X62600000Y-84900000D01*
X79000000Y-142100000D02*
X90600000Y-142100000D01*
X72790000Y-148310000D02*
X79000000Y-142100000D01*
X72790000Y-157900000D02*
X72790000Y-148310000D01*
X80550000Y-71287630D02*
X80550000Y-73400000D01*
X81510000Y-69250000D02*
X81510000Y-70327630D01*
X81510000Y-70327630D02*
X80550000Y-71287630D01*
D28*
X81700390Y-139320711D02*
X82124654Y-139320711D01*
X80479289Y-139320711D02*
X81700390Y-139320711D01*
X77100000Y-142700000D02*
X80479289Y-139320711D01*
X77049999Y-150050001D02*
X78150000Y-148950000D01*
X76700000Y-150350000D02*
X76999999Y-150050001D01*
X76999999Y-150050001D02*
X77049999Y-150050001D01*
X77750000Y-137150000D02*
X80600000Y-134300000D01*
X77750000Y-141000000D02*
X77750000Y-137150000D01*
X64049999Y-96650001D02*
X63750000Y-96950000D01*
X64299999Y-96400001D02*
X64049999Y-96650001D01*
X64299999Y-92899999D02*
X64299999Y-96400001D01*
X64000000Y-92600000D02*
X64299999Y-92899999D01*
X55200000Y-117860000D02*
X63750000Y-109310000D01*
X63750000Y-109310000D02*
X63750000Y-96950000D01*
X60050000Y-95225736D02*
X60050000Y-90250000D01*
X60050000Y-95650000D02*
X60050000Y-95225736D01*
X72200000Y-109490000D02*
X78380000Y-109490000D01*
X78380000Y-109490000D02*
X78530000Y-109340000D01*
D27*
X77870000Y-157900000D02*
X79520000Y-159550000D01*
X79520000Y-159550000D02*
X96517202Y-159550000D01*
X96517202Y-159550000D02*
X97350000Y-158717202D01*
X97350000Y-158717202D02*
X97350000Y-125620000D01*
X97350000Y-125620000D02*
X94531999Y-122801999D01*
X94531999Y-122801999D02*
X93770000Y-122040000D01*
X49254000Y-63870000D02*
X47400000Y-65724000D01*
X48600000Y-78350000D02*
X60112370Y-78350000D01*
X47400000Y-65724000D02*
X47400000Y-77150000D01*
X47400000Y-77150000D02*
X48600000Y-78350000D01*
X60112370Y-78350000D02*
X61892370Y-76570000D01*
X61892370Y-76570000D02*
X62970000Y-76570000D01*
X61250000Y-93150000D02*
X61250000Y-78290000D01*
X61250000Y-78290000D02*
X62970000Y-76570000D01*
X63400000Y-95300000D02*
X61250000Y-93150000D01*
X62970000Y-76570000D02*
X64186001Y-75353999D01*
X64186001Y-75353999D02*
X64186001Y-63286319D01*
X64186001Y-63286319D02*
X63445683Y-62546001D01*
X63445683Y-62546001D02*
X62154001Y-62546001D01*
X62154001Y-62546001D02*
X61699999Y-62091999D01*
X61699999Y-62091999D02*
X60938000Y-61330000D01*
X78970000Y-63270000D02*
X77340000Y-63270000D01*
X77340000Y-63270000D02*
X71650000Y-68960000D01*
X89130000Y-63270000D02*
X92928000Y-63270000D01*
X92928000Y-63270000D02*
X97050000Y-67392000D01*
X97050000Y-67392000D02*
X97050000Y-69000000D01*
D28*
X48940000Y-152800000D02*
X50290000Y-151450000D01*
X50290000Y-151450000D02*
X52300000Y-151450000D01*
X57950000Y-151450000D02*
X62940000Y-151450000D01*
X62940000Y-151450000D02*
X64290000Y-152800000D01*
X42750000Y-151550000D02*
X42750000Y-144420000D01*
X42750000Y-144420000D02*
X42730000Y-144400000D01*
X68350000Y-151550000D02*
X68350000Y-144780000D01*
X68350000Y-144780000D02*
X67970000Y-144400000D01*
X42730000Y-132400000D02*
X42730000Y-136320300D01*
X42730000Y-136320300D02*
X43459700Y-137050000D01*
X43459700Y-137050000D02*
X48750000Y-137050000D01*
X48750000Y-137050000D02*
X49650000Y-137050000D01*
X60750000Y-137100000D02*
X63270000Y-137100000D01*
X63270000Y-137100000D02*
X67970000Y-132400000D01*
X88500000Y-82274264D02*
X88500000Y-79625000D01*
X88500000Y-79625000D02*
X88525000Y-79600000D01*
X90650000Y-84000000D02*
X90225736Y-84000000D01*
X90225736Y-84000000D02*
X88500000Y-82274264D01*
X91700000Y-147775736D02*
X91700000Y-122150000D01*
X91700000Y-148200000D02*
X91700000Y-147775736D01*
X88030000Y-151570000D02*
X89600000Y-150000000D01*
X88030000Y-157900000D02*
X88030000Y-151570000D01*
X72350000Y-140733898D02*
X72341949Y-140741949D01*
X88290000Y-53900000D02*
X89465001Y-52724999D01*
X89465001Y-52724999D02*
X96474001Y-52724999D01*
X96474001Y-52724999D02*
X98475001Y-54725999D01*
X92550000Y-118250000D02*
X72350000Y-138450000D01*
X98475001Y-54725999D02*
X98475001Y-114924999D01*
X98475001Y-114924999D02*
X95150000Y-118250000D01*
X95150000Y-118250000D02*
X92550000Y-118250000D01*
X72350000Y-138450000D02*
X72350000Y-140733898D01*
X78530000Y-99180000D02*
X80950000Y-101600000D01*
X80950000Y-101600000D02*
X80950000Y-128850000D01*
X80950000Y-128850000D02*
X71600001Y-138199999D01*
X71600001Y-138199999D02*
X71600001Y-152700001D01*
X71600001Y-152700001D02*
X71900000Y-153000000D01*
X78530000Y-101720000D02*
X80250000Y-103440000D01*
X80250000Y-103440000D02*
X80250000Y-128650000D01*
X80250000Y-128650000D02*
X70649991Y-138250009D01*
X70649991Y-138250009D02*
X70649991Y-152799991D01*
X70649991Y-152799991D02*
X71700001Y-153850001D01*
X71700001Y-153850001D02*
X72000000Y-154150000D01*
X70900000Y-73500000D02*
X70900000Y-110550000D01*
X70900000Y-110550000D02*
X72230000Y-111880000D01*
X72230000Y-111880000D02*
X77452370Y-111880000D01*
X77452370Y-111880000D02*
X78530000Y-111880000D01*
X73375000Y-60475000D02*
X75590000Y-58260000D01*
X75590000Y-58260000D02*
X75590000Y-57645002D01*
X73075001Y-60775001D02*
X73375000Y-60475000D01*
X75590000Y-53900000D02*
X75590000Y-57645002D01*
X74150000Y-61500000D02*
X78130000Y-57520000D01*
X78130000Y-57520000D02*
X78130000Y-53900000D01*
X73149980Y-69100020D02*
X73750000Y-68500000D01*
X73149980Y-79649980D02*
X73149980Y-69100020D01*
X75100000Y-81600000D02*
X73149980Y-79649980D01*
X76450000Y-81800000D02*
X73699989Y-79049989D01*
X73699989Y-79049989D02*
X73699989Y-69850011D01*
X73699989Y-69850011D02*
X78150011Y-65399989D01*
X78150011Y-65399989D02*
X79400011Y-65399989D01*
X79400011Y-65399989D02*
X80300000Y-64500000D01*
X80300000Y-64500000D02*
X80300000Y-55472081D01*
X80300000Y-55472081D02*
X80670000Y-55102081D01*
X80670000Y-55102081D02*
X80670000Y-53900000D01*
X75800000Y-80150000D02*
X74150000Y-78500000D01*
X74150000Y-78500000D02*
X74150000Y-70650000D01*
X74150000Y-70650000D02*
X78550000Y-66250000D01*
X78550000Y-66250000D02*
X80950000Y-66250000D01*
X80950000Y-66250000D02*
X82800000Y-64400000D01*
X82800000Y-64400000D02*
X82800000Y-55512081D01*
X82800000Y-55512081D02*
X83210000Y-55102081D01*
X83210000Y-55102081D02*
X83210000Y-53900000D01*
X56750000Y-157900000D02*
X56750000Y-156900000D01*
X56750000Y-156900000D02*
X54000000Y-154150000D01*
X54000000Y-154150000D02*
X52300000Y-154150000D01*
X56750000Y-157900000D02*
X56750000Y-159102081D01*
X56750000Y-159102081D02*
X56202081Y-159650000D01*
X56202081Y-159650000D02*
X43000000Y-159650000D01*
X43000000Y-159650000D02*
X42250000Y-158900000D01*
X42250000Y-158900000D02*
X42250000Y-154800000D01*
X42250000Y-154800000D02*
X42750000Y-154300000D01*
X42750000Y-154300000D02*
X42750000Y-153650000D01*
X59290000Y-157900000D02*
X57950000Y-156560000D01*
X57950000Y-156560000D02*
X57950000Y-154150000D01*
X61690000Y-155500000D02*
X65800000Y-155500000D01*
X65800000Y-155500000D02*
X67650000Y-153650000D01*
X67650000Y-153650000D02*
X68350000Y-153650000D01*
X59290000Y-157900000D02*
X61690000Y-155500000D01*
X66860000Y-124210000D02*
X66860000Y-124190000D01*
X67650000Y-57440000D02*
X64110000Y-53900000D01*
X66860000Y-124190000D02*
X67650000Y-123400000D01*
X67650000Y-123400000D02*
X67650000Y-57440000D01*
X64320000Y-124210000D02*
X67050000Y-121480000D01*
X67050000Y-121480000D02*
X67050000Y-59380000D01*
X67050000Y-59380000D02*
X61570000Y-53900000D01*
X66450000Y-119540000D02*
X66450000Y-61320000D01*
X66450000Y-61320000D02*
X59030000Y-53900000D01*
X61780000Y-124210000D02*
X66450000Y-119540000D01*
X59240000Y-124210000D02*
X65850000Y-117600000D01*
X65850000Y-117600000D02*
X65850000Y-62550000D01*
X65850000Y-62550000D02*
X57200000Y-53900000D01*
X57200000Y-53900000D02*
X56490000Y-53900000D01*
X44507851Y-144010284D02*
X47205600Y-141203400D01*
X47205600Y-141203400D02*
X49650000Y-139750000D01*
X46590000Y-157900000D02*
X44502251Y-155626886D01*
X44502251Y-155626886D02*
X44507851Y-144010284D01*
X60750000Y-139800000D02*
X59850000Y-139800000D01*
X59850000Y-139800000D02*
X57075001Y-142574999D01*
X57075001Y-142574999D02*
X46773999Y-142574999D01*
X46773999Y-142574999D02*
X45024999Y-144323999D01*
X45024999Y-144323999D02*
X45024999Y-154024999D01*
X45024999Y-154024999D02*
X48900000Y-157900000D01*
X48900000Y-157900000D02*
X49130000Y-157900000D01*
X90830000Y-53900000D02*
X85350000Y-59380000D01*
X85350000Y-59380000D02*
X85350000Y-71650000D01*
X85350000Y-71650000D02*
X79950000Y-77050000D01*
X84650000Y-76700000D02*
X87850000Y-73500000D01*
X87850000Y-73500000D02*
X87850000Y-59420000D01*
X87850000Y-59420000D02*
X92520001Y-54749999D01*
X92520001Y-54749999D02*
X93370000Y-53900000D01*
X55858000Y-61330000D02*
X54128000Y-59600000D01*
X54128000Y-59600000D02*
X52030000Y-59600000D01*
X52030000Y-59600000D02*
X47179999Y-54749999D01*
X47179999Y-54749999D02*
X46330000Y-53900000D01*
X55858000Y-61330000D02*
X58398000Y-63870000D01*
X58398000Y-63870000D02*
X62970000Y-63870000D01*
X49254000Y-71490000D02*
X55858000Y-64886000D01*
X55858000Y-64886000D02*
X55858000Y-61330000D01*
D29*
G36*
X51046838Y-152435317D02*
X51185910Y-152651441D01*
X51398110Y-152796431D01*
X51411197Y-152799081D01*
X51198559Y-152935910D01*
X51053569Y-153148110D01*
X51002560Y-153400000D01*
X51002560Y-154900000D01*
X51046838Y-155135317D01*
X51185910Y-155351441D01*
X51398110Y-155496431D01*
X51650000Y-155547440D01*
X52950000Y-155547440D01*
X53185317Y-155503162D01*
X53401441Y-155364090D01*
X53546431Y-155151890D01*
X53595415Y-154910000D01*
X53685198Y-154910000D01*
X55658332Y-156883134D01*
X55472298Y-157161553D01*
X55405183Y-157018642D01*
X54976924Y-156628355D01*
X54566890Y-156458524D01*
X54337000Y-156579845D01*
X54337000Y-157773000D01*
X54357000Y-157773000D01*
X54357000Y-158027000D01*
X54337000Y-158027000D01*
X54337000Y-158047000D01*
X54083000Y-158047000D01*
X54083000Y-158027000D01*
X54063000Y-158027000D01*
X54063000Y-157773000D01*
X54083000Y-157773000D01*
X54083000Y-156579845D01*
X53853110Y-156458524D01*
X53443076Y-156628355D01*
X53014817Y-157018642D01*
X52947702Y-157161553D01*
X52720054Y-156820853D01*
X52238285Y-156498946D01*
X51670000Y-156385907D01*
X51101715Y-156498946D01*
X50619946Y-156820853D01*
X50400000Y-157150026D01*
X50180054Y-156820853D01*
X49698285Y-156498946D01*
X49130000Y-156385907D01*
X48571752Y-156496950D01*
X46409802Y-154335000D01*
X46527002Y-154335000D01*
X46527002Y-154176252D01*
X46685750Y-154335000D01*
X47426309Y-154335000D01*
X47659698Y-154238327D01*
X47838327Y-154059699D01*
X47894119Y-153925006D01*
X48069357Y-154100551D01*
X48633330Y-154334733D01*
X49243991Y-154335265D01*
X49808371Y-154102068D01*
X50240551Y-153670643D01*
X50474733Y-153106670D01*
X50475265Y-152496009D01*
X50429515Y-152385287D01*
X50604802Y-152210000D01*
X51004442Y-152210000D01*
X51046838Y-152435317D01*
X51046838Y-152435317D01*
G37*
X51046838Y-152435317D02*
X51185910Y-152651441D01*
X51398110Y-152796431D01*
X51411197Y-152799081D01*
X51198559Y-152935910D01*
X51053569Y-153148110D01*
X51002560Y-153400000D01*
X51002560Y-154900000D01*
X51046838Y-155135317D01*
X51185910Y-155351441D01*
X51398110Y-155496431D01*
X51650000Y-155547440D01*
X52950000Y-155547440D01*
X53185317Y-155503162D01*
X53401441Y-155364090D01*
X53546431Y-155151890D01*
X53595415Y-154910000D01*
X53685198Y-154910000D01*
X55658332Y-156883134D01*
X55472298Y-157161553D01*
X55405183Y-157018642D01*
X54976924Y-156628355D01*
X54566890Y-156458524D01*
X54337000Y-156579845D01*
X54337000Y-157773000D01*
X54357000Y-157773000D01*
X54357000Y-158027000D01*
X54337000Y-158027000D01*
X54337000Y-158047000D01*
X54083000Y-158047000D01*
X54083000Y-158027000D01*
X54063000Y-158027000D01*
X54063000Y-157773000D01*
X54083000Y-157773000D01*
X54083000Y-156579845D01*
X53853110Y-156458524D01*
X53443076Y-156628355D01*
X53014817Y-157018642D01*
X52947702Y-157161553D01*
X52720054Y-156820853D01*
X52238285Y-156498946D01*
X51670000Y-156385907D01*
X51101715Y-156498946D01*
X50619946Y-156820853D01*
X50400000Y-157150026D01*
X50180054Y-156820853D01*
X49698285Y-156498946D01*
X49130000Y-156385907D01*
X48571752Y-156496950D01*
X46409802Y-154335000D01*
X46527002Y-154335000D01*
X46527002Y-154176252D01*
X46685750Y-154335000D01*
X47426309Y-154335000D01*
X47659698Y-154238327D01*
X47838327Y-154059699D01*
X47894119Y-153925006D01*
X48069357Y-154100551D01*
X48633330Y-154334733D01*
X49243991Y-154335265D01*
X49808371Y-154102068D01*
X50240551Y-153670643D01*
X50474733Y-153106670D01*
X50475265Y-152496009D01*
X50429515Y-152385287D01*
X50604802Y-152210000D01*
X51004442Y-152210000D01*
X51046838Y-152435317D01*
G36*
X69068600Y-142761624D02*
X69067521Y-142760543D01*
X68356584Y-142465337D01*
X67586793Y-142464665D01*
X66875342Y-142758630D01*
X66330543Y-143302479D01*
X66035337Y-144013416D01*
X66034665Y-144783207D01*
X66328630Y-145494658D01*
X66872479Y-146039457D01*
X67583416Y-146334663D01*
X67590000Y-146334669D01*
X67590000Y-150594895D01*
X67448559Y-150685910D01*
X67303569Y-150898110D01*
X67252560Y-151150000D01*
X67252560Y-151950000D01*
X67296838Y-152185317D01*
X67435910Y-152401441D01*
X67648110Y-152546431D01*
X67900000Y-152597440D01*
X68800000Y-152597440D01*
X69035317Y-152553162D01*
X69068600Y-152531745D01*
X69068600Y-152664986D01*
X69051890Y-152653569D01*
X68800000Y-152602560D01*
X67900000Y-152602560D01*
X67664683Y-152646838D01*
X67448559Y-152785910D01*
X67320055Y-152973982D01*
X67112599Y-153112599D01*
X65485198Y-154740000D01*
X61690000Y-154740000D01*
X61399161Y-154797852D01*
X61152599Y-154962599D01*
X59656408Y-156458790D01*
X59290000Y-156385907D01*
X58923592Y-156458790D01*
X58710000Y-156245198D01*
X58710000Y-155526742D01*
X58835317Y-155503162D01*
X59051441Y-155364090D01*
X59196431Y-155151890D01*
X59247440Y-154900000D01*
X59247440Y-153400000D01*
X59203162Y-153164683D01*
X59152371Y-153085750D01*
X60215000Y-153085750D01*
X60215000Y-153826310D01*
X60311673Y-154059699D01*
X60490302Y-154238327D01*
X60723691Y-154335000D01*
X61464250Y-154335000D01*
X61623000Y-154176250D01*
X61623000Y-152927000D01*
X60373750Y-152927000D01*
X60215000Y-153085750D01*
X59152371Y-153085750D01*
X59064090Y-152948559D01*
X58851890Y-152803569D01*
X58838803Y-152800919D01*
X59051441Y-152664090D01*
X59196431Y-152451890D01*
X59245415Y-152210000D01*
X60215000Y-152210000D01*
X60215000Y-152514250D01*
X60373750Y-152673000D01*
X61623000Y-152673000D01*
X61623000Y-152653000D01*
X61877000Y-152653000D01*
X61877000Y-152673000D01*
X61897000Y-152673000D01*
X61897000Y-152927000D01*
X61877000Y-152927000D01*
X61877000Y-154176250D01*
X62035750Y-154335000D01*
X62776309Y-154335000D01*
X63009698Y-154238327D01*
X63188327Y-154059699D01*
X63244119Y-153925006D01*
X63419357Y-154100551D01*
X63983330Y-154334733D01*
X64593991Y-154335265D01*
X65158371Y-154102068D01*
X65590551Y-153670643D01*
X65824733Y-153106670D01*
X65825265Y-152496009D01*
X65592068Y-151931629D01*
X65160643Y-151499449D01*
X64596670Y-151265267D01*
X63986009Y-151264735D01*
X63875287Y-151310485D01*
X63477401Y-150912599D01*
X63230839Y-150747852D01*
X62940000Y-150690000D01*
X59245558Y-150690000D01*
X59203162Y-150464683D01*
X59064090Y-150248559D01*
X58851890Y-150103569D01*
X58600000Y-150052560D01*
X57300000Y-150052560D01*
X57064683Y-150096838D01*
X56848559Y-150235910D01*
X56703569Y-150448110D01*
X56652560Y-150700000D01*
X56652560Y-152200000D01*
X56696838Y-152435317D01*
X56835910Y-152651441D01*
X57048110Y-152796431D01*
X57061197Y-152799081D01*
X56848559Y-152935910D01*
X56703569Y-153148110D01*
X56652560Y-153400000D01*
X56652560Y-154900000D01*
X56696838Y-155135317D01*
X56835910Y-155351441D01*
X57048110Y-155496431D01*
X57190000Y-155525164D01*
X57190000Y-156265198D01*
X54537401Y-153612599D01*
X54290839Y-153447852D01*
X54000000Y-153390000D01*
X53595558Y-153390000D01*
X53553162Y-153164683D01*
X53414090Y-152948559D01*
X53201890Y-152803569D01*
X53188803Y-152800919D01*
X53401441Y-152664090D01*
X53546431Y-152451890D01*
X53597440Y-152200000D01*
X53597440Y-150700000D01*
X53553162Y-150464683D01*
X53414090Y-150248559D01*
X53201890Y-150103569D01*
X52950000Y-150052560D01*
X51650000Y-150052560D01*
X51414683Y-150096838D01*
X51198559Y-150235910D01*
X51053569Y-150448110D01*
X51004585Y-150690000D01*
X50290000Y-150690000D01*
X49999160Y-150747852D01*
X49752599Y-150912599D01*
X49354964Y-151310234D01*
X49246670Y-151265267D01*
X48636009Y-151264735D01*
X48071629Y-151497932D01*
X47894159Y-151675092D01*
X47838327Y-151540301D01*
X47659698Y-151361673D01*
X47426309Y-151265000D01*
X46685750Y-151265000D01*
X46527000Y-151423750D01*
X46527000Y-152673000D01*
X46547000Y-152673000D01*
X46547000Y-152927000D01*
X46527000Y-152927000D01*
X46527000Y-152947000D01*
X46273000Y-152947000D01*
X46273000Y-152927000D01*
X46253000Y-152927000D01*
X46253000Y-152673000D01*
X46273000Y-152673000D01*
X46273000Y-151423750D01*
X46114250Y-151265000D01*
X45784999Y-151265000D01*
X45784999Y-145477156D01*
X45838980Y-145607800D01*
X46439041Y-146208909D01*
X47223459Y-146534628D01*
X48072815Y-146535370D01*
X48857800Y-146211020D01*
X49458909Y-145610959D01*
X49472369Y-145578543D01*
X49932479Y-146039457D01*
X50643416Y-146334663D01*
X51413207Y-146335335D01*
X52124658Y-146041370D01*
X52634372Y-145532545D01*
X52760541Y-145589854D01*
X53950395Y-144400000D01*
X53936253Y-144385858D01*
X54115858Y-144206253D01*
X54130000Y-144220395D01*
X54144143Y-144206253D01*
X54323748Y-144385858D01*
X54309605Y-144400000D01*
X54323748Y-144414143D01*
X54144143Y-144593748D01*
X54130000Y-144579605D01*
X52940146Y-145769459D01*
X53075504Y-146067455D01*
X53793880Y-146344066D01*
X54563427Y-146324710D01*
X55184496Y-146067455D01*
X55269673Y-145879935D01*
X55350000Y-145799608D01*
X55430327Y-145879935D01*
X55515504Y-146067455D01*
X56233880Y-146344066D01*
X57003427Y-146324710D01*
X57624496Y-146067455D01*
X57759854Y-145769459D01*
X56570000Y-144579605D01*
X56555858Y-144593748D01*
X56376253Y-144414143D01*
X56390395Y-144400000D01*
X56749605Y-144400000D01*
X57939459Y-145589854D01*
X58066194Y-145532288D01*
X58572479Y-146039457D01*
X59283416Y-146334663D01*
X60053207Y-146335335D01*
X60764658Y-146041370D01*
X61227301Y-145579534D01*
X61238980Y-145607800D01*
X61839041Y-146208909D01*
X62623459Y-146534628D01*
X63472815Y-146535370D01*
X64257800Y-146211020D01*
X64858909Y-145610959D01*
X65184628Y-144826541D01*
X65185370Y-143977185D01*
X64861020Y-143192200D01*
X64260959Y-142591091D01*
X63476541Y-142265372D01*
X62627185Y-142264630D01*
X61842200Y-142588980D01*
X61241091Y-143189041D01*
X61227631Y-143221457D01*
X60767521Y-142760543D01*
X60056584Y-142465337D01*
X59286793Y-142464665D01*
X58575342Y-142758630D01*
X58065628Y-143267455D01*
X57939459Y-143210146D01*
X56749605Y-144400000D01*
X56390395Y-144400000D01*
X56376253Y-144385858D01*
X56555858Y-144206253D01*
X56570000Y-144220395D01*
X57759854Y-143030541D01*
X57739366Y-142985436D01*
X59687863Y-141036939D01*
X59848110Y-141146431D01*
X60100000Y-141197440D01*
X61400000Y-141197440D01*
X61635317Y-141153162D01*
X61851441Y-141014090D01*
X61996431Y-140801890D01*
X62047440Y-140550000D01*
X62047440Y-139050000D01*
X62003162Y-138814683D01*
X61864090Y-138598559D01*
X61651890Y-138453569D01*
X61638803Y-138450919D01*
X61851441Y-138314090D01*
X61996431Y-138101890D01*
X62045415Y-137860000D01*
X63270000Y-137860000D01*
X63560839Y-137802148D01*
X63807401Y-137637401D01*
X67249000Y-134195802D01*
X67583416Y-134334663D01*
X68353207Y-134335335D01*
X69064658Y-134041370D01*
X69068600Y-134037435D01*
X69068600Y-142761624D01*
X69068600Y-142761624D01*
G37*
X69068600Y-142761624D02*
X69067521Y-142760543D01*
X68356584Y-142465337D01*
X67586793Y-142464665D01*
X66875342Y-142758630D01*
X66330543Y-143302479D01*
X66035337Y-144013416D01*
X66034665Y-144783207D01*
X66328630Y-145494658D01*
X66872479Y-146039457D01*
X67583416Y-146334663D01*
X67590000Y-146334669D01*
X67590000Y-150594895D01*
X67448559Y-150685910D01*
X67303569Y-150898110D01*
X67252560Y-151150000D01*
X67252560Y-151950000D01*
X67296838Y-152185317D01*
X67435910Y-152401441D01*
X67648110Y-152546431D01*
X67900000Y-152597440D01*
X68800000Y-152597440D01*
X69035317Y-152553162D01*
X69068600Y-152531745D01*
X69068600Y-152664986D01*
X69051890Y-152653569D01*
X68800000Y-152602560D01*
X67900000Y-152602560D01*
X67664683Y-152646838D01*
X67448559Y-152785910D01*
X67320055Y-152973982D01*
X67112599Y-153112599D01*
X65485198Y-154740000D01*
X61690000Y-154740000D01*
X61399161Y-154797852D01*
X61152599Y-154962599D01*
X59656408Y-156458790D01*
X59290000Y-156385907D01*
X58923592Y-156458790D01*
X58710000Y-156245198D01*
X58710000Y-155526742D01*
X58835317Y-155503162D01*
X59051441Y-155364090D01*
X59196431Y-155151890D01*
X59247440Y-154900000D01*
X59247440Y-153400000D01*
X59203162Y-153164683D01*
X59152371Y-153085750D01*
X60215000Y-153085750D01*
X60215000Y-153826310D01*
X60311673Y-154059699D01*
X60490302Y-154238327D01*
X60723691Y-154335000D01*
X61464250Y-154335000D01*
X61623000Y-154176250D01*
X61623000Y-152927000D01*
X60373750Y-152927000D01*
X60215000Y-153085750D01*
X59152371Y-153085750D01*
X59064090Y-152948559D01*
X58851890Y-152803569D01*
X58838803Y-152800919D01*
X59051441Y-152664090D01*
X59196431Y-152451890D01*
X59245415Y-152210000D01*
X60215000Y-152210000D01*
X60215000Y-152514250D01*
X60373750Y-152673000D01*
X61623000Y-152673000D01*
X61623000Y-152653000D01*
X61877000Y-152653000D01*
X61877000Y-152673000D01*
X61897000Y-152673000D01*
X61897000Y-152927000D01*
X61877000Y-152927000D01*
X61877000Y-154176250D01*
X62035750Y-154335000D01*
X62776309Y-154335000D01*
X63009698Y-154238327D01*
X63188327Y-154059699D01*
X63244119Y-153925006D01*
X63419357Y-154100551D01*
X63983330Y-154334733D01*
X64593991Y-154335265D01*
X65158371Y-154102068D01*
X65590551Y-153670643D01*
X65824733Y-153106670D01*
X65825265Y-152496009D01*
X65592068Y-151931629D01*
X65160643Y-151499449D01*
X64596670Y-151265267D01*
X63986009Y-151264735D01*
X63875287Y-151310485D01*
X63477401Y-150912599D01*
X63230839Y-150747852D01*
X62940000Y-150690000D01*
X59245558Y-150690000D01*
X59203162Y-150464683D01*
X59064090Y-150248559D01*
X58851890Y-150103569D01*
X58600000Y-150052560D01*
X57300000Y-150052560D01*
X57064683Y-150096838D01*
X56848559Y-150235910D01*
X56703569Y-150448110D01*
X56652560Y-150700000D01*
X56652560Y-152200000D01*
X56696838Y-152435317D01*
X56835910Y-152651441D01*
X57048110Y-152796431D01*
X57061197Y-152799081D01*
X56848559Y-152935910D01*
X56703569Y-153148110D01*
X56652560Y-153400000D01*
X56652560Y-154900000D01*
X56696838Y-155135317D01*
X56835910Y-155351441D01*
X57048110Y-155496431D01*
X57190000Y-155525164D01*
X57190000Y-156265198D01*
X54537401Y-153612599D01*
X54290839Y-153447852D01*
X54000000Y-153390000D01*
X53595558Y-153390000D01*
X53553162Y-153164683D01*
X53414090Y-152948559D01*
X53201890Y-152803569D01*
X53188803Y-152800919D01*
X53401441Y-152664090D01*
X53546431Y-152451890D01*
X53597440Y-152200000D01*
X53597440Y-150700000D01*
X53553162Y-150464683D01*
X53414090Y-150248559D01*
X53201890Y-150103569D01*
X52950000Y-150052560D01*
X51650000Y-150052560D01*
X51414683Y-150096838D01*
X51198559Y-150235910D01*
X51053569Y-150448110D01*
X51004585Y-150690000D01*
X50290000Y-150690000D01*
X49999160Y-150747852D01*
X49752599Y-150912599D01*
X49354964Y-151310234D01*
X49246670Y-151265267D01*
X48636009Y-151264735D01*
X48071629Y-151497932D01*
X47894159Y-151675092D01*
X47838327Y-151540301D01*
X47659698Y-151361673D01*
X47426309Y-151265000D01*
X46685750Y-151265000D01*
X46527000Y-151423750D01*
X46527000Y-152673000D01*
X46547000Y-152673000D01*
X46547000Y-152927000D01*
X46527000Y-152927000D01*
X46527000Y-152947000D01*
X46273000Y-152947000D01*
X46273000Y-152927000D01*
X46253000Y-152927000D01*
X46253000Y-152673000D01*
X46273000Y-152673000D01*
X46273000Y-151423750D01*
X46114250Y-151265000D01*
X45784999Y-151265000D01*
X45784999Y-145477156D01*
X45838980Y-145607800D01*
X46439041Y-146208909D01*
X47223459Y-146534628D01*
X48072815Y-146535370D01*
X48857800Y-146211020D01*
X49458909Y-145610959D01*
X49472369Y-145578543D01*
X49932479Y-146039457D01*
X50643416Y-146334663D01*
X51413207Y-146335335D01*
X52124658Y-146041370D01*
X52634372Y-145532545D01*
X52760541Y-145589854D01*
X53950395Y-144400000D01*
X53936253Y-144385858D01*
X54115858Y-144206253D01*
X54130000Y-144220395D01*
X54144143Y-144206253D01*
X54323748Y-144385858D01*
X54309605Y-144400000D01*
X54323748Y-144414143D01*
X54144143Y-144593748D01*
X54130000Y-144579605D01*
X52940146Y-145769459D01*
X53075504Y-146067455D01*
X53793880Y-146344066D01*
X54563427Y-146324710D01*
X55184496Y-146067455D01*
X55269673Y-145879935D01*
X55350000Y-145799608D01*
X55430327Y-145879935D01*
X55515504Y-146067455D01*
X56233880Y-146344066D01*
X57003427Y-146324710D01*
X57624496Y-146067455D01*
X57759854Y-145769459D01*
X56570000Y-144579605D01*
X56555858Y-144593748D01*
X56376253Y-144414143D01*
X56390395Y-144400000D01*
X56749605Y-144400000D01*
X57939459Y-145589854D01*
X58066194Y-145532288D01*
X58572479Y-146039457D01*
X59283416Y-146334663D01*
X60053207Y-146335335D01*
X60764658Y-146041370D01*
X61227301Y-145579534D01*
X61238980Y-145607800D01*
X61839041Y-146208909D01*
X62623459Y-146534628D01*
X63472815Y-146535370D01*
X64257800Y-146211020D01*
X64858909Y-145610959D01*
X65184628Y-144826541D01*
X65185370Y-143977185D01*
X64861020Y-143192200D01*
X64260959Y-142591091D01*
X63476541Y-142265372D01*
X62627185Y-142264630D01*
X61842200Y-142588980D01*
X61241091Y-143189041D01*
X61227631Y-143221457D01*
X60767521Y-142760543D01*
X60056584Y-142465337D01*
X59286793Y-142464665D01*
X58575342Y-142758630D01*
X58065628Y-143267455D01*
X57939459Y-143210146D01*
X56749605Y-144400000D01*
X56390395Y-144400000D01*
X56376253Y-144385858D01*
X56555858Y-144206253D01*
X56570000Y-144220395D01*
X57759854Y-143030541D01*
X57739366Y-142985436D01*
X59687863Y-141036939D01*
X59848110Y-141146431D01*
X60100000Y-141197440D01*
X61400000Y-141197440D01*
X61635317Y-141153162D01*
X61851441Y-141014090D01*
X61996431Y-140801890D01*
X62047440Y-140550000D01*
X62047440Y-139050000D01*
X62003162Y-138814683D01*
X61864090Y-138598559D01*
X61651890Y-138453569D01*
X61638803Y-138450919D01*
X61851441Y-138314090D01*
X61996431Y-138101890D01*
X62045415Y-137860000D01*
X63270000Y-137860000D01*
X63560839Y-137802148D01*
X63807401Y-137637401D01*
X67249000Y-134195802D01*
X67583416Y-134334663D01*
X68353207Y-134335335D01*
X69064658Y-134041370D01*
X69068600Y-134037435D01*
X69068600Y-142761624D01*
G36*
X41632479Y-134039457D02*
X41970000Y-134179608D01*
X41970000Y-136320300D01*
X42027852Y-136611139D01*
X42192599Y-136857701D01*
X42922299Y-137587401D01*
X43168861Y-137752148D01*
X43459700Y-137810000D01*
X48354442Y-137810000D01*
X48396838Y-138035317D01*
X48535910Y-138251441D01*
X48748110Y-138396431D01*
X48761197Y-138399081D01*
X48548559Y-138535910D01*
X48403569Y-138748110D01*
X48352560Y-139000000D01*
X48352560Y-139637242D01*
X46817188Y-140550150D01*
X46741348Y-140618401D01*
X46657652Y-140676757D01*
X44249044Y-143182803D01*
X43827521Y-142760543D01*
X43116584Y-142465337D01*
X42346793Y-142464665D01*
X41635342Y-142758630D01*
X41535000Y-142858797D01*
X41535000Y-133941808D01*
X41632479Y-134039457D01*
X41632479Y-134039457D01*
G37*
X41632479Y-134039457D02*
X41970000Y-134179608D01*
X41970000Y-136320300D01*
X42027852Y-136611139D01*
X42192599Y-136857701D01*
X42922299Y-137587401D01*
X43168861Y-137752148D01*
X43459700Y-137810000D01*
X48354442Y-137810000D01*
X48396838Y-138035317D01*
X48535910Y-138251441D01*
X48748110Y-138396431D01*
X48761197Y-138399081D01*
X48548559Y-138535910D01*
X48403569Y-138748110D01*
X48352560Y-139000000D01*
X48352560Y-139637242D01*
X46817188Y-140550150D01*
X46741348Y-140618401D01*
X46657652Y-140676757D01*
X44249044Y-143182803D01*
X43827521Y-142760543D01*
X43116584Y-142465337D01*
X42346793Y-142464665D01*
X41635342Y-142758630D01*
X41535000Y-142858797D01*
X41535000Y-133941808D01*
X41632479Y-134039457D01*
G36*
X69068600Y-130761624D02*
X69067521Y-130760543D01*
X68356584Y-130465337D01*
X67586793Y-130464665D01*
X66875342Y-130758630D01*
X66330543Y-131302479D01*
X66035337Y-132013416D01*
X66034665Y-132783207D01*
X66174226Y-133120972D01*
X62955198Y-136340000D01*
X62045558Y-136340000D01*
X62003162Y-136114683D01*
X61864090Y-135898559D01*
X61651890Y-135753569D01*
X61400000Y-135702560D01*
X60100000Y-135702560D01*
X59864683Y-135746838D01*
X59648559Y-135885910D01*
X59503569Y-136098110D01*
X59452560Y-136350000D01*
X59452560Y-137850000D01*
X59496838Y-138085317D01*
X59635910Y-138301441D01*
X59848110Y-138446431D01*
X59861197Y-138449081D01*
X59648559Y-138585910D01*
X59503569Y-138798110D01*
X59452560Y-139050000D01*
X59452560Y-139169080D01*
X59312599Y-139262599D01*
X56760199Y-141814999D01*
X47671895Y-141814999D01*
X47682340Y-141804132D01*
X48840962Y-141115234D01*
X49000000Y-141147440D01*
X50300000Y-141147440D01*
X50535317Y-141103162D01*
X50751441Y-140964090D01*
X50896431Y-140751890D01*
X50947440Y-140500000D01*
X50947440Y-139000000D01*
X50903162Y-138764683D01*
X50764090Y-138548559D01*
X50551890Y-138403569D01*
X50538803Y-138400919D01*
X50751441Y-138264090D01*
X50896431Y-138051890D01*
X50947440Y-137800000D01*
X50947440Y-136300000D01*
X50903162Y-136064683D01*
X50764090Y-135848559D01*
X50551890Y-135703569D01*
X50300000Y-135652560D01*
X49000000Y-135652560D01*
X48764683Y-135696838D01*
X48548559Y-135835910D01*
X48403569Y-136048110D01*
X48354585Y-136290000D01*
X43774502Y-136290000D01*
X43490000Y-136005498D01*
X43490000Y-134179648D01*
X43824658Y-134041370D01*
X44369457Y-133497521D01*
X44649618Y-132822815D01*
X45514630Y-132822815D01*
X45838980Y-133607800D01*
X46439041Y-134208909D01*
X47223459Y-134534628D01*
X48072815Y-134535370D01*
X48857800Y-134211020D01*
X49458909Y-133610959D01*
X49472369Y-133578543D01*
X49932479Y-134039457D01*
X50643416Y-134334663D01*
X51413207Y-134335335D01*
X52124658Y-134041370D01*
X52634372Y-133532545D01*
X52760541Y-133589854D01*
X53950395Y-132400000D01*
X52760541Y-131210146D01*
X52633806Y-131267712D01*
X52397049Y-131030541D01*
X52940146Y-131030541D01*
X54130000Y-132220395D01*
X54144143Y-132206253D01*
X54323748Y-132385858D01*
X54309605Y-132400000D01*
X54323748Y-132414143D01*
X54144143Y-132593748D01*
X54130000Y-132579605D01*
X52940146Y-133769459D01*
X53075504Y-134067455D01*
X53793880Y-134344066D01*
X54563427Y-134324710D01*
X55184496Y-134067455D01*
X55269673Y-133879935D01*
X55350000Y-133799608D01*
X55430327Y-133879935D01*
X55515504Y-134067455D01*
X56233880Y-134344066D01*
X57003427Y-134324710D01*
X57624496Y-134067455D01*
X57759854Y-133769459D01*
X56570000Y-132579605D01*
X56555858Y-132593748D01*
X56376253Y-132414143D01*
X56390395Y-132400000D01*
X56749605Y-132400000D01*
X57939459Y-133589854D01*
X58066194Y-133532288D01*
X58572479Y-134039457D01*
X59283416Y-134334663D01*
X60053207Y-134335335D01*
X60764658Y-134041370D01*
X61227301Y-133579534D01*
X61238980Y-133607800D01*
X61839041Y-134208909D01*
X62623459Y-134534628D01*
X63472815Y-134535370D01*
X64257800Y-134211020D01*
X64858909Y-133610959D01*
X65184628Y-132826541D01*
X65185370Y-131977185D01*
X64861020Y-131192200D01*
X64260959Y-130591091D01*
X63476541Y-130265372D01*
X62627185Y-130264630D01*
X61842200Y-130588980D01*
X61241091Y-131189041D01*
X61227631Y-131221457D01*
X60767521Y-130760543D01*
X60056584Y-130465337D01*
X59286793Y-130464665D01*
X58575342Y-130758630D01*
X58065628Y-131267455D01*
X57939459Y-131210146D01*
X56749605Y-132400000D01*
X56390395Y-132400000D01*
X56376253Y-132385858D01*
X56555858Y-132206253D01*
X56570000Y-132220395D01*
X57759854Y-131030541D01*
X57624496Y-130732545D01*
X56906120Y-130455934D01*
X56136573Y-130475290D01*
X55515504Y-130732545D01*
X55430327Y-130920065D01*
X55350000Y-131000392D01*
X55269673Y-130920065D01*
X55184496Y-130732545D01*
X54466120Y-130455934D01*
X53696573Y-130475290D01*
X53075504Y-130732545D01*
X52940146Y-131030541D01*
X52397049Y-131030541D01*
X52127521Y-130760543D01*
X51416584Y-130465337D01*
X50646793Y-130464665D01*
X49935342Y-130758630D01*
X49472699Y-131220466D01*
X49461020Y-131192200D01*
X48860959Y-130591091D01*
X48076541Y-130265372D01*
X47227185Y-130264630D01*
X46442200Y-130588980D01*
X45841091Y-131189041D01*
X45515372Y-131973459D01*
X45514630Y-132822815D01*
X44649618Y-132822815D01*
X44664663Y-132786584D01*
X44665335Y-132016793D01*
X44371370Y-131305342D01*
X43827521Y-130760543D01*
X43116584Y-130465337D01*
X42346793Y-130464665D01*
X41635342Y-130758630D01*
X41535000Y-130858797D01*
X41535000Y-124300000D01*
X46452560Y-124300000D01*
X46452560Y-126100000D01*
X46496838Y-126335317D01*
X46635910Y-126551441D01*
X46848110Y-126696431D01*
X47100000Y-126747440D01*
X48200000Y-126747440D01*
X48435317Y-126703162D01*
X48651441Y-126564090D01*
X48796431Y-126351890D01*
X48847440Y-126100000D01*
X48847440Y-124300000D01*
X48803162Y-124064683D01*
X48774512Y-124020159D01*
X54249446Y-124020159D01*
X54335852Y-124276643D01*
X54909336Y-124486458D01*
X55519460Y-124460839D01*
X55964148Y-124276643D01*
X56050554Y-124020159D01*
X55150000Y-123119605D01*
X54249446Y-124020159D01*
X48774512Y-124020159D01*
X48664090Y-123848559D01*
X48451890Y-123703569D01*
X48200000Y-123652560D01*
X47100000Y-123652560D01*
X46864683Y-123696838D01*
X46648559Y-123835910D01*
X46503569Y-124048110D01*
X46452560Y-124300000D01*
X41535000Y-124300000D01*
X41535000Y-122699336D01*
X53603542Y-122699336D01*
X53629161Y-123309460D01*
X53813357Y-123754148D01*
X54069841Y-123840554D01*
X54970395Y-122940000D01*
X55329605Y-122940000D01*
X56230159Y-123840554D01*
X56486643Y-123754148D01*
X56696458Y-123180664D01*
X56670839Y-122570540D01*
X56486643Y-122125852D01*
X56230159Y-122039446D01*
X55329605Y-122940000D01*
X54970395Y-122940000D01*
X54069841Y-122039446D01*
X53813357Y-122125852D01*
X53603542Y-122699336D01*
X41535000Y-122699336D01*
X41535000Y-114700000D01*
X46452560Y-114700000D01*
X46452560Y-116500000D01*
X46496838Y-116735317D01*
X46635910Y-116951441D01*
X46848110Y-117096431D01*
X47100000Y-117147440D01*
X48200000Y-117147440D01*
X48435317Y-117103162D01*
X48651441Y-116964090D01*
X48796431Y-116751890D01*
X48847440Y-116500000D01*
X48847440Y-114700000D01*
X48803162Y-114464683D01*
X48664090Y-114248559D01*
X48451890Y-114103569D01*
X48200000Y-114052560D01*
X47100000Y-114052560D01*
X46864683Y-114096838D01*
X46648559Y-114235910D01*
X46503569Y-114448110D01*
X46452560Y-114700000D01*
X41535000Y-114700000D01*
X41535000Y-109941808D01*
X41632479Y-110039457D01*
X42343416Y-110334663D01*
X43113207Y-110335335D01*
X43824658Y-110041370D01*
X44369457Y-109497521D01*
X44649618Y-108822815D01*
X45514630Y-108822815D01*
X45838980Y-109607800D01*
X46439041Y-110208909D01*
X47223459Y-110534628D01*
X48072815Y-110535370D01*
X48857800Y-110211020D01*
X49300132Y-109769459D01*
X49840146Y-109769459D01*
X49975504Y-110067455D01*
X50693880Y-110344066D01*
X51463427Y-110324710D01*
X52084496Y-110067455D01*
X52219854Y-109769459D01*
X52940146Y-109769459D01*
X53075504Y-110067455D01*
X53793880Y-110344066D01*
X54563427Y-110324710D01*
X55184496Y-110067455D01*
X55319854Y-109769459D01*
X54130000Y-108579605D01*
X52940146Y-109769459D01*
X52219854Y-109769459D01*
X51030000Y-108579605D01*
X49840146Y-109769459D01*
X49300132Y-109769459D01*
X49458909Y-109610959D01*
X49498277Y-109516149D01*
X49660541Y-109589854D01*
X50850395Y-108400000D01*
X51209605Y-108400000D01*
X52399459Y-109589854D01*
X52580000Y-109507847D01*
X52760541Y-109589854D01*
X53950395Y-108400000D01*
X54309605Y-108400000D01*
X55499459Y-109589854D01*
X55797455Y-109454496D01*
X56074066Y-108736120D01*
X56054710Y-107966573D01*
X55797455Y-107345504D01*
X55499459Y-107210146D01*
X54309605Y-108400000D01*
X53950395Y-108400000D01*
X52760541Y-107210146D01*
X52580000Y-107292153D01*
X52399459Y-107210146D01*
X51209605Y-108400000D01*
X50850395Y-108400000D01*
X49660541Y-107210146D01*
X49498793Y-107283617D01*
X49461020Y-107192200D01*
X49299643Y-107030541D01*
X49840146Y-107030541D01*
X51030000Y-108220395D01*
X52219854Y-107030541D01*
X52940146Y-107030541D01*
X54130000Y-108220395D01*
X55319854Y-107030541D01*
X55184496Y-106732545D01*
X54466120Y-106455934D01*
X53696573Y-106475290D01*
X53075504Y-106732545D01*
X52940146Y-107030541D01*
X52219854Y-107030541D01*
X52084496Y-106732545D01*
X51366120Y-106455934D01*
X50596573Y-106475290D01*
X49975504Y-106732545D01*
X49840146Y-107030541D01*
X49299643Y-107030541D01*
X48860959Y-106591091D01*
X48076541Y-106265372D01*
X47227185Y-106264630D01*
X46442200Y-106588980D01*
X45841091Y-107189041D01*
X45515372Y-107973459D01*
X45514630Y-108822815D01*
X44649618Y-108822815D01*
X44664663Y-108786584D01*
X44665335Y-108016793D01*
X44371370Y-107305342D01*
X43827521Y-106760543D01*
X43116584Y-106465337D01*
X42346793Y-106464665D01*
X41635342Y-106758630D01*
X41535000Y-106858797D01*
X41535000Y-103385167D01*
X43464838Y-103385167D01*
X43606883Y-103728943D01*
X43869673Y-103992192D01*
X44213201Y-104134838D01*
X44585167Y-104135162D01*
X44928943Y-103993117D01*
X45192192Y-103730327D01*
X45334838Y-103386799D01*
X45335162Y-103014833D01*
X45289000Y-102903112D01*
X45289000Y-88518236D01*
X49668236Y-84139000D01*
X58652811Y-84139000D01*
X58763201Y-84184838D01*
X59135167Y-84185162D01*
X59478943Y-84043117D01*
X59742192Y-83780327D01*
X59884838Y-83436799D01*
X59885162Y-83064833D01*
X59743117Y-82721057D01*
X59480327Y-82457808D01*
X59136799Y-82315162D01*
X58764833Y-82314838D01*
X58653112Y-82361000D01*
X49300000Y-82361000D01*
X48959794Y-82428671D01*
X48671382Y-82621382D01*
X43771382Y-87521382D01*
X43578671Y-87809794D01*
X43511000Y-88150000D01*
X43511000Y-102902811D01*
X43465162Y-103013201D01*
X43464838Y-103385167D01*
X41535000Y-103385167D01*
X41535000Y-53870907D01*
X42305000Y-53870907D01*
X42305000Y-53929093D01*
X42418039Y-54497378D01*
X42739946Y-54979147D01*
X43221715Y-55301054D01*
X43790000Y-55414093D01*
X44358285Y-55301054D01*
X44840054Y-54979147D01*
X45060000Y-54649974D01*
X45279946Y-54979147D01*
X45761715Y-55301054D01*
X46330000Y-55414093D01*
X46696408Y-55341210D01*
X51492599Y-60137401D01*
X51739160Y-60302148D01*
X52030000Y-60360000D01*
X52312311Y-60360000D01*
X52134371Y-60537630D01*
X51921243Y-61050900D01*
X51920758Y-61606661D01*
X52132990Y-62120303D01*
X52525630Y-62513629D01*
X53038900Y-62726757D01*
X53594661Y-62727242D01*
X54108303Y-62515010D01*
X54501629Y-62122370D01*
X54587949Y-61914488D01*
X54672990Y-62120303D01*
X55065630Y-62513629D01*
X55098000Y-62527070D01*
X55098000Y-64571198D01*
X50650941Y-69018257D01*
X50651242Y-68673339D01*
X50439010Y-68159697D01*
X50046370Y-67766371D01*
X49854273Y-67686605D01*
X49985143Y-67632397D01*
X50054608Y-67390213D01*
X49254000Y-66589605D01*
X49239858Y-66603748D01*
X49060253Y-66424143D01*
X49074395Y-66410000D01*
X49433605Y-66410000D01*
X50234213Y-67210608D01*
X50476397Y-67141143D01*
X50663144Y-66617698D01*
X50635362Y-66062632D01*
X50476397Y-65678857D01*
X50234213Y-65609392D01*
X49433605Y-66410000D01*
X49074395Y-66410000D01*
X49060253Y-66395858D01*
X49239858Y-66216253D01*
X49254000Y-66230395D01*
X50054608Y-65429787D01*
X49985143Y-65187603D01*
X49844682Y-65137491D01*
X50044303Y-65055010D01*
X50437629Y-64662370D01*
X50650757Y-64149100D01*
X50651242Y-63593339D01*
X50439010Y-63079697D01*
X50046370Y-62686371D01*
X49838488Y-62600051D01*
X50044303Y-62515010D01*
X50437629Y-62122370D01*
X50650757Y-61609100D01*
X50651242Y-61053339D01*
X50439010Y-60539697D01*
X50046370Y-60146371D01*
X49533100Y-59933243D01*
X48977339Y-59932758D01*
X48463697Y-60144990D01*
X48070371Y-60537630D01*
X47857243Y-61050900D01*
X47856758Y-61606661D01*
X48068990Y-62120303D01*
X48461630Y-62513629D01*
X48669512Y-62599949D01*
X48463697Y-62684990D01*
X48070371Y-63077630D01*
X47857243Y-63590900D01*
X47856877Y-64009887D01*
X46771382Y-65095382D01*
X46578671Y-65383794D01*
X46511000Y-65724000D01*
X46511000Y-77150000D01*
X46578671Y-77490206D01*
X46733138Y-77721382D01*
X46771382Y-77778618D01*
X47971382Y-78978618D01*
X48259794Y-79171329D01*
X48600000Y-79239000D01*
X60112370Y-79239000D01*
X60361000Y-79189545D01*
X60361000Y-89366735D01*
X60236799Y-89315162D01*
X59864833Y-89314838D01*
X59521057Y-89456883D01*
X59257808Y-89719673D01*
X59115162Y-90063201D01*
X59114838Y-90435167D01*
X59256883Y-90778943D01*
X59290000Y-90812118D01*
X59290000Y-95087537D01*
X59257808Y-95119673D01*
X59115162Y-95463201D01*
X59114838Y-95835167D01*
X59256883Y-96178943D01*
X59519673Y-96442192D01*
X59863201Y-96584838D01*
X60235167Y-96585162D01*
X60578943Y-96443117D01*
X60842192Y-96180327D01*
X60984838Y-95836799D01*
X60985162Y-95464833D01*
X60843117Y-95121057D01*
X60810000Y-95087882D01*
X60810000Y-93967236D01*
X62561238Y-95718474D01*
X62606883Y-95828943D01*
X62869673Y-96092192D01*
X63163599Y-96214241D01*
X62957808Y-96419673D01*
X62815162Y-96763201D01*
X62814838Y-97135167D01*
X62956883Y-97478943D01*
X62990000Y-97512118D01*
X62990000Y-108995198D01*
X55600293Y-116384905D01*
X55456670Y-116325267D01*
X54846009Y-116324735D01*
X54281629Y-116557932D01*
X53849449Y-116989357D01*
X53615267Y-117553330D01*
X53614735Y-118163991D01*
X53847932Y-118728371D01*
X54249182Y-119130323D01*
X53849449Y-119529357D01*
X53615267Y-120093330D01*
X53614735Y-120703991D01*
X53847932Y-121268371D01*
X54279357Y-121700551D01*
X54300194Y-121709203D01*
X54249446Y-121859841D01*
X55150000Y-122760395D01*
X56050554Y-121859841D01*
X55999965Y-121709673D01*
X56018371Y-121702068D01*
X56450551Y-121270643D01*
X56684733Y-120706670D01*
X56685265Y-120096009D01*
X56452068Y-119531629D01*
X56050818Y-119129677D01*
X56450551Y-118730643D01*
X56684733Y-118166670D01*
X56685265Y-117556009D01*
X56654135Y-117480667D01*
X57752500Y-116382302D01*
X62910856Y-116382302D01*
X62938638Y-116937368D01*
X63097603Y-117321143D01*
X63339787Y-117390608D01*
X64140395Y-116590000D01*
X63339787Y-115789392D01*
X63097603Y-115858857D01*
X62910856Y-116382302D01*
X57752500Y-116382302D01*
X64287401Y-109847401D01*
X64452148Y-109600839D01*
X64510000Y-109310000D01*
X64510000Y-97512463D01*
X64542192Y-97480327D01*
X64684838Y-97136799D01*
X64684879Y-97089923D01*
X64837400Y-96937402D01*
X65002147Y-96690841D01*
X65059999Y-96400001D01*
X65059999Y-92899999D01*
X65002147Y-92609160D01*
X64935080Y-92508787D01*
X64935162Y-92414833D01*
X64793117Y-92071057D01*
X64530327Y-91807808D01*
X64186799Y-91665162D01*
X63814833Y-91664838D01*
X63471057Y-91806883D01*
X63207808Y-92069673D01*
X63065162Y-92413201D01*
X63064838Y-92785167D01*
X63206883Y-93128943D01*
X63469673Y-93392192D01*
X63539999Y-93421394D01*
X63539999Y-94182763D01*
X62139000Y-92781764D01*
X62139000Y-85720979D01*
X62413201Y-85834838D01*
X62785167Y-85835162D01*
X62896888Y-85789000D01*
X64502811Y-85789000D01*
X64613201Y-85834838D01*
X64985167Y-85835162D01*
X65090000Y-85791846D01*
X65090000Y-115503075D01*
X65051143Y-115367603D01*
X64527698Y-115180856D01*
X63972632Y-115208638D01*
X63588857Y-115367603D01*
X63519392Y-115609787D01*
X64320000Y-116410395D01*
X64334143Y-116396253D01*
X64513748Y-116575858D01*
X64499605Y-116590000D01*
X64513748Y-116604143D01*
X64334143Y-116783748D01*
X64320000Y-116769605D01*
X63519392Y-117570213D01*
X63588857Y-117812397D01*
X64112302Y-117999144D01*
X64389951Y-117985247D01*
X59549381Y-122825817D01*
X59519100Y-122813243D01*
X58963339Y-122812758D01*
X58449697Y-123024990D01*
X58056371Y-123417630D01*
X57843243Y-123930900D01*
X57842758Y-124486661D01*
X58054990Y-125000303D01*
X58447630Y-125393629D01*
X58960900Y-125606757D01*
X59516661Y-125607242D01*
X60030303Y-125395010D01*
X60423629Y-125002370D01*
X60509949Y-124794488D01*
X60594990Y-125000303D01*
X60987630Y-125393629D01*
X61500900Y-125606757D01*
X62056661Y-125607242D01*
X62570303Y-125395010D01*
X62963629Y-125002370D01*
X63049949Y-124794488D01*
X63134990Y-125000303D01*
X63527630Y-125393629D01*
X64040900Y-125606757D01*
X64596661Y-125607242D01*
X65110303Y-125395010D01*
X65503629Y-125002370D01*
X65589949Y-124794488D01*
X65674990Y-125000303D01*
X66067630Y-125393629D01*
X66580900Y-125606757D01*
X67136661Y-125607242D01*
X67650303Y-125395010D01*
X68043629Y-125002370D01*
X68256757Y-124489100D01*
X68257242Y-123933339D01*
X68231593Y-123871263D01*
X68352148Y-123690839D01*
X68410000Y-123400000D01*
X68410000Y-57440000D01*
X68352148Y-57149161D01*
X68187401Y-56902599D01*
X66682242Y-55397440D01*
X67500000Y-55397440D01*
X67735317Y-55353162D01*
X67951441Y-55214090D01*
X68096431Y-55001890D01*
X68147440Y-54750000D01*
X68147440Y-53050000D01*
X68103162Y-52814683D01*
X67964090Y-52598559D01*
X67751890Y-52453569D01*
X67500000Y-52402560D01*
X65800000Y-52402560D01*
X65564683Y-52446838D01*
X65348559Y-52585910D01*
X65203569Y-52798110D01*
X65189914Y-52865541D01*
X65160054Y-52820853D01*
X64678285Y-52498946D01*
X64110000Y-52385907D01*
X63541715Y-52498946D01*
X63059946Y-52820853D01*
X62840000Y-53150026D01*
X62620054Y-52820853D01*
X62138285Y-52498946D01*
X61570000Y-52385907D01*
X61001715Y-52498946D01*
X60519946Y-52820853D01*
X60300000Y-53150026D01*
X60080054Y-52820853D01*
X59598285Y-52498946D01*
X59030000Y-52385907D01*
X58461715Y-52498946D01*
X57979946Y-52820853D01*
X57760000Y-53150026D01*
X57540054Y-52820853D01*
X57058285Y-52498946D01*
X56490000Y-52385907D01*
X55921715Y-52498946D01*
X55439946Y-52820853D01*
X55212298Y-53161553D01*
X55145183Y-53018642D01*
X54716924Y-52628355D01*
X54306890Y-52458524D01*
X54077000Y-52579845D01*
X54077000Y-53773000D01*
X54097000Y-53773000D01*
X54097000Y-54027000D01*
X54077000Y-54027000D01*
X54077000Y-55220155D01*
X54306890Y-55341476D01*
X54716924Y-55171645D01*
X55145183Y-54781358D01*
X55212298Y-54638447D01*
X55439946Y-54979147D01*
X55921715Y-55301054D01*
X56490000Y-55414093D01*
X57058285Y-55301054D01*
X57338811Y-55113613D01*
X62314492Y-60089294D01*
X62179697Y-60144990D01*
X61953951Y-60370342D01*
X61730370Y-60146371D01*
X61217100Y-59933243D01*
X60661339Y-59932758D01*
X60147697Y-60144990D01*
X59754371Y-60537630D01*
X59674605Y-60729727D01*
X59620397Y-60598857D01*
X59378213Y-60529392D01*
X58577605Y-61330000D01*
X59378213Y-62130608D01*
X59620397Y-62061143D01*
X59670509Y-61920682D01*
X59752990Y-62120303D01*
X60145630Y-62513629D01*
X60658900Y-62726757D01*
X61077887Y-62727123D01*
X61460764Y-63110000D01*
X58712802Y-63110000D01*
X58334718Y-62731916D01*
X58745368Y-62711362D01*
X59129143Y-62552397D01*
X59198608Y-62310213D01*
X58398000Y-61509605D01*
X58383858Y-61523748D01*
X58204253Y-61344143D01*
X58218395Y-61330000D01*
X57417787Y-60529392D01*
X57175603Y-60598857D01*
X57125491Y-60739318D01*
X57043010Y-60539697D01*
X56853432Y-60349787D01*
X57597392Y-60349787D01*
X58398000Y-61150395D01*
X59198608Y-60349787D01*
X59129143Y-60107603D01*
X58605698Y-59920856D01*
X58050632Y-59948638D01*
X57666857Y-60107603D01*
X57597392Y-60349787D01*
X56853432Y-60349787D01*
X56650370Y-60146371D01*
X56137100Y-59933243D01*
X55581339Y-59932758D01*
X55548945Y-59946143D01*
X54665401Y-59062599D01*
X54418839Y-58897852D01*
X54128000Y-58840000D01*
X52344802Y-58840000D01*
X48910783Y-55405981D01*
X49438285Y-55301054D01*
X49920054Y-54979147D01*
X50140000Y-54649974D01*
X50359946Y-54979147D01*
X50841715Y-55301054D01*
X51410000Y-55414093D01*
X51978285Y-55301054D01*
X52460054Y-54979147D01*
X52687702Y-54638447D01*
X52754817Y-54781358D01*
X53183076Y-55171645D01*
X53593110Y-55341476D01*
X53823000Y-55220155D01*
X53823000Y-54027000D01*
X53803000Y-54027000D01*
X53803000Y-53773000D01*
X53823000Y-53773000D01*
X53823000Y-52579845D01*
X53593110Y-52458524D01*
X53183076Y-52628355D01*
X52754817Y-53018642D01*
X52687702Y-53161553D01*
X52460054Y-52820853D01*
X51978285Y-52498946D01*
X51410000Y-52385907D01*
X50841715Y-52498946D01*
X50359946Y-52820853D01*
X50140000Y-53150026D01*
X49920054Y-52820853D01*
X49438285Y-52498946D01*
X48870000Y-52385907D01*
X48301715Y-52498946D01*
X47819946Y-52820853D01*
X47600000Y-53150026D01*
X47380054Y-52820853D01*
X46898285Y-52498946D01*
X46330000Y-52385907D01*
X45761715Y-52498946D01*
X45279946Y-52820853D01*
X45060000Y-53150026D01*
X44840054Y-52820853D01*
X44358285Y-52498946D01*
X43790000Y-52385907D01*
X43221715Y-52498946D01*
X42739946Y-52820853D01*
X42418039Y-53302622D01*
X42305000Y-53870907D01*
X41535000Y-53870907D01*
X41535000Y-52085000D01*
X69068600Y-52085000D01*
X69068600Y-130761624D01*
X69068600Y-130761624D01*
G37*
X69068600Y-130761624D02*
X69067521Y-130760543D01*
X68356584Y-130465337D01*
X67586793Y-130464665D01*
X66875342Y-130758630D01*
X66330543Y-131302479D01*
X66035337Y-132013416D01*
X66034665Y-132783207D01*
X66174226Y-133120972D01*
X62955198Y-136340000D01*
X62045558Y-136340000D01*
X62003162Y-136114683D01*
X61864090Y-135898559D01*
X61651890Y-135753569D01*
X61400000Y-135702560D01*
X60100000Y-135702560D01*
X59864683Y-135746838D01*
X59648559Y-135885910D01*
X59503569Y-136098110D01*
X59452560Y-136350000D01*
X59452560Y-137850000D01*
X59496838Y-138085317D01*
X59635910Y-138301441D01*
X59848110Y-138446431D01*
X59861197Y-138449081D01*
X59648559Y-138585910D01*
X59503569Y-138798110D01*
X59452560Y-139050000D01*
X59452560Y-139169080D01*
X59312599Y-139262599D01*
X56760199Y-141814999D01*
X47671895Y-141814999D01*
X47682340Y-141804132D01*
X48840962Y-141115234D01*
X49000000Y-141147440D01*
X50300000Y-141147440D01*
X50535317Y-141103162D01*
X50751441Y-140964090D01*
X50896431Y-140751890D01*
X50947440Y-140500000D01*
X50947440Y-139000000D01*
X50903162Y-138764683D01*
X50764090Y-138548559D01*
X50551890Y-138403569D01*
X50538803Y-138400919D01*
X50751441Y-138264090D01*
X50896431Y-138051890D01*
X50947440Y-137800000D01*
X50947440Y-136300000D01*
X50903162Y-136064683D01*
X50764090Y-135848559D01*
X50551890Y-135703569D01*
X50300000Y-135652560D01*
X49000000Y-135652560D01*
X48764683Y-135696838D01*
X48548559Y-135835910D01*
X48403569Y-136048110D01*
X48354585Y-136290000D01*
X43774502Y-136290000D01*
X43490000Y-136005498D01*
X43490000Y-134179648D01*
X43824658Y-134041370D01*
X44369457Y-133497521D01*
X44649618Y-132822815D01*
X45514630Y-132822815D01*
X45838980Y-133607800D01*
X46439041Y-134208909D01*
X47223459Y-134534628D01*
X48072815Y-134535370D01*
X48857800Y-134211020D01*
X49458909Y-133610959D01*
X49472369Y-133578543D01*
X49932479Y-134039457D01*
X50643416Y-134334663D01*
X51413207Y-134335335D01*
X52124658Y-134041370D01*
X52634372Y-133532545D01*
X52760541Y-133589854D01*
X53950395Y-132400000D01*
X52760541Y-131210146D01*
X52633806Y-131267712D01*
X52397049Y-131030541D01*
X52940146Y-131030541D01*
X54130000Y-132220395D01*
X54144143Y-132206253D01*
X54323748Y-132385858D01*
X54309605Y-132400000D01*
X54323748Y-132414143D01*
X54144143Y-132593748D01*
X54130000Y-132579605D01*
X52940146Y-133769459D01*
X53075504Y-134067455D01*
X53793880Y-134344066D01*
X54563427Y-134324710D01*
X55184496Y-134067455D01*
X55269673Y-133879935D01*
X55350000Y-133799608D01*
X55430327Y-133879935D01*
X55515504Y-134067455D01*
X56233880Y-134344066D01*
X57003427Y-134324710D01*
X57624496Y-134067455D01*
X57759854Y-133769459D01*
X56570000Y-132579605D01*
X56555858Y-132593748D01*
X56376253Y-132414143D01*
X56390395Y-132400000D01*
X56749605Y-132400000D01*
X57939459Y-133589854D01*
X58066194Y-133532288D01*
X58572479Y-134039457D01*
X59283416Y-134334663D01*
X60053207Y-134335335D01*
X60764658Y-134041370D01*
X61227301Y-133579534D01*
X61238980Y-133607800D01*
X61839041Y-134208909D01*
X62623459Y-134534628D01*
X63472815Y-134535370D01*
X64257800Y-134211020D01*
X64858909Y-133610959D01*
X65184628Y-132826541D01*
X65185370Y-131977185D01*
X64861020Y-131192200D01*
X64260959Y-130591091D01*
X63476541Y-130265372D01*
X62627185Y-130264630D01*
X61842200Y-130588980D01*
X61241091Y-131189041D01*
X61227631Y-131221457D01*
X60767521Y-130760543D01*
X60056584Y-130465337D01*
X59286793Y-130464665D01*
X58575342Y-130758630D01*
X58065628Y-131267455D01*
X57939459Y-131210146D01*
X56749605Y-132400000D01*
X56390395Y-132400000D01*
X56376253Y-132385858D01*
X56555858Y-132206253D01*
X56570000Y-132220395D01*
X57759854Y-131030541D01*
X57624496Y-130732545D01*
X56906120Y-130455934D01*
X56136573Y-130475290D01*
X55515504Y-130732545D01*
X55430327Y-130920065D01*
X55350000Y-131000392D01*
X55269673Y-130920065D01*
X55184496Y-130732545D01*
X54466120Y-130455934D01*
X53696573Y-130475290D01*
X53075504Y-130732545D01*
X52940146Y-131030541D01*
X52397049Y-131030541D01*
X52127521Y-130760543D01*
X51416584Y-130465337D01*
X50646793Y-130464665D01*
X49935342Y-130758630D01*
X49472699Y-131220466D01*
X49461020Y-131192200D01*
X48860959Y-130591091D01*
X48076541Y-130265372D01*
X47227185Y-130264630D01*
X46442200Y-130588980D01*
X45841091Y-131189041D01*
X45515372Y-131973459D01*
X45514630Y-132822815D01*
X44649618Y-132822815D01*
X44664663Y-132786584D01*
X44665335Y-132016793D01*
X44371370Y-131305342D01*
X43827521Y-130760543D01*
X43116584Y-130465337D01*
X42346793Y-130464665D01*
X41635342Y-130758630D01*
X41535000Y-130858797D01*
X41535000Y-124300000D01*
X46452560Y-124300000D01*
X46452560Y-126100000D01*
X46496838Y-126335317D01*
X46635910Y-126551441D01*
X46848110Y-126696431D01*
X47100000Y-126747440D01*
X48200000Y-126747440D01*
X48435317Y-126703162D01*
X48651441Y-126564090D01*
X48796431Y-126351890D01*
X48847440Y-126100000D01*
X48847440Y-124300000D01*
X48803162Y-124064683D01*
X48774512Y-124020159D01*
X54249446Y-124020159D01*
X54335852Y-124276643D01*
X54909336Y-124486458D01*
X55519460Y-124460839D01*
X55964148Y-124276643D01*
X56050554Y-124020159D01*
X55150000Y-123119605D01*
X54249446Y-124020159D01*
X48774512Y-124020159D01*
X48664090Y-123848559D01*
X48451890Y-123703569D01*
X48200000Y-123652560D01*
X47100000Y-123652560D01*
X46864683Y-123696838D01*
X46648559Y-123835910D01*
X46503569Y-124048110D01*
X46452560Y-124300000D01*
X41535000Y-124300000D01*
X41535000Y-122699336D01*
X53603542Y-122699336D01*
X53629161Y-123309460D01*
X53813357Y-123754148D01*
X54069841Y-123840554D01*
X54970395Y-122940000D01*
X55329605Y-122940000D01*
X56230159Y-123840554D01*
X56486643Y-123754148D01*
X56696458Y-123180664D01*
X56670839Y-122570540D01*
X56486643Y-122125852D01*
X56230159Y-122039446D01*
X55329605Y-122940000D01*
X54970395Y-122940000D01*
X54069841Y-122039446D01*
X53813357Y-122125852D01*
X53603542Y-122699336D01*
X41535000Y-122699336D01*
X41535000Y-114700000D01*
X46452560Y-114700000D01*
X46452560Y-116500000D01*
X46496838Y-116735317D01*
X46635910Y-116951441D01*
X46848110Y-117096431D01*
X47100000Y-117147440D01*
X48200000Y-117147440D01*
X48435317Y-117103162D01*
X48651441Y-116964090D01*
X48796431Y-116751890D01*
X48847440Y-116500000D01*
X48847440Y-114700000D01*
X48803162Y-114464683D01*
X48664090Y-114248559D01*
X48451890Y-114103569D01*
X48200000Y-114052560D01*
X47100000Y-114052560D01*
X46864683Y-114096838D01*
X46648559Y-114235910D01*
X46503569Y-114448110D01*
X46452560Y-114700000D01*
X41535000Y-114700000D01*
X41535000Y-109941808D01*
X41632479Y-110039457D01*
X42343416Y-110334663D01*
X43113207Y-110335335D01*
X43824658Y-110041370D01*
X44369457Y-109497521D01*
X44649618Y-108822815D01*
X45514630Y-108822815D01*
X45838980Y-109607800D01*
X46439041Y-110208909D01*
X47223459Y-110534628D01*
X48072815Y-110535370D01*
X48857800Y-110211020D01*
X49300132Y-109769459D01*
X49840146Y-109769459D01*
X49975504Y-110067455D01*
X50693880Y-110344066D01*
X51463427Y-110324710D01*
X52084496Y-110067455D01*
X52219854Y-109769459D01*
X52940146Y-109769459D01*
X53075504Y-110067455D01*
X53793880Y-110344066D01*
X54563427Y-110324710D01*
X55184496Y-110067455D01*
X55319854Y-109769459D01*
X54130000Y-108579605D01*
X52940146Y-109769459D01*
X52219854Y-109769459D01*
X51030000Y-108579605D01*
X49840146Y-109769459D01*
X49300132Y-109769459D01*
X49458909Y-109610959D01*
X49498277Y-109516149D01*
X49660541Y-109589854D01*
X50850395Y-108400000D01*
X51209605Y-108400000D01*
X52399459Y-109589854D01*
X52580000Y-109507847D01*
X52760541Y-109589854D01*
X53950395Y-108400000D01*
X54309605Y-108400000D01*
X55499459Y-109589854D01*
X55797455Y-109454496D01*
X56074066Y-108736120D01*
X56054710Y-107966573D01*
X55797455Y-107345504D01*
X55499459Y-107210146D01*
X54309605Y-108400000D01*
X53950395Y-108400000D01*
X52760541Y-107210146D01*
X52580000Y-107292153D01*
X52399459Y-107210146D01*
X51209605Y-108400000D01*
X50850395Y-108400000D01*
X49660541Y-107210146D01*
X49498793Y-107283617D01*
X49461020Y-107192200D01*
X49299643Y-107030541D01*
X49840146Y-107030541D01*
X51030000Y-108220395D01*
X52219854Y-107030541D01*
X52940146Y-107030541D01*
X54130000Y-108220395D01*
X55319854Y-107030541D01*
X55184496Y-106732545D01*
X54466120Y-106455934D01*
X53696573Y-106475290D01*
X53075504Y-106732545D01*
X52940146Y-107030541D01*
X52219854Y-107030541D01*
X52084496Y-106732545D01*
X51366120Y-106455934D01*
X50596573Y-106475290D01*
X49975504Y-106732545D01*
X49840146Y-107030541D01*
X49299643Y-107030541D01*
X48860959Y-106591091D01*
X48076541Y-106265372D01*
X47227185Y-106264630D01*
X46442200Y-106588980D01*
X45841091Y-107189041D01*
X45515372Y-107973459D01*
X45514630Y-108822815D01*
X44649618Y-108822815D01*
X44664663Y-108786584D01*
X44665335Y-108016793D01*
X44371370Y-107305342D01*
X43827521Y-106760543D01*
X43116584Y-106465337D01*
X42346793Y-106464665D01*
X41635342Y-106758630D01*
X41535000Y-106858797D01*
X41535000Y-103385167D01*
X43464838Y-103385167D01*
X43606883Y-103728943D01*
X43869673Y-103992192D01*
X44213201Y-104134838D01*
X44585167Y-104135162D01*
X44928943Y-103993117D01*
X45192192Y-103730327D01*
X45334838Y-103386799D01*
X45335162Y-103014833D01*
X45289000Y-102903112D01*
X45289000Y-88518236D01*
X49668236Y-84139000D01*
X58652811Y-84139000D01*
X58763201Y-84184838D01*
X59135167Y-84185162D01*
X59478943Y-84043117D01*
X59742192Y-83780327D01*
X59884838Y-83436799D01*
X59885162Y-83064833D01*
X59743117Y-82721057D01*
X59480327Y-82457808D01*
X59136799Y-82315162D01*
X58764833Y-82314838D01*
X58653112Y-82361000D01*
X49300000Y-82361000D01*
X48959794Y-82428671D01*
X48671382Y-82621382D01*
X43771382Y-87521382D01*
X43578671Y-87809794D01*
X43511000Y-88150000D01*
X43511000Y-102902811D01*
X43465162Y-103013201D01*
X43464838Y-103385167D01*
X41535000Y-103385167D01*
X41535000Y-53870907D01*
X42305000Y-53870907D01*
X42305000Y-53929093D01*
X42418039Y-54497378D01*
X42739946Y-54979147D01*
X43221715Y-55301054D01*
X43790000Y-55414093D01*
X44358285Y-55301054D01*
X44840054Y-54979147D01*
X45060000Y-54649974D01*
X45279946Y-54979147D01*
X45761715Y-55301054D01*
X46330000Y-55414093D01*
X46696408Y-55341210D01*
X51492599Y-60137401D01*
X51739160Y-60302148D01*
X52030000Y-60360000D01*
X52312311Y-60360000D01*
X52134371Y-60537630D01*
X51921243Y-61050900D01*
X51920758Y-61606661D01*
X52132990Y-62120303D01*
X52525630Y-62513629D01*
X53038900Y-62726757D01*
X53594661Y-62727242D01*
X54108303Y-62515010D01*
X54501629Y-62122370D01*
X54587949Y-61914488D01*
X54672990Y-62120303D01*
X55065630Y-62513629D01*
X55098000Y-62527070D01*
X55098000Y-64571198D01*
X50650941Y-69018257D01*
X50651242Y-68673339D01*
X50439010Y-68159697D01*
X50046370Y-67766371D01*
X49854273Y-67686605D01*
X49985143Y-67632397D01*
X50054608Y-67390213D01*
X49254000Y-66589605D01*
X49239858Y-66603748D01*
X49060253Y-66424143D01*
X49074395Y-66410000D01*
X49433605Y-66410000D01*
X50234213Y-67210608D01*
X50476397Y-67141143D01*
X50663144Y-66617698D01*
X50635362Y-66062632D01*
X50476397Y-65678857D01*
X50234213Y-65609392D01*
X49433605Y-66410000D01*
X49074395Y-66410000D01*
X49060253Y-66395858D01*
X49239858Y-66216253D01*
X49254000Y-66230395D01*
X50054608Y-65429787D01*
X49985143Y-65187603D01*
X49844682Y-65137491D01*
X50044303Y-65055010D01*
X50437629Y-64662370D01*
X50650757Y-64149100D01*
X50651242Y-63593339D01*
X50439010Y-63079697D01*
X50046370Y-62686371D01*
X49838488Y-62600051D01*
X50044303Y-62515010D01*
X50437629Y-62122370D01*
X50650757Y-61609100D01*
X50651242Y-61053339D01*
X50439010Y-60539697D01*
X50046370Y-60146371D01*
X49533100Y-59933243D01*
X48977339Y-59932758D01*
X48463697Y-60144990D01*
X48070371Y-60537630D01*
X47857243Y-61050900D01*
X47856758Y-61606661D01*
X48068990Y-62120303D01*
X48461630Y-62513629D01*
X48669512Y-62599949D01*
X48463697Y-62684990D01*
X48070371Y-63077630D01*
X47857243Y-63590900D01*
X47856877Y-64009887D01*
X46771382Y-65095382D01*
X46578671Y-65383794D01*
X46511000Y-65724000D01*
X46511000Y-77150000D01*
X46578671Y-77490206D01*
X46733138Y-77721382D01*
X46771382Y-77778618D01*
X47971382Y-78978618D01*
X48259794Y-79171329D01*
X48600000Y-79239000D01*
X60112370Y-79239000D01*
X60361000Y-79189545D01*
X60361000Y-89366735D01*
X60236799Y-89315162D01*
X59864833Y-89314838D01*
X59521057Y-89456883D01*
X59257808Y-89719673D01*
X59115162Y-90063201D01*
X59114838Y-90435167D01*
X59256883Y-90778943D01*
X59290000Y-90812118D01*
X59290000Y-95087537D01*
X59257808Y-95119673D01*
X59115162Y-95463201D01*
X59114838Y-95835167D01*
X59256883Y-96178943D01*
X59519673Y-96442192D01*
X59863201Y-96584838D01*
X60235167Y-96585162D01*
X60578943Y-96443117D01*
X60842192Y-96180327D01*
X60984838Y-95836799D01*
X60985162Y-95464833D01*
X60843117Y-95121057D01*
X60810000Y-95087882D01*
X60810000Y-93967236D01*
X62561238Y-95718474D01*
X62606883Y-95828943D01*
X62869673Y-96092192D01*
X63163599Y-96214241D01*
X62957808Y-96419673D01*
X62815162Y-96763201D01*
X62814838Y-97135167D01*
X62956883Y-97478943D01*
X62990000Y-97512118D01*
X62990000Y-108995198D01*
X55600293Y-116384905D01*
X55456670Y-116325267D01*
X54846009Y-116324735D01*
X54281629Y-116557932D01*
X53849449Y-116989357D01*
X53615267Y-117553330D01*
X53614735Y-118163991D01*
X53847932Y-118728371D01*
X54249182Y-119130323D01*
X53849449Y-119529357D01*
X53615267Y-120093330D01*
X53614735Y-120703991D01*
X53847932Y-121268371D01*
X54279357Y-121700551D01*
X54300194Y-121709203D01*
X54249446Y-121859841D01*
X55150000Y-122760395D01*
X56050554Y-121859841D01*
X55999965Y-121709673D01*
X56018371Y-121702068D01*
X56450551Y-121270643D01*
X56684733Y-120706670D01*
X56685265Y-120096009D01*
X56452068Y-119531629D01*
X56050818Y-119129677D01*
X56450551Y-118730643D01*
X56684733Y-118166670D01*
X56685265Y-117556009D01*
X56654135Y-117480667D01*
X57752500Y-116382302D01*
X62910856Y-116382302D01*
X62938638Y-116937368D01*
X63097603Y-117321143D01*
X63339787Y-117390608D01*
X64140395Y-116590000D01*
X63339787Y-115789392D01*
X63097603Y-115858857D01*
X62910856Y-116382302D01*
X57752500Y-116382302D01*
X64287401Y-109847401D01*
X64452148Y-109600839D01*
X64510000Y-109310000D01*
X64510000Y-97512463D01*
X64542192Y-97480327D01*
X64684838Y-97136799D01*
X64684879Y-97089923D01*
X64837400Y-96937402D01*
X65002147Y-96690841D01*
X65059999Y-96400001D01*
X65059999Y-92899999D01*
X65002147Y-92609160D01*
X64935080Y-92508787D01*
X64935162Y-92414833D01*
X64793117Y-92071057D01*
X64530327Y-91807808D01*
X64186799Y-91665162D01*
X63814833Y-91664838D01*
X63471057Y-91806883D01*
X63207808Y-92069673D01*
X63065162Y-92413201D01*
X63064838Y-92785167D01*
X63206883Y-93128943D01*
X63469673Y-93392192D01*
X63539999Y-93421394D01*
X63539999Y-94182763D01*
X62139000Y-92781764D01*
X62139000Y-85720979D01*
X62413201Y-85834838D01*
X62785167Y-85835162D01*
X62896888Y-85789000D01*
X64502811Y-85789000D01*
X64613201Y-85834838D01*
X64985167Y-85835162D01*
X65090000Y-85791846D01*
X65090000Y-115503075D01*
X65051143Y-115367603D01*
X64527698Y-115180856D01*
X63972632Y-115208638D01*
X63588857Y-115367603D01*
X63519392Y-115609787D01*
X64320000Y-116410395D01*
X64334143Y-116396253D01*
X64513748Y-116575858D01*
X64499605Y-116590000D01*
X64513748Y-116604143D01*
X64334143Y-116783748D01*
X64320000Y-116769605D01*
X63519392Y-117570213D01*
X63588857Y-117812397D01*
X64112302Y-117999144D01*
X64389951Y-117985247D01*
X59549381Y-122825817D01*
X59519100Y-122813243D01*
X58963339Y-122812758D01*
X58449697Y-123024990D01*
X58056371Y-123417630D01*
X57843243Y-123930900D01*
X57842758Y-124486661D01*
X58054990Y-125000303D01*
X58447630Y-125393629D01*
X58960900Y-125606757D01*
X59516661Y-125607242D01*
X60030303Y-125395010D01*
X60423629Y-125002370D01*
X60509949Y-124794488D01*
X60594990Y-125000303D01*
X60987630Y-125393629D01*
X61500900Y-125606757D01*
X62056661Y-125607242D01*
X62570303Y-125395010D01*
X62963629Y-125002370D01*
X63049949Y-124794488D01*
X63134990Y-125000303D01*
X63527630Y-125393629D01*
X64040900Y-125606757D01*
X64596661Y-125607242D01*
X65110303Y-125395010D01*
X65503629Y-125002370D01*
X65589949Y-124794488D01*
X65674990Y-125000303D01*
X66067630Y-125393629D01*
X66580900Y-125606757D01*
X67136661Y-125607242D01*
X67650303Y-125395010D01*
X68043629Y-125002370D01*
X68256757Y-124489100D01*
X68257242Y-123933339D01*
X68231593Y-123871263D01*
X68352148Y-123690839D01*
X68410000Y-123400000D01*
X68410000Y-57440000D01*
X68352148Y-57149161D01*
X68187401Y-56902599D01*
X66682242Y-55397440D01*
X67500000Y-55397440D01*
X67735317Y-55353162D01*
X67951441Y-55214090D01*
X68096431Y-55001890D01*
X68147440Y-54750000D01*
X68147440Y-53050000D01*
X68103162Y-52814683D01*
X67964090Y-52598559D01*
X67751890Y-52453569D01*
X67500000Y-52402560D01*
X65800000Y-52402560D01*
X65564683Y-52446838D01*
X65348559Y-52585910D01*
X65203569Y-52798110D01*
X65189914Y-52865541D01*
X65160054Y-52820853D01*
X64678285Y-52498946D01*
X64110000Y-52385907D01*
X63541715Y-52498946D01*
X63059946Y-52820853D01*
X62840000Y-53150026D01*
X62620054Y-52820853D01*
X62138285Y-52498946D01*
X61570000Y-52385907D01*
X61001715Y-52498946D01*
X60519946Y-52820853D01*
X60300000Y-53150026D01*
X60080054Y-52820853D01*
X59598285Y-52498946D01*
X59030000Y-52385907D01*
X58461715Y-52498946D01*
X57979946Y-52820853D01*
X57760000Y-53150026D01*
X57540054Y-52820853D01*
X57058285Y-52498946D01*
X56490000Y-52385907D01*
X55921715Y-52498946D01*
X55439946Y-52820853D01*
X55212298Y-53161553D01*
X55145183Y-53018642D01*
X54716924Y-52628355D01*
X54306890Y-52458524D01*
X54077000Y-52579845D01*
X54077000Y-53773000D01*
X54097000Y-53773000D01*
X54097000Y-54027000D01*
X54077000Y-54027000D01*
X54077000Y-55220155D01*
X54306890Y-55341476D01*
X54716924Y-55171645D01*
X55145183Y-54781358D01*
X55212298Y-54638447D01*
X55439946Y-54979147D01*
X55921715Y-55301054D01*
X56490000Y-55414093D01*
X57058285Y-55301054D01*
X57338811Y-55113613D01*
X62314492Y-60089294D01*
X62179697Y-60144990D01*
X61953951Y-60370342D01*
X61730370Y-60146371D01*
X61217100Y-59933243D01*
X60661339Y-59932758D01*
X60147697Y-60144990D01*
X59754371Y-60537630D01*
X59674605Y-60729727D01*
X59620397Y-60598857D01*
X59378213Y-60529392D01*
X58577605Y-61330000D01*
X59378213Y-62130608D01*
X59620397Y-62061143D01*
X59670509Y-61920682D01*
X59752990Y-62120303D01*
X60145630Y-62513629D01*
X60658900Y-62726757D01*
X61077887Y-62727123D01*
X61460764Y-63110000D01*
X58712802Y-63110000D01*
X58334718Y-62731916D01*
X58745368Y-62711362D01*
X59129143Y-62552397D01*
X59198608Y-62310213D01*
X58398000Y-61509605D01*
X58383858Y-61523748D01*
X58204253Y-61344143D01*
X58218395Y-61330000D01*
X57417787Y-60529392D01*
X57175603Y-60598857D01*
X57125491Y-60739318D01*
X57043010Y-60539697D01*
X56853432Y-60349787D01*
X57597392Y-60349787D01*
X58398000Y-61150395D01*
X59198608Y-60349787D01*
X59129143Y-60107603D01*
X58605698Y-59920856D01*
X58050632Y-59948638D01*
X57666857Y-60107603D01*
X57597392Y-60349787D01*
X56853432Y-60349787D01*
X56650370Y-60146371D01*
X56137100Y-59933243D01*
X55581339Y-59932758D01*
X55548945Y-59946143D01*
X54665401Y-59062599D01*
X54418839Y-58897852D01*
X54128000Y-58840000D01*
X52344802Y-58840000D01*
X48910783Y-55405981D01*
X49438285Y-55301054D01*
X49920054Y-54979147D01*
X50140000Y-54649974D01*
X50359946Y-54979147D01*
X50841715Y-55301054D01*
X51410000Y-55414093D01*
X51978285Y-55301054D01*
X52460054Y-54979147D01*
X52687702Y-54638447D01*
X52754817Y-54781358D01*
X53183076Y-55171645D01*
X53593110Y-55341476D01*
X53823000Y-55220155D01*
X53823000Y-54027000D01*
X53803000Y-54027000D01*
X53803000Y-53773000D01*
X53823000Y-53773000D01*
X53823000Y-52579845D01*
X53593110Y-52458524D01*
X53183076Y-52628355D01*
X52754817Y-53018642D01*
X52687702Y-53161553D01*
X52460054Y-52820853D01*
X51978285Y-52498946D01*
X51410000Y-52385907D01*
X50841715Y-52498946D01*
X50359946Y-52820853D01*
X50140000Y-53150026D01*
X49920054Y-52820853D01*
X49438285Y-52498946D01*
X48870000Y-52385907D01*
X48301715Y-52498946D01*
X47819946Y-52820853D01*
X47600000Y-53150026D01*
X47380054Y-52820853D01*
X46898285Y-52498946D01*
X46330000Y-52385907D01*
X45761715Y-52498946D01*
X45279946Y-52820853D01*
X45060000Y-53150026D01*
X44840054Y-52820853D01*
X44358285Y-52498946D01*
X43790000Y-52385907D01*
X43221715Y-52498946D01*
X42739946Y-52820853D01*
X42418039Y-53302622D01*
X42305000Y-53870907D01*
X41535000Y-53870907D01*
X41535000Y-52085000D01*
X69068600Y-52085000D01*
X69068600Y-130761624D01*
G36*
X57860599Y-64407401D02*
X58107160Y-64572148D01*
X58155414Y-64581746D01*
X58398000Y-64630000D01*
X61772469Y-64630000D01*
X61784990Y-64660303D01*
X62177630Y-65053629D01*
X62385512Y-65139949D01*
X62179697Y-65224990D01*
X61786371Y-65617630D01*
X61573243Y-66130900D01*
X61572758Y-66686661D01*
X61784990Y-67200303D01*
X62177630Y-67593629D01*
X62385512Y-67679949D01*
X62179697Y-67764990D01*
X61786371Y-68157630D01*
X61573243Y-68670900D01*
X61572758Y-69226661D01*
X61784990Y-69740303D01*
X62177630Y-70133629D01*
X62369727Y-70213395D01*
X62238857Y-70267603D01*
X62169392Y-70509787D01*
X62970000Y-71310395D01*
X62984143Y-71296253D01*
X63163748Y-71475858D01*
X63149605Y-71490000D01*
X63163748Y-71504143D01*
X62984143Y-71683748D01*
X62970000Y-71669605D01*
X62169392Y-72470213D01*
X62238857Y-72712397D01*
X62379318Y-72762509D01*
X62179697Y-72844990D01*
X61786371Y-73237630D01*
X61573243Y-73750900D01*
X61572758Y-74306661D01*
X61784990Y-74820303D01*
X62177630Y-75213629D01*
X62385512Y-75299949D01*
X62179697Y-75384990D01*
X61880880Y-75683285D01*
X61552164Y-75748671D01*
X61263752Y-75941382D01*
X59744134Y-77461000D01*
X50338827Y-77461000D01*
X50437629Y-77362370D01*
X50650757Y-76849100D01*
X50651242Y-76293339D01*
X50439010Y-75779697D01*
X50046370Y-75386371D01*
X49838488Y-75300051D01*
X50044303Y-75215010D01*
X50437629Y-74822370D01*
X50650757Y-74309100D01*
X50651242Y-73753339D01*
X50439010Y-73239697D01*
X50046370Y-72846371D01*
X49838488Y-72760051D01*
X50044303Y-72675010D01*
X50437629Y-72282370D01*
X50650757Y-71769100D01*
X50650759Y-71766661D01*
X51920758Y-71766661D01*
X52132990Y-72280303D01*
X52525630Y-72673629D01*
X53038900Y-72886757D01*
X53594661Y-72887242D01*
X54108303Y-72675010D01*
X54501629Y-72282370D01*
X54587949Y-72074488D01*
X54672990Y-72280303D01*
X55065630Y-72673629D01*
X55578900Y-72886757D01*
X56134661Y-72887242D01*
X56648303Y-72675010D01*
X57041629Y-72282370D01*
X57254757Y-71769100D01*
X57255181Y-71282302D01*
X61560856Y-71282302D01*
X61588638Y-71837368D01*
X61747603Y-72221143D01*
X61989787Y-72290608D01*
X62790395Y-71490000D01*
X61989787Y-70689392D01*
X61747603Y-70758857D01*
X61560856Y-71282302D01*
X57255181Y-71282302D01*
X57255242Y-71213339D01*
X57043010Y-70699697D01*
X56650370Y-70306371D01*
X56137100Y-70093243D01*
X55581339Y-70092758D01*
X55067697Y-70304990D01*
X54674371Y-70697630D01*
X54588051Y-70905512D01*
X54503010Y-70699697D01*
X54110370Y-70306371D01*
X53597100Y-70093243D01*
X53041339Y-70092758D01*
X52527697Y-70304990D01*
X52134371Y-70697630D01*
X51921243Y-71210900D01*
X51920758Y-71766661D01*
X50650759Y-71766661D01*
X50651242Y-71213339D01*
X50637857Y-71180945D01*
X56395401Y-65423401D01*
X56560148Y-65176840D01*
X56618000Y-64886000D01*
X56618000Y-63164802D01*
X57860599Y-64407401D01*
X57860599Y-64407401D01*
G37*
X57860599Y-64407401D02*
X58107160Y-64572148D01*
X58155414Y-64581746D01*
X58398000Y-64630000D01*
X61772469Y-64630000D01*
X61784990Y-64660303D01*
X62177630Y-65053629D01*
X62385512Y-65139949D01*
X62179697Y-65224990D01*
X61786371Y-65617630D01*
X61573243Y-66130900D01*
X61572758Y-66686661D01*
X61784990Y-67200303D01*
X62177630Y-67593629D01*
X62385512Y-67679949D01*
X62179697Y-67764990D01*
X61786371Y-68157630D01*
X61573243Y-68670900D01*
X61572758Y-69226661D01*
X61784990Y-69740303D01*
X62177630Y-70133629D01*
X62369727Y-70213395D01*
X62238857Y-70267603D01*
X62169392Y-70509787D01*
X62970000Y-71310395D01*
X62984143Y-71296253D01*
X63163748Y-71475858D01*
X63149605Y-71490000D01*
X63163748Y-71504143D01*
X62984143Y-71683748D01*
X62970000Y-71669605D01*
X62169392Y-72470213D01*
X62238857Y-72712397D01*
X62379318Y-72762509D01*
X62179697Y-72844990D01*
X61786371Y-73237630D01*
X61573243Y-73750900D01*
X61572758Y-74306661D01*
X61784990Y-74820303D01*
X62177630Y-75213629D01*
X62385512Y-75299949D01*
X62179697Y-75384990D01*
X61880880Y-75683285D01*
X61552164Y-75748671D01*
X61263752Y-75941382D01*
X59744134Y-77461000D01*
X50338827Y-77461000D01*
X50437629Y-77362370D01*
X50650757Y-76849100D01*
X50651242Y-76293339D01*
X50439010Y-75779697D01*
X50046370Y-75386371D01*
X49838488Y-75300051D01*
X50044303Y-75215010D01*
X50437629Y-74822370D01*
X50650757Y-74309100D01*
X50651242Y-73753339D01*
X50439010Y-73239697D01*
X50046370Y-72846371D01*
X49838488Y-72760051D01*
X50044303Y-72675010D01*
X50437629Y-72282370D01*
X50650757Y-71769100D01*
X50650759Y-71766661D01*
X51920758Y-71766661D01*
X52132990Y-72280303D01*
X52525630Y-72673629D01*
X53038900Y-72886757D01*
X53594661Y-72887242D01*
X54108303Y-72675010D01*
X54501629Y-72282370D01*
X54587949Y-72074488D01*
X54672990Y-72280303D01*
X55065630Y-72673629D01*
X55578900Y-72886757D01*
X56134661Y-72887242D01*
X56648303Y-72675010D01*
X57041629Y-72282370D01*
X57254757Y-71769100D01*
X57255181Y-71282302D01*
X61560856Y-71282302D01*
X61588638Y-71837368D01*
X61747603Y-72221143D01*
X61989787Y-72290608D01*
X62790395Y-71490000D01*
X61989787Y-70689392D01*
X61747603Y-70758857D01*
X61560856Y-71282302D01*
X57255181Y-71282302D01*
X57255242Y-71213339D01*
X57043010Y-70699697D01*
X56650370Y-70306371D01*
X56137100Y-70093243D01*
X55581339Y-70092758D01*
X55067697Y-70304990D01*
X54674371Y-70697630D01*
X54588051Y-70905512D01*
X54503010Y-70699697D01*
X54110370Y-70306371D01*
X53597100Y-70093243D01*
X53041339Y-70092758D01*
X52527697Y-70304990D01*
X52134371Y-70697630D01*
X51921243Y-71210900D01*
X51920758Y-71766661D01*
X50650759Y-71766661D01*
X50651242Y-71213339D01*
X50637857Y-71180945D01*
X56395401Y-65423401D01*
X56560148Y-65176840D01*
X56618000Y-64886000D01*
X56618000Y-63164802D01*
X57860599Y-64407401D01*
G36*
X84215162Y-143113201D02*
X84214838Y-143485167D01*
X84356883Y-143828943D01*
X84619673Y-144092192D01*
X84731313Y-144138549D01*
X89657814Y-149065050D01*
X89414833Y-149064838D01*
X89071057Y-149206883D01*
X88807808Y-149469673D01*
X88665162Y-149813201D01*
X88665121Y-149860077D01*
X87492599Y-151032599D01*
X87327852Y-151279161D01*
X87270000Y-151570000D01*
X87270000Y-156627046D01*
X86979946Y-156820853D01*
X86752298Y-157161553D01*
X86685183Y-157018642D01*
X86256924Y-156628355D01*
X85846890Y-156458524D01*
X85617000Y-156579845D01*
X85617000Y-157773000D01*
X85637000Y-157773000D01*
X85637000Y-158027000D01*
X85617000Y-158027000D01*
X85617000Y-158047000D01*
X85363000Y-158047000D01*
X85363000Y-158027000D01*
X85343000Y-158027000D01*
X85343000Y-157773000D01*
X85363000Y-157773000D01*
X85363000Y-156579845D01*
X85133110Y-156458524D01*
X84723076Y-156628355D01*
X84294817Y-157018642D01*
X84227702Y-157161553D01*
X84000054Y-156820853D01*
X83518285Y-156498946D01*
X82950000Y-156385907D01*
X82381715Y-156498946D01*
X81899946Y-156820853D01*
X81680000Y-157150026D01*
X81460054Y-156820853D01*
X80978285Y-156498946D01*
X80410000Y-156385907D01*
X79841715Y-156498946D01*
X79359946Y-156820853D01*
X79140000Y-157150026D01*
X78920054Y-156820853D01*
X78438285Y-156498946D01*
X77870000Y-156385907D01*
X77301715Y-156498946D01*
X76819946Y-156820853D01*
X76600000Y-157150026D01*
X76380054Y-156820853D01*
X75898285Y-156498946D01*
X75330000Y-156385907D01*
X74761715Y-156498946D01*
X74279946Y-156820853D01*
X74060000Y-157150026D01*
X73840054Y-156820853D01*
X73679000Y-156713240D01*
X73679000Y-150535167D01*
X75764838Y-150535167D01*
X75906883Y-150878943D01*
X76169673Y-151142192D01*
X76513201Y-151284838D01*
X76885167Y-151285162D01*
X77228943Y-151143117D01*
X77492192Y-150880327D01*
X77632591Y-150542211D01*
X78289680Y-149885122D01*
X78335167Y-149885162D01*
X78678943Y-149743117D01*
X78942192Y-149480327D01*
X79084838Y-149136799D01*
X79085162Y-148764833D01*
X78943117Y-148421057D01*
X78680327Y-148157808D01*
X78336799Y-148015162D01*
X77964833Y-148014838D01*
X77621057Y-148156883D01*
X77357808Y-148419673D01*
X77215162Y-148763201D01*
X77215121Y-148810077D01*
X76613281Y-149411917D01*
X76608787Y-149414920D01*
X76514833Y-149414838D01*
X76171057Y-149556883D01*
X75907808Y-149819673D01*
X75765162Y-150163201D01*
X75764838Y-150535167D01*
X73679000Y-150535167D01*
X73679000Y-148678236D01*
X79368236Y-142989000D01*
X84266735Y-142989000D01*
X84215162Y-143113201D01*
X84215162Y-143113201D01*
G37*
X84215162Y-143113201D02*
X84214838Y-143485167D01*
X84356883Y-143828943D01*
X84619673Y-144092192D01*
X84731313Y-144138549D01*
X89657814Y-149065050D01*
X89414833Y-149064838D01*
X89071057Y-149206883D01*
X88807808Y-149469673D01*
X88665162Y-149813201D01*
X88665121Y-149860077D01*
X87492599Y-151032599D01*
X87327852Y-151279161D01*
X87270000Y-151570000D01*
X87270000Y-156627046D01*
X86979946Y-156820853D01*
X86752298Y-157161553D01*
X86685183Y-157018642D01*
X86256924Y-156628355D01*
X85846890Y-156458524D01*
X85617000Y-156579845D01*
X85617000Y-157773000D01*
X85637000Y-157773000D01*
X85637000Y-158027000D01*
X85617000Y-158027000D01*
X85617000Y-158047000D01*
X85363000Y-158047000D01*
X85363000Y-158027000D01*
X85343000Y-158027000D01*
X85343000Y-157773000D01*
X85363000Y-157773000D01*
X85363000Y-156579845D01*
X85133110Y-156458524D01*
X84723076Y-156628355D01*
X84294817Y-157018642D01*
X84227702Y-157161553D01*
X84000054Y-156820853D01*
X83518285Y-156498946D01*
X82950000Y-156385907D01*
X82381715Y-156498946D01*
X81899946Y-156820853D01*
X81680000Y-157150026D01*
X81460054Y-156820853D01*
X80978285Y-156498946D01*
X80410000Y-156385907D01*
X79841715Y-156498946D01*
X79359946Y-156820853D01*
X79140000Y-157150026D01*
X78920054Y-156820853D01*
X78438285Y-156498946D01*
X77870000Y-156385907D01*
X77301715Y-156498946D01*
X76819946Y-156820853D01*
X76600000Y-157150026D01*
X76380054Y-156820853D01*
X75898285Y-156498946D01*
X75330000Y-156385907D01*
X74761715Y-156498946D01*
X74279946Y-156820853D01*
X74060000Y-157150026D01*
X73840054Y-156820853D01*
X73679000Y-156713240D01*
X73679000Y-150535167D01*
X75764838Y-150535167D01*
X75906883Y-150878943D01*
X76169673Y-151142192D01*
X76513201Y-151284838D01*
X76885167Y-151285162D01*
X77228943Y-151143117D01*
X77492192Y-150880327D01*
X77632591Y-150542211D01*
X78289680Y-149885122D01*
X78335167Y-149885162D01*
X78678943Y-149743117D01*
X78942192Y-149480327D01*
X79084838Y-149136799D01*
X79085162Y-148764833D01*
X78943117Y-148421057D01*
X78680327Y-148157808D01*
X78336799Y-148015162D01*
X77964833Y-148014838D01*
X77621057Y-148156883D01*
X77357808Y-148419673D01*
X77215162Y-148763201D01*
X77215121Y-148810077D01*
X76613281Y-149411917D01*
X76608787Y-149414920D01*
X76514833Y-149414838D01*
X76171057Y-149556883D01*
X75907808Y-149819673D01*
X75765162Y-150163201D01*
X75764838Y-150535167D01*
X73679000Y-150535167D01*
X73679000Y-148678236D01*
X79368236Y-142989000D01*
X84266735Y-142989000D01*
X84215162Y-143113201D01*
G36*
X96461000Y-125988236D02*
X96461000Y-153444336D01*
X96278618Y-153171382D01*
X92137950Y-149030714D01*
X92228943Y-148993117D01*
X92492192Y-148730327D01*
X92634838Y-148386799D01*
X92635162Y-148014833D01*
X92493117Y-147671057D01*
X92460000Y-147637882D01*
X92460000Y-125067803D01*
X92584990Y-125370303D01*
X92977630Y-125763629D01*
X93490900Y-125976757D01*
X94046661Y-125977242D01*
X94560303Y-125765010D01*
X94953629Y-125372370D01*
X95166757Y-124859100D01*
X95166901Y-124694137D01*
X96461000Y-125988236D01*
X96461000Y-125988236D01*
G37*
X96461000Y-125988236D02*
X96461000Y-153444336D01*
X96278618Y-153171382D01*
X92137950Y-149030714D01*
X92228943Y-148993117D01*
X92492192Y-148730327D01*
X92634838Y-148386799D01*
X92635162Y-148014833D01*
X92493117Y-147671057D01*
X92460000Y-147637882D01*
X92460000Y-125067803D01*
X92584990Y-125370303D01*
X92977630Y-125763629D01*
X93490900Y-125976757D01*
X94046661Y-125977242D01*
X94560303Y-125765010D01*
X94953629Y-125372370D01*
X95166757Y-124859100D01*
X95166901Y-124694137D01*
X96461000Y-125988236D01*
G36*
X92372758Y-119776661D02*
X92584990Y-120290303D01*
X92977630Y-120683629D01*
X93185512Y-120769949D01*
X92979697Y-120854990D01*
X92586371Y-121247630D01*
X92449467Y-121577331D01*
X92230327Y-121357808D01*
X91886799Y-121215162D01*
X91514833Y-121214838D01*
X91171057Y-121356883D01*
X90907808Y-121619673D01*
X90765162Y-121963201D01*
X90764838Y-122335167D01*
X90906883Y-122678943D01*
X90940000Y-122712118D01*
X90940000Y-141228777D01*
X90786799Y-141165162D01*
X90414833Y-141164838D01*
X90303112Y-141211000D01*
X79663802Y-141211000D01*
X80794091Y-140080711D01*
X81562191Y-140080711D01*
X81594327Y-140112903D01*
X81937855Y-140255549D01*
X82309821Y-140255873D01*
X82653597Y-140113828D01*
X82916846Y-139851038D01*
X83059492Y-139507510D01*
X83059816Y-139135544D01*
X82917771Y-138791768D01*
X82654981Y-138528519D01*
X82311453Y-138385873D01*
X81939487Y-138385549D01*
X81595711Y-138527594D01*
X81562536Y-138560711D01*
X80479289Y-138560711D01*
X80188449Y-138618563D01*
X79941888Y-138783310D01*
X78510000Y-140215198D01*
X78510000Y-137464802D01*
X80739680Y-135235122D01*
X80785167Y-135235162D01*
X81128943Y-135093117D01*
X81392192Y-134830327D01*
X81534838Y-134486799D01*
X81535162Y-134114833D01*
X81393117Y-133771057D01*
X81130327Y-133507808D01*
X80786799Y-133365162D01*
X80414833Y-133364838D01*
X80071057Y-133506883D01*
X79807808Y-133769673D01*
X79665162Y-134113201D01*
X79665121Y-134160077D01*
X77212599Y-136612599D01*
X77047852Y-136859161D01*
X76990000Y-137150000D01*
X76990000Y-140437537D01*
X76957808Y-140469673D01*
X76815162Y-140813201D01*
X76814838Y-141185167D01*
X76956883Y-141528943D01*
X77076465Y-141648733D01*
X76960320Y-141764878D01*
X76914833Y-141764838D01*
X76571057Y-141906883D01*
X76307808Y-142169673D01*
X76165162Y-142513201D01*
X76164838Y-142885167D01*
X76306883Y-143228943D01*
X76460218Y-143382546D01*
X72360001Y-147482763D01*
X72360001Y-141676965D01*
X72527116Y-141677111D01*
X72870892Y-141535066D01*
X73134141Y-141272276D01*
X73276787Y-140928748D01*
X73277111Y-140556782D01*
X73135066Y-140213006D01*
X73110000Y-140187896D01*
X73110000Y-138764802D01*
X92372998Y-119501804D01*
X92372758Y-119776661D01*
X92372758Y-119776661D01*
G37*
X92372758Y-119776661D02*
X92584990Y-120290303D01*
X92977630Y-120683629D01*
X93185512Y-120769949D01*
X92979697Y-120854990D01*
X92586371Y-121247630D01*
X92449467Y-121577331D01*
X92230327Y-121357808D01*
X91886799Y-121215162D01*
X91514833Y-121214838D01*
X91171057Y-121356883D01*
X90907808Y-121619673D01*
X90765162Y-121963201D01*
X90764838Y-122335167D01*
X90906883Y-122678943D01*
X90940000Y-122712118D01*
X90940000Y-141228777D01*
X90786799Y-141165162D01*
X90414833Y-141164838D01*
X90303112Y-141211000D01*
X79663802Y-141211000D01*
X80794091Y-140080711D01*
X81562191Y-140080711D01*
X81594327Y-140112903D01*
X81937855Y-140255549D01*
X82309821Y-140255873D01*
X82653597Y-140113828D01*
X82916846Y-139851038D01*
X83059492Y-139507510D01*
X83059816Y-139135544D01*
X82917771Y-138791768D01*
X82654981Y-138528519D01*
X82311453Y-138385873D01*
X81939487Y-138385549D01*
X81595711Y-138527594D01*
X81562536Y-138560711D01*
X80479289Y-138560711D01*
X80188449Y-138618563D01*
X79941888Y-138783310D01*
X78510000Y-140215198D01*
X78510000Y-137464802D01*
X80739680Y-135235122D01*
X80785167Y-135235162D01*
X81128943Y-135093117D01*
X81392192Y-134830327D01*
X81534838Y-134486799D01*
X81535162Y-134114833D01*
X81393117Y-133771057D01*
X81130327Y-133507808D01*
X80786799Y-133365162D01*
X80414833Y-133364838D01*
X80071057Y-133506883D01*
X79807808Y-133769673D01*
X79665162Y-134113201D01*
X79665121Y-134160077D01*
X77212599Y-136612599D01*
X77047852Y-136859161D01*
X76990000Y-137150000D01*
X76990000Y-140437537D01*
X76957808Y-140469673D01*
X76815162Y-140813201D01*
X76814838Y-141185167D01*
X76956883Y-141528943D01*
X77076465Y-141648733D01*
X76960320Y-141764878D01*
X76914833Y-141764838D01*
X76571057Y-141906883D01*
X76307808Y-142169673D01*
X76165162Y-142513201D01*
X76164838Y-142885167D01*
X76306883Y-143228943D01*
X76460218Y-143382546D01*
X72360001Y-147482763D01*
X72360001Y-141676965D01*
X72527116Y-141677111D01*
X72870892Y-141535066D01*
X73134141Y-141272276D01*
X73276787Y-140928748D01*
X73277111Y-140556782D01*
X73135066Y-140213006D01*
X73110000Y-140187896D01*
X73110000Y-138764802D01*
X92372998Y-119501804D01*
X92372758Y-119776661D01*
G36*
X71692599Y-112417401D02*
X71939161Y-112582148D01*
X72230000Y-112640000D01*
X77332469Y-112640000D01*
X77344990Y-112670303D01*
X77737630Y-113063629D01*
X77945512Y-113149949D01*
X77739697Y-113234990D01*
X77346371Y-113627630D01*
X77133243Y-114140900D01*
X77132758Y-114696661D01*
X77344990Y-115210303D01*
X77737630Y-115603629D01*
X77945512Y-115689949D01*
X77739697Y-115774990D01*
X77346371Y-116167630D01*
X77133243Y-116680900D01*
X77132758Y-117236661D01*
X77344990Y-117750303D01*
X77737630Y-118143629D01*
X77945512Y-118229949D01*
X77739697Y-118314990D01*
X77346371Y-118707630D01*
X77133243Y-119220900D01*
X77132758Y-119776661D01*
X77344990Y-120290303D01*
X77737630Y-120683629D01*
X77945512Y-120769949D01*
X77739697Y-120854990D01*
X77346371Y-121247630D01*
X77133243Y-121760900D01*
X77132758Y-122316661D01*
X77344990Y-122830303D01*
X77737630Y-123223629D01*
X77945512Y-123309949D01*
X77739697Y-123394990D01*
X77346371Y-123787630D01*
X77133243Y-124300900D01*
X77132758Y-124856661D01*
X77344990Y-125370303D01*
X77737630Y-125763629D01*
X78250900Y-125976757D01*
X78806661Y-125977242D01*
X79320303Y-125765010D01*
X79490000Y-125595609D01*
X79490000Y-128335198D01*
X70516420Y-137308778D01*
X70516420Y-111241222D01*
X71692599Y-112417401D01*
X71692599Y-112417401D01*
G37*
X71692599Y-112417401D02*
X71939161Y-112582148D01*
X72230000Y-112640000D01*
X77332469Y-112640000D01*
X77344990Y-112670303D01*
X77737630Y-113063629D01*
X77945512Y-113149949D01*
X77739697Y-113234990D01*
X77346371Y-113627630D01*
X77133243Y-114140900D01*
X77132758Y-114696661D01*
X77344990Y-115210303D01*
X77737630Y-115603629D01*
X77945512Y-115689949D01*
X77739697Y-115774990D01*
X77346371Y-116167630D01*
X77133243Y-116680900D01*
X77132758Y-117236661D01*
X77344990Y-117750303D01*
X77737630Y-118143629D01*
X77945512Y-118229949D01*
X77739697Y-118314990D01*
X77346371Y-118707630D01*
X77133243Y-119220900D01*
X77132758Y-119776661D01*
X77344990Y-120290303D01*
X77737630Y-120683629D01*
X77945512Y-120769949D01*
X77739697Y-120854990D01*
X77346371Y-121247630D01*
X77133243Y-121760900D01*
X77132758Y-122316661D01*
X77344990Y-122830303D01*
X77737630Y-123223629D01*
X77945512Y-123309949D01*
X77739697Y-123394990D01*
X77346371Y-123787630D01*
X77133243Y-124300900D01*
X77132758Y-124856661D01*
X77344990Y-125370303D01*
X77737630Y-125763629D01*
X78250900Y-125976757D01*
X78806661Y-125977242D01*
X79320303Y-125765010D01*
X79490000Y-125595609D01*
X79490000Y-128335198D01*
X70516420Y-137308778D01*
X70516420Y-111241222D01*
X71692599Y-112417401D01*
G36*
X70986044Y-70596922D02*
X71650000Y-70728991D01*
X72313956Y-70596922D01*
X72389980Y-70546124D01*
X72389980Y-79649980D01*
X72447832Y-79940819D01*
X72612579Y-80187381D01*
X74164878Y-81739680D01*
X74164838Y-81785167D01*
X74306883Y-82128943D01*
X74569673Y-82392192D01*
X74913201Y-82534838D01*
X75285167Y-82535162D01*
X75628943Y-82393117D01*
X75675024Y-82347116D01*
X75919673Y-82592192D01*
X76263201Y-82734838D01*
X76635167Y-82735162D01*
X76861000Y-82641850D01*
X76861000Y-85300000D01*
X76928671Y-85640206D01*
X77121382Y-85928618D01*
X77409794Y-86121329D01*
X77750000Y-86189000D01*
X89681764Y-86189000D01*
X92373121Y-88880357D01*
X92372758Y-89296661D01*
X92584990Y-89810303D01*
X92977630Y-90203629D01*
X93169727Y-90283395D01*
X93038857Y-90337603D01*
X92969392Y-90579787D01*
X93770000Y-91380395D01*
X93784143Y-91366253D01*
X93963748Y-91545858D01*
X93949605Y-91560000D01*
X94750213Y-92360608D01*
X94992397Y-92291143D01*
X95179144Y-91767698D01*
X95174859Y-91682095D01*
X96411000Y-92918236D01*
X96411000Y-109802811D01*
X96365162Y-109913201D01*
X96364838Y-110285167D01*
X96506883Y-110628943D01*
X96769673Y-110892192D01*
X97113201Y-111034838D01*
X97485167Y-111035162D01*
X97715001Y-110940197D01*
X97715001Y-114610196D01*
X95166827Y-117158370D01*
X95167242Y-116683339D01*
X94955010Y-116169697D01*
X94562370Y-115776371D01*
X94354488Y-115690051D01*
X94560303Y-115605010D01*
X94953629Y-115212370D01*
X95166757Y-114699100D01*
X95167242Y-114143339D01*
X94955010Y-113629697D01*
X94562370Y-113236371D01*
X94354488Y-113150051D01*
X94560303Y-113065010D01*
X94953629Y-112672370D01*
X95166757Y-112159100D01*
X95167242Y-111603339D01*
X94955010Y-111089697D01*
X94562370Y-110696371D01*
X94354488Y-110610051D01*
X94560303Y-110525010D01*
X94953629Y-110132370D01*
X95166757Y-109619100D01*
X95167242Y-109063339D01*
X94955010Y-108549697D01*
X94562370Y-108156371D01*
X94354488Y-108070051D01*
X94560303Y-107985010D01*
X94953629Y-107592370D01*
X95166757Y-107079100D01*
X95167242Y-106523339D01*
X94955010Y-106009697D01*
X94562370Y-105616371D01*
X94354488Y-105530051D01*
X94560303Y-105445010D01*
X94953629Y-105052370D01*
X95166757Y-104539100D01*
X95167242Y-103983339D01*
X94955010Y-103469697D01*
X94562370Y-103076371D01*
X94354488Y-102990051D01*
X94560303Y-102905010D01*
X94953629Y-102512370D01*
X95166757Y-101999100D01*
X95167242Y-101443339D01*
X94955010Y-100929697D01*
X94562370Y-100536371D01*
X94354488Y-100450051D01*
X94560303Y-100365010D01*
X94953629Y-99972370D01*
X95166757Y-99459100D01*
X95167242Y-98903339D01*
X94955010Y-98389697D01*
X94562370Y-97996371D01*
X94354488Y-97910051D01*
X94560303Y-97825010D01*
X94953629Y-97432370D01*
X95166757Y-96919100D01*
X95167242Y-96363339D01*
X94955010Y-95849697D01*
X94562370Y-95456371D01*
X94354488Y-95370051D01*
X94560303Y-95285010D01*
X94953629Y-94892370D01*
X95166757Y-94379100D01*
X95167242Y-93823339D01*
X94955010Y-93309697D01*
X94562370Y-92916371D01*
X94370273Y-92836605D01*
X94501143Y-92782397D01*
X94570608Y-92540213D01*
X93770000Y-91739605D01*
X92969392Y-92540213D01*
X93038857Y-92782397D01*
X93179318Y-92832509D01*
X92979697Y-92914990D01*
X92586371Y-93307630D01*
X92373243Y-93820900D01*
X92372758Y-94376661D01*
X92584990Y-94890303D01*
X92977630Y-95283629D01*
X93185512Y-95369949D01*
X92979697Y-95454990D01*
X92586371Y-95847630D01*
X92373243Y-96360900D01*
X92372758Y-96916661D01*
X92584990Y-97430303D01*
X92977630Y-97823629D01*
X93185512Y-97909949D01*
X92979697Y-97994990D01*
X92586371Y-98387630D01*
X92373243Y-98900900D01*
X92372758Y-99456661D01*
X92584990Y-99970303D01*
X92977630Y-100363629D01*
X93185512Y-100449949D01*
X92979697Y-100534990D01*
X92586371Y-100927630D01*
X92373243Y-101440900D01*
X92372758Y-101996661D01*
X92584990Y-102510303D01*
X92977630Y-102903629D01*
X93185512Y-102989949D01*
X92979697Y-103074990D01*
X92586371Y-103467630D01*
X92373243Y-103980900D01*
X92372758Y-104536661D01*
X92584990Y-105050303D01*
X92977630Y-105443629D01*
X93185512Y-105529949D01*
X92979697Y-105614990D01*
X92586371Y-106007630D01*
X92373243Y-106520900D01*
X92372758Y-107076661D01*
X92584990Y-107590303D01*
X92977630Y-107983629D01*
X93185512Y-108069949D01*
X92979697Y-108154990D01*
X92586371Y-108547630D01*
X92373243Y-109060900D01*
X92372758Y-109616661D01*
X92584990Y-110130303D01*
X92977630Y-110523629D01*
X93185512Y-110609949D01*
X92979697Y-110694990D01*
X92586371Y-111087630D01*
X92373243Y-111600900D01*
X92372758Y-112156661D01*
X92584990Y-112670303D01*
X92977630Y-113063629D01*
X93185512Y-113149949D01*
X92979697Y-113234990D01*
X92586371Y-113627630D01*
X92373243Y-114140900D01*
X92372758Y-114696661D01*
X92584990Y-115210303D01*
X92977630Y-115603629D01*
X93185512Y-115689949D01*
X92979697Y-115774990D01*
X92586371Y-116167630D01*
X92373243Y-116680900D01*
X92372758Y-117236661D01*
X92482946Y-117503338D01*
X92259161Y-117547852D01*
X92012599Y-117712599D01*
X81710000Y-128015198D01*
X81710000Y-101600000D01*
X81652148Y-101309161D01*
X81487401Y-101062599D01*
X79914183Y-99489381D01*
X79926757Y-99459100D01*
X79927242Y-98903339D01*
X79715010Y-98389697D01*
X79322370Y-97996371D01*
X79130273Y-97916605D01*
X79261143Y-97862397D01*
X79330608Y-97620213D01*
X78530000Y-96819605D01*
X77729392Y-97620213D01*
X77798857Y-97862397D01*
X77939318Y-97912509D01*
X77739697Y-97994990D01*
X77346371Y-98387630D01*
X77133243Y-98900900D01*
X77132758Y-99456661D01*
X77344990Y-99970303D01*
X77737630Y-100363629D01*
X77945512Y-100449949D01*
X77739697Y-100534990D01*
X77346371Y-100927630D01*
X77133243Y-101440900D01*
X77132758Y-101996661D01*
X77344990Y-102510303D01*
X77737630Y-102903629D01*
X77945512Y-102989949D01*
X77739697Y-103074990D01*
X77346371Y-103467630D01*
X77133243Y-103980900D01*
X77132758Y-104536661D01*
X77344990Y-105050303D01*
X77737630Y-105443629D01*
X77945512Y-105529949D01*
X77739697Y-105614990D01*
X77346371Y-106007630D01*
X77133243Y-106520900D01*
X77132758Y-107076661D01*
X77344990Y-107590303D01*
X77737630Y-107983629D01*
X77945512Y-108069949D01*
X77739697Y-108154990D01*
X77346371Y-108547630D01*
X77270644Y-108730000D01*
X73472954Y-108730000D01*
X73279147Y-108439946D01*
X73235223Y-108410597D01*
X73409698Y-108338327D01*
X73588327Y-108159699D01*
X73685000Y-107926310D01*
X73685000Y-107235750D01*
X73526250Y-107077000D01*
X72327000Y-107077000D01*
X72327000Y-107097000D01*
X72073000Y-107097000D01*
X72073000Y-107077000D01*
X72053000Y-107077000D01*
X72053000Y-106823000D01*
X72073000Y-106823000D01*
X72073000Y-105623750D01*
X72327000Y-105623750D01*
X72327000Y-106823000D01*
X73526250Y-106823000D01*
X73685000Y-106664250D01*
X73685000Y-105973690D01*
X73588327Y-105740301D01*
X73409698Y-105561673D01*
X73176309Y-105465000D01*
X72485750Y-105465000D01*
X72327000Y-105623750D01*
X72073000Y-105623750D01*
X71914250Y-105465000D01*
X71660000Y-105465000D01*
X71660000Y-96432302D01*
X77120856Y-96432302D01*
X77148638Y-96987368D01*
X77307603Y-97371143D01*
X77549787Y-97440608D01*
X78350395Y-96640000D01*
X78709605Y-96640000D01*
X79510213Y-97440608D01*
X79752397Y-97371143D01*
X79939144Y-96847698D01*
X79911362Y-96292632D01*
X79752397Y-95908857D01*
X79510213Y-95839392D01*
X78709605Y-96640000D01*
X78350395Y-96640000D01*
X77549787Y-95839392D01*
X77307603Y-95908857D01*
X77120856Y-96432302D01*
X71660000Y-96432302D01*
X71660000Y-94197440D01*
X73050000Y-94197440D01*
X73285317Y-94153162D01*
X73501441Y-94014090D01*
X73646431Y-93801890D01*
X73697440Y-93550000D01*
X73697440Y-91850000D01*
X73653162Y-91614683D01*
X73514090Y-91398559D01*
X73301890Y-91253569D01*
X73050000Y-91202560D01*
X71660000Y-91202560D01*
X71660000Y-89296661D01*
X77132758Y-89296661D01*
X77344990Y-89810303D01*
X77737630Y-90203629D01*
X77945512Y-90289949D01*
X77739697Y-90374990D01*
X77346371Y-90767630D01*
X77133243Y-91280900D01*
X77132758Y-91836661D01*
X77344990Y-92350303D01*
X77737630Y-92743629D01*
X77945512Y-92829949D01*
X77739697Y-92914990D01*
X77346371Y-93307630D01*
X77133243Y-93820900D01*
X77132758Y-94376661D01*
X77344990Y-94890303D01*
X77737630Y-95283629D01*
X77929727Y-95363395D01*
X77798857Y-95417603D01*
X77729392Y-95659787D01*
X78530000Y-96460395D01*
X79330608Y-95659787D01*
X79261143Y-95417603D01*
X79120682Y-95367491D01*
X79320303Y-95285010D01*
X79713629Y-94892370D01*
X79926757Y-94379100D01*
X79927242Y-93823339D01*
X79715010Y-93309697D01*
X79322370Y-92916371D01*
X79114488Y-92830051D01*
X79320303Y-92745010D01*
X79713629Y-92352370D01*
X79926757Y-91839100D01*
X79927181Y-91352302D01*
X92360856Y-91352302D01*
X92388638Y-91907368D01*
X92547603Y-92291143D01*
X92789787Y-92360608D01*
X93590395Y-91560000D01*
X92789787Y-90759392D01*
X92547603Y-90828857D01*
X92360856Y-91352302D01*
X79927181Y-91352302D01*
X79927242Y-91283339D01*
X79715010Y-90769697D01*
X79322370Y-90376371D01*
X79114488Y-90290051D01*
X79320303Y-90205010D01*
X79713629Y-89812370D01*
X79926757Y-89299100D01*
X79927242Y-88743339D01*
X79715010Y-88229697D01*
X79322370Y-87836371D01*
X78809100Y-87623243D01*
X78253339Y-87622758D01*
X77739697Y-87834990D01*
X77346371Y-88227630D01*
X77133243Y-88740900D01*
X77132758Y-89296661D01*
X71660000Y-89296661D01*
X71660000Y-74062463D01*
X71692192Y-74030327D01*
X71834838Y-73686799D01*
X71835162Y-73314833D01*
X71693117Y-72971057D01*
X71430327Y-72707808D01*
X71086799Y-72565162D01*
X70714833Y-72564838D01*
X70516420Y-72646820D01*
X70516420Y-70283129D01*
X70986044Y-70596922D01*
X70986044Y-70596922D01*
G37*
X70986044Y-70596922D02*
X71650000Y-70728991D01*
X72313956Y-70596922D01*
X72389980Y-70546124D01*
X72389980Y-79649980D01*
X72447832Y-79940819D01*
X72612579Y-80187381D01*
X74164878Y-81739680D01*
X74164838Y-81785167D01*
X74306883Y-82128943D01*
X74569673Y-82392192D01*
X74913201Y-82534838D01*
X75285167Y-82535162D01*
X75628943Y-82393117D01*
X75675024Y-82347116D01*
X75919673Y-82592192D01*
X76263201Y-82734838D01*
X76635167Y-82735162D01*
X76861000Y-82641850D01*
X76861000Y-85300000D01*
X76928671Y-85640206D01*
X77121382Y-85928618D01*
X77409794Y-86121329D01*
X77750000Y-86189000D01*
X89681764Y-86189000D01*
X92373121Y-88880357D01*
X92372758Y-89296661D01*
X92584990Y-89810303D01*
X92977630Y-90203629D01*
X93169727Y-90283395D01*
X93038857Y-90337603D01*
X92969392Y-90579787D01*
X93770000Y-91380395D01*
X93784143Y-91366253D01*
X93963748Y-91545858D01*
X93949605Y-91560000D01*
X94750213Y-92360608D01*
X94992397Y-92291143D01*
X95179144Y-91767698D01*
X95174859Y-91682095D01*
X96411000Y-92918236D01*
X96411000Y-109802811D01*
X96365162Y-109913201D01*
X96364838Y-110285167D01*
X96506883Y-110628943D01*
X96769673Y-110892192D01*
X97113201Y-111034838D01*
X97485167Y-111035162D01*
X97715001Y-110940197D01*
X97715001Y-114610196D01*
X95166827Y-117158370D01*
X95167242Y-116683339D01*
X94955010Y-116169697D01*
X94562370Y-115776371D01*
X94354488Y-115690051D01*
X94560303Y-115605010D01*
X94953629Y-115212370D01*
X95166757Y-114699100D01*
X95167242Y-114143339D01*
X94955010Y-113629697D01*
X94562370Y-113236371D01*
X94354488Y-113150051D01*
X94560303Y-113065010D01*
X94953629Y-112672370D01*
X95166757Y-112159100D01*
X95167242Y-111603339D01*
X94955010Y-111089697D01*
X94562370Y-110696371D01*
X94354488Y-110610051D01*
X94560303Y-110525010D01*
X94953629Y-110132370D01*
X95166757Y-109619100D01*
X95167242Y-109063339D01*
X94955010Y-108549697D01*
X94562370Y-108156371D01*
X94354488Y-108070051D01*
X94560303Y-107985010D01*
X94953629Y-107592370D01*
X95166757Y-107079100D01*
X95167242Y-106523339D01*
X94955010Y-106009697D01*
X94562370Y-105616371D01*
X94354488Y-105530051D01*
X94560303Y-105445010D01*
X94953629Y-105052370D01*
X95166757Y-104539100D01*
X95167242Y-103983339D01*
X94955010Y-103469697D01*
X94562370Y-103076371D01*
X94354488Y-102990051D01*
X94560303Y-102905010D01*
X94953629Y-102512370D01*
X95166757Y-101999100D01*
X95167242Y-101443339D01*
X94955010Y-100929697D01*
X94562370Y-100536371D01*
X94354488Y-100450051D01*
X94560303Y-100365010D01*
X94953629Y-99972370D01*
X95166757Y-99459100D01*
X95167242Y-98903339D01*
X94955010Y-98389697D01*
X94562370Y-97996371D01*
X94354488Y-97910051D01*
X94560303Y-97825010D01*
X94953629Y-97432370D01*
X95166757Y-96919100D01*
X95167242Y-96363339D01*
X94955010Y-95849697D01*
X94562370Y-95456371D01*
X94354488Y-95370051D01*
X94560303Y-95285010D01*
X94953629Y-94892370D01*
X95166757Y-94379100D01*
X95167242Y-93823339D01*
X94955010Y-93309697D01*
X94562370Y-92916371D01*
X94370273Y-92836605D01*
X94501143Y-92782397D01*
X94570608Y-92540213D01*
X93770000Y-91739605D01*
X92969392Y-92540213D01*
X93038857Y-92782397D01*
X93179318Y-92832509D01*
X92979697Y-92914990D01*
X92586371Y-93307630D01*
X92373243Y-93820900D01*
X92372758Y-94376661D01*
X92584990Y-94890303D01*
X92977630Y-95283629D01*
X93185512Y-95369949D01*
X92979697Y-95454990D01*
X92586371Y-95847630D01*
X92373243Y-96360900D01*
X92372758Y-96916661D01*
X92584990Y-97430303D01*
X92977630Y-97823629D01*
X93185512Y-97909949D01*
X92979697Y-97994990D01*
X92586371Y-98387630D01*
X92373243Y-98900900D01*
X92372758Y-99456661D01*
X92584990Y-99970303D01*
X92977630Y-100363629D01*
X93185512Y-100449949D01*
X92979697Y-100534990D01*
X92586371Y-100927630D01*
X92373243Y-101440900D01*
X92372758Y-101996661D01*
X92584990Y-102510303D01*
X92977630Y-102903629D01*
X93185512Y-102989949D01*
X92979697Y-103074990D01*
X92586371Y-103467630D01*
X92373243Y-103980900D01*
X92372758Y-104536661D01*
X92584990Y-105050303D01*
X92977630Y-105443629D01*
X93185512Y-105529949D01*
X92979697Y-105614990D01*
X92586371Y-106007630D01*
X92373243Y-106520900D01*
X92372758Y-107076661D01*
X92584990Y-107590303D01*
X92977630Y-107983629D01*
X93185512Y-108069949D01*
X92979697Y-108154990D01*
X92586371Y-108547630D01*
X92373243Y-109060900D01*
X92372758Y-109616661D01*
X92584990Y-110130303D01*
X92977630Y-110523629D01*
X93185512Y-110609949D01*
X92979697Y-110694990D01*
X92586371Y-111087630D01*
X92373243Y-111600900D01*
X92372758Y-112156661D01*
X92584990Y-112670303D01*
X92977630Y-113063629D01*
X93185512Y-113149949D01*
X92979697Y-113234990D01*
X92586371Y-113627630D01*
X92373243Y-114140900D01*
X92372758Y-114696661D01*
X92584990Y-115210303D01*
X92977630Y-115603629D01*
X93185512Y-115689949D01*
X92979697Y-115774990D01*
X92586371Y-116167630D01*
X92373243Y-116680900D01*
X92372758Y-117236661D01*
X92482946Y-117503338D01*
X92259161Y-117547852D01*
X92012599Y-117712599D01*
X81710000Y-128015198D01*
X81710000Y-101600000D01*
X81652148Y-101309161D01*
X81487401Y-101062599D01*
X79914183Y-99489381D01*
X79926757Y-99459100D01*
X79927242Y-98903339D01*
X79715010Y-98389697D01*
X79322370Y-97996371D01*
X79130273Y-97916605D01*
X79261143Y-97862397D01*
X79330608Y-97620213D01*
X78530000Y-96819605D01*
X77729392Y-97620213D01*
X77798857Y-97862397D01*
X77939318Y-97912509D01*
X77739697Y-97994990D01*
X77346371Y-98387630D01*
X77133243Y-98900900D01*
X77132758Y-99456661D01*
X77344990Y-99970303D01*
X77737630Y-100363629D01*
X77945512Y-100449949D01*
X77739697Y-100534990D01*
X77346371Y-100927630D01*
X77133243Y-101440900D01*
X77132758Y-101996661D01*
X77344990Y-102510303D01*
X77737630Y-102903629D01*
X77945512Y-102989949D01*
X77739697Y-103074990D01*
X77346371Y-103467630D01*
X77133243Y-103980900D01*
X77132758Y-104536661D01*
X77344990Y-105050303D01*
X77737630Y-105443629D01*
X77945512Y-105529949D01*
X77739697Y-105614990D01*
X77346371Y-106007630D01*
X77133243Y-106520900D01*
X77132758Y-107076661D01*
X77344990Y-107590303D01*
X77737630Y-107983629D01*
X77945512Y-108069949D01*
X77739697Y-108154990D01*
X77346371Y-108547630D01*
X77270644Y-108730000D01*
X73472954Y-108730000D01*
X73279147Y-108439946D01*
X73235223Y-108410597D01*
X73409698Y-108338327D01*
X73588327Y-108159699D01*
X73685000Y-107926310D01*
X73685000Y-107235750D01*
X73526250Y-107077000D01*
X72327000Y-107077000D01*
X72327000Y-107097000D01*
X72073000Y-107097000D01*
X72073000Y-107077000D01*
X72053000Y-107077000D01*
X72053000Y-106823000D01*
X72073000Y-106823000D01*
X72073000Y-105623750D01*
X72327000Y-105623750D01*
X72327000Y-106823000D01*
X73526250Y-106823000D01*
X73685000Y-106664250D01*
X73685000Y-105973690D01*
X73588327Y-105740301D01*
X73409698Y-105561673D01*
X73176309Y-105465000D01*
X72485750Y-105465000D01*
X72327000Y-105623750D01*
X72073000Y-105623750D01*
X71914250Y-105465000D01*
X71660000Y-105465000D01*
X71660000Y-96432302D01*
X77120856Y-96432302D01*
X77148638Y-96987368D01*
X77307603Y-97371143D01*
X77549787Y-97440608D01*
X78350395Y-96640000D01*
X78709605Y-96640000D01*
X79510213Y-97440608D01*
X79752397Y-97371143D01*
X79939144Y-96847698D01*
X79911362Y-96292632D01*
X79752397Y-95908857D01*
X79510213Y-95839392D01*
X78709605Y-96640000D01*
X78350395Y-96640000D01*
X77549787Y-95839392D01*
X77307603Y-95908857D01*
X77120856Y-96432302D01*
X71660000Y-96432302D01*
X71660000Y-94197440D01*
X73050000Y-94197440D01*
X73285317Y-94153162D01*
X73501441Y-94014090D01*
X73646431Y-93801890D01*
X73697440Y-93550000D01*
X73697440Y-91850000D01*
X73653162Y-91614683D01*
X73514090Y-91398559D01*
X73301890Y-91253569D01*
X73050000Y-91202560D01*
X71660000Y-91202560D01*
X71660000Y-89296661D01*
X77132758Y-89296661D01*
X77344990Y-89810303D01*
X77737630Y-90203629D01*
X77945512Y-90289949D01*
X77739697Y-90374990D01*
X77346371Y-90767630D01*
X77133243Y-91280900D01*
X77132758Y-91836661D01*
X77344990Y-92350303D01*
X77737630Y-92743629D01*
X77945512Y-92829949D01*
X77739697Y-92914990D01*
X77346371Y-93307630D01*
X77133243Y-93820900D01*
X77132758Y-94376661D01*
X77344990Y-94890303D01*
X77737630Y-95283629D01*
X77929727Y-95363395D01*
X77798857Y-95417603D01*
X77729392Y-95659787D01*
X78530000Y-96460395D01*
X79330608Y-95659787D01*
X79261143Y-95417603D01*
X79120682Y-95367491D01*
X79320303Y-95285010D01*
X79713629Y-94892370D01*
X79926757Y-94379100D01*
X79927242Y-93823339D01*
X79715010Y-93309697D01*
X79322370Y-92916371D01*
X79114488Y-92830051D01*
X79320303Y-92745010D01*
X79713629Y-92352370D01*
X79926757Y-91839100D01*
X79927181Y-91352302D01*
X92360856Y-91352302D01*
X92388638Y-91907368D01*
X92547603Y-92291143D01*
X92789787Y-92360608D01*
X93590395Y-91560000D01*
X92789787Y-90759392D01*
X92547603Y-90828857D01*
X92360856Y-91352302D01*
X79927181Y-91352302D01*
X79927242Y-91283339D01*
X79715010Y-90769697D01*
X79322370Y-90376371D01*
X79114488Y-90290051D01*
X79320303Y-90205010D01*
X79713629Y-89812370D01*
X79926757Y-89299100D01*
X79927242Y-88743339D01*
X79715010Y-88229697D01*
X79322370Y-87836371D01*
X78809100Y-87623243D01*
X78253339Y-87622758D01*
X77739697Y-87834990D01*
X77346371Y-88227630D01*
X77133243Y-88740900D01*
X77132758Y-89296661D01*
X71660000Y-89296661D01*
X71660000Y-74062463D01*
X71692192Y-74030327D01*
X71834838Y-73686799D01*
X71835162Y-73314833D01*
X71693117Y-72971057D01*
X71430327Y-72707808D01*
X71086799Y-72565162D01*
X70714833Y-72564838D01*
X70516420Y-72646820D01*
X70516420Y-70283129D01*
X70986044Y-70596922D01*
G36*
X95704290Y-67303526D02*
X95498559Y-67435910D01*
X95353569Y-67648110D01*
X95302560Y-67900000D01*
X95302560Y-70100000D01*
X95346838Y-70335317D01*
X95485910Y-70551441D01*
X95698110Y-70696431D01*
X95950000Y-70747440D01*
X97715001Y-70747440D01*
X97715001Y-91707765D01*
X95166879Y-89159643D01*
X95167242Y-88743339D01*
X94955010Y-88229697D01*
X94562370Y-87836371D01*
X94049100Y-87623243D01*
X93630113Y-87622877D01*
X90911046Y-84903810D01*
X91178943Y-84793117D01*
X91442192Y-84530327D01*
X91584838Y-84186799D01*
X91585162Y-83814833D01*
X91443117Y-83471057D01*
X91180327Y-83207808D01*
X90836799Y-83065162D01*
X90464833Y-83064838D01*
X90394455Y-83093917D01*
X89260000Y-81959462D01*
X89260000Y-80187419D01*
X89317192Y-80130327D01*
X89459838Y-79786799D01*
X89460162Y-79414833D01*
X89318117Y-79071057D01*
X89055327Y-78807808D01*
X88711799Y-78665162D01*
X88339833Y-78664838D01*
X87996057Y-78806883D01*
X87732808Y-79069673D01*
X87590162Y-79413201D01*
X87589838Y-79785167D01*
X87731883Y-80128943D01*
X87740000Y-80137074D01*
X87740000Y-82274264D01*
X87797852Y-82565103D01*
X87962599Y-82811665D01*
X89561934Y-84411000D01*
X78639000Y-84411000D01*
X78639000Y-75408000D01*
X78571329Y-75067794D01*
X78378618Y-74779382D01*
X77184403Y-73585167D01*
X79614838Y-73585167D01*
X79756883Y-73928943D01*
X80019673Y-74192192D01*
X80363201Y-74334838D01*
X80735167Y-74335162D01*
X81078943Y-74193117D01*
X81342192Y-73930327D01*
X81484838Y-73586799D01*
X81485162Y-73214833D01*
X81439000Y-73103112D01*
X81439000Y-71655866D01*
X82138618Y-70956248D01*
X82178878Y-70895995D01*
X82331329Y-70667836D01*
X82396802Y-70338679D01*
X82693629Y-70042370D01*
X82906757Y-69529100D01*
X82907242Y-68973339D01*
X82695010Y-68459697D01*
X82302370Y-68066371D01*
X81789100Y-67853243D01*
X81233339Y-67852758D01*
X80719697Y-68064990D01*
X80326371Y-68457630D01*
X80113243Y-68970900D01*
X80112758Y-69526661D01*
X80324990Y-70040303D01*
X80432447Y-70147947D01*
X79921382Y-70659012D01*
X79728671Y-70947424D01*
X79661000Y-71287630D01*
X79661000Y-73102811D01*
X79615162Y-73213201D01*
X79614838Y-73585167D01*
X77184403Y-73585167D01*
X76528249Y-72929013D01*
X76551441Y-72914090D01*
X76555977Y-72907452D01*
X77083223Y-73096965D01*
X77653454Y-73069778D01*
X78054005Y-72903864D01*
X78128139Y-72657745D01*
X77300000Y-71829605D01*
X77285858Y-71843748D01*
X77106253Y-71664143D01*
X77120395Y-71650000D01*
X77479605Y-71650000D01*
X78307745Y-72478139D01*
X78553864Y-72404005D01*
X78746965Y-71866777D01*
X78719778Y-71296546D01*
X78553864Y-70895995D01*
X78307745Y-70821861D01*
X77479605Y-71650000D01*
X77120395Y-71650000D01*
X77106253Y-71635858D01*
X77285858Y-71456252D01*
X77300000Y-71470395D01*
X78128139Y-70642255D01*
X78054005Y-70396136D01*
X77516777Y-70203035D01*
X76946546Y-70230222D01*
X76555053Y-70392384D01*
X76351890Y-70253569D01*
X76100000Y-70202560D01*
X75672242Y-70202560D01*
X78864802Y-67010000D01*
X80950000Y-67010000D01*
X81240839Y-66952148D01*
X81487401Y-66787401D01*
X83337401Y-64937401D01*
X83502148Y-64690839D01*
X83526860Y-64566605D01*
X83842302Y-64679144D01*
X84397368Y-64651362D01*
X84590000Y-64571571D01*
X84590000Y-71335198D01*
X79810320Y-76114878D01*
X79764833Y-76114838D01*
X79421057Y-76256883D01*
X79157808Y-76519673D01*
X79015162Y-76863201D01*
X79014838Y-77235167D01*
X79156883Y-77578943D01*
X79419673Y-77842192D01*
X79763201Y-77984838D01*
X80135167Y-77985162D01*
X80478943Y-77843117D01*
X80742192Y-77580327D01*
X80884838Y-77236799D01*
X80884879Y-77189923D01*
X85887401Y-72187401D01*
X86052148Y-71940840D01*
X86110000Y-71650000D01*
X86110000Y-70561996D01*
X86382302Y-70659144D01*
X86937368Y-70631362D01*
X87090000Y-70568140D01*
X87090000Y-73185198D01*
X84510320Y-75764878D01*
X84464833Y-75764838D01*
X84121057Y-75906883D01*
X83857808Y-76169673D01*
X83715162Y-76513201D01*
X83714838Y-76885167D01*
X83856883Y-77228943D01*
X84119673Y-77492192D01*
X84463201Y-77634838D01*
X84835167Y-77635162D01*
X85178943Y-77493117D01*
X85442192Y-77230327D01*
X85584838Y-76886799D01*
X85584879Y-76839923D01*
X88387401Y-74037401D01*
X88552148Y-73790840D01*
X88610000Y-73500000D01*
X88610000Y-71935750D01*
X89965000Y-71935750D01*
X89965000Y-72576310D01*
X90061673Y-72809699D01*
X90240302Y-72988327D01*
X90473691Y-73085000D01*
X91114250Y-73085000D01*
X91273000Y-72926250D01*
X91273000Y-71777000D01*
X90123750Y-71777000D01*
X89965000Y-71935750D01*
X88610000Y-71935750D01*
X88610000Y-70723690D01*
X89965000Y-70723690D01*
X89965000Y-71364250D01*
X90123750Y-71523000D01*
X91273000Y-71523000D01*
X91273000Y-70373750D01*
X91527000Y-70373750D01*
X91527000Y-71523000D01*
X91547000Y-71523000D01*
X91547000Y-71777000D01*
X91527000Y-71777000D01*
X91527000Y-72926250D01*
X91685750Y-73085000D01*
X92326309Y-73085000D01*
X92559698Y-72988327D01*
X92653998Y-72894027D01*
X93113309Y-73084750D01*
X93684187Y-73085248D01*
X94211800Y-72867243D01*
X94615824Y-72463923D01*
X94834750Y-71936691D01*
X94835248Y-71365813D01*
X94617243Y-70838200D01*
X94213923Y-70434176D01*
X93686691Y-70215250D01*
X93115813Y-70214752D01*
X92653713Y-70405688D01*
X92559698Y-70311673D01*
X92326309Y-70215000D01*
X91685750Y-70215000D01*
X91527000Y-70373750D01*
X91273000Y-70373750D01*
X91114250Y-70215000D01*
X90473691Y-70215000D01*
X90240302Y-70311673D01*
X90061673Y-70490301D01*
X89965000Y-70723690D01*
X88610000Y-70723690D01*
X88610000Y-64566727D01*
X88850900Y-64666757D01*
X89406661Y-64667242D01*
X89920303Y-64455010D01*
X90216830Y-64159000D01*
X92559764Y-64159000D01*
X95704290Y-67303526D01*
X95704290Y-67303526D01*
G37*
X95704290Y-67303526D02*
X95498559Y-67435910D01*
X95353569Y-67648110D01*
X95302560Y-67900000D01*
X95302560Y-70100000D01*
X95346838Y-70335317D01*
X95485910Y-70551441D01*
X95698110Y-70696431D01*
X95950000Y-70747440D01*
X97715001Y-70747440D01*
X97715001Y-91707765D01*
X95166879Y-89159643D01*
X95167242Y-88743339D01*
X94955010Y-88229697D01*
X94562370Y-87836371D01*
X94049100Y-87623243D01*
X93630113Y-87622877D01*
X90911046Y-84903810D01*
X91178943Y-84793117D01*
X91442192Y-84530327D01*
X91584838Y-84186799D01*
X91585162Y-83814833D01*
X91443117Y-83471057D01*
X91180327Y-83207808D01*
X90836799Y-83065162D01*
X90464833Y-83064838D01*
X90394455Y-83093917D01*
X89260000Y-81959462D01*
X89260000Y-80187419D01*
X89317192Y-80130327D01*
X89459838Y-79786799D01*
X89460162Y-79414833D01*
X89318117Y-79071057D01*
X89055327Y-78807808D01*
X88711799Y-78665162D01*
X88339833Y-78664838D01*
X87996057Y-78806883D01*
X87732808Y-79069673D01*
X87590162Y-79413201D01*
X87589838Y-79785167D01*
X87731883Y-80128943D01*
X87740000Y-80137074D01*
X87740000Y-82274264D01*
X87797852Y-82565103D01*
X87962599Y-82811665D01*
X89561934Y-84411000D01*
X78639000Y-84411000D01*
X78639000Y-75408000D01*
X78571329Y-75067794D01*
X78378618Y-74779382D01*
X77184403Y-73585167D01*
X79614838Y-73585167D01*
X79756883Y-73928943D01*
X80019673Y-74192192D01*
X80363201Y-74334838D01*
X80735167Y-74335162D01*
X81078943Y-74193117D01*
X81342192Y-73930327D01*
X81484838Y-73586799D01*
X81485162Y-73214833D01*
X81439000Y-73103112D01*
X81439000Y-71655866D01*
X82138618Y-70956248D01*
X82178878Y-70895995D01*
X82331329Y-70667836D01*
X82396802Y-70338679D01*
X82693629Y-70042370D01*
X82906757Y-69529100D01*
X82907242Y-68973339D01*
X82695010Y-68459697D01*
X82302370Y-68066371D01*
X81789100Y-67853243D01*
X81233339Y-67852758D01*
X80719697Y-68064990D01*
X80326371Y-68457630D01*
X80113243Y-68970900D01*
X80112758Y-69526661D01*
X80324990Y-70040303D01*
X80432447Y-70147947D01*
X79921382Y-70659012D01*
X79728671Y-70947424D01*
X79661000Y-71287630D01*
X79661000Y-73102811D01*
X79615162Y-73213201D01*
X79614838Y-73585167D01*
X77184403Y-73585167D01*
X76528249Y-72929013D01*
X76551441Y-72914090D01*
X76555977Y-72907452D01*
X77083223Y-73096965D01*
X77653454Y-73069778D01*
X78054005Y-72903864D01*
X78128139Y-72657745D01*
X77300000Y-71829605D01*
X77285858Y-71843748D01*
X77106253Y-71664143D01*
X77120395Y-71650000D01*
X77479605Y-71650000D01*
X78307745Y-72478139D01*
X78553864Y-72404005D01*
X78746965Y-71866777D01*
X78719778Y-71296546D01*
X78553864Y-70895995D01*
X78307745Y-70821861D01*
X77479605Y-71650000D01*
X77120395Y-71650000D01*
X77106253Y-71635858D01*
X77285858Y-71456252D01*
X77300000Y-71470395D01*
X78128139Y-70642255D01*
X78054005Y-70396136D01*
X77516777Y-70203035D01*
X76946546Y-70230222D01*
X76555053Y-70392384D01*
X76351890Y-70253569D01*
X76100000Y-70202560D01*
X75672242Y-70202560D01*
X78864802Y-67010000D01*
X80950000Y-67010000D01*
X81240839Y-66952148D01*
X81487401Y-66787401D01*
X83337401Y-64937401D01*
X83502148Y-64690839D01*
X83526860Y-64566605D01*
X83842302Y-64679144D01*
X84397368Y-64651362D01*
X84590000Y-64571571D01*
X84590000Y-71335198D01*
X79810320Y-76114878D01*
X79764833Y-76114838D01*
X79421057Y-76256883D01*
X79157808Y-76519673D01*
X79015162Y-76863201D01*
X79014838Y-77235167D01*
X79156883Y-77578943D01*
X79419673Y-77842192D01*
X79763201Y-77984838D01*
X80135167Y-77985162D01*
X80478943Y-77843117D01*
X80742192Y-77580327D01*
X80884838Y-77236799D01*
X80884879Y-77189923D01*
X85887401Y-72187401D01*
X86052148Y-71940840D01*
X86110000Y-71650000D01*
X86110000Y-70561996D01*
X86382302Y-70659144D01*
X86937368Y-70631362D01*
X87090000Y-70568140D01*
X87090000Y-73185198D01*
X84510320Y-75764878D01*
X84464833Y-75764838D01*
X84121057Y-75906883D01*
X83857808Y-76169673D01*
X83715162Y-76513201D01*
X83714838Y-76885167D01*
X83856883Y-77228943D01*
X84119673Y-77492192D01*
X84463201Y-77634838D01*
X84835167Y-77635162D01*
X85178943Y-77493117D01*
X85442192Y-77230327D01*
X85584838Y-76886799D01*
X85584879Y-76839923D01*
X88387401Y-74037401D01*
X88552148Y-73790840D01*
X88610000Y-73500000D01*
X88610000Y-71935750D01*
X89965000Y-71935750D01*
X89965000Y-72576310D01*
X90061673Y-72809699D01*
X90240302Y-72988327D01*
X90473691Y-73085000D01*
X91114250Y-73085000D01*
X91273000Y-72926250D01*
X91273000Y-71777000D01*
X90123750Y-71777000D01*
X89965000Y-71935750D01*
X88610000Y-71935750D01*
X88610000Y-70723690D01*
X89965000Y-70723690D01*
X89965000Y-71364250D01*
X90123750Y-71523000D01*
X91273000Y-71523000D01*
X91273000Y-70373750D01*
X91527000Y-70373750D01*
X91527000Y-71523000D01*
X91547000Y-71523000D01*
X91547000Y-71777000D01*
X91527000Y-71777000D01*
X91527000Y-72926250D01*
X91685750Y-73085000D01*
X92326309Y-73085000D01*
X92559698Y-72988327D01*
X92653998Y-72894027D01*
X93113309Y-73084750D01*
X93684187Y-73085248D01*
X94211800Y-72867243D01*
X94615824Y-72463923D01*
X94834750Y-71936691D01*
X94835248Y-71365813D01*
X94617243Y-70838200D01*
X94213923Y-70434176D01*
X93686691Y-70215250D01*
X93115813Y-70214752D01*
X92653713Y-70405688D01*
X92559698Y-70311673D01*
X92326309Y-70215000D01*
X91685750Y-70215000D01*
X91527000Y-70373750D01*
X91273000Y-70373750D01*
X91114250Y-70215000D01*
X90473691Y-70215000D01*
X90240302Y-70311673D01*
X90061673Y-70490301D01*
X89965000Y-70723690D01*
X88610000Y-70723690D01*
X88610000Y-64566727D01*
X88850900Y-64666757D01*
X89406661Y-64667242D01*
X89920303Y-64455010D01*
X90216830Y-64159000D01*
X92559764Y-64159000D01*
X95704290Y-67303526D01*
G36*
X86783748Y-69235858D02*
X86769605Y-69250000D01*
X86783748Y-69264143D01*
X86604143Y-69443748D01*
X86590000Y-69429605D01*
X86575858Y-69443748D01*
X86396253Y-69264143D01*
X86410395Y-69250000D01*
X86396253Y-69235858D01*
X86575858Y-69056253D01*
X86590000Y-69070395D01*
X86604143Y-69056253D01*
X86783748Y-69235858D01*
X86783748Y-69235858D01*
G37*
X86783748Y-69235858D02*
X86769605Y-69250000D01*
X86783748Y-69264143D01*
X86604143Y-69443748D01*
X86590000Y-69429605D01*
X86575858Y-69443748D01*
X86396253Y-69264143D01*
X86410395Y-69250000D01*
X86396253Y-69235858D01*
X86575858Y-69056253D01*
X86590000Y-69070395D01*
X86604143Y-69056253D01*
X86783748Y-69235858D01*
G36*
X86783748Y-63255858D02*
X86769605Y-63270000D01*
X86783748Y-63284143D01*
X86604143Y-63463748D01*
X86590000Y-63449605D01*
X86575858Y-63463748D01*
X86396253Y-63284143D01*
X86410395Y-63270000D01*
X86396253Y-63255858D01*
X86575858Y-63076253D01*
X86590000Y-63090395D01*
X86604143Y-63076253D01*
X86783748Y-63255858D01*
X86783748Y-63255858D01*
G37*
X86783748Y-63255858D02*
X86769605Y-63270000D01*
X86783748Y-63284143D01*
X86604143Y-63463748D01*
X86590000Y-63449605D01*
X86575858Y-63463748D01*
X86396253Y-63284143D01*
X86410395Y-63270000D01*
X86396253Y-63255858D01*
X86575858Y-63076253D01*
X86590000Y-63090395D01*
X86604143Y-63076253D01*
X86783748Y-63255858D01*
G36*
X84243748Y-63255858D02*
X84229605Y-63270000D01*
X84243748Y-63284143D01*
X84064143Y-63463748D01*
X84050000Y-63449605D01*
X84035858Y-63463748D01*
X83856253Y-63284143D01*
X83870395Y-63270000D01*
X83856253Y-63255858D01*
X84035858Y-63076253D01*
X84050000Y-63090395D01*
X84064143Y-63076253D01*
X84243748Y-63255858D01*
X84243748Y-63255858D01*
G37*
X84243748Y-63255858D02*
X84229605Y-63270000D01*
X84243748Y-63284143D01*
X84064143Y-63463748D01*
X84050000Y-63449605D01*
X84035858Y-63463748D01*
X83856253Y-63284143D01*
X83870395Y-63270000D01*
X83856253Y-63255858D01*
X84035858Y-63076253D01*
X84050000Y-63090395D01*
X84064143Y-63076253D01*
X84243748Y-63255858D01*
G36*
X81703748Y-63255858D02*
X81689605Y-63270000D01*
X81703748Y-63284143D01*
X81524143Y-63463748D01*
X81510000Y-63449605D01*
X81495858Y-63463748D01*
X81316253Y-63284143D01*
X81330395Y-63270000D01*
X81316253Y-63255858D01*
X81495858Y-63076253D01*
X81510000Y-63090395D01*
X81524143Y-63076253D01*
X81703748Y-63255858D01*
X81703748Y-63255858D01*
G37*
X81703748Y-63255858D02*
X81689605Y-63270000D01*
X81703748Y-63284143D01*
X81524143Y-63463748D01*
X81510000Y-63449605D01*
X81495858Y-63463748D01*
X81316253Y-63284143D01*
X81330395Y-63270000D01*
X81316253Y-63255858D01*
X81495858Y-63076253D01*
X81510000Y-63090395D01*
X81524143Y-63076253D01*
X81703748Y-63255858D01*
G36*
X86783748Y-60715858D02*
X86769605Y-60730000D01*
X86783748Y-60744143D01*
X86604143Y-60923748D01*
X86590000Y-60909605D01*
X86575858Y-60923748D01*
X86396253Y-60744143D01*
X86410395Y-60730000D01*
X86396253Y-60715858D01*
X86575858Y-60536253D01*
X86590000Y-60550395D01*
X86604143Y-60536253D01*
X86783748Y-60715858D01*
X86783748Y-60715858D01*
G37*
X86783748Y-60715858D02*
X86769605Y-60730000D01*
X86783748Y-60744143D01*
X86604143Y-60923748D01*
X86590000Y-60909605D01*
X86575858Y-60923748D01*
X86396253Y-60744143D01*
X86410395Y-60730000D01*
X86396253Y-60715858D01*
X86575858Y-60536253D01*
X86590000Y-60550395D01*
X86604143Y-60536253D01*
X86783748Y-60715858D01*
G36*
X81703748Y-60715858D02*
X81689605Y-60730000D01*
X81703748Y-60744143D01*
X81524143Y-60923748D01*
X81510000Y-60909605D01*
X81495858Y-60923748D01*
X81316253Y-60744143D01*
X81330395Y-60730000D01*
X81316253Y-60715858D01*
X81495858Y-60536253D01*
X81510000Y-60550395D01*
X81524143Y-60536253D01*
X81703748Y-60715858D01*
X81703748Y-60715858D01*
G37*
X81703748Y-60715858D02*
X81689605Y-60730000D01*
X81703748Y-60744143D01*
X81524143Y-60923748D01*
X81510000Y-60909605D01*
X81495858Y-60923748D01*
X81316253Y-60744143D01*
X81330395Y-60730000D01*
X81316253Y-60715858D01*
X81495858Y-60536253D01*
X81510000Y-60550395D01*
X81524143Y-60536253D01*
X81703748Y-60715858D01*
G36*
X84243748Y-60715858D02*
X84229605Y-60730000D01*
X84243748Y-60744143D01*
X84064143Y-60923748D01*
X84050000Y-60909605D01*
X84035858Y-60923748D01*
X83856253Y-60744143D01*
X83870395Y-60730000D01*
X83856253Y-60715858D01*
X84035858Y-60536253D01*
X84050000Y-60550395D01*
X84064143Y-60536253D01*
X84243748Y-60715858D01*
X84243748Y-60715858D01*
G37*
X84243748Y-60715858D02*
X84229605Y-60730000D01*
X84243748Y-60744143D01*
X84064143Y-60923748D01*
X84050000Y-60909605D01*
X84035858Y-60923748D01*
X83856253Y-60744143D01*
X83870395Y-60730000D01*
X83856253Y-60715858D01*
X84035858Y-60536253D01*
X84050000Y-60550395D01*
X84064143Y-60536253D01*
X84243748Y-60715858D01*
G36*
X88927600Y-52187598D02*
X88656408Y-52458790D01*
X88290000Y-52385907D01*
X87721715Y-52498946D01*
X87239946Y-52820853D01*
X87012298Y-53161553D01*
X86945183Y-53018642D01*
X86516924Y-52628355D01*
X86106890Y-52458524D01*
X85877000Y-52579845D01*
X85877000Y-53773000D01*
X85897000Y-53773000D01*
X85897000Y-54027000D01*
X85877000Y-54027000D01*
X85877000Y-55220155D01*
X86106890Y-55341476D01*
X86516924Y-55171645D01*
X86945183Y-54781358D01*
X87012298Y-54638447D01*
X87239946Y-54979147D01*
X87721715Y-55301054D01*
X88249217Y-55405981D01*
X84812599Y-58842599D01*
X84647852Y-59089161D01*
X84590000Y-59380000D01*
X84590000Y-59439410D01*
X84257698Y-59320856D01*
X83702632Y-59348638D01*
X83560000Y-59407718D01*
X83560000Y-55826883D01*
X83747401Y-55639482D01*
X83912148Y-55392920D01*
X83953741Y-55183818D01*
X84260054Y-54979147D01*
X84487702Y-54638447D01*
X84554817Y-54781358D01*
X84983076Y-55171645D01*
X85393110Y-55341476D01*
X85623000Y-55220155D01*
X85623000Y-54027000D01*
X85603000Y-54027000D01*
X85603000Y-53773000D01*
X85623000Y-53773000D01*
X85623000Y-52579845D01*
X85393110Y-52458524D01*
X84983076Y-52628355D01*
X84554817Y-53018642D01*
X84487702Y-53161553D01*
X84260054Y-52820853D01*
X83778285Y-52498946D01*
X83210000Y-52385907D01*
X82641715Y-52498946D01*
X82159946Y-52820853D01*
X81940000Y-53150026D01*
X81720054Y-52820853D01*
X81238285Y-52498946D01*
X80670000Y-52385907D01*
X80101715Y-52498946D01*
X79619946Y-52820853D01*
X79400000Y-53150026D01*
X79180054Y-52820853D01*
X78698285Y-52498946D01*
X78130000Y-52385907D01*
X77561715Y-52498946D01*
X77079946Y-52820853D01*
X76860000Y-53150026D01*
X76640054Y-52820853D01*
X76158285Y-52498946D01*
X75590000Y-52385907D01*
X75021715Y-52498946D01*
X74539946Y-52820853D01*
X74512150Y-52862452D01*
X74503162Y-52814683D01*
X74364090Y-52598559D01*
X74151890Y-52453569D01*
X73900000Y-52402560D01*
X72200000Y-52402560D01*
X71964683Y-52446838D01*
X71748559Y-52585910D01*
X71603569Y-52798110D01*
X71552560Y-53050000D01*
X71552560Y-54750000D01*
X71596838Y-54985317D01*
X71735910Y-55201441D01*
X71948110Y-55346431D01*
X72200000Y-55397440D01*
X73900000Y-55397440D01*
X74135317Y-55353162D01*
X74351441Y-55214090D01*
X74496431Y-55001890D01*
X74510086Y-54934459D01*
X74539946Y-54979147D01*
X74830000Y-55172954D01*
X74830000Y-57945198D01*
X73397440Y-59377758D01*
X73397440Y-57700000D01*
X73353162Y-57464683D01*
X73214090Y-57248559D01*
X73001890Y-57103569D01*
X72750000Y-57052560D01*
X70550000Y-57052560D01*
X70516420Y-57058879D01*
X70516420Y-52085000D01*
X89081149Y-52085000D01*
X88927600Y-52187598D01*
X88927600Y-52187598D01*
G37*
X88927600Y-52187598D02*
X88656408Y-52458790D01*
X88290000Y-52385907D01*
X87721715Y-52498946D01*
X87239946Y-52820853D01*
X87012298Y-53161553D01*
X86945183Y-53018642D01*
X86516924Y-52628355D01*
X86106890Y-52458524D01*
X85877000Y-52579845D01*
X85877000Y-53773000D01*
X85897000Y-53773000D01*
X85897000Y-54027000D01*
X85877000Y-54027000D01*
X85877000Y-55220155D01*
X86106890Y-55341476D01*
X86516924Y-55171645D01*
X86945183Y-54781358D01*
X87012298Y-54638447D01*
X87239946Y-54979147D01*
X87721715Y-55301054D01*
X88249217Y-55405981D01*
X84812599Y-58842599D01*
X84647852Y-59089161D01*
X84590000Y-59380000D01*
X84590000Y-59439410D01*
X84257698Y-59320856D01*
X83702632Y-59348638D01*
X83560000Y-59407718D01*
X83560000Y-55826883D01*
X83747401Y-55639482D01*
X83912148Y-55392920D01*
X83953741Y-55183818D01*
X84260054Y-54979147D01*
X84487702Y-54638447D01*
X84554817Y-54781358D01*
X84983076Y-55171645D01*
X85393110Y-55341476D01*
X85623000Y-55220155D01*
X85623000Y-54027000D01*
X85603000Y-54027000D01*
X85603000Y-53773000D01*
X85623000Y-53773000D01*
X85623000Y-52579845D01*
X85393110Y-52458524D01*
X84983076Y-52628355D01*
X84554817Y-53018642D01*
X84487702Y-53161553D01*
X84260054Y-52820853D01*
X83778285Y-52498946D01*
X83210000Y-52385907D01*
X82641715Y-52498946D01*
X82159946Y-52820853D01*
X81940000Y-53150026D01*
X81720054Y-52820853D01*
X81238285Y-52498946D01*
X80670000Y-52385907D01*
X80101715Y-52498946D01*
X79619946Y-52820853D01*
X79400000Y-53150026D01*
X79180054Y-52820853D01*
X78698285Y-52498946D01*
X78130000Y-52385907D01*
X77561715Y-52498946D01*
X77079946Y-52820853D01*
X76860000Y-53150026D01*
X76640054Y-52820853D01*
X76158285Y-52498946D01*
X75590000Y-52385907D01*
X75021715Y-52498946D01*
X74539946Y-52820853D01*
X74512150Y-52862452D01*
X74503162Y-52814683D01*
X74364090Y-52598559D01*
X74151890Y-52453569D01*
X73900000Y-52402560D01*
X72200000Y-52402560D01*
X71964683Y-52446838D01*
X71748559Y-52585910D01*
X71603569Y-52798110D01*
X71552560Y-53050000D01*
X71552560Y-54750000D01*
X71596838Y-54985317D01*
X71735910Y-55201441D01*
X71948110Y-55346431D01*
X72200000Y-55397440D01*
X73900000Y-55397440D01*
X74135317Y-55353162D01*
X74351441Y-55214090D01*
X74496431Y-55001890D01*
X74510086Y-54934459D01*
X74539946Y-54979147D01*
X74830000Y-55172954D01*
X74830000Y-57945198D01*
X73397440Y-59377758D01*
X73397440Y-57700000D01*
X73353162Y-57464683D01*
X73214090Y-57248559D01*
X73001890Y-57103569D01*
X72750000Y-57052560D01*
X70550000Y-57052560D01*
X70516420Y-57058879D01*
X70516420Y-52085000D01*
X89081149Y-52085000D01*
X88927600Y-52187598D01*
M02*
